%TF.GenerationSoftware,KiCad,Pcbnew,9.0.6*%
%TF.CreationDate,2026-01-10T20:09:33+01:00*%
%TF.ProjectId,nowyprojekt,6e6f7779-7072-46f6-9a65-6b742e6b6963,rev?*%
%TF.SameCoordinates,Original*%
%TF.FileFunction,Soldermask,Bot*%
%TF.FilePolarity,Negative*%
%FSLAX46Y46*%
G04 Gerber Fmt 4.6, Leading zero omitted, Abs format (unit mm)*
G04 Created by KiCad (PCBNEW 9.0.6) date 2026-01-10 20:09:33*
%MOMM*%
%LPD*%
G01*
G04 APERTURE LIST*
G04 Aperture macros list*
%AMRoundRect*
0 Rectangle with rounded corners*
0 $1 Rounding radius*
0 $2 $3 $4 $5 $6 $7 $8 $9 X,Y pos of 4 corners*
0 Add a 4 corners polygon primitive as box body*
4,1,4,$2,$3,$4,$5,$6,$7,$8,$9,$2,$3,0*
0 Add four circle primitives for the rounded corners*
1,1,$1+$1,$2,$3*
1,1,$1+$1,$4,$5*
1,1,$1+$1,$6,$7*
1,1,$1+$1,$8,$9*
0 Add four rect primitives between the rounded corners*
20,1,$1+$1,$2,$3,$4,$5,0*
20,1,$1+$1,$4,$5,$6,$7,0*
20,1,$1+$1,$6,$7,$8,$9,0*
20,1,$1+$1,$8,$9,$2,$3,0*%
G04 Aperture macros list end*
%ADD10R,1.700000X1.700000*%
%ADD11C,1.700000*%
%ADD12RoundRect,0.225000X-0.250000X0.225000X-0.250000X-0.225000X0.250000X-0.225000X0.250000X0.225000X0*%
%ADD13RoundRect,0.225000X0.250000X-0.225000X0.250000X0.225000X-0.250000X0.225000X-0.250000X-0.225000X0*%
G04 APERTURE END LIST*
D10*
%TO.C,J4*%
X133620000Y-64200000D03*
D11*
X136160000Y-64200000D03*
X138700000Y-64200000D03*
X141240000Y-64200000D03*
X143780000Y-64200000D03*
X146320000Y-64200000D03*
X148860000Y-64200000D03*
X151400000Y-64200000D03*
X153940000Y-64200000D03*
X156480000Y-64200000D03*
X159020000Y-64200000D03*
X161560000Y-64200000D03*
X164100000Y-64200000D03*
X166640000Y-64200000D03*
X169180000Y-64200000D03*
%TD*%
D10*
%TO.C,J3*%
X133480000Y-35200000D03*
D11*
X136020000Y-35200000D03*
X138560000Y-35200000D03*
X141100000Y-35200000D03*
X143640000Y-35200000D03*
X146180000Y-35200000D03*
X148720000Y-35200000D03*
X151260000Y-35200000D03*
X153800000Y-35200000D03*
X156340000Y-35200000D03*
X158880000Y-35200000D03*
X161420000Y-35200000D03*
X163960000Y-35200000D03*
X166500000Y-35200000D03*
X169040000Y-35200000D03*
%TD*%
D10*
%TO.C,J1*%
X191750000Y-35725000D03*
D11*
X191750000Y-38265000D03*
%TD*%
D10*
%TO.C,J2*%
X138250000Y-52250000D03*
D11*
X138250000Y-54790000D03*
X138250000Y-57330000D03*
%TD*%
D12*
%TO.C,C10*%
X144220000Y-49070000D03*
X144220000Y-50620000D03*
%TD*%
D13*
%TO.C,C5*%
X144620000Y-53620000D03*
X144620000Y-52070000D03*
%TD*%
%TO.C,C7*%
X160020000Y-52420000D03*
X160020000Y-50870000D03*
%TD*%
M02*
