%TF.GenerationSoftware,KiCad,Pcbnew,9.0.6*%
%TF.CreationDate,2026-01-10T20:09:33+01:00*%
%TF.ProjectId,nowyprojekt,6e6f7779-7072-46f6-9a65-6b742e6b6963,rev?*%
%TF.SameCoordinates,Original*%
%TF.FileFunction,Copper,L1,Top*%
%TF.FilePolarity,Positive*%
%FSLAX46Y46*%
G04 Gerber Fmt 4.6, Leading zero omitted, Abs format (unit mm)*
G04 Created by KiCad (PCBNEW 9.0.6) date 2026-01-10 20:09:33*
%MOMM*%
%LPD*%
G01*
G04 APERTURE LIST*
G04 Aperture macros list*
%AMRoundRect*
0 Rectangle with rounded corners*
0 $1 Rounding radius*
0 $2 $3 $4 $5 $6 $7 $8 $9 X,Y pos of 4 corners*
0 Add a 4 corners polygon primitive as box body*
4,1,4,$2,$3,$4,$5,$6,$7,$8,$9,$2,$3,0*
0 Add four circle primitives for the rounded corners*
1,1,$1+$1,$2,$3*
1,1,$1+$1,$4,$5*
1,1,$1+$1,$6,$7*
1,1,$1+$1,$8,$9*
0 Add four rect primitives between the rounded corners*
20,1,$1+$1,$2,$3,$4,$5,0*
20,1,$1+$1,$4,$5,$6,$7,0*
20,1,$1+$1,$6,$7,$8,$9,0*
20,1,$1+$1,$8,$9,$2,$3,0*%
G04 Aperture macros list end*
%TA.AperFunction,SMDPad,CuDef*%
%ADD10RoundRect,0.250000X0.785000X0.945000X-0.785000X0.945000X-0.785000X-0.945000X0.785000X-0.945000X0*%
%TD*%
%TA.AperFunction,SMDPad,CuDef*%
%ADD11RoundRect,0.250000X0.350000X-0.850000X0.350000X0.850000X-0.350000X0.850000X-0.350000X-0.850000X0*%
%TD*%
%TA.AperFunction,SMDPad,CuDef*%
%ADD12RoundRect,0.249997X2.650003X-2.950003X2.650003X2.950003X-2.650003X2.950003X-2.650003X-2.950003X0*%
%TD*%
%TA.AperFunction,SMDPad,CuDef*%
%ADD13RoundRect,0.243750X0.243750X0.456250X-0.243750X0.456250X-0.243750X-0.456250X0.243750X-0.456250X0*%
%TD*%
%TA.AperFunction,ComponentPad*%
%ADD14R,1.700000X1.700000*%
%TD*%
%TA.AperFunction,ComponentPad*%
%ADD15C,1.700000*%
%TD*%
%TA.AperFunction,SMDPad,CuDef*%
%ADD16RoundRect,0.225000X0.250000X-0.225000X0.250000X0.225000X-0.250000X0.225000X-0.250000X-0.225000X0*%
%TD*%
%TA.AperFunction,SMDPad,CuDef*%
%ADD17RoundRect,0.200000X0.200000X0.275000X-0.200000X0.275000X-0.200000X-0.275000X0.200000X-0.275000X0*%
%TD*%
%TA.AperFunction,SMDPad,CuDef*%
%ADD18RoundRect,0.225000X-0.225000X-0.250000X0.225000X-0.250000X0.225000X0.250000X-0.225000X0.250000X0*%
%TD*%
%TA.AperFunction,SMDPad,CuDef*%
%ADD19RoundRect,0.250000X-0.945000X0.785000X-0.945000X-0.785000X0.945000X-0.785000X0.945000X0.785000X0*%
%TD*%
%TA.AperFunction,SMDPad,CuDef*%
%ADD20RoundRect,0.250000X0.275000X0.700000X-0.275000X0.700000X-0.275000X-0.700000X0.275000X-0.700000X0*%
%TD*%
%TA.AperFunction,SMDPad,CuDef*%
%ADD21RoundRect,0.137500X-0.600000X-0.137500X0.600000X-0.137500X0.600000X0.137500X-0.600000X0.137500X0*%
%TD*%
%TA.AperFunction,SMDPad,CuDef*%
%ADD22RoundRect,0.137500X-0.137500X-0.600000X0.137500X-0.600000X0.137500X0.600000X-0.137500X0.600000X0*%
%TD*%
%TA.AperFunction,SMDPad,CuDef*%
%ADD23RoundRect,0.225000X-0.250000X0.225000X-0.250000X-0.225000X0.250000X-0.225000X0.250000X0.225000X0*%
%TD*%
%TA.AperFunction,SMDPad,CuDef*%
%ADD24RoundRect,0.200000X0.275000X-0.200000X0.275000X0.200000X-0.275000X0.200000X-0.275000X-0.200000X0*%
%TD*%
%TA.AperFunction,SMDPad,CuDef*%
%ADD25RoundRect,0.225000X0.225000X0.250000X-0.225000X0.250000X-0.225000X-0.250000X0.225000X-0.250000X0*%
%TD*%
%TA.AperFunction,ViaPad*%
%ADD26C,0.600000*%
%TD*%
%TA.AperFunction,Conductor*%
%ADD27C,0.200000*%
%TD*%
%TA.AperFunction,Conductor*%
%ADD28C,0.800000*%
%TD*%
%TA.AperFunction,Conductor*%
%ADD29C,0.600000*%
%TD*%
%TA.AperFunction,Conductor*%
%ADD30C,0.400000*%
%TD*%
G04 APERTURE END LIST*
D10*
%TO.P,C3,1*%
%TO.N,+5V*%
X181720000Y-50000000D03*
%TO.P,C3,2*%
%TO.N,GND*%
X176780000Y-50000000D03*
%TD*%
D11*
%TO.P,U3,1,GND*%
%TO.N,GND*%
X180995000Y-43975000D03*
%TO.P,U3,2,VO*%
%TO.N,+5V*%
X183275000Y-43975000D03*
D12*
X183275000Y-37675000D03*
D11*
%TO.P,U3,3,VI*%
%TO.N,VIN*%
X185555000Y-43975000D03*
%TD*%
D13*
%TO.P,D1,1,K*%
%TO.N,GND*%
X189937500Y-52500000D03*
%TO.P,D1,2,A*%
%TO.N,Net-(D1-A)*%
X188062500Y-52500000D03*
%TD*%
D14*
%TO.P,J4,1,Pin_1*%
%TO.N,GND*%
X133620000Y-64200000D03*
D15*
%TO.P,J4,2,Pin_2*%
X136160000Y-64200000D03*
%TO.P,J4,3,Pin_3*%
X138700000Y-64200000D03*
%TO.P,J4,4,Pin_4*%
X141240000Y-64200000D03*
%TO.P,J4,5,Pin_5*%
%TO.N,PD5*%
X143780000Y-64200000D03*
%TO.P,J4,6,Pin_6*%
%TO.N,PD6*%
X146320000Y-64200000D03*
%TO.P,J4,7,Pin_7*%
%TO.N,PD7*%
X148860000Y-64200000D03*
%TO.P,J4,8,Pin_8*%
%TO.N,+5V*%
X151400000Y-64200000D03*
%TO.P,J4,9,Pin_9*%
%TO.N,PB0*%
X153940000Y-64200000D03*
%TO.P,J4,10,Pin_10*%
%TO.N,PB1*%
X156480000Y-64200000D03*
%TO.P,J4,11,Pin_11*%
%TO.N,PB2*%
X159020000Y-64200000D03*
%TO.P,J4,12,Pin_12*%
%TO.N,PB3*%
X161560000Y-64200000D03*
%TO.P,J4,13,Pin_13*%
%TO.N,PB4*%
X164100000Y-64200000D03*
%TO.P,J4,14,Pin_14*%
%TO.N,PB5*%
X166640000Y-64200000D03*
%TO.P,J4,15,Pin_15*%
%TO.N,ADC1*%
X169180000Y-64200000D03*
%TD*%
D16*
%TO.P,C9,1*%
%TO.N,Net-(J2-Pin_1)*%
X143820000Y-52020000D03*
%TO.P,C9,2*%
%TO.N,GND*%
X143820000Y-50470000D03*
%TD*%
D17*
%TO.P,R1,1*%
%TO.N,PC6*%
X151225000Y-39800000D03*
%TO.P,R1,2*%
%TO.N,+5V*%
X149575000Y-39800000D03*
%TD*%
D18*
%TO.P,C6,1*%
%TO.N,Net-(U2-AVCC)*%
X160225000Y-54400000D03*
%TO.P,C6,2*%
%TO.N,GND*%
X161775000Y-54400000D03*
%TD*%
D19*
%TO.P,C4,1*%
%TO.N,VIN*%
X193000000Y-42780000D03*
%TO.P,C4,2*%
%TO.N,GND*%
X193000000Y-47720000D03*
%TD*%
D20*
%TO.P,L1,1,1*%
%TO.N,+5V*%
X164375000Y-56800000D03*
%TO.P,L1,2,2*%
%TO.N,Net-(U2-AVCC)*%
X161225000Y-56800000D03*
%TD*%
D14*
%TO.P,J3,1,Pin_1*%
%TO.N,+5V*%
X133480000Y-35200000D03*
D15*
%TO.P,J3,2,Pin_2*%
%TO.N,GND*%
X136020000Y-35200000D03*
%TO.P,J3,3,Pin_3*%
%TO.N,PD4*%
X138560000Y-35200000D03*
%TO.P,J3,4,Pin_4*%
%TO.N,PD3*%
X141100000Y-35200000D03*
%TO.P,J3,5,Pin_5*%
%TO.N,PD2*%
X143640000Y-35200000D03*
%TO.P,J3,6,Pin_6*%
%TO.N,PD1*%
X146180000Y-35200000D03*
%TO.P,J3,7,Pin_7*%
%TO.N,PD0*%
X148720000Y-35200000D03*
%TO.P,J3,8,Pin_8*%
%TO.N,PC6*%
X151260000Y-35200000D03*
%TO.P,J3,9,Pin_9*%
%TO.N,PC5*%
X153800000Y-35200000D03*
%TO.P,J3,10,Pin_10*%
%TO.N,PC4*%
X156340000Y-35200000D03*
%TO.P,J3,11,Pin_11*%
%TO.N,PC3*%
X158880000Y-35200000D03*
%TO.P,J3,12,Pin_12*%
%TO.N,PC2*%
X161420000Y-35200000D03*
%TO.P,J3,13,Pin_13*%
%TO.N,PC1*%
X163960000Y-35200000D03*
%TO.P,J3,14,Pin_14*%
%TO.N,PC0*%
X166500000Y-35200000D03*
%TO.P,J3,15,Pin_15*%
%TO.N,ADC2*%
X169040000Y-35200000D03*
%TD*%
D21*
%TO.P,U2,1,PD3*%
%TO.N,PD3*%
X147907500Y-48857500D03*
%TO.P,U2,2,PD4*%
%TO.N,PD4*%
X147907500Y-49657500D03*
%TO.P,U2,3,GND*%
%TO.N,GND*%
X147907500Y-50457500D03*
%TO.P,U2,4,VCC*%
%TO.N,+5V*%
X147907500Y-51257500D03*
%TO.P,U2,5,GND*%
%TO.N,GND*%
X147907500Y-52057500D03*
%TO.P,U2,6,VCC*%
%TO.N,+5V*%
X147907500Y-52857500D03*
%TO.P,U2,7,XTAL1/PB6*%
%TO.N,Net-(J2-Pin_1)*%
X147907500Y-53657500D03*
%TO.P,U2,8,XTAL2/PB7*%
%TO.N,Net-(J2-Pin_3)*%
X147907500Y-54457500D03*
D22*
%TO.P,U2,9,PD5*%
%TO.N,PD5*%
X149270000Y-55820000D03*
%TO.P,U2,10,PD6*%
%TO.N,PD6*%
X150070000Y-55820000D03*
%TO.P,U2,11,PD7*%
%TO.N,PD7*%
X150870000Y-55820000D03*
%TO.P,U2,12,PB0*%
%TO.N,PB0*%
X151670000Y-55820000D03*
%TO.P,U2,13,PB1*%
%TO.N,PB1*%
X152470000Y-55820000D03*
%TO.P,U2,14,PB2*%
%TO.N,PB2*%
X153270000Y-55820000D03*
%TO.P,U2,15,PB3*%
%TO.N,PB3*%
X154070000Y-55820000D03*
%TO.P,U2,16,PB4*%
%TO.N,PB4*%
X154870000Y-55820000D03*
D21*
%TO.P,U2,17,PB5*%
%TO.N,PB5*%
X156232500Y-54457500D03*
%TO.P,U2,18,AVCC*%
%TO.N,Net-(U2-AVCC)*%
X156232500Y-53657500D03*
%TO.P,U2,19,ADC6*%
%TO.N,ADC1*%
X156232500Y-52857500D03*
%TO.P,U2,20,AREF*%
%TO.N,Net-(U2-AREF)*%
X156232500Y-52057500D03*
%TO.P,U2,21,GND*%
%TO.N,GND*%
X156232500Y-51257500D03*
%TO.P,U2,22,ADC7*%
%TO.N,ADC2*%
X156232500Y-50457500D03*
%TO.P,U2,23,PC0*%
%TO.N,PC0*%
X156232500Y-49657500D03*
%TO.P,U2,24,PC1*%
%TO.N,PC1*%
X156232500Y-48857500D03*
D22*
%TO.P,U2,25,PC2*%
%TO.N,PC2*%
X154870000Y-47495000D03*
%TO.P,U2,26,PC3*%
%TO.N,PC3*%
X154070000Y-47495000D03*
%TO.P,U2,27,PC4*%
%TO.N,PC4*%
X153270000Y-47495000D03*
%TO.P,U2,28,PC5*%
%TO.N,PC5*%
X152470000Y-47495000D03*
%TO.P,U2,29,~{RESET}/PC6*%
%TO.N,PC6*%
X151670000Y-47495000D03*
%TO.P,U2,30,PD0*%
%TO.N,PD0*%
X150870000Y-47495000D03*
%TO.P,U2,31,PD1*%
%TO.N,PD1*%
X150070000Y-47495000D03*
%TO.P,U2,32,PD2*%
%TO.N,PD2*%
X149270000Y-47495000D03*
%TD*%
D14*
%TO.P,J1,1,Pin_1*%
%TO.N,VIN*%
X191750000Y-35725000D03*
D15*
%TO.P,J1,2,Pin_2*%
%TO.N,GND*%
X191750000Y-38265000D03*
%TD*%
D23*
%TO.P,C8,1*%
%TO.N,GND*%
X142220000Y-52445000D03*
%TO.P,C8,2*%
%TO.N,Net-(J2-Pin_3)*%
X142220000Y-53995000D03*
%TD*%
%TO.P,C1,1*%
%TO.N,VIN*%
X185000000Y-46475000D03*
%TO.P,C1,2*%
%TO.N,GND*%
X185000000Y-48025000D03*
%TD*%
D24*
%TO.P,R2,1*%
%TO.N,Net-(D1-A)*%
X185250000Y-51325000D03*
%TO.P,R2,2*%
%TO.N,+5V*%
X185250000Y-49675000D03*
%TD*%
D25*
%TO.P,C2,1*%
%TO.N,+5V*%
X182275000Y-47000000D03*
%TO.P,C2,2*%
%TO.N,GND*%
X180725000Y-47000000D03*
%TD*%
D14*
%TO.P,J2,1,Pin_1*%
%TO.N,Net-(J2-Pin_1)*%
X138250000Y-52250000D03*
D15*
%TO.P,J2,2,Pin_2*%
%TO.N,unconnected-(J2-Pin_2-Pad2)*%
X138250000Y-54790000D03*
%TO.P,J2,3,Pin_3*%
%TO.N,Net-(J2-Pin_3)*%
X138250000Y-57330000D03*
%TD*%
D26*
%TO.N,Net-(J2-Pin_3)*%
X141750000Y-56700000D03*
%TO.N,Net-(J2-Pin_1)*%
X143400000Y-53395000D03*
%TO.N,+5V*%
X146020000Y-53245000D03*
X150000000Y-43200000D03*
X150800000Y-60000000D03*
X146020000Y-50845000D03*
X183510000Y-46550000D03*
X167420000Y-55820000D03*
X134000000Y-40600000D03*
%TO.N,GND*%
X175760000Y-47300000D03*
X142600000Y-59800000D03*
X134800000Y-59600000D03*
X192000000Y-49750000D03*
X158620000Y-50845000D03*
X137000000Y-60000000D03*
X139800000Y-60000000D03*
X186500000Y-48250000D03*
X146220000Y-52045000D03*
X137200000Y-41200000D03*
X145620000Y-49445000D03*
X190260000Y-40800000D03*
X164400000Y-54800000D03*
X149620000Y-53020000D03*
X149820000Y-51220000D03*
X179010000Y-43550000D03*
X153820000Y-52220000D03*
%TO.N,Net-(U2-AREF)*%
X158595000Y-52420000D03*
%TD*%
D27*
%TO.N,Net-(J2-Pin_3)*%
X141750000Y-56690000D02*
X141750000Y-56700000D01*
X142220000Y-56220000D02*
X141750000Y-56690000D01*
%TO.N,PD3*%
X141100000Y-42050000D02*
X141100000Y-35200000D01*
X147907500Y-48857500D02*
X141100000Y-42050000D01*
%TO.N,Net-(J2-Pin_1)*%
X143645000Y-53395000D02*
X143400000Y-53395000D01*
X143820000Y-53220000D02*
X143645000Y-53395000D01*
D28*
%TO.N,VIN*%
X185555000Y-43975000D02*
X185555000Y-45920000D01*
X187330000Y-45920000D02*
X185555000Y-45920000D01*
X188700000Y-44550000D02*
X187330000Y-45920000D01*
X193000000Y-42780000D02*
X190780000Y-42780000D01*
X188760000Y-36550000D02*
X188760000Y-44550000D01*
X191750000Y-35725000D02*
X189585000Y-35725000D01*
X185555000Y-45920000D02*
X185000000Y-46475000D01*
X188760000Y-44550000D02*
X188700000Y-44550000D01*
X190780000Y-42780000D02*
X189010000Y-44550000D01*
X189585000Y-35725000D02*
X188760000Y-36550000D01*
D29*
%TO.N,+5V*%
X184075000Y-49675000D02*
X185250000Y-49675000D01*
D30*
X164375000Y-56800000D02*
X165755000Y-55420000D01*
X151400000Y-64200000D02*
X150800000Y-63600000D01*
D27*
X183250000Y-46000000D02*
X183250000Y-46290000D01*
X183250000Y-46290000D02*
X183510000Y-46550000D01*
D28*
X182275000Y-47365000D02*
X182275000Y-47000000D01*
X182750000Y-46525000D02*
X182275000Y-47000000D01*
D29*
X183750000Y-50000000D02*
X184075000Y-49675000D01*
D27*
X183250000Y-46000000D02*
X183275000Y-45975000D01*
D28*
X181720000Y-47920000D02*
X182275000Y-47365000D01*
X182750000Y-46500000D02*
X182750000Y-46525000D01*
D30*
X146407500Y-52857500D02*
X146020000Y-53245000D01*
X147907500Y-51257500D02*
X146432500Y-51257500D01*
D28*
X183275000Y-45975000D02*
X183275000Y-43975000D01*
X182750000Y-46500000D02*
X183250000Y-46000000D01*
X183275000Y-37675000D02*
X183275000Y-43975000D01*
X181720000Y-47920000D02*
X181720000Y-50000000D01*
X183510000Y-46210000D02*
X183275000Y-45975000D01*
D30*
X133480000Y-35200000D02*
X133480000Y-40080000D01*
X167020000Y-55420000D02*
X165755000Y-55420000D01*
D27*
X149575000Y-42775000D02*
X150000000Y-43200000D01*
X183500000Y-44200000D02*
X183275000Y-43975000D01*
D29*
X181720000Y-50000000D02*
X183750000Y-50000000D01*
D30*
X133480000Y-40080000D02*
X134000000Y-40600000D01*
X147907500Y-52857500D02*
X146407500Y-52857500D01*
X146432500Y-51257500D02*
X146020000Y-50845000D01*
X167020000Y-55420000D02*
X167420000Y-55820000D01*
X150800000Y-63600000D02*
X150800000Y-60000000D01*
D28*
X183510000Y-46550000D02*
X183510000Y-46210000D01*
D27*
X149575000Y-39800000D02*
X149575000Y-42775000D01*
D30*
X147895000Y-52845000D02*
X147907500Y-52857500D01*
%TO.N,GND*%
X145620000Y-49445000D02*
X144845000Y-49445000D01*
D28*
X176780000Y-47970000D02*
X177750000Y-47000000D01*
D30*
X158207500Y-51257500D02*
X158620000Y-50845000D01*
D27*
X142600000Y-60000000D02*
X142600000Y-59800000D01*
D30*
X143820000Y-50470000D02*
X142970000Y-50470000D01*
D28*
X176780000Y-50000000D02*
X176780000Y-47970000D01*
D30*
X157407500Y-51257500D02*
X158207500Y-51257500D01*
X146632500Y-50457500D02*
X145620000Y-49445000D01*
X149232500Y-52057500D02*
X149620000Y-52445000D01*
X149620000Y-52445000D02*
X149620000Y-53020000D01*
X142970000Y-50470000D02*
X142220000Y-51220000D01*
D28*
X180995000Y-43975000D02*
X179435000Y-43975000D01*
X191750000Y-38265000D02*
X190260000Y-39755000D01*
D30*
X136020000Y-40020000D02*
X137200000Y-41200000D01*
D28*
X190260000Y-39755000D02*
X190260000Y-40800000D01*
D30*
X149232500Y-50457500D02*
X149457500Y-50457500D01*
D28*
X180995000Y-45255000D02*
X180725000Y-45525000D01*
D30*
X156232500Y-51257500D02*
X157407500Y-51257500D01*
X147907500Y-52057500D02*
X146232500Y-52057500D01*
D29*
X190750000Y-49750000D02*
X192000000Y-49750000D01*
D30*
X147907500Y-52057500D02*
X149232500Y-52057500D01*
X142220000Y-51220000D02*
X142220000Y-51800000D01*
D28*
X179435000Y-43975000D02*
X179010000Y-43550000D01*
D30*
X154782500Y-51257500D02*
X153820000Y-52220000D01*
D28*
X193000000Y-49250000D02*
X192500000Y-49750000D01*
D30*
X149232500Y-50457500D02*
X147907500Y-50457500D01*
D28*
X177750000Y-47000000D02*
X180725000Y-47000000D01*
D30*
X146232500Y-52057500D02*
X146220000Y-52045000D01*
D28*
X186275000Y-48025000D02*
X186500000Y-48250000D01*
X185000000Y-48025000D02*
X186275000Y-48025000D01*
D30*
X149820000Y-50820000D02*
X149820000Y-51220000D01*
D28*
X180995000Y-43975000D02*
X180995000Y-45255000D01*
D30*
X138700000Y-64200000D02*
X138700000Y-61100000D01*
X138800000Y-61000000D02*
X139800000Y-60000000D01*
D29*
X189937500Y-52500000D02*
X189937500Y-50562500D01*
D30*
X156232500Y-51257500D02*
X154782500Y-51257500D01*
D29*
X189937500Y-50562500D02*
X190750000Y-49750000D01*
D30*
X141240000Y-61360000D02*
X141600000Y-61000000D01*
X149457500Y-50457500D02*
X149820000Y-50820000D01*
X133620000Y-60780000D02*
X134800000Y-59600000D01*
D27*
X138700000Y-61100000D02*
X138800000Y-61000000D01*
D30*
X142220000Y-51800000D02*
X142220000Y-52445000D01*
X136160000Y-64200000D02*
X136160000Y-60840000D01*
X141600000Y-61000000D02*
X142600000Y-60000000D01*
D28*
X176780000Y-47970000D02*
X176430000Y-47970000D01*
D30*
X136160000Y-60840000D02*
X137000000Y-60000000D01*
D27*
X181025000Y-44005000D02*
X180995000Y-43975000D01*
D30*
X164000000Y-54400000D02*
X164400000Y-54800000D01*
D28*
X176430000Y-47970000D02*
X175760000Y-47300000D01*
D30*
X133620000Y-64200000D02*
X133620000Y-60780000D01*
X161775000Y-54400000D02*
X164000000Y-54400000D01*
D28*
X193000000Y-47720000D02*
X193000000Y-49250000D01*
X180725000Y-45525000D02*
X180725000Y-47000000D01*
D30*
X147907500Y-50457500D02*
X146632500Y-50457500D01*
X144845000Y-49445000D02*
X143820000Y-50470000D01*
X136020000Y-40020000D02*
X136020000Y-35200000D01*
X141240000Y-64200000D02*
X141240000Y-61360000D01*
D28*
X192500000Y-49750000D02*
X192000000Y-49750000D01*
D30*
%TO.N,Net-(U2-AVCC)*%
X158440000Y-54400000D02*
X159400000Y-55360000D01*
X158440000Y-54400000D02*
X160225000Y-54400000D01*
X159400000Y-56400000D02*
X159800000Y-56800000D01*
X158420000Y-54420000D02*
X158440000Y-54400000D01*
X159800000Y-56800000D02*
X161225000Y-56800000D01*
X159400000Y-55360000D02*
X159400000Y-56400000D01*
X158420000Y-54420000D02*
X157657500Y-53657500D01*
X157657500Y-53657500D02*
X156232500Y-53657500D01*
%TO.N,Net-(U2-AREF)*%
X158232500Y-52057500D02*
X156232500Y-52057500D01*
X158232500Y-52057500D02*
X158595000Y-52420000D01*
D27*
%TO.N,PC6*%
X151670000Y-44970000D02*
X151225000Y-44525000D01*
X151670000Y-47495000D02*
X151670000Y-44970000D01*
X151260000Y-39765000D02*
X151225000Y-39800000D01*
X151260000Y-35200000D02*
X151260000Y-39765000D01*
X151225000Y-39800000D02*
X151225000Y-44525000D01*
%TO.N,PB5*%
X156232500Y-58032500D02*
X156232500Y-54457500D01*
X164200000Y-59800000D02*
X166640000Y-62240000D01*
X166640000Y-62240000D02*
X166640000Y-64200000D01*
X164200000Y-59800000D02*
X158000000Y-59800000D01*
X158000000Y-59800000D02*
X156232500Y-58032500D01*
%TO.N,PD0*%
X150870000Y-47495000D02*
X150870000Y-46070000D01*
X148000000Y-43200000D02*
X150870000Y-46070000D01*
X148720000Y-37280000D02*
X148000000Y-38000000D01*
X148000000Y-38000000D02*
X148000000Y-43200000D01*
X148720000Y-35200000D02*
X148720000Y-37280000D01*
%TO.N,PD6*%
X149220000Y-61300000D02*
X146320000Y-64200000D01*
X150070000Y-55820000D02*
X150070000Y-57970000D01*
X149220000Y-58820000D02*
X149220000Y-61300000D01*
X150070000Y-57970000D02*
X149220000Y-58820000D01*
%TO.N,PB1*%
X152470000Y-55820000D02*
X152470000Y-60190000D01*
X152470000Y-60190000D02*
X156480000Y-64200000D01*
%TO.N,PC3*%
X154070000Y-47495000D02*
X154070000Y-45730000D01*
X158880000Y-35200000D02*
X158880000Y-40920000D01*
X154070000Y-45730000D02*
X158880000Y-40920000D01*
%TO.N,PC4*%
X156340000Y-35200000D02*
X156340000Y-37260000D01*
X156340000Y-37260000D02*
X154020000Y-39580000D01*
X153270000Y-45570000D02*
X153270000Y-47495000D01*
X154020000Y-44820000D02*
X153270000Y-45570000D01*
X154020000Y-39580000D02*
X154020000Y-44820000D01*
%TO.N,PD2*%
X148220000Y-47220000D02*
X143640000Y-42640000D01*
X149270000Y-47495000D02*
X148995000Y-47220000D01*
X143640000Y-42640000D02*
X143640000Y-35200000D01*
X148995000Y-47220000D02*
X148220000Y-47220000D01*
%TO.N,PD1*%
X150070000Y-47495000D02*
X150070000Y-46270000D01*
X150070000Y-46270000D02*
X146180000Y-42380000D01*
X146180000Y-42380000D02*
X146180000Y-35200000D01*
%TO.N,PB4*%
X157800000Y-61200000D02*
X154870000Y-58270000D01*
X164100000Y-62300000D02*
X164100000Y-64200000D01*
X157800000Y-61200000D02*
X163000000Y-61200000D01*
X154870000Y-58270000D02*
X154870000Y-55820000D01*
X164100000Y-62300000D02*
X163000000Y-61200000D01*
%TO.N,PC0*%
X156807500Y-49657500D02*
X156820000Y-49645000D01*
X156232500Y-49657500D02*
X156807500Y-49657500D01*
X157582500Y-49657500D02*
X156232500Y-49657500D01*
X166500000Y-40740000D02*
X166500000Y-35200000D01*
X157582500Y-49657500D02*
X166500000Y-40740000D01*
%TO.N,ADC1*%
X169180000Y-55400000D02*
X167200000Y-53420000D01*
X158420000Y-53420000D02*
X167200000Y-53420000D01*
X169180000Y-64200000D02*
X169180000Y-55400000D01*
X156232500Y-52857500D02*
X157857500Y-52857500D01*
X157857500Y-52857500D02*
X158420000Y-53420000D01*
%TO.N,PD7*%
X149621000Y-59419000D02*
X149621000Y-63439000D01*
X149621000Y-63439000D02*
X148860000Y-64200000D01*
X150870000Y-55820000D02*
X150870000Y-58170000D01*
X150870000Y-58170000D02*
X149621000Y-59419000D01*
%TO.N,PC1*%
X163960000Y-35200000D02*
X163960000Y-42480000D01*
X156232500Y-48857500D02*
X157582500Y-48857500D01*
X157582500Y-48857500D02*
X163960000Y-42480000D01*
%TO.N,ADC2*%
X157782500Y-50457500D02*
X156232500Y-50457500D01*
X169040000Y-35200000D02*
X169040000Y-41760000D01*
X158840000Y-49400000D02*
X157782500Y-50457500D01*
X169040000Y-41760000D02*
X161400000Y-49400000D01*
X161400000Y-49400000D02*
X158840000Y-49400000D01*
%TO.N,PC5*%
X152470000Y-38530000D02*
X152470000Y-47495000D01*
X153800000Y-37200000D02*
X152470000Y-38530000D01*
X153800000Y-35200000D02*
X153800000Y-37200000D01*
%TO.N,PD4*%
X146857500Y-49657500D02*
X147907500Y-49657500D01*
X138560000Y-35200000D02*
X138560000Y-41360000D01*
X138560000Y-41360000D02*
X146857500Y-49657500D01*
%TO.N,PB2*%
X157621000Y-62801000D02*
X159020000Y-64200000D01*
X153270000Y-59870000D02*
X153270000Y-55820000D01*
X156201000Y-62801000D02*
X157621000Y-62801000D01*
X153270000Y-59870000D02*
X156201000Y-62801000D01*
%TO.N,PC2*%
X154870000Y-47495000D02*
X155165000Y-47200000D01*
X156220000Y-47200000D02*
X161420000Y-42000000D01*
X155165000Y-47200000D02*
X156220000Y-47200000D01*
X161420000Y-35200000D02*
X161420000Y-42000000D01*
%TO.N,PB0*%
X151670000Y-55820000D02*
X151670000Y-61930000D01*
X151670000Y-61930000D02*
X153940000Y-64200000D01*
%TO.N,PD5*%
X149270000Y-55820000D02*
X149270000Y-57970000D01*
X148420000Y-58820000D02*
X148420000Y-59560000D01*
X148420000Y-59560000D02*
X143780000Y-64200000D01*
X149270000Y-57970000D02*
X148420000Y-58820000D01*
%TO.N,PB3*%
X161560000Y-64200000D02*
X161560000Y-62760000D01*
X154070000Y-55820000D02*
X154070000Y-59070000D01*
X161200000Y-62400000D02*
X157400000Y-62400000D01*
X161560000Y-62760000D02*
X161200000Y-62400000D01*
X154070000Y-59070000D02*
X157400000Y-62400000D01*
D29*
%TO.N,Net-(D1-A)*%
X188062500Y-52500000D02*
X186500000Y-52500000D01*
D27*
X185325000Y-51325000D02*
X185250000Y-51325000D01*
D29*
X186500000Y-52500000D02*
X185325000Y-51325000D01*
D27*
%TO.N,Net-(J2-Pin_3)*%
X143995000Y-53995000D02*
X142220000Y-53995000D01*
X142220000Y-53995000D02*
X142220000Y-56220000D01*
X144457500Y-54457500D02*
X143995000Y-53995000D01*
X147907500Y-54457500D02*
X144457500Y-54457500D01*
D30*
%TO.N,Net-(J2-Pin_1)*%
X144020000Y-52045000D02*
X143820000Y-52245000D01*
D27*
X143820000Y-53220000D02*
X143820000Y-52020000D01*
X146457443Y-53657500D02*
X146069943Y-54045000D01*
X147907500Y-53657500D02*
X147719000Y-53846000D01*
X146069943Y-54045000D02*
X144645000Y-54045000D01*
X144645000Y-54045000D02*
X143820000Y-53220000D01*
X143820000Y-52020000D02*
X143820000Y-52470000D01*
X147907500Y-53657500D02*
X146457443Y-53657500D01*
%TD*%
M02*
