%TF.GenerationSoftware,KiCad,Pcbnew,9.0.6*%
%TF.CreationDate,2026-01-10T20:09:33+01:00*%
%TF.ProjectId,nowyprojekt,6e6f7779-7072-46f6-9a65-6b742e6b6963,rev?*%
%TF.SameCoordinates,Original*%
%TF.FileFunction,Copper,L2,Inr*%
%TF.FilePolarity,Positive*%
%FSLAX46Y46*%
G04 Gerber Fmt 4.6, Leading zero omitted, Abs format (unit mm)*
G04 Created by KiCad (PCBNEW 9.0.6) date 2026-01-10 20:09:33*
%MOMM*%
%LPD*%
G01*
G04 APERTURE LIST*
%TA.AperFunction,ComponentPad*%
%ADD10R,1.700000X1.700000*%
%TD*%
%TA.AperFunction,ComponentPad*%
%ADD11C,1.700000*%
%TD*%
%TA.AperFunction,ViaPad*%
%ADD12C,0.600000*%
%TD*%
G04 APERTURE END LIST*
D10*
%TO.N,GND*%
%TO.C,J4*%
X133620000Y-64200000D03*
D11*
X136160000Y-64200000D03*
X138700000Y-64200000D03*
X141240000Y-64200000D03*
%TO.N,PD5*%
X143780000Y-64200000D03*
%TO.N,PD6*%
X146320000Y-64200000D03*
%TO.N,PD7*%
X148860000Y-64200000D03*
%TO.N,+5V*%
X151400000Y-64200000D03*
%TO.N,PB0*%
X153940000Y-64200000D03*
%TO.N,PB1*%
X156480000Y-64200000D03*
%TO.N,PB2*%
X159020000Y-64200000D03*
%TO.N,PB3*%
X161560000Y-64200000D03*
%TO.N,PB4*%
X164100000Y-64200000D03*
%TO.N,PB5*%
X166640000Y-64200000D03*
%TO.N,ADC1*%
X169180000Y-64200000D03*
%TD*%
D10*
%TO.N,+5V*%
%TO.C,J3*%
X133480000Y-35200000D03*
D11*
%TO.N,GND*%
X136020000Y-35200000D03*
%TO.N,PD4*%
X138560000Y-35200000D03*
%TO.N,PD3*%
X141100000Y-35200000D03*
%TO.N,PD2*%
X143640000Y-35200000D03*
%TO.N,PD1*%
X146180000Y-35200000D03*
%TO.N,PD0*%
X148720000Y-35200000D03*
%TO.N,PC6*%
X151260000Y-35200000D03*
%TO.N,PC5*%
X153800000Y-35200000D03*
%TO.N,PC4*%
X156340000Y-35200000D03*
%TO.N,PC3*%
X158880000Y-35200000D03*
%TO.N,PC2*%
X161420000Y-35200000D03*
%TO.N,PC1*%
X163960000Y-35200000D03*
%TO.N,PC0*%
X166500000Y-35200000D03*
%TO.N,ADC2*%
X169040000Y-35200000D03*
%TD*%
D10*
%TO.N,VIN*%
%TO.C,J1*%
X191750000Y-35725000D03*
D11*
%TO.N,GND*%
X191750000Y-38265000D03*
%TD*%
D10*
%TO.N,Net-(J2-Pin_1)*%
%TO.C,J2*%
X138250000Y-52250000D03*
D11*
%TO.N,unconnected-(J2-Pin_2-Pad2)*%
X138250000Y-54790000D03*
%TO.N,Net-(J2-Pin_3)*%
X138250000Y-57330000D03*
%TD*%
D12*
%TO.N,Net-(J2-Pin_3)*%
X141750000Y-56700000D03*
%TO.N,Net-(J2-Pin_1)*%
X143400000Y-53395000D03*
%TO.N,+5V*%
X146020000Y-53245000D03*
X150000000Y-43200000D03*
X150800000Y-60000000D03*
X146020000Y-50845000D03*
X183510000Y-46550000D03*
X167420000Y-55820000D03*
X134000000Y-40600000D03*
%TO.N,GND*%
X175760000Y-47300000D03*
X142600000Y-59800000D03*
X134800000Y-59600000D03*
X192000000Y-49750000D03*
X158620000Y-50845000D03*
X137000000Y-60000000D03*
X139800000Y-60000000D03*
X186500000Y-48250000D03*
X146220000Y-52045000D03*
X137200000Y-41200000D03*
X145620000Y-49445000D03*
X190260000Y-40800000D03*
X164400000Y-54800000D03*
X149620000Y-53020000D03*
X149820000Y-51220000D03*
X179010000Y-43550000D03*
X153820000Y-52220000D03*
%TO.N,Net-(U2-AREF)*%
X158595000Y-52420000D03*
%TD*%
%TA.AperFunction,Conductor*%
%TO.N,GND*%
G36*
X196442539Y-28870185D02*
G01*
X196488294Y-28922989D01*
X196499500Y-28974500D01*
X196499500Y-69575500D01*
X196479815Y-69642539D01*
X196427011Y-69688294D01*
X196375500Y-69699500D01*
X131624500Y-69699500D01*
X131557461Y-69679815D01*
X131511706Y-69627011D01*
X131500500Y-69575500D01*
X131500500Y-63302155D01*
X132270000Y-63302155D01*
X132270000Y-63950000D01*
X133186988Y-63950000D01*
X133154075Y-64007007D01*
X133120000Y-64134174D01*
X133120000Y-64265826D01*
X133154075Y-64392993D01*
X133186988Y-64450000D01*
X132270000Y-64450000D01*
X132270000Y-65097844D01*
X132276401Y-65157372D01*
X132276403Y-65157379D01*
X132326645Y-65292086D01*
X132326649Y-65292093D01*
X132412809Y-65407187D01*
X132412812Y-65407190D01*
X132527906Y-65493350D01*
X132527913Y-65493354D01*
X132662620Y-65543596D01*
X132662627Y-65543598D01*
X132722155Y-65549999D01*
X132722172Y-65550000D01*
X133370000Y-65550000D01*
X133370000Y-64633012D01*
X133427007Y-64665925D01*
X133554174Y-64700000D01*
X133685826Y-64700000D01*
X133812993Y-64665925D01*
X133870000Y-64633012D01*
X133870000Y-65550000D01*
X134517828Y-65550000D01*
X134517844Y-65549999D01*
X134577372Y-65543598D01*
X134577379Y-65543596D01*
X134712086Y-65493354D01*
X134712093Y-65493350D01*
X134827187Y-65407190D01*
X134827190Y-65407187D01*
X134913350Y-65292093D01*
X134913354Y-65292086D01*
X134935529Y-65232632D01*
X134974319Y-65059390D01*
X134974682Y-65058734D01*
X134974642Y-65057984D01*
X135007642Y-64998802D01*
X135677037Y-64329408D01*
X135694075Y-64392993D01*
X135759901Y-64507007D01*
X135852993Y-64600099D01*
X135967007Y-64665925D01*
X136030590Y-64682962D01*
X135398282Y-65315269D01*
X135398282Y-65315270D01*
X135452449Y-65354624D01*
X135641782Y-65451095D01*
X135843870Y-65516757D01*
X136053754Y-65550000D01*
X136266246Y-65550000D01*
X136476127Y-65516757D01*
X136476130Y-65516757D01*
X136678217Y-65451095D01*
X136867554Y-65354622D01*
X136921716Y-65315270D01*
X136921717Y-65315270D01*
X136289408Y-64682962D01*
X136352993Y-64665925D01*
X136467007Y-64600099D01*
X136560099Y-64507007D01*
X136625925Y-64392993D01*
X136642962Y-64329408D01*
X137275270Y-64961717D01*
X137275270Y-64961716D01*
X137314622Y-64907554D01*
X137319514Y-64897954D01*
X137367488Y-64847157D01*
X137435308Y-64830361D01*
X137501444Y-64852897D01*
X137540486Y-64897954D01*
X137545375Y-64907550D01*
X137584728Y-64961716D01*
X138217037Y-64329408D01*
X138234075Y-64392993D01*
X138299901Y-64507007D01*
X138392993Y-64600099D01*
X138507007Y-64665925D01*
X138570590Y-64682962D01*
X137938282Y-65315269D01*
X137938282Y-65315270D01*
X137992449Y-65354624D01*
X138181782Y-65451095D01*
X138383870Y-65516757D01*
X138593754Y-65550000D01*
X138806246Y-65550000D01*
X139016127Y-65516757D01*
X139016130Y-65516757D01*
X139218217Y-65451095D01*
X139407554Y-65354622D01*
X139461716Y-65315270D01*
X139461717Y-65315270D01*
X138829408Y-64682962D01*
X138892993Y-64665925D01*
X139007007Y-64600099D01*
X139100099Y-64507007D01*
X139165925Y-64392993D01*
X139182962Y-64329409D01*
X139815270Y-64961717D01*
X139815270Y-64961716D01*
X139854622Y-64907554D01*
X139859514Y-64897954D01*
X139907488Y-64847157D01*
X139975308Y-64830361D01*
X140041444Y-64852897D01*
X140080486Y-64897954D01*
X140085375Y-64907550D01*
X140124728Y-64961716D01*
X140757037Y-64329408D01*
X140774075Y-64392993D01*
X140839901Y-64507007D01*
X140932993Y-64600099D01*
X141047007Y-64665925D01*
X141110590Y-64682962D01*
X140478282Y-65315269D01*
X140478282Y-65315270D01*
X140532449Y-65354624D01*
X140721782Y-65451095D01*
X140923870Y-65516757D01*
X141133754Y-65550000D01*
X141346246Y-65550000D01*
X141556127Y-65516757D01*
X141556130Y-65516757D01*
X141758217Y-65451095D01*
X141947554Y-65354622D01*
X142001716Y-65315270D01*
X142001717Y-65315270D01*
X141369408Y-64682962D01*
X141432993Y-64665925D01*
X141547007Y-64600099D01*
X141640099Y-64507007D01*
X141705925Y-64392993D01*
X141722962Y-64329408D01*
X142355270Y-64961717D01*
X142355270Y-64961716D01*
X142394622Y-64907554D01*
X142491096Y-64718215D01*
X142523239Y-64619288D01*
X142562676Y-64561612D01*
X142627034Y-64534413D01*
X142695880Y-64546327D01*
X142747357Y-64593571D01*
X142759100Y-64619284D01*
X142760127Y-64622446D01*
X142760128Y-64622447D01*
X142838768Y-64776788D01*
X142940586Y-64916928D01*
X143063072Y-65039414D01*
X143203212Y-65141232D01*
X143357555Y-65219873D01*
X143522299Y-65273402D01*
X143693389Y-65300500D01*
X143693390Y-65300500D01*
X143866610Y-65300500D01*
X143866611Y-65300500D01*
X144037701Y-65273402D01*
X144202445Y-65219873D01*
X144356788Y-65141232D01*
X144496928Y-65039414D01*
X144619414Y-64916928D01*
X144721232Y-64776788D01*
X144799873Y-64622445D01*
X144853402Y-64457701D01*
X144880500Y-64286611D01*
X144880500Y-64113389D01*
X145219500Y-64113389D01*
X145219500Y-64286611D01*
X145246598Y-64457701D01*
X145300127Y-64622445D01*
X145378768Y-64776788D01*
X145480586Y-64916928D01*
X145603072Y-65039414D01*
X145743212Y-65141232D01*
X145897555Y-65219873D01*
X146062299Y-65273402D01*
X146233389Y-65300500D01*
X146233390Y-65300500D01*
X146406610Y-65300500D01*
X146406611Y-65300500D01*
X146577701Y-65273402D01*
X146742445Y-65219873D01*
X146896788Y-65141232D01*
X147036928Y-65039414D01*
X147159414Y-64916928D01*
X147261232Y-64776788D01*
X147339873Y-64622445D01*
X147393402Y-64457701D01*
X147420500Y-64286611D01*
X147420500Y-64113389D01*
X147759500Y-64113389D01*
X147759500Y-64286611D01*
X147786598Y-64457701D01*
X147840127Y-64622445D01*
X147918768Y-64776788D01*
X148020586Y-64916928D01*
X148143072Y-65039414D01*
X148283212Y-65141232D01*
X148437555Y-65219873D01*
X148602299Y-65273402D01*
X148773389Y-65300500D01*
X148773390Y-65300500D01*
X148946610Y-65300500D01*
X148946611Y-65300500D01*
X149117701Y-65273402D01*
X149282445Y-65219873D01*
X149436788Y-65141232D01*
X149576928Y-65039414D01*
X149699414Y-64916928D01*
X149801232Y-64776788D01*
X149879873Y-64622445D01*
X149933402Y-64457701D01*
X149960500Y-64286611D01*
X149960500Y-64113389D01*
X150299500Y-64113389D01*
X150299500Y-64286611D01*
X150326598Y-64457701D01*
X150380127Y-64622445D01*
X150458768Y-64776788D01*
X150560586Y-64916928D01*
X150683072Y-65039414D01*
X150823212Y-65141232D01*
X150977555Y-65219873D01*
X151142299Y-65273402D01*
X151313389Y-65300500D01*
X151313390Y-65300500D01*
X151486610Y-65300500D01*
X151486611Y-65300500D01*
X151657701Y-65273402D01*
X151822445Y-65219873D01*
X151976788Y-65141232D01*
X152116928Y-65039414D01*
X152239414Y-64916928D01*
X152341232Y-64776788D01*
X152419873Y-64622445D01*
X152473402Y-64457701D01*
X152500500Y-64286611D01*
X152500500Y-64113389D01*
X152839500Y-64113389D01*
X152839500Y-64286611D01*
X152866598Y-64457701D01*
X152920127Y-64622445D01*
X152998768Y-64776788D01*
X153100586Y-64916928D01*
X153223072Y-65039414D01*
X153363212Y-65141232D01*
X153517555Y-65219873D01*
X153682299Y-65273402D01*
X153853389Y-65300500D01*
X153853390Y-65300500D01*
X154026610Y-65300500D01*
X154026611Y-65300500D01*
X154197701Y-65273402D01*
X154362445Y-65219873D01*
X154516788Y-65141232D01*
X154656928Y-65039414D01*
X154779414Y-64916928D01*
X154881232Y-64776788D01*
X154959873Y-64622445D01*
X155013402Y-64457701D01*
X155040500Y-64286611D01*
X155040500Y-64113389D01*
X155379500Y-64113389D01*
X155379500Y-64286611D01*
X155406598Y-64457701D01*
X155460127Y-64622445D01*
X155538768Y-64776788D01*
X155640586Y-64916928D01*
X155763072Y-65039414D01*
X155903212Y-65141232D01*
X156057555Y-65219873D01*
X156222299Y-65273402D01*
X156393389Y-65300500D01*
X156393390Y-65300500D01*
X156566610Y-65300500D01*
X156566611Y-65300500D01*
X156737701Y-65273402D01*
X156902445Y-65219873D01*
X157056788Y-65141232D01*
X157196928Y-65039414D01*
X157319414Y-64916928D01*
X157421232Y-64776788D01*
X157499873Y-64622445D01*
X157553402Y-64457701D01*
X157580500Y-64286611D01*
X157580500Y-64113389D01*
X157919500Y-64113389D01*
X157919500Y-64286611D01*
X157946598Y-64457701D01*
X158000127Y-64622445D01*
X158078768Y-64776788D01*
X158180586Y-64916928D01*
X158303072Y-65039414D01*
X158443212Y-65141232D01*
X158597555Y-65219873D01*
X158762299Y-65273402D01*
X158933389Y-65300500D01*
X158933390Y-65300500D01*
X159106610Y-65300500D01*
X159106611Y-65300500D01*
X159277701Y-65273402D01*
X159442445Y-65219873D01*
X159596788Y-65141232D01*
X159736928Y-65039414D01*
X159859414Y-64916928D01*
X159961232Y-64776788D01*
X160039873Y-64622445D01*
X160093402Y-64457701D01*
X160120500Y-64286611D01*
X160120500Y-64113389D01*
X160459500Y-64113389D01*
X160459500Y-64286611D01*
X160486598Y-64457701D01*
X160540127Y-64622445D01*
X160618768Y-64776788D01*
X160720586Y-64916928D01*
X160843072Y-65039414D01*
X160983212Y-65141232D01*
X161137555Y-65219873D01*
X161302299Y-65273402D01*
X161473389Y-65300500D01*
X161473390Y-65300500D01*
X161646610Y-65300500D01*
X161646611Y-65300500D01*
X161817701Y-65273402D01*
X161982445Y-65219873D01*
X162136788Y-65141232D01*
X162276928Y-65039414D01*
X162399414Y-64916928D01*
X162501232Y-64776788D01*
X162579873Y-64622445D01*
X162633402Y-64457701D01*
X162660500Y-64286611D01*
X162660500Y-64113389D01*
X162999500Y-64113389D01*
X162999500Y-64286611D01*
X163026598Y-64457701D01*
X163080127Y-64622445D01*
X163158768Y-64776788D01*
X163260586Y-64916928D01*
X163383072Y-65039414D01*
X163523212Y-65141232D01*
X163677555Y-65219873D01*
X163842299Y-65273402D01*
X164013389Y-65300500D01*
X164013390Y-65300500D01*
X164186610Y-65300500D01*
X164186611Y-65300500D01*
X164357701Y-65273402D01*
X164522445Y-65219873D01*
X164676788Y-65141232D01*
X164816928Y-65039414D01*
X164939414Y-64916928D01*
X165041232Y-64776788D01*
X165119873Y-64622445D01*
X165173402Y-64457701D01*
X165200500Y-64286611D01*
X165200500Y-64113389D01*
X165539500Y-64113389D01*
X165539500Y-64286611D01*
X165566598Y-64457701D01*
X165620127Y-64622445D01*
X165698768Y-64776788D01*
X165800586Y-64916928D01*
X165923072Y-65039414D01*
X166063212Y-65141232D01*
X166217555Y-65219873D01*
X166382299Y-65273402D01*
X166553389Y-65300500D01*
X166553390Y-65300500D01*
X166726610Y-65300500D01*
X166726611Y-65300500D01*
X166897701Y-65273402D01*
X167062445Y-65219873D01*
X167216788Y-65141232D01*
X167356928Y-65039414D01*
X167479414Y-64916928D01*
X167581232Y-64776788D01*
X167659873Y-64622445D01*
X167713402Y-64457701D01*
X167740500Y-64286611D01*
X167740500Y-64113389D01*
X168079500Y-64113389D01*
X168079500Y-64286611D01*
X168106598Y-64457701D01*
X168160127Y-64622445D01*
X168238768Y-64776788D01*
X168340586Y-64916928D01*
X168463072Y-65039414D01*
X168603212Y-65141232D01*
X168757555Y-65219873D01*
X168922299Y-65273402D01*
X169093389Y-65300500D01*
X169093390Y-65300500D01*
X169266610Y-65300500D01*
X169266611Y-65300500D01*
X169437701Y-65273402D01*
X169602445Y-65219873D01*
X169756788Y-65141232D01*
X169896928Y-65039414D01*
X170019414Y-64916928D01*
X170121232Y-64776788D01*
X170199873Y-64622445D01*
X170253402Y-64457701D01*
X170280500Y-64286611D01*
X170280500Y-64113389D01*
X170253402Y-63942299D01*
X170199873Y-63777555D01*
X170121232Y-63623212D01*
X170019414Y-63483072D01*
X169896928Y-63360586D01*
X169756788Y-63258768D01*
X169602445Y-63180127D01*
X169437701Y-63126598D01*
X169437699Y-63126597D01*
X169437698Y-63126597D01*
X169306271Y-63105781D01*
X169266611Y-63099500D01*
X169093389Y-63099500D01*
X169053728Y-63105781D01*
X168922302Y-63126597D01*
X168757552Y-63180128D01*
X168603211Y-63258768D01*
X168543495Y-63302155D01*
X168463072Y-63360586D01*
X168463070Y-63360588D01*
X168463069Y-63360588D01*
X168340588Y-63483069D01*
X168340588Y-63483070D01*
X168340586Y-63483072D01*
X168333771Y-63492452D01*
X168238768Y-63623211D01*
X168160128Y-63777552D01*
X168106597Y-63942302D01*
X168105378Y-63950000D01*
X168079500Y-64113389D01*
X167740500Y-64113389D01*
X167713402Y-63942299D01*
X167659873Y-63777555D01*
X167581232Y-63623212D01*
X167479414Y-63483072D01*
X167356928Y-63360586D01*
X167216788Y-63258768D01*
X167062445Y-63180127D01*
X166897701Y-63126598D01*
X166897699Y-63126597D01*
X166897698Y-63126597D01*
X166766271Y-63105781D01*
X166726611Y-63099500D01*
X166553389Y-63099500D01*
X166513728Y-63105781D01*
X166382302Y-63126597D01*
X166217552Y-63180128D01*
X166063211Y-63258768D01*
X166003495Y-63302155D01*
X165923072Y-63360586D01*
X165923070Y-63360588D01*
X165923069Y-63360588D01*
X165800588Y-63483069D01*
X165800588Y-63483070D01*
X165800586Y-63483072D01*
X165793771Y-63492452D01*
X165698768Y-63623211D01*
X165620128Y-63777552D01*
X165566597Y-63942302D01*
X165565378Y-63950000D01*
X165539500Y-64113389D01*
X165200500Y-64113389D01*
X165173402Y-63942299D01*
X165119873Y-63777555D01*
X165041232Y-63623212D01*
X164939414Y-63483072D01*
X164816928Y-63360586D01*
X164676788Y-63258768D01*
X164522445Y-63180127D01*
X164357701Y-63126598D01*
X164357699Y-63126597D01*
X164357698Y-63126597D01*
X164226271Y-63105781D01*
X164186611Y-63099500D01*
X164013389Y-63099500D01*
X163973728Y-63105781D01*
X163842302Y-63126597D01*
X163677552Y-63180128D01*
X163523211Y-63258768D01*
X163463495Y-63302155D01*
X163383072Y-63360586D01*
X163383070Y-63360588D01*
X163383069Y-63360588D01*
X163260588Y-63483069D01*
X163260588Y-63483070D01*
X163260586Y-63483072D01*
X163253771Y-63492452D01*
X163158768Y-63623211D01*
X163080128Y-63777552D01*
X163026597Y-63942302D01*
X163025378Y-63950000D01*
X162999500Y-64113389D01*
X162660500Y-64113389D01*
X162633402Y-63942299D01*
X162579873Y-63777555D01*
X162501232Y-63623212D01*
X162399414Y-63483072D01*
X162276928Y-63360586D01*
X162136788Y-63258768D01*
X161982445Y-63180127D01*
X161817701Y-63126598D01*
X161817699Y-63126597D01*
X161817698Y-63126597D01*
X161686271Y-63105781D01*
X161646611Y-63099500D01*
X161473389Y-63099500D01*
X161433728Y-63105781D01*
X161302302Y-63126597D01*
X161137552Y-63180128D01*
X160983211Y-63258768D01*
X160923495Y-63302155D01*
X160843072Y-63360586D01*
X160843070Y-63360588D01*
X160843069Y-63360588D01*
X160720588Y-63483069D01*
X160720588Y-63483070D01*
X160720586Y-63483072D01*
X160713771Y-63492452D01*
X160618768Y-63623211D01*
X160540128Y-63777552D01*
X160486597Y-63942302D01*
X160485378Y-63950000D01*
X160459500Y-64113389D01*
X160120500Y-64113389D01*
X160093402Y-63942299D01*
X160039873Y-63777555D01*
X159961232Y-63623212D01*
X159859414Y-63483072D01*
X159736928Y-63360586D01*
X159596788Y-63258768D01*
X159442445Y-63180127D01*
X159277701Y-63126598D01*
X159277699Y-63126597D01*
X159277698Y-63126597D01*
X159146271Y-63105781D01*
X159106611Y-63099500D01*
X158933389Y-63099500D01*
X158893728Y-63105781D01*
X158762302Y-63126597D01*
X158597552Y-63180128D01*
X158443211Y-63258768D01*
X158383495Y-63302155D01*
X158303072Y-63360586D01*
X158303070Y-63360588D01*
X158303069Y-63360588D01*
X158180588Y-63483069D01*
X158180588Y-63483070D01*
X158180586Y-63483072D01*
X158173771Y-63492452D01*
X158078768Y-63623211D01*
X158000128Y-63777552D01*
X157946597Y-63942302D01*
X157945378Y-63950000D01*
X157919500Y-64113389D01*
X157580500Y-64113389D01*
X157553402Y-63942299D01*
X157499873Y-63777555D01*
X157421232Y-63623212D01*
X157319414Y-63483072D01*
X157196928Y-63360586D01*
X157056788Y-63258768D01*
X156902445Y-63180127D01*
X156737701Y-63126598D01*
X156737699Y-63126597D01*
X156737698Y-63126597D01*
X156606271Y-63105781D01*
X156566611Y-63099500D01*
X156393389Y-63099500D01*
X156353728Y-63105781D01*
X156222302Y-63126597D01*
X156057552Y-63180128D01*
X155903211Y-63258768D01*
X155843495Y-63302155D01*
X155763072Y-63360586D01*
X155763070Y-63360588D01*
X155763069Y-63360588D01*
X155640588Y-63483069D01*
X155640588Y-63483070D01*
X155640586Y-63483072D01*
X155633771Y-63492452D01*
X155538768Y-63623211D01*
X155460128Y-63777552D01*
X155406597Y-63942302D01*
X155405378Y-63950000D01*
X155379500Y-64113389D01*
X155040500Y-64113389D01*
X155013402Y-63942299D01*
X154959873Y-63777555D01*
X154881232Y-63623212D01*
X154779414Y-63483072D01*
X154656928Y-63360586D01*
X154516788Y-63258768D01*
X154362445Y-63180127D01*
X154197701Y-63126598D01*
X154197699Y-63126597D01*
X154197698Y-63126597D01*
X154066271Y-63105781D01*
X154026611Y-63099500D01*
X153853389Y-63099500D01*
X153813728Y-63105781D01*
X153682302Y-63126597D01*
X153517552Y-63180128D01*
X153363211Y-63258768D01*
X153303495Y-63302155D01*
X153223072Y-63360586D01*
X153223070Y-63360588D01*
X153223069Y-63360588D01*
X153100588Y-63483069D01*
X153100588Y-63483070D01*
X153100586Y-63483072D01*
X153093771Y-63492452D01*
X152998768Y-63623211D01*
X152920128Y-63777552D01*
X152866597Y-63942302D01*
X152865378Y-63950000D01*
X152839500Y-64113389D01*
X152500500Y-64113389D01*
X152473402Y-63942299D01*
X152419873Y-63777555D01*
X152341232Y-63623212D01*
X152239414Y-63483072D01*
X152116928Y-63360586D01*
X151976788Y-63258768D01*
X151822445Y-63180127D01*
X151657701Y-63126598D01*
X151657699Y-63126597D01*
X151657698Y-63126597D01*
X151526271Y-63105781D01*
X151486611Y-63099500D01*
X151313389Y-63099500D01*
X151273728Y-63105781D01*
X151142302Y-63126597D01*
X150977552Y-63180128D01*
X150823211Y-63258768D01*
X150763495Y-63302155D01*
X150683072Y-63360586D01*
X150683070Y-63360588D01*
X150683069Y-63360588D01*
X150560588Y-63483069D01*
X150560588Y-63483070D01*
X150560586Y-63483072D01*
X150553771Y-63492452D01*
X150458768Y-63623211D01*
X150380128Y-63777552D01*
X150326597Y-63942302D01*
X150325378Y-63950000D01*
X150299500Y-64113389D01*
X149960500Y-64113389D01*
X149933402Y-63942299D01*
X149879873Y-63777555D01*
X149801232Y-63623212D01*
X149699414Y-63483072D01*
X149576928Y-63360586D01*
X149436788Y-63258768D01*
X149282445Y-63180127D01*
X149117701Y-63126598D01*
X149117699Y-63126597D01*
X149117698Y-63126597D01*
X148986271Y-63105781D01*
X148946611Y-63099500D01*
X148773389Y-63099500D01*
X148733728Y-63105781D01*
X148602302Y-63126597D01*
X148437552Y-63180128D01*
X148283211Y-63258768D01*
X148223495Y-63302155D01*
X148143072Y-63360586D01*
X148143070Y-63360588D01*
X148143069Y-63360588D01*
X148020588Y-63483069D01*
X148020588Y-63483070D01*
X148020586Y-63483072D01*
X148013771Y-63492452D01*
X147918768Y-63623211D01*
X147840128Y-63777552D01*
X147786597Y-63942302D01*
X147785378Y-63950000D01*
X147759500Y-64113389D01*
X147420500Y-64113389D01*
X147393402Y-63942299D01*
X147339873Y-63777555D01*
X147261232Y-63623212D01*
X147159414Y-63483072D01*
X147036928Y-63360586D01*
X146896788Y-63258768D01*
X146742445Y-63180127D01*
X146577701Y-63126598D01*
X146577699Y-63126597D01*
X146577698Y-63126597D01*
X146446271Y-63105781D01*
X146406611Y-63099500D01*
X146233389Y-63099500D01*
X146193728Y-63105781D01*
X146062302Y-63126597D01*
X145897552Y-63180128D01*
X145743211Y-63258768D01*
X145683495Y-63302155D01*
X145603072Y-63360586D01*
X145603070Y-63360588D01*
X145603069Y-63360588D01*
X145480588Y-63483069D01*
X145480588Y-63483070D01*
X145480586Y-63483072D01*
X145473771Y-63492452D01*
X145378768Y-63623211D01*
X145300128Y-63777552D01*
X145246597Y-63942302D01*
X145245378Y-63950000D01*
X145219500Y-64113389D01*
X144880500Y-64113389D01*
X144853402Y-63942299D01*
X144799873Y-63777555D01*
X144721232Y-63623212D01*
X144619414Y-63483072D01*
X144496928Y-63360586D01*
X144356788Y-63258768D01*
X144202445Y-63180127D01*
X144037701Y-63126598D01*
X144037699Y-63126597D01*
X144037698Y-63126597D01*
X143906271Y-63105781D01*
X143866611Y-63099500D01*
X143693389Y-63099500D01*
X143653728Y-63105781D01*
X143522302Y-63126597D01*
X143357552Y-63180128D01*
X143203211Y-63258768D01*
X143143495Y-63302155D01*
X143063072Y-63360586D01*
X143063070Y-63360588D01*
X143063069Y-63360588D01*
X142940588Y-63483069D01*
X142940588Y-63483070D01*
X142940586Y-63483072D01*
X142933771Y-63492452D01*
X142838768Y-63623211D01*
X142760128Y-63777550D01*
X142759099Y-63780720D01*
X142758381Y-63781769D01*
X142758266Y-63782048D01*
X142758207Y-63782023D01*
X142719657Y-63838393D01*
X142655297Y-63865587D01*
X142586451Y-63853668D01*
X142534979Y-63806420D01*
X142523239Y-63780711D01*
X142491096Y-63681784D01*
X142394624Y-63492449D01*
X142355270Y-63438282D01*
X141722962Y-64070590D01*
X141705925Y-64007007D01*
X141640099Y-63892993D01*
X141547007Y-63799901D01*
X141432993Y-63734075D01*
X141369409Y-63717037D01*
X142001716Y-63084728D01*
X141947550Y-63045375D01*
X141758217Y-62948904D01*
X141556129Y-62883242D01*
X141346246Y-62850000D01*
X141133754Y-62850000D01*
X140923872Y-62883242D01*
X140923869Y-62883242D01*
X140721782Y-62948904D01*
X140532439Y-63045380D01*
X140478282Y-63084727D01*
X140478282Y-63084728D01*
X141110591Y-63717037D01*
X141047007Y-63734075D01*
X140932993Y-63799901D01*
X140839901Y-63892993D01*
X140774075Y-64007007D01*
X140757037Y-64070591D01*
X140124728Y-63438282D01*
X140124727Y-63438282D01*
X140085380Y-63492440D01*
X140080483Y-63502051D01*
X140032506Y-63552845D01*
X139964684Y-63569638D01*
X139898550Y-63547098D01*
X139859516Y-63502048D01*
X139854626Y-63492452D01*
X139815270Y-63438282D01*
X139815269Y-63438282D01*
X139182962Y-64070590D01*
X139165925Y-64007007D01*
X139100099Y-63892993D01*
X139007007Y-63799901D01*
X138892993Y-63734075D01*
X138829409Y-63717037D01*
X139461716Y-63084728D01*
X139407550Y-63045375D01*
X139218217Y-62948904D01*
X139016129Y-62883242D01*
X138806246Y-62850000D01*
X138593754Y-62850000D01*
X138383872Y-62883242D01*
X138383869Y-62883242D01*
X138181782Y-62948904D01*
X137992439Y-63045380D01*
X137938282Y-63084727D01*
X137938282Y-63084728D01*
X138570591Y-63717037D01*
X138507007Y-63734075D01*
X138392993Y-63799901D01*
X138299901Y-63892993D01*
X138234075Y-64007007D01*
X138217037Y-64070591D01*
X137584728Y-63438282D01*
X137584727Y-63438282D01*
X137545380Y-63492440D01*
X137540483Y-63502051D01*
X137492506Y-63552845D01*
X137424684Y-63569638D01*
X137358550Y-63547098D01*
X137319516Y-63502048D01*
X137314626Y-63492452D01*
X137275270Y-63438282D01*
X137275269Y-63438282D01*
X136642962Y-64070590D01*
X136625925Y-64007007D01*
X136560099Y-63892993D01*
X136467007Y-63799901D01*
X136352993Y-63734075D01*
X136289409Y-63717037D01*
X136921716Y-63084728D01*
X136867550Y-63045375D01*
X136678217Y-62948904D01*
X136476129Y-62883242D01*
X136266246Y-62850000D01*
X136053754Y-62850000D01*
X135843872Y-62883242D01*
X135843869Y-62883242D01*
X135641782Y-62948904D01*
X135452439Y-63045380D01*
X135398282Y-63084727D01*
X135398282Y-63084728D01*
X136030591Y-63717037D01*
X135967007Y-63734075D01*
X135852993Y-63799901D01*
X135759901Y-63892993D01*
X135694075Y-64007007D01*
X135677037Y-64070591D01*
X135007642Y-63401196D01*
X134974319Y-63340609D01*
X134935527Y-63167364D01*
X134913354Y-63107913D01*
X134913350Y-63107906D01*
X134827190Y-62992812D01*
X134827187Y-62992809D01*
X134712093Y-62906649D01*
X134712086Y-62906645D01*
X134577379Y-62856403D01*
X134577372Y-62856401D01*
X134517844Y-62850000D01*
X133870000Y-62850000D01*
X133870000Y-63766988D01*
X133812993Y-63734075D01*
X133685826Y-63700000D01*
X133554174Y-63700000D01*
X133427007Y-63734075D01*
X133370000Y-63766988D01*
X133370000Y-62850000D01*
X132722155Y-62850000D01*
X132662627Y-62856401D01*
X132662620Y-62856403D01*
X132527913Y-62906645D01*
X132527906Y-62906649D01*
X132412812Y-62992809D01*
X132412809Y-62992812D01*
X132326649Y-63107906D01*
X132326645Y-63107913D01*
X132276403Y-63242620D01*
X132276401Y-63242627D01*
X132270000Y-63302155D01*
X131500500Y-63302155D01*
X131500500Y-59927525D01*
X150249500Y-59927525D01*
X150249500Y-60072475D01*
X150287016Y-60212485D01*
X150287017Y-60212488D01*
X150359488Y-60338011D01*
X150359490Y-60338013D01*
X150359491Y-60338015D01*
X150461985Y-60440509D01*
X150461986Y-60440510D01*
X150461988Y-60440511D01*
X150587511Y-60512982D01*
X150587512Y-60512982D01*
X150587515Y-60512984D01*
X150727525Y-60550500D01*
X150727528Y-60550500D01*
X150872472Y-60550500D01*
X150872475Y-60550500D01*
X151012485Y-60512984D01*
X151138015Y-60440509D01*
X151240509Y-60338015D01*
X151312984Y-60212485D01*
X151350500Y-60072475D01*
X151350500Y-59927525D01*
X151312984Y-59787515D01*
X151240509Y-59661985D01*
X151138015Y-59559491D01*
X151138013Y-59559490D01*
X151138011Y-59559488D01*
X151012488Y-59487017D01*
X151012489Y-59487017D01*
X151001006Y-59483940D01*
X150872475Y-59449500D01*
X150727525Y-59449500D01*
X150598993Y-59483940D01*
X150587511Y-59487017D01*
X150461988Y-59559488D01*
X150461982Y-59559493D01*
X150359493Y-59661982D01*
X150359488Y-59661988D01*
X150287017Y-59787511D01*
X150287016Y-59787515D01*
X150249500Y-59927525D01*
X131500500Y-59927525D01*
X131500500Y-57243389D01*
X137149500Y-57243389D01*
X137149500Y-57416611D01*
X137176598Y-57587701D01*
X137230127Y-57752445D01*
X137308768Y-57906788D01*
X137410586Y-58046928D01*
X137533072Y-58169414D01*
X137673212Y-58271232D01*
X137827555Y-58349873D01*
X137992299Y-58403402D01*
X138163389Y-58430500D01*
X138163390Y-58430500D01*
X138336610Y-58430500D01*
X138336611Y-58430500D01*
X138507701Y-58403402D01*
X138672445Y-58349873D01*
X138826788Y-58271232D01*
X138966928Y-58169414D01*
X139089414Y-58046928D01*
X139191232Y-57906788D01*
X139269873Y-57752445D01*
X139323402Y-57587701D01*
X139350500Y-57416611D01*
X139350500Y-57243389D01*
X139323402Y-57072299D01*
X139269873Y-56907555D01*
X139191232Y-56753212D01*
X139099915Y-56627525D01*
X141199500Y-56627525D01*
X141199500Y-56772475D01*
X141235694Y-56907552D01*
X141237017Y-56912488D01*
X141309488Y-57038011D01*
X141309490Y-57038013D01*
X141309491Y-57038015D01*
X141411985Y-57140509D01*
X141411986Y-57140510D01*
X141411988Y-57140511D01*
X141537511Y-57212982D01*
X141537512Y-57212982D01*
X141537515Y-57212984D01*
X141677525Y-57250500D01*
X141677528Y-57250500D01*
X141822472Y-57250500D01*
X141822475Y-57250500D01*
X141962485Y-57212984D01*
X142088015Y-57140509D01*
X142190509Y-57038015D01*
X142262984Y-56912485D01*
X142300500Y-56772475D01*
X142300500Y-56627525D01*
X142262984Y-56487515D01*
X142190509Y-56361985D01*
X142088015Y-56259491D01*
X142088013Y-56259490D01*
X142088011Y-56259488D01*
X141962488Y-56187017D01*
X141962489Y-56187017D01*
X141951006Y-56183940D01*
X141822475Y-56149500D01*
X141677525Y-56149500D01*
X141548993Y-56183940D01*
X141537511Y-56187017D01*
X141411988Y-56259488D01*
X141411982Y-56259493D01*
X141309493Y-56361982D01*
X141309488Y-56361988D01*
X141237017Y-56487511D01*
X141237016Y-56487515D01*
X141199500Y-56627525D01*
X139099915Y-56627525D01*
X139089414Y-56613072D01*
X138966928Y-56490586D01*
X138826788Y-56388768D01*
X138672445Y-56310127D01*
X138507701Y-56256598D01*
X138507699Y-56256597D01*
X138507698Y-56256597D01*
X138376271Y-56235781D01*
X138336611Y-56229500D01*
X138163389Y-56229500D01*
X138123728Y-56235781D01*
X137992302Y-56256597D01*
X137827552Y-56310128D01*
X137673211Y-56388768D01*
X137593256Y-56446859D01*
X137533072Y-56490586D01*
X137533070Y-56490588D01*
X137533069Y-56490588D01*
X137410588Y-56613069D01*
X137410588Y-56613070D01*
X137410586Y-56613072D01*
X137400084Y-56627527D01*
X137308768Y-56753211D01*
X137230128Y-56907552D01*
X137176597Y-57072302D01*
X137165794Y-57140511D01*
X137149500Y-57243389D01*
X131500500Y-57243389D01*
X131500500Y-54703389D01*
X137149500Y-54703389D01*
X137149500Y-54876611D01*
X137176598Y-55047701D01*
X137230127Y-55212445D01*
X137308768Y-55366788D01*
X137410586Y-55506928D01*
X137533072Y-55629414D01*
X137673212Y-55731232D01*
X137827555Y-55809873D01*
X137992299Y-55863402D01*
X138163389Y-55890500D01*
X138163390Y-55890500D01*
X138336610Y-55890500D01*
X138336611Y-55890500D01*
X138507701Y-55863402D01*
X138672445Y-55809873D01*
X138794811Y-55747525D01*
X166869500Y-55747525D01*
X166869500Y-55892475D01*
X166907016Y-56032485D01*
X166907017Y-56032488D01*
X166979488Y-56158011D01*
X166979490Y-56158013D01*
X166979491Y-56158015D01*
X167081985Y-56260509D01*
X167081986Y-56260510D01*
X167081988Y-56260511D01*
X167207511Y-56332982D01*
X167207512Y-56332982D01*
X167207515Y-56332984D01*
X167347525Y-56370500D01*
X167347528Y-56370500D01*
X167492472Y-56370500D01*
X167492475Y-56370500D01*
X167632485Y-56332984D01*
X167758015Y-56260509D01*
X167860509Y-56158015D01*
X167932984Y-56032485D01*
X167970500Y-55892475D01*
X167970500Y-55747525D01*
X167932984Y-55607515D01*
X167874910Y-55506929D01*
X167860511Y-55481988D01*
X167860506Y-55481982D01*
X167758017Y-55379493D01*
X167758011Y-55379488D01*
X167632488Y-55307017D01*
X167632489Y-55307017D01*
X167621006Y-55303940D01*
X167492475Y-55269500D01*
X167347525Y-55269500D01*
X167218993Y-55303940D01*
X167207511Y-55307017D01*
X167081988Y-55379488D01*
X167081982Y-55379493D01*
X166979493Y-55481982D01*
X166979488Y-55481988D01*
X166907017Y-55607511D01*
X166907016Y-55607515D01*
X166869500Y-55747525D01*
X138794811Y-55747525D01*
X138826788Y-55731232D01*
X138966928Y-55629414D01*
X139089414Y-55506928D01*
X139191232Y-55366788D01*
X139269873Y-55212445D01*
X139323402Y-55047701D01*
X139350500Y-54876611D01*
X139350500Y-54703389D01*
X139323402Y-54532299D01*
X139269873Y-54367555D01*
X139191232Y-54213212D01*
X139089414Y-54073072D01*
X138966928Y-53950586D01*
X138826788Y-53848768D01*
X138672445Y-53770127D01*
X138507701Y-53716598D01*
X138507699Y-53716597D01*
X138507698Y-53716597D01*
X138376271Y-53695781D01*
X138336611Y-53689500D01*
X138163389Y-53689500D01*
X138123728Y-53695781D01*
X137992302Y-53716597D01*
X137827552Y-53770128D01*
X137673211Y-53848768D01*
X137593256Y-53906859D01*
X137533072Y-53950586D01*
X137533070Y-53950588D01*
X137533069Y-53950588D01*
X137410588Y-54073069D01*
X137410588Y-54073070D01*
X137410586Y-54073072D01*
X137366859Y-54133256D01*
X137308768Y-54213211D01*
X137230128Y-54367552D01*
X137176597Y-54532302D01*
X137149500Y-54703389D01*
X131500500Y-54703389D01*
X131500500Y-51375321D01*
X137149500Y-51375321D01*
X137149500Y-53124678D01*
X137164032Y-53197735D01*
X137164033Y-53197739D01*
X137164034Y-53197740D01*
X137219399Y-53280601D01*
X137274586Y-53317475D01*
X137302260Y-53335966D01*
X137302264Y-53335967D01*
X137375321Y-53350499D01*
X137375324Y-53350500D01*
X137375326Y-53350500D01*
X139124676Y-53350500D01*
X139124677Y-53350499D01*
X139197740Y-53335966D01*
X139217856Y-53322525D01*
X142849500Y-53322525D01*
X142849500Y-53467475D01*
X142880460Y-53583017D01*
X142887017Y-53607488D01*
X142959488Y-53733011D01*
X142959490Y-53733013D01*
X142959491Y-53733015D01*
X143061985Y-53835509D01*
X143061986Y-53835510D01*
X143061988Y-53835511D01*
X143187511Y-53907982D01*
X143187512Y-53907982D01*
X143187515Y-53907984D01*
X143327525Y-53945500D01*
X143327528Y-53945500D01*
X143472472Y-53945500D01*
X143472475Y-53945500D01*
X143612485Y-53907984D01*
X143738015Y-53835509D01*
X143840509Y-53733015D01*
X143912984Y-53607485D01*
X143950500Y-53467475D01*
X143950500Y-53322525D01*
X143912984Y-53182515D01*
X143907217Y-53172527D01*
X143907216Y-53172525D01*
X145469500Y-53172525D01*
X145469500Y-53317475D01*
X145507016Y-53457485D01*
X145507017Y-53457488D01*
X145579488Y-53583011D01*
X145579490Y-53583013D01*
X145579491Y-53583015D01*
X145681985Y-53685509D01*
X145681986Y-53685510D01*
X145681988Y-53685511D01*
X145807511Y-53757982D01*
X145807512Y-53757982D01*
X145807515Y-53757984D01*
X145947525Y-53795500D01*
X145947528Y-53795500D01*
X146092472Y-53795500D01*
X146092475Y-53795500D01*
X146232485Y-53757984D01*
X146358015Y-53685509D01*
X146460509Y-53583015D01*
X146532984Y-53457485D01*
X146570500Y-53317475D01*
X146570500Y-53172525D01*
X146532984Y-53032515D01*
X146475518Y-52932982D01*
X146460511Y-52906988D01*
X146460506Y-52906982D01*
X146358017Y-52804493D01*
X146358011Y-52804488D01*
X146232488Y-52732017D01*
X146232489Y-52732017D01*
X146221006Y-52728940D01*
X146092475Y-52694500D01*
X145947525Y-52694500D01*
X145818993Y-52728940D01*
X145807511Y-52732017D01*
X145681988Y-52804488D01*
X145681982Y-52804493D01*
X145579493Y-52906982D01*
X145579488Y-52906988D01*
X145507017Y-53032511D01*
X145507016Y-53032515D01*
X145469500Y-53172525D01*
X143907216Y-53172525D01*
X143840511Y-53056988D01*
X143840506Y-53056982D01*
X143738017Y-52954493D01*
X143738011Y-52954488D01*
X143612488Y-52882017D01*
X143612489Y-52882017D01*
X143601006Y-52878940D01*
X143472475Y-52844500D01*
X143327525Y-52844500D01*
X143198993Y-52878940D01*
X143187511Y-52882017D01*
X143061988Y-52954488D01*
X143061982Y-52954493D01*
X142959493Y-53056982D01*
X142959488Y-53056988D01*
X142887017Y-53182511D01*
X142887016Y-53182515D01*
X142849500Y-53322525D01*
X139217856Y-53322525D01*
X139280601Y-53280601D01*
X139335966Y-53197740D01*
X139350500Y-53124674D01*
X139350500Y-52347525D01*
X158044500Y-52347525D01*
X158044500Y-52492475D01*
X158082016Y-52632485D01*
X158082017Y-52632488D01*
X158154488Y-52758011D01*
X158154490Y-52758013D01*
X158154491Y-52758015D01*
X158256985Y-52860509D01*
X158256986Y-52860510D01*
X158256988Y-52860511D01*
X158382511Y-52932982D01*
X158382512Y-52932982D01*
X158382515Y-52932984D01*
X158522525Y-52970500D01*
X158522528Y-52970500D01*
X158667472Y-52970500D01*
X158667475Y-52970500D01*
X158807485Y-52932984D01*
X158933015Y-52860509D01*
X159035509Y-52758015D01*
X159107984Y-52632485D01*
X159145500Y-52492475D01*
X159145500Y-52347525D01*
X159107984Y-52207515D01*
X159035509Y-52081985D01*
X158933015Y-51979491D01*
X158933013Y-51979490D01*
X158933011Y-51979488D01*
X158807488Y-51907017D01*
X158807489Y-51907017D01*
X158796006Y-51903940D01*
X158667475Y-51869500D01*
X158522525Y-51869500D01*
X158393993Y-51903940D01*
X158382511Y-51907017D01*
X158256988Y-51979488D01*
X158256982Y-51979493D01*
X158154493Y-52081982D01*
X158154488Y-52081988D01*
X158082017Y-52207511D01*
X158082016Y-52207515D01*
X158044500Y-52347525D01*
X139350500Y-52347525D01*
X139350500Y-51375326D01*
X139350500Y-51375323D01*
X139350499Y-51375321D01*
X139335967Y-51302264D01*
X139335966Y-51302260D01*
X139324775Y-51285511D01*
X139280601Y-51219399D01*
X139197740Y-51164034D01*
X139197739Y-51164033D01*
X139197735Y-51164032D01*
X139124677Y-51149500D01*
X139124674Y-51149500D01*
X137375326Y-51149500D01*
X137375323Y-51149500D01*
X137302264Y-51164032D01*
X137302260Y-51164033D01*
X137219399Y-51219399D01*
X137164033Y-51302260D01*
X137164032Y-51302264D01*
X137149500Y-51375321D01*
X131500500Y-51375321D01*
X131500500Y-50772525D01*
X145469500Y-50772525D01*
X145469500Y-50917475D01*
X145507016Y-51057485D01*
X145507017Y-51057488D01*
X145579488Y-51183011D01*
X145579490Y-51183013D01*
X145579491Y-51183015D01*
X145681985Y-51285509D01*
X145681986Y-51285510D01*
X145681988Y-51285511D01*
X145807511Y-51357982D01*
X145807512Y-51357982D01*
X145807515Y-51357984D01*
X145947525Y-51395500D01*
X145947528Y-51395500D01*
X146092472Y-51395500D01*
X146092475Y-51395500D01*
X146232485Y-51357984D01*
X146358015Y-51285509D01*
X146460509Y-51183015D01*
X146532984Y-51057485D01*
X146570500Y-50917475D01*
X146570500Y-50772525D01*
X146532984Y-50632515D01*
X146460509Y-50506985D01*
X146358015Y-50404491D01*
X146358013Y-50404490D01*
X146358011Y-50404488D01*
X146232488Y-50332017D01*
X146232489Y-50332017D01*
X146221006Y-50328940D01*
X146092475Y-50294500D01*
X145947525Y-50294500D01*
X145818993Y-50328940D01*
X145807511Y-50332017D01*
X145681988Y-50404488D01*
X145681982Y-50404493D01*
X145579493Y-50506982D01*
X145579488Y-50506988D01*
X145507017Y-50632511D01*
X145507016Y-50632515D01*
X145469500Y-50772525D01*
X131500500Y-50772525D01*
X131500500Y-46477525D01*
X182959500Y-46477525D01*
X182959500Y-46622475D01*
X182997016Y-46762485D01*
X182997017Y-46762488D01*
X183069488Y-46888011D01*
X183069490Y-46888013D01*
X183069491Y-46888015D01*
X183171985Y-46990509D01*
X183171986Y-46990510D01*
X183171988Y-46990511D01*
X183297511Y-47062982D01*
X183297512Y-47062982D01*
X183297515Y-47062984D01*
X183437525Y-47100500D01*
X183437528Y-47100500D01*
X183582472Y-47100500D01*
X183582475Y-47100500D01*
X183722485Y-47062984D01*
X183848015Y-46990509D01*
X183950509Y-46888015D01*
X184022984Y-46762485D01*
X184060500Y-46622475D01*
X184060500Y-46477525D01*
X184022984Y-46337515D01*
X183950509Y-46211985D01*
X183848015Y-46109491D01*
X183848013Y-46109490D01*
X183848011Y-46109488D01*
X183722488Y-46037017D01*
X183722489Y-46037017D01*
X183711006Y-46033940D01*
X183582475Y-45999500D01*
X183437525Y-45999500D01*
X183308993Y-46033940D01*
X183297511Y-46037017D01*
X183171988Y-46109488D01*
X183171982Y-46109493D01*
X183069493Y-46211982D01*
X183069488Y-46211988D01*
X182997017Y-46337511D01*
X182997016Y-46337515D01*
X182959500Y-46477525D01*
X131500500Y-46477525D01*
X131500500Y-43127525D01*
X149449500Y-43127525D01*
X149449500Y-43272475D01*
X149487016Y-43412485D01*
X149487017Y-43412488D01*
X149559488Y-43538011D01*
X149559490Y-43538013D01*
X149559491Y-43538015D01*
X149661985Y-43640509D01*
X149661986Y-43640510D01*
X149661988Y-43640511D01*
X149787511Y-43712982D01*
X149787512Y-43712982D01*
X149787515Y-43712984D01*
X149927525Y-43750500D01*
X149927528Y-43750500D01*
X150072472Y-43750500D01*
X150072475Y-43750500D01*
X150212485Y-43712984D01*
X150338015Y-43640509D01*
X150440509Y-43538015D01*
X150512984Y-43412485D01*
X150550500Y-43272475D01*
X150550500Y-43127525D01*
X150512984Y-42987515D01*
X150440509Y-42861985D01*
X150338015Y-42759491D01*
X150338013Y-42759490D01*
X150338011Y-42759488D01*
X150212488Y-42687017D01*
X150212489Y-42687017D01*
X150201006Y-42683940D01*
X150072475Y-42649500D01*
X149927525Y-42649500D01*
X149798993Y-42683940D01*
X149787511Y-42687017D01*
X149661988Y-42759488D01*
X149661982Y-42759493D01*
X149559493Y-42861982D01*
X149559488Y-42861988D01*
X149487017Y-42987511D01*
X149487016Y-42987515D01*
X149449500Y-43127525D01*
X131500500Y-43127525D01*
X131500500Y-40527525D01*
X133449500Y-40527525D01*
X133449500Y-40672475D01*
X133487016Y-40812485D01*
X133487017Y-40812488D01*
X133559488Y-40938011D01*
X133559490Y-40938013D01*
X133559491Y-40938015D01*
X133661985Y-41040509D01*
X133661986Y-41040510D01*
X133661988Y-41040511D01*
X133787511Y-41112982D01*
X133787512Y-41112982D01*
X133787515Y-41112984D01*
X133927525Y-41150500D01*
X133927528Y-41150500D01*
X134072472Y-41150500D01*
X134072475Y-41150500D01*
X134212485Y-41112984D01*
X134338015Y-41040509D01*
X134440509Y-40938015D01*
X134512984Y-40812485D01*
X134550500Y-40672475D01*
X134550500Y-40527525D01*
X134512984Y-40387515D01*
X134440509Y-40261985D01*
X134338015Y-40159491D01*
X134338013Y-40159490D01*
X134338011Y-40159488D01*
X134212488Y-40087017D01*
X134212489Y-40087017D01*
X134201006Y-40083940D01*
X134072475Y-40049500D01*
X133927525Y-40049500D01*
X133798993Y-40083940D01*
X133787511Y-40087017D01*
X133661988Y-40159488D01*
X133661982Y-40159493D01*
X133559493Y-40261982D01*
X133559488Y-40261988D01*
X133487017Y-40387511D01*
X133487016Y-40387515D01*
X133449500Y-40527525D01*
X131500500Y-40527525D01*
X131500500Y-38158753D01*
X190400000Y-38158753D01*
X190400000Y-38371246D01*
X190433242Y-38581127D01*
X190433242Y-38581130D01*
X190498904Y-38783217D01*
X190595375Y-38972550D01*
X190634728Y-39026716D01*
X191267037Y-38394408D01*
X191284075Y-38457993D01*
X191349901Y-38572007D01*
X191442993Y-38665099D01*
X191557007Y-38730925D01*
X191620590Y-38747962D01*
X190988282Y-39380269D01*
X190988282Y-39380270D01*
X191042449Y-39419624D01*
X191231782Y-39516095D01*
X191433870Y-39581757D01*
X191643754Y-39615000D01*
X191856246Y-39615000D01*
X192066127Y-39581757D01*
X192066130Y-39581757D01*
X192268217Y-39516095D01*
X192457554Y-39419622D01*
X192511716Y-39380270D01*
X192511717Y-39380270D01*
X191879408Y-38747962D01*
X191942993Y-38730925D01*
X192057007Y-38665099D01*
X192150099Y-38572007D01*
X192215925Y-38457993D01*
X192232962Y-38394408D01*
X192865270Y-39026717D01*
X192865270Y-39026716D01*
X192904622Y-38972554D01*
X193001095Y-38783217D01*
X193066757Y-38581130D01*
X193066757Y-38581127D01*
X193100000Y-38371246D01*
X193100000Y-38158753D01*
X193066757Y-37948872D01*
X193066757Y-37948869D01*
X193001095Y-37746782D01*
X192904624Y-37557449D01*
X192865270Y-37503282D01*
X192865269Y-37503282D01*
X192232962Y-38135590D01*
X192215925Y-38072007D01*
X192150099Y-37957993D01*
X192057007Y-37864901D01*
X191942993Y-37799075D01*
X191879409Y-37782037D01*
X192511716Y-37149728D01*
X192457550Y-37110375D01*
X192358655Y-37059985D01*
X192307859Y-37012010D01*
X192291064Y-36944189D01*
X192313602Y-36878054D01*
X192368317Y-36834603D01*
X192414950Y-36825500D01*
X192624676Y-36825500D01*
X192624677Y-36825499D01*
X192697740Y-36810966D01*
X192780601Y-36755601D01*
X192835966Y-36672740D01*
X192850500Y-36599674D01*
X192850500Y-34850326D01*
X192850500Y-34850323D01*
X192850499Y-34850321D01*
X192835967Y-34777264D01*
X192835966Y-34777260D01*
X192807111Y-34734075D01*
X192780601Y-34694399D01*
X192697740Y-34639034D01*
X192697739Y-34639033D01*
X192697735Y-34639032D01*
X192624677Y-34624500D01*
X192624674Y-34624500D01*
X190875326Y-34624500D01*
X190875323Y-34624500D01*
X190802264Y-34639032D01*
X190802260Y-34639033D01*
X190719399Y-34694399D01*
X190664033Y-34777260D01*
X190664032Y-34777264D01*
X190649500Y-34850321D01*
X190649500Y-36599678D01*
X190664032Y-36672735D01*
X190664033Y-36672739D01*
X190664034Y-36672740D01*
X190719399Y-36755601D01*
X190802260Y-36810966D01*
X190802264Y-36810967D01*
X190875321Y-36825499D01*
X190875324Y-36825500D01*
X191085051Y-36825500D01*
X191152090Y-36845185D01*
X191197845Y-36897989D01*
X191207789Y-36967147D01*
X191178764Y-37030703D01*
X191141346Y-37059985D01*
X191042439Y-37110380D01*
X190988282Y-37149727D01*
X190988282Y-37149728D01*
X191620591Y-37782037D01*
X191557007Y-37799075D01*
X191442993Y-37864901D01*
X191349901Y-37957993D01*
X191284075Y-38072007D01*
X191267037Y-38135590D01*
X190634728Y-37503282D01*
X190634727Y-37503282D01*
X190595380Y-37557439D01*
X190498904Y-37746782D01*
X190433242Y-37948869D01*
X190433242Y-37948872D01*
X190400000Y-38158753D01*
X131500500Y-38158753D01*
X131500500Y-34325321D01*
X132379500Y-34325321D01*
X132379500Y-36074678D01*
X132394032Y-36147735D01*
X132394033Y-36147739D01*
X132394034Y-36147740D01*
X132449399Y-36230601D01*
X132532260Y-36285966D01*
X132532264Y-36285967D01*
X132605321Y-36300499D01*
X132605324Y-36300500D01*
X132605326Y-36300500D01*
X134354676Y-36300500D01*
X134354677Y-36300499D01*
X134427740Y-36285966D01*
X134510601Y-36230601D01*
X134565966Y-36147740D01*
X134580500Y-36074674D01*
X134580500Y-35864949D01*
X134600185Y-35797910D01*
X134652989Y-35752155D01*
X134722147Y-35742211D01*
X134785703Y-35771236D01*
X134814985Y-35808654D01*
X134865375Y-35907550D01*
X134904728Y-35961716D01*
X135537037Y-35329408D01*
X135554075Y-35392993D01*
X135619901Y-35507007D01*
X135712993Y-35600099D01*
X135827007Y-35665925D01*
X135890590Y-35682962D01*
X135258282Y-36315269D01*
X135258282Y-36315270D01*
X135312449Y-36354624D01*
X135501782Y-36451095D01*
X135703870Y-36516757D01*
X135913754Y-36550000D01*
X136126246Y-36550000D01*
X136336127Y-36516757D01*
X136336130Y-36516757D01*
X136538217Y-36451095D01*
X136727554Y-36354622D01*
X136781716Y-36315270D01*
X136781717Y-36315270D01*
X136149408Y-35682962D01*
X136212993Y-35665925D01*
X136327007Y-35600099D01*
X136420099Y-35507007D01*
X136485925Y-35392993D01*
X136502962Y-35329409D01*
X137135270Y-35961717D01*
X137135270Y-35961716D01*
X137174622Y-35907554D01*
X137271096Y-35718215D01*
X137303239Y-35619288D01*
X137342676Y-35561612D01*
X137407034Y-35534413D01*
X137475880Y-35546327D01*
X137527357Y-35593571D01*
X137539100Y-35619284D01*
X137540127Y-35622446D01*
X137540128Y-35622447D01*
X137618768Y-35776788D01*
X137720586Y-35916928D01*
X137843072Y-36039414D01*
X137983212Y-36141232D01*
X138137555Y-36219873D01*
X138302299Y-36273402D01*
X138473389Y-36300500D01*
X138473390Y-36300500D01*
X138646610Y-36300500D01*
X138646611Y-36300500D01*
X138817701Y-36273402D01*
X138982445Y-36219873D01*
X139136788Y-36141232D01*
X139276928Y-36039414D01*
X139399414Y-35916928D01*
X139501232Y-35776788D01*
X139579873Y-35622445D01*
X139633402Y-35457701D01*
X139660500Y-35286611D01*
X139660500Y-35113389D01*
X139999500Y-35113389D01*
X139999500Y-35286611D01*
X140026598Y-35457701D01*
X140080127Y-35622445D01*
X140158768Y-35776788D01*
X140260586Y-35916928D01*
X140383072Y-36039414D01*
X140523212Y-36141232D01*
X140677555Y-36219873D01*
X140842299Y-36273402D01*
X141013389Y-36300500D01*
X141013390Y-36300500D01*
X141186610Y-36300500D01*
X141186611Y-36300500D01*
X141357701Y-36273402D01*
X141522445Y-36219873D01*
X141676788Y-36141232D01*
X141816928Y-36039414D01*
X141939414Y-35916928D01*
X142041232Y-35776788D01*
X142119873Y-35622445D01*
X142173402Y-35457701D01*
X142200500Y-35286611D01*
X142200500Y-35113389D01*
X142539500Y-35113389D01*
X142539500Y-35286611D01*
X142566598Y-35457701D01*
X142620127Y-35622445D01*
X142698768Y-35776788D01*
X142800586Y-35916928D01*
X142923072Y-36039414D01*
X143063212Y-36141232D01*
X143217555Y-36219873D01*
X143382299Y-36273402D01*
X143553389Y-36300500D01*
X143553390Y-36300500D01*
X143726610Y-36300500D01*
X143726611Y-36300500D01*
X143897701Y-36273402D01*
X144062445Y-36219873D01*
X144216788Y-36141232D01*
X144356928Y-36039414D01*
X144479414Y-35916928D01*
X144581232Y-35776788D01*
X144659873Y-35622445D01*
X144713402Y-35457701D01*
X144740500Y-35286611D01*
X144740500Y-35113389D01*
X145079500Y-35113389D01*
X145079500Y-35286611D01*
X145106598Y-35457701D01*
X145160127Y-35622445D01*
X145238768Y-35776788D01*
X145340586Y-35916928D01*
X145463072Y-36039414D01*
X145603212Y-36141232D01*
X145757555Y-36219873D01*
X145922299Y-36273402D01*
X146093389Y-36300500D01*
X146093390Y-36300500D01*
X146266610Y-36300500D01*
X146266611Y-36300500D01*
X146437701Y-36273402D01*
X146602445Y-36219873D01*
X146756788Y-36141232D01*
X146896928Y-36039414D01*
X147019414Y-35916928D01*
X147121232Y-35776788D01*
X147199873Y-35622445D01*
X147253402Y-35457701D01*
X147280500Y-35286611D01*
X147280500Y-35113389D01*
X147619500Y-35113389D01*
X147619500Y-35286611D01*
X147646598Y-35457701D01*
X147700127Y-35622445D01*
X147778768Y-35776788D01*
X147880586Y-35916928D01*
X148003072Y-36039414D01*
X148143212Y-36141232D01*
X148297555Y-36219873D01*
X148462299Y-36273402D01*
X148633389Y-36300500D01*
X148633390Y-36300500D01*
X148806610Y-36300500D01*
X148806611Y-36300500D01*
X148977701Y-36273402D01*
X149142445Y-36219873D01*
X149296788Y-36141232D01*
X149436928Y-36039414D01*
X149559414Y-35916928D01*
X149661232Y-35776788D01*
X149739873Y-35622445D01*
X149793402Y-35457701D01*
X149820500Y-35286611D01*
X149820500Y-35113389D01*
X150159500Y-35113389D01*
X150159500Y-35286611D01*
X150186598Y-35457701D01*
X150240127Y-35622445D01*
X150318768Y-35776788D01*
X150420586Y-35916928D01*
X150543072Y-36039414D01*
X150683212Y-36141232D01*
X150837555Y-36219873D01*
X151002299Y-36273402D01*
X151173389Y-36300500D01*
X151173390Y-36300500D01*
X151346610Y-36300500D01*
X151346611Y-36300500D01*
X151517701Y-36273402D01*
X151682445Y-36219873D01*
X151836788Y-36141232D01*
X151976928Y-36039414D01*
X152099414Y-35916928D01*
X152201232Y-35776788D01*
X152279873Y-35622445D01*
X152333402Y-35457701D01*
X152360500Y-35286611D01*
X152360500Y-35113389D01*
X152699500Y-35113389D01*
X152699500Y-35286611D01*
X152726598Y-35457701D01*
X152780127Y-35622445D01*
X152858768Y-35776788D01*
X152960586Y-35916928D01*
X153083072Y-36039414D01*
X153223212Y-36141232D01*
X153377555Y-36219873D01*
X153542299Y-36273402D01*
X153713389Y-36300500D01*
X153713390Y-36300500D01*
X153886610Y-36300500D01*
X153886611Y-36300500D01*
X154057701Y-36273402D01*
X154222445Y-36219873D01*
X154376788Y-36141232D01*
X154516928Y-36039414D01*
X154639414Y-35916928D01*
X154741232Y-35776788D01*
X154819873Y-35622445D01*
X154873402Y-35457701D01*
X154900500Y-35286611D01*
X154900500Y-35113389D01*
X155239500Y-35113389D01*
X155239500Y-35286611D01*
X155266598Y-35457701D01*
X155320127Y-35622445D01*
X155398768Y-35776788D01*
X155500586Y-35916928D01*
X155623072Y-36039414D01*
X155763212Y-36141232D01*
X155917555Y-36219873D01*
X156082299Y-36273402D01*
X156253389Y-36300500D01*
X156253390Y-36300500D01*
X156426610Y-36300500D01*
X156426611Y-36300500D01*
X156597701Y-36273402D01*
X156762445Y-36219873D01*
X156916788Y-36141232D01*
X157056928Y-36039414D01*
X157179414Y-35916928D01*
X157281232Y-35776788D01*
X157359873Y-35622445D01*
X157413402Y-35457701D01*
X157440500Y-35286611D01*
X157440500Y-35113389D01*
X157779500Y-35113389D01*
X157779500Y-35286611D01*
X157806598Y-35457701D01*
X157860127Y-35622445D01*
X157938768Y-35776788D01*
X158040586Y-35916928D01*
X158163072Y-36039414D01*
X158303212Y-36141232D01*
X158457555Y-36219873D01*
X158622299Y-36273402D01*
X158793389Y-36300500D01*
X158793390Y-36300500D01*
X158966610Y-36300500D01*
X158966611Y-36300500D01*
X159137701Y-36273402D01*
X159302445Y-36219873D01*
X159456788Y-36141232D01*
X159596928Y-36039414D01*
X159719414Y-35916928D01*
X159821232Y-35776788D01*
X159899873Y-35622445D01*
X159953402Y-35457701D01*
X159980500Y-35286611D01*
X159980500Y-35113389D01*
X160319500Y-35113389D01*
X160319500Y-35286611D01*
X160346598Y-35457701D01*
X160400127Y-35622445D01*
X160478768Y-35776788D01*
X160580586Y-35916928D01*
X160703072Y-36039414D01*
X160843212Y-36141232D01*
X160997555Y-36219873D01*
X161162299Y-36273402D01*
X161333389Y-36300500D01*
X161333390Y-36300500D01*
X161506610Y-36300500D01*
X161506611Y-36300500D01*
X161677701Y-36273402D01*
X161842445Y-36219873D01*
X161996788Y-36141232D01*
X162136928Y-36039414D01*
X162259414Y-35916928D01*
X162361232Y-35776788D01*
X162439873Y-35622445D01*
X162493402Y-35457701D01*
X162520500Y-35286611D01*
X162520500Y-35113389D01*
X162859500Y-35113389D01*
X162859500Y-35286611D01*
X162886598Y-35457701D01*
X162940127Y-35622445D01*
X163018768Y-35776788D01*
X163120586Y-35916928D01*
X163243072Y-36039414D01*
X163383212Y-36141232D01*
X163537555Y-36219873D01*
X163702299Y-36273402D01*
X163873389Y-36300500D01*
X163873390Y-36300500D01*
X164046610Y-36300500D01*
X164046611Y-36300500D01*
X164217701Y-36273402D01*
X164382445Y-36219873D01*
X164536788Y-36141232D01*
X164676928Y-36039414D01*
X164799414Y-35916928D01*
X164901232Y-35776788D01*
X164979873Y-35622445D01*
X165033402Y-35457701D01*
X165060500Y-35286611D01*
X165060500Y-35113389D01*
X165399500Y-35113389D01*
X165399500Y-35286611D01*
X165426598Y-35457701D01*
X165480127Y-35622445D01*
X165558768Y-35776788D01*
X165660586Y-35916928D01*
X165783072Y-36039414D01*
X165923212Y-36141232D01*
X166077555Y-36219873D01*
X166242299Y-36273402D01*
X166413389Y-36300500D01*
X166413390Y-36300500D01*
X166586610Y-36300500D01*
X166586611Y-36300500D01*
X166757701Y-36273402D01*
X166922445Y-36219873D01*
X167076788Y-36141232D01*
X167216928Y-36039414D01*
X167339414Y-35916928D01*
X167441232Y-35776788D01*
X167519873Y-35622445D01*
X167573402Y-35457701D01*
X167600500Y-35286611D01*
X167600500Y-35113389D01*
X167939500Y-35113389D01*
X167939500Y-35286611D01*
X167966598Y-35457701D01*
X168020127Y-35622445D01*
X168098768Y-35776788D01*
X168200586Y-35916928D01*
X168323072Y-36039414D01*
X168463212Y-36141232D01*
X168617555Y-36219873D01*
X168782299Y-36273402D01*
X168953389Y-36300500D01*
X168953390Y-36300500D01*
X169126610Y-36300500D01*
X169126611Y-36300500D01*
X169297701Y-36273402D01*
X169462445Y-36219873D01*
X169616788Y-36141232D01*
X169756928Y-36039414D01*
X169879414Y-35916928D01*
X169981232Y-35776788D01*
X170059873Y-35622445D01*
X170113402Y-35457701D01*
X170140500Y-35286611D01*
X170140500Y-35113389D01*
X170113402Y-34942299D01*
X170059873Y-34777555D01*
X170059871Y-34777552D01*
X170059871Y-34777550D01*
X169999434Y-34658936D01*
X169981232Y-34623212D01*
X169879414Y-34483072D01*
X169756928Y-34360586D01*
X169616788Y-34258768D01*
X169462445Y-34180127D01*
X169297701Y-34126598D01*
X169297699Y-34126597D01*
X169297698Y-34126597D01*
X169166271Y-34105781D01*
X169126611Y-34099500D01*
X168953389Y-34099500D01*
X168913728Y-34105781D01*
X168782302Y-34126597D01*
X168617552Y-34180128D01*
X168463211Y-34258768D01*
X168383256Y-34316859D01*
X168323072Y-34360586D01*
X168323070Y-34360588D01*
X168323069Y-34360588D01*
X168200588Y-34483069D01*
X168200588Y-34483070D01*
X168200586Y-34483072D01*
X168162822Y-34535050D01*
X168098768Y-34623211D01*
X168020128Y-34777552D01*
X167966597Y-34942302D01*
X167956349Y-35007007D01*
X167939500Y-35113389D01*
X167600500Y-35113389D01*
X167573402Y-34942299D01*
X167519873Y-34777555D01*
X167441232Y-34623212D01*
X167339414Y-34483072D01*
X167216928Y-34360586D01*
X167076788Y-34258768D01*
X166922445Y-34180127D01*
X166757701Y-34126598D01*
X166757699Y-34126597D01*
X166757698Y-34126597D01*
X166626271Y-34105781D01*
X166586611Y-34099500D01*
X166413389Y-34099500D01*
X166373728Y-34105781D01*
X166242302Y-34126597D01*
X166077552Y-34180128D01*
X165923211Y-34258768D01*
X165843256Y-34316859D01*
X165783072Y-34360586D01*
X165783070Y-34360588D01*
X165783069Y-34360588D01*
X165660588Y-34483069D01*
X165660588Y-34483070D01*
X165660586Y-34483072D01*
X165622822Y-34535050D01*
X165558768Y-34623211D01*
X165480128Y-34777552D01*
X165426597Y-34942302D01*
X165416349Y-35007007D01*
X165399500Y-35113389D01*
X165060500Y-35113389D01*
X165033402Y-34942299D01*
X164979873Y-34777555D01*
X164901232Y-34623212D01*
X164799414Y-34483072D01*
X164676928Y-34360586D01*
X164536788Y-34258768D01*
X164382445Y-34180127D01*
X164217701Y-34126598D01*
X164217699Y-34126597D01*
X164217698Y-34126597D01*
X164086271Y-34105781D01*
X164046611Y-34099500D01*
X163873389Y-34099500D01*
X163833728Y-34105781D01*
X163702302Y-34126597D01*
X163537552Y-34180128D01*
X163383211Y-34258768D01*
X163303256Y-34316859D01*
X163243072Y-34360586D01*
X163243070Y-34360588D01*
X163243069Y-34360588D01*
X163120588Y-34483069D01*
X163120588Y-34483070D01*
X163120586Y-34483072D01*
X163082822Y-34535050D01*
X163018768Y-34623211D01*
X162940128Y-34777552D01*
X162886597Y-34942302D01*
X162876349Y-35007007D01*
X162859500Y-35113389D01*
X162520500Y-35113389D01*
X162493402Y-34942299D01*
X162439873Y-34777555D01*
X162361232Y-34623212D01*
X162259414Y-34483072D01*
X162136928Y-34360586D01*
X161996788Y-34258768D01*
X161842445Y-34180127D01*
X161677701Y-34126598D01*
X161677699Y-34126597D01*
X161677698Y-34126597D01*
X161546271Y-34105781D01*
X161506611Y-34099500D01*
X161333389Y-34099500D01*
X161293728Y-34105781D01*
X161162302Y-34126597D01*
X160997552Y-34180128D01*
X160843211Y-34258768D01*
X160763256Y-34316859D01*
X160703072Y-34360586D01*
X160703070Y-34360588D01*
X160703069Y-34360588D01*
X160580588Y-34483069D01*
X160580588Y-34483070D01*
X160580586Y-34483072D01*
X160542822Y-34535050D01*
X160478768Y-34623211D01*
X160400128Y-34777552D01*
X160346597Y-34942302D01*
X160336349Y-35007007D01*
X160319500Y-35113389D01*
X159980500Y-35113389D01*
X159953402Y-34942299D01*
X159899873Y-34777555D01*
X159821232Y-34623212D01*
X159719414Y-34483072D01*
X159596928Y-34360586D01*
X159456788Y-34258768D01*
X159302445Y-34180127D01*
X159137701Y-34126598D01*
X159137699Y-34126597D01*
X159137698Y-34126597D01*
X159006271Y-34105781D01*
X158966611Y-34099500D01*
X158793389Y-34099500D01*
X158753728Y-34105781D01*
X158622302Y-34126597D01*
X158457552Y-34180128D01*
X158303211Y-34258768D01*
X158223256Y-34316859D01*
X158163072Y-34360586D01*
X158163070Y-34360588D01*
X158163069Y-34360588D01*
X158040588Y-34483069D01*
X158040588Y-34483070D01*
X158040586Y-34483072D01*
X158002822Y-34535050D01*
X157938768Y-34623211D01*
X157860128Y-34777552D01*
X157806597Y-34942302D01*
X157796349Y-35007007D01*
X157779500Y-35113389D01*
X157440500Y-35113389D01*
X157413402Y-34942299D01*
X157359873Y-34777555D01*
X157281232Y-34623212D01*
X157179414Y-34483072D01*
X157056928Y-34360586D01*
X156916788Y-34258768D01*
X156762445Y-34180127D01*
X156597701Y-34126598D01*
X156597699Y-34126597D01*
X156597698Y-34126597D01*
X156466271Y-34105781D01*
X156426611Y-34099500D01*
X156253389Y-34099500D01*
X156213728Y-34105781D01*
X156082302Y-34126597D01*
X155917552Y-34180128D01*
X155763211Y-34258768D01*
X155683256Y-34316859D01*
X155623072Y-34360586D01*
X155623070Y-34360588D01*
X155623069Y-34360588D01*
X155500588Y-34483069D01*
X155500588Y-34483070D01*
X155500586Y-34483072D01*
X155462822Y-34535050D01*
X155398768Y-34623211D01*
X155320128Y-34777552D01*
X155266597Y-34942302D01*
X155256349Y-35007007D01*
X155239500Y-35113389D01*
X154900500Y-35113389D01*
X154873402Y-34942299D01*
X154819873Y-34777555D01*
X154741232Y-34623212D01*
X154639414Y-34483072D01*
X154516928Y-34360586D01*
X154376788Y-34258768D01*
X154222445Y-34180127D01*
X154057701Y-34126598D01*
X154057699Y-34126597D01*
X154057698Y-34126597D01*
X153926271Y-34105781D01*
X153886611Y-34099500D01*
X153713389Y-34099500D01*
X153673728Y-34105781D01*
X153542302Y-34126597D01*
X153377552Y-34180128D01*
X153223211Y-34258768D01*
X153143256Y-34316859D01*
X153083072Y-34360586D01*
X153083070Y-34360588D01*
X153083069Y-34360588D01*
X152960588Y-34483069D01*
X152960588Y-34483070D01*
X152960586Y-34483072D01*
X152922822Y-34535050D01*
X152858768Y-34623211D01*
X152780128Y-34777552D01*
X152726597Y-34942302D01*
X152716349Y-35007007D01*
X152699500Y-35113389D01*
X152360500Y-35113389D01*
X152333402Y-34942299D01*
X152279873Y-34777555D01*
X152201232Y-34623212D01*
X152099414Y-34483072D01*
X151976928Y-34360586D01*
X151836788Y-34258768D01*
X151682445Y-34180127D01*
X151517701Y-34126598D01*
X151517699Y-34126597D01*
X151517698Y-34126597D01*
X151386271Y-34105781D01*
X151346611Y-34099500D01*
X151173389Y-34099500D01*
X151133728Y-34105781D01*
X151002302Y-34126597D01*
X150837552Y-34180128D01*
X150683211Y-34258768D01*
X150603256Y-34316859D01*
X150543072Y-34360586D01*
X150543070Y-34360588D01*
X150543069Y-34360588D01*
X150420588Y-34483069D01*
X150420588Y-34483070D01*
X150420586Y-34483072D01*
X150382822Y-34535050D01*
X150318768Y-34623211D01*
X150240128Y-34777552D01*
X150186597Y-34942302D01*
X150176349Y-35007007D01*
X150159500Y-35113389D01*
X149820500Y-35113389D01*
X149793402Y-34942299D01*
X149739873Y-34777555D01*
X149661232Y-34623212D01*
X149559414Y-34483072D01*
X149436928Y-34360586D01*
X149296788Y-34258768D01*
X149142445Y-34180127D01*
X148977701Y-34126598D01*
X148977699Y-34126597D01*
X148977698Y-34126597D01*
X148846271Y-34105781D01*
X148806611Y-34099500D01*
X148633389Y-34099500D01*
X148593728Y-34105781D01*
X148462302Y-34126597D01*
X148297552Y-34180128D01*
X148143211Y-34258768D01*
X148063256Y-34316859D01*
X148003072Y-34360586D01*
X148003070Y-34360588D01*
X148003069Y-34360588D01*
X147880588Y-34483069D01*
X147880588Y-34483070D01*
X147880586Y-34483072D01*
X147842822Y-34535050D01*
X147778768Y-34623211D01*
X147700128Y-34777552D01*
X147646597Y-34942302D01*
X147636349Y-35007007D01*
X147619500Y-35113389D01*
X147280500Y-35113389D01*
X147253402Y-34942299D01*
X147199873Y-34777555D01*
X147121232Y-34623212D01*
X147019414Y-34483072D01*
X146896928Y-34360586D01*
X146756788Y-34258768D01*
X146602445Y-34180127D01*
X146437701Y-34126598D01*
X146437699Y-34126597D01*
X146437698Y-34126597D01*
X146306271Y-34105781D01*
X146266611Y-34099500D01*
X146093389Y-34099500D01*
X146053728Y-34105781D01*
X145922302Y-34126597D01*
X145757552Y-34180128D01*
X145603211Y-34258768D01*
X145523256Y-34316859D01*
X145463072Y-34360586D01*
X145463070Y-34360588D01*
X145463069Y-34360588D01*
X145340588Y-34483069D01*
X145340588Y-34483070D01*
X145340586Y-34483072D01*
X145302822Y-34535050D01*
X145238768Y-34623211D01*
X145160128Y-34777552D01*
X145106597Y-34942302D01*
X145096349Y-35007007D01*
X145079500Y-35113389D01*
X144740500Y-35113389D01*
X144713402Y-34942299D01*
X144659873Y-34777555D01*
X144581232Y-34623212D01*
X144479414Y-34483072D01*
X144356928Y-34360586D01*
X144216788Y-34258768D01*
X144062445Y-34180127D01*
X143897701Y-34126598D01*
X143897699Y-34126597D01*
X143897698Y-34126597D01*
X143766271Y-34105781D01*
X143726611Y-34099500D01*
X143553389Y-34099500D01*
X143513728Y-34105781D01*
X143382302Y-34126597D01*
X143217552Y-34180128D01*
X143063211Y-34258768D01*
X142983256Y-34316859D01*
X142923072Y-34360586D01*
X142923070Y-34360588D01*
X142923069Y-34360588D01*
X142800588Y-34483069D01*
X142800588Y-34483070D01*
X142800586Y-34483072D01*
X142762822Y-34535050D01*
X142698768Y-34623211D01*
X142620128Y-34777552D01*
X142566597Y-34942302D01*
X142556349Y-35007007D01*
X142539500Y-35113389D01*
X142200500Y-35113389D01*
X142173402Y-34942299D01*
X142119873Y-34777555D01*
X142041232Y-34623212D01*
X141939414Y-34483072D01*
X141816928Y-34360586D01*
X141676788Y-34258768D01*
X141522445Y-34180127D01*
X141357701Y-34126598D01*
X141357699Y-34126597D01*
X141357698Y-34126597D01*
X141226271Y-34105781D01*
X141186611Y-34099500D01*
X141013389Y-34099500D01*
X140973728Y-34105781D01*
X140842302Y-34126597D01*
X140677552Y-34180128D01*
X140523211Y-34258768D01*
X140443256Y-34316859D01*
X140383072Y-34360586D01*
X140383070Y-34360588D01*
X140383069Y-34360588D01*
X140260588Y-34483069D01*
X140260588Y-34483070D01*
X140260586Y-34483072D01*
X140222822Y-34535050D01*
X140158768Y-34623211D01*
X140080128Y-34777552D01*
X140026597Y-34942302D01*
X140016349Y-35007007D01*
X139999500Y-35113389D01*
X139660500Y-35113389D01*
X139633402Y-34942299D01*
X139579873Y-34777555D01*
X139501232Y-34623212D01*
X139399414Y-34483072D01*
X139276928Y-34360586D01*
X139136788Y-34258768D01*
X138982445Y-34180127D01*
X138817701Y-34126598D01*
X138817699Y-34126597D01*
X138817698Y-34126597D01*
X138686271Y-34105781D01*
X138646611Y-34099500D01*
X138473389Y-34099500D01*
X138433728Y-34105781D01*
X138302302Y-34126597D01*
X138137552Y-34180128D01*
X137983211Y-34258768D01*
X137903256Y-34316859D01*
X137843072Y-34360586D01*
X137843070Y-34360588D01*
X137843069Y-34360588D01*
X137720588Y-34483069D01*
X137720588Y-34483070D01*
X137720586Y-34483072D01*
X137682822Y-34535050D01*
X137618768Y-34623211D01*
X137540128Y-34777550D01*
X137539099Y-34780720D01*
X137538381Y-34781769D01*
X137538266Y-34782048D01*
X137538207Y-34782023D01*
X137499657Y-34838393D01*
X137435297Y-34865587D01*
X137366451Y-34853668D01*
X137314979Y-34806420D01*
X137303239Y-34780711D01*
X137271096Y-34681784D01*
X137174624Y-34492449D01*
X137135270Y-34438282D01*
X137135269Y-34438282D01*
X136502962Y-35070590D01*
X136485925Y-35007007D01*
X136420099Y-34892993D01*
X136327007Y-34799901D01*
X136212993Y-34734075D01*
X136149409Y-34717037D01*
X136781716Y-34084728D01*
X136727550Y-34045375D01*
X136538217Y-33948904D01*
X136336129Y-33883242D01*
X136126246Y-33850000D01*
X135913754Y-33850000D01*
X135703872Y-33883242D01*
X135703869Y-33883242D01*
X135501782Y-33948904D01*
X135312439Y-34045380D01*
X135258282Y-34084727D01*
X135258282Y-34084728D01*
X135890591Y-34717037D01*
X135827007Y-34734075D01*
X135712993Y-34799901D01*
X135619901Y-34892993D01*
X135554075Y-35007007D01*
X135537037Y-35070591D01*
X134904728Y-34438282D01*
X134904727Y-34438282D01*
X134865380Y-34492440D01*
X134865378Y-34492443D01*
X134814984Y-34591346D01*
X134767010Y-34642141D01*
X134699188Y-34658936D01*
X134633054Y-34636398D01*
X134589603Y-34581683D01*
X134580500Y-34535050D01*
X134580500Y-34325323D01*
X134580499Y-34325321D01*
X134565967Y-34252264D01*
X134565966Y-34252260D01*
X134510601Y-34169399D01*
X134427740Y-34114034D01*
X134427739Y-34114033D01*
X134427735Y-34114032D01*
X134354677Y-34099500D01*
X134354674Y-34099500D01*
X132605326Y-34099500D01*
X132605323Y-34099500D01*
X132532264Y-34114032D01*
X132532260Y-34114033D01*
X132449399Y-34169399D01*
X132394033Y-34252260D01*
X132394032Y-34252264D01*
X132379500Y-34325321D01*
X131500500Y-34325321D01*
X131500500Y-28974500D01*
X131520185Y-28907461D01*
X131572989Y-28861706D01*
X131624500Y-28850500D01*
X196375500Y-28850500D01*
X196442539Y-28870185D01*
G37*
%TD.AperFunction*%
%TD*%
M02*
