%TF.GenerationSoftware,KiCad,Pcbnew,9.0.6*%
%TF.CreationDate,2026-01-10T20:09:33+01:00*%
%TF.ProjectId,nowyprojekt,6e6f7779-7072-46f6-9a65-6b742e6b6963,rev?*%
%TF.SameCoordinates,Original*%
%TF.FileFunction,Soldermask,Top*%
%TF.FilePolarity,Negative*%
%FSLAX46Y46*%
G04 Gerber Fmt 4.6, Leading zero omitted, Abs format (unit mm)*
G04 Created by KiCad (PCBNEW 9.0.6) date 2026-01-10 20:09:33*
%MOMM*%
%LPD*%
G01*
G04 APERTURE LIST*
G04 Aperture macros list*
%AMRoundRect*
0 Rectangle with rounded corners*
0 $1 Rounding radius*
0 $2 $3 $4 $5 $6 $7 $8 $9 X,Y pos of 4 corners*
0 Add a 4 corners polygon primitive as box body*
4,1,4,$2,$3,$4,$5,$6,$7,$8,$9,$2,$3,0*
0 Add four circle primitives for the rounded corners*
1,1,$1+$1,$2,$3*
1,1,$1+$1,$4,$5*
1,1,$1+$1,$6,$7*
1,1,$1+$1,$8,$9*
0 Add four rect primitives between the rounded corners*
20,1,$1+$1,$2,$3,$4,$5,0*
20,1,$1+$1,$4,$5,$6,$7,0*
20,1,$1+$1,$6,$7,$8,$9,0*
20,1,$1+$1,$8,$9,$2,$3,0*%
G04 Aperture macros list end*
%ADD10RoundRect,0.250000X0.785000X0.945000X-0.785000X0.945000X-0.785000X-0.945000X0.785000X-0.945000X0*%
%ADD11RoundRect,0.250000X0.350000X-0.850000X0.350000X0.850000X-0.350000X0.850000X-0.350000X-0.850000X0*%
%ADD12RoundRect,0.249997X2.650003X-2.950003X2.650003X2.950003X-2.650003X2.950003X-2.650003X-2.950003X0*%
%ADD13RoundRect,0.243750X0.243750X0.456250X-0.243750X0.456250X-0.243750X-0.456250X0.243750X-0.456250X0*%
%ADD14R,1.700000X1.700000*%
%ADD15C,1.700000*%
%ADD16RoundRect,0.225000X0.250000X-0.225000X0.250000X0.225000X-0.250000X0.225000X-0.250000X-0.225000X0*%
%ADD17RoundRect,0.200000X0.200000X0.275000X-0.200000X0.275000X-0.200000X-0.275000X0.200000X-0.275000X0*%
%ADD18RoundRect,0.225000X-0.225000X-0.250000X0.225000X-0.250000X0.225000X0.250000X-0.225000X0.250000X0*%
%ADD19RoundRect,0.250000X-0.945000X0.785000X-0.945000X-0.785000X0.945000X-0.785000X0.945000X0.785000X0*%
%ADD20RoundRect,0.250000X0.275000X0.700000X-0.275000X0.700000X-0.275000X-0.700000X0.275000X-0.700000X0*%
%ADD21RoundRect,0.137500X-0.600000X-0.137500X0.600000X-0.137500X0.600000X0.137500X-0.600000X0.137500X0*%
%ADD22RoundRect,0.137500X-0.137500X-0.600000X0.137500X-0.600000X0.137500X0.600000X-0.137500X0.600000X0*%
%ADD23RoundRect,0.225000X-0.250000X0.225000X-0.250000X-0.225000X0.250000X-0.225000X0.250000X0.225000X0*%
%ADD24RoundRect,0.200000X0.275000X-0.200000X0.275000X0.200000X-0.275000X0.200000X-0.275000X-0.200000X0*%
%ADD25RoundRect,0.225000X0.225000X0.250000X-0.225000X0.250000X-0.225000X-0.250000X0.225000X-0.250000X0*%
G04 APERTURE END LIST*
D10*
%TO.C,C3*%
X181720000Y-50000000D03*
X176780000Y-50000000D03*
%TD*%
D11*
%TO.C,U3*%
X180995000Y-43975000D03*
X183275000Y-43975000D03*
D12*
X183275000Y-37675000D03*
D11*
X185555000Y-43975000D03*
%TD*%
D13*
%TO.C,D1*%
X189937500Y-52500000D03*
X188062500Y-52500000D03*
%TD*%
D14*
%TO.C,J4*%
X133620000Y-64200000D03*
D15*
X136160000Y-64200000D03*
X138700000Y-64200000D03*
X141240000Y-64200000D03*
X143780000Y-64200000D03*
X146320000Y-64200000D03*
X148860000Y-64200000D03*
X151400000Y-64200000D03*
X153940000Y-64200000D03*
X156480000Y-64200000D03*
X159020000Y-64200000D03*
X161560000Y-64200000D03*
X164100000Y-64200000D03*
X166640000Y-64200000D03*
X169180000Y-64200000D03*
%TD*%
D16*
%TO.C,C9*%
X143820000Y-52020000D03*
X143820000Y-50470000D03*
%TD*%
D17*
%TO.C,R1*%
X151225000Y-39800000D03*
X149575000Y-39800000D03*
%TD*%
D18*
%TO.C,C6*%
X160225000Y-54400000D03*
X161775000Y-54400000D03*
%TD*%
D19*
%TO.C,C4*%
X193000000Y-42780000D03*
X193000000Y-47720000D03*
%TD*%
D20*
%TO.C,L1*%
X164375000Y-56800000D03*
X161225000Y-56800000D03*
%TD*%
D14*
%TO.C,J3*%
X133480000Y-35200000D03*
D15*
X136020000Y-35200000D03*
X138560000Y-35200000D03*
X141100000Y-35200000D03*
X143640000Y-35200000D03*
X146180000Y-35200000D03*
X148720000Y-35200000D03*
X151260000Y-35200000D03*
X153800000Y-35200000D03*
X156340000Y-35200000D03*
X158880000Y-35200000D03*
X161420000Y-35200000D03*
X163960000Y-35200000D03*
X166500000Y-35200000D03*
X169040000Y-35200000D03*
%TD*%
D21*
%TO.C,U2*%
X147907500Y-48857500D03*
X147907500Y-49657500D03*
X147907500Y-50457500D03*
X147907500Y-51257500D03*
X147907500Y-52057500D03*
X147907500Y-52857500D03*
X147907500Y-53657500D03*
X147907500Y-54457500D03*
D22*
X149270000Y-55820000D03*
X150070000Y-55820000D03*
X150870000Y-55820000D03*
X151670000Y-55820000D03*
X152470000Y-55820000D03*
X153270000Y-55820000D03*
X154070000Y-55820000D03*
X154870000Y-55820000D03*
D21*
X156232500Y-54457500D03*
X156232500Y-53657500D03*
X156232500Y-52857500D03*
X156232500Y-52057500D03*
X156232500Y-51257500D03*
X156232500Y-50457500D03*
X156232500Y-49657500D03*
X156232500Y-48857500D03*
D22*
X154870000Y-47495000D03*
X154070000Y-47495000D03*
X153270000Y-47495000D03*
X152470000Y-47495000D03*
X151670000Y-47495000D03*
X150870000Y-47495000D03*
X150070000Y-47495000D03*
X149270000Y-47495000D03*
%TD*%
D14*
%TO.C,J1*%
X191750000Y-35725000D03*
D15*
X191750000Y-38265000D03*
%TD*%
D23*
%TO.C,C8*%
X142220000Y-52445000D03*
X142220000Y-53995000D03*
%TD*%
%TO.C,C1*%
X185000000Y-46475000D03*
X185000000Y-48025000D03*
%TD*%
D24*
%TO.C,R2*%
X185250000Y-51325000D03*
X185250000Y-49675000D03*
%TD*%
D25*
%TO.C,C2*%
X182275000Y-47000000D03*
X180725000Y-47000000D03*
%TD*%
D14*
%TO.C,J2*%
X138250000Y-52250000D03*
D15*
X138250000Y-54790000D03*
X138250000Y-57330000D03*
%TD*%
M02*
