%TF.GenerationSoftware,KiCad,Pcbnew,9.0.6*%
%TF.CreationDate,2026-01-10T20:09:33+01:00*%
%TF.ProjectId,nowyprojekt,6e6f7779-7072-46f6-9a65-6b742e6b6963,rev?*%
%TF.SameCoordinates,Original*%
%TF.FileFunction,Legend,Bot*%
%TF.FilePolarity,Positive*%
%FSLAX46Y46*%
G04 Gerber Fmt 4.6, Leading zero omitted, Abs format (unit mm)*
G04 Created by KiCad (PCBNEW 9.0.6) date 2026-01-10 20:09:33*
%MOMM*%
%LPD*%
G01*
G04 APERTURE LIST*
%ADD10C,0.150000*%
%ADD11C,0.120000*%
G04 APERTURE END LIST*
D10*
X145442857Y-47759580D02*
X145490476Y-47807200D01*
X145490476Y-47807200D02*
X145633333Y-47854819D01*
X145633333Y-47854819D02*
X145728571Y-47854819D01*
X145728571Y-47854819D02*
X145871428Y-47807200D01*
X145871428Y-47807200D02*
X145966666Y-47711961D01*
X145966666Y-47711961D02*
X146014285Y-47616723D01*
X146014285Y-47616723D02*
X146061904Y-47426247D01*
X146061904Y-47426247D02*
X146061904Y-47283390D01*
X146061904Y-47283390D02*
X146014285Y-47092914D01*
X146014285Y-47092914D02*
X145966666Y-46997676D01*
X145966666Y-46997676D02*
X145871428Y-46902438D01*
X145871428Y-46902438D02*
X145728571Y-46854819D01*
X145728571Y-46854819D02*
X145633333Y-46854819D01*
X145633333Y-46854819D02*
X145490476Y-46902438D01*
X145490476Y-46902438D02*
X145442857Y-46950057D01*
X144490476Y-47854819D02*
X145061904Y-47854819D01*
X144776190Y-47854819D02*
X144776190Y-46854819D01*
X144776190Y-46854819D02*
X144871428Y-46997676D01*
X144871428Y-46997676D02*
X144966666Y-47092914D01*
X144966666Y-47092914D02*
X145061904Y-47140533D01*
X143871428Y-46854819D02*
X143776190Y-46854819D01*
X143776190Y-46854819D02*
X143680952Y-46902438D01*
X143680952Y-46902438D02*
X143633333Y-46950057D01*
X143633333Y-46950057D02*
X143585714Y-47045295D01*
X143585714Y-47045295D02*
X143538095Y-47235771D01*
X143538095Y-47235771D02*
X143538095Y-47473866D01*
X143538095Y-47473866D02*
X143585714Y-47664342D01*
X143585714Y-47664342D02*
X143633333Y-47759580D01*
X143633333Y-47759580D02*
X143680952Y-47807200D01*
X143680952Y-47807200D02*
X143776190Y-47854819D01*
X143776190Y-47854819D02*
X143871428Y-47854819D01*
X143871428Y-47854819D02*
X143966666Y-47807200D01*
X143966666Y-47807200D02*
X144014285Y-47759580D01*
X144014285Y-47759580D02*
X144061904Y-47664342D01*
X144061904Y-47664342D02*
X144109523Y-47473866D01*
X144109523Y-47473866D02*
X144109523Y-47235771D01*
X144109523Y-47235771D02*
X144061904Y-47045295D01*
X144061904Y-47045295D02*
X144014285Y-46950057D01*
X144014285Y-46950057D02*
X143966666Y-46902438D01*
X143966666Y-46902438D02*
X143871428Y-46854819D01*
X145966666Y-55559580D02*
X146014285Y-55607200D01*
X146014285Y-55607200D02*
X146157142Y-55654819D01*
X146157142Y-55654819D02*
X146252380Y-55654819D01*
X146252380Y-55654819D02*
X146395237Y-55607200D01*
X146395237Y-55607200D02*
X146490475Y-55511961D01*
X146490475Y-55511961D02*
X146538094Y-55416723D01*
X146538094Y-55416723D02*
X146585713Y-55226247D01*
X146585713Y-55226247D02*
X146585713Y-55083390D01*
X146585713Y-55083390D02*
X146538094Y-54892914D01*
X146538094Y-54892914D02*
X146490475Y-54797676D01*
X146490475Y-54797676D02*
X146395237Y-54702438D01*
X146395237Y-54702438D02*
X146252380Y-54654819D01*
X146252380Y-54654819D02*
X146157142Y-54654819D01*
X146157142Y-54654819D02*
X146014285Y-54702438D01*
X146014285Y-54702438D02*
X145966666Y-54750057D01*
X145061904Y-54654819D02*
X145538094Y-54654819D01*
X145538094Y-54654819D02*
X145585713Y-55131009D01*
X145585713Y-55131009D02*
X145538094Y-55083390D01*
X145538094Y-55083390D02*
X145442856Y-55035771D01*
X145442856Y-55035771D02*
X145204761Y-55035771D01*
X145204761Y-55035771D02*
X145109523Y-55083390D01*
X145109523Y-55083390D02*
X145061904Y-55131009D01*
X145061904Y-55131009D02*
X145014285Y-55226247D01*
X145014285Y-55226247D02*
X145014285Y-55464342D01*
X145014285Y-55464342D02*
X145061904Y-55559580D01*
X145061904Y-55559580D02*
X145109523Y-55607200D01*
X145109523Y-55607200D02*
X145204761Y-55654819D01*
X145204761Y-55654819D02*
X145442856Y-55654819D01*
X145442856Y-55654819D02*
X145538094Y-55607200D01*
X145538094Y-55607200D02*
X145585713Y-55559580D01*
X161966666Y-50759580D02*
X162014285Y-50807200D01*
X162014285Y-50807200D02*
X162157142Y-50854819D01*
X162157142Y-50854819D02*
X162252380Y-50854819D01*
X162252380Y-50854819D02*
X162395237Y-50807200D01*
X162395237Y-50807200D02*
X162490475Y-50711961D01*
X162490475Y-50711961D02*
X162538094Y-50616723D01*
X162538094Y-50616723D02*
X162585713Y-50426247D01*
X162585713Y-50426247D02*
X162585713Y-50283390D01*
X162585713Y-50283390D02*
X162538094Y-50092914D01*
X162538094Y-50092914D02*
X162490475Y-49997676D01*
X162490475Y-49997676D02*
X162395237Y-49902438D01*
X162395237Y-49902438D02*
X162252380Y-49854819D01*
X162252380Y-49854819D02*
X162157142Y-49854819D01*
X162157142Y-49854819D02*
X162014285Y-49902438D01*
X162014285Y-49902438D02*
X161966666Y-49950057D01*
X161633332Y-49854819D02*
X160966666Y-49854819D01*
X160966666Y-49854819D02*
X161395237Y-50854819D01*
D11*
%TO.C,C10*%
X143710000Y-49704420D02*
X143710000Y-49985580D01*
X144730000Y-49704420D02*
X144730000Y-49985580D01*
%TO.C,C5*%
X144110000Y-52985580D02*
X144110000Y-52704420D01*
X145130000Y-52985580D02*
X145130000Y-52704420D01*
%TO.C,C7*%
X159510000Y-51785580D02*
X159510000Y-51504420D01*
X160530000Y-51785580D02*
X160530000Y-51504420D01*
%TD*%
M02*
