%TF.GenerationSoftware,KiCad,Pcbnew,9.0.6*%
%TF.CreationDate,2026-01-10T20:09:33+01:00*%
%TF.ProjectId,nowyprojekt,6e6f7779-7072-46f6-9a65-6b742e6b6963,rev?*%
%TF.SameCoordinates,Original*%
%TF.FileFunction,Legend,Top*%
%TF.FilePolarity,Positive*%
%FSLAX46Y46*%
G04 Gerber Fmt 4.6, Leading zero omitted, Abs format (unit mm)*
G04 Created by KiCad (PCBNEW 9.0.6) date 2026-01-10 20:09:33*
%MOMM*%
%LPD*%
G01*
G04 APERTURE LIST*
%ADD10C,0.100000*%
%ADD11C,0.200000*%
%ADD12C,0.350000*%
%ADD13C,0.125000*%
%ADD14C,0.150000*%
%ADD15C,0.120000*%
G04 APERTURE END LIST*
D10*
X177006265Y-60486704D02*
X177482455Y-60486704D01*
X176911027Y-60772419D02*
X177244360Y-59772419D01*
X177244360Y-59772419D02*
X177577693Y-60772419D01*
X177768170Y-59772419D02*
X178339598Y-59772419D01*
X178053884Y-60772419D02*
X178053884Y-59772419D01*
X178672932Y-60772419D02*
X178672932Y-60105752D01*
X178672932Y-60200990D02*
X178720551Y-60153371D01*
X178720551Y-60153371D02*
X178815789Y-60105752D01*
X178815789Y-60105752D02*
X178958646Y-60105752D01*
X178958646Y-60105752D02*
X179053884Y-60153371D01*
X179053884Y-60153371D02*
X179101503Y-60248609D01*
X179101503Y-60248609D02*
X179101503Y-60772419D01*
X179101503Y-60248609D02*
X179149122Y-60153371D01*
X179149122Y-60153371D02*
X179244360Y-60105752D01*
X179244360Y-60105752D02*
X179387217Y-60105752D01*
X179387217Y-60105752D02*
X179482456Y-60153371D01*
X179482456Y-60153371D02*
X179530075Y-60248609D01*
X179530075Y-60248609D02*
X179530075Y-60772419D01*
X180387217Y-60724800D02*
X180291979Y-60772419D01*
X180291979Y-60772419D02*
X180101503Y-60772419D01*
X180101503Y-60772419D02*
X180006265Y-60724800D01*
X180006265Y-60724800D02*
X179958646Y-60629561D01*
X179958646Y-60629561D02*
X179958646Y-60248609D01*
X179958646Y-60248609D02*
X180006265Y-60153371D01*
X180006265Y-60153371D02*
X180101503Y-60105752D01*
X180101503Y-60105752D02*
X180291979Y-60105752D01*
X180291979Y-60105752D02*
X180387217Y-60153371D01*
X180387217Y-60153371D02*
X180434836Y-60248609D01*
X180434836Y-60248609D02*
X180434836Y-60343847D01*
X180434836Y-60343847D02*
X179958646Y-60439085D01*
X181291979Y-60105752D02*
X181291979Y-60915276D01*
X181291979Y-60915276D02*
X181244360Y-61010514D01*
X181244360Y-61010514D02*
X181196741Y-61058133D01*
X181196741Y-61058133D02*
X181101503Y-61105752D01*
X181101503Y-61105752D02*
X180958646Y-61105752D01*
X180958646Y-61105752D02*
X180863408Y-61058133D01*
X181291979Y-60724800D02*
X181196741Y-60772419D01*
X181196741Y-60772419D02*
X181006265Y-60772419D01*
X181006265Y-60772419D02*
X180911027Y-60724800D01*
X180911027Y-60724800D02*
X180863408Y-60677180D01*
X180863408Y-60677180D02*
X180815789Y-60581942D01*
X180815789Y-60581942D02*
X180815789Y-60296228D01*
X180815789Y-60296228D02*
X180863408Y-60200990D01*
X180863408Y-60200990D02*
X180911027Y-60153371D01*
X180911027Y-60153371D02*
X181006265Y-60105752D01*
X181006265Y-60105752D02*
X181196741Y-60105752D01*
X181196741Y-60105752D02*
X181291979Y-60153371D01*
X182196741Y-60772419D02*
X182196741Y-60248609D01*
X182196741Y-60248609D02*
X182149122Y-60153371D01*
X182149122Y-60153371D02*
X182053884Y-60105752D01*
X182053884Y-60105752D02*
X181863408Y-60105752D01*
X181863408Y-60105752D02*
X181768170Y-60153371D01*
X182196741Y-60724800D02*
X182101503Y-60772419D01*
X182101503Y-60772419D02*
X181863408Y-60772419D01*
X181863408Y-60772419D02*
X181768170Y-60724800D01*
X181768170Y-60724800D02*
X181720551Y-60629561D01*
X181720551Y-60629561D02*
X181720551Y-60534323D01*
X181720551Y-60534323D02*
X181768170Y-60439085D01*
X181768170Y-60439085D02*
X181863408Y-60391466D01*
X181863408Y-60391466D02*
X182101503Y-60391466D01*
X182101503Y-60391466D02*
X182196741Y-60343847D01*
X182577694Y-59772419D02*
X183196741Y-59772419D01*
X183196741Y-59772419D02*
X182863408Y-60153371D01*
X182863408Y-60153371D02*
X183006265Y-60153371D01*
X183006265Y-60153371D02*
X183101503Y-60200990D01*
X183101503Y-60200990D02*
X183149122Y-60248609D01*
X183149122Y-60248609D02*
X183196741Y-60343847D01*
X183196741Y-60343847D02*
X183196741Y-60581942D01*
X183196741Y-60581942D02*
X183149122Y-60677180D01*
X183149122Y-60677180D02*
X183101503Y-60724800D01*
X183101503Y-60724800D02*
X183006265Y-60772419D01*
X183006265Y-60772419D02*
X182720551Y-60772419D01*
X182720551Y-60772419D02*
X182625313Y-60724800D01*
X182625313Y-60724800D02*
X182577694Y-60677180D01*
X183577694Y-59867657D02*
X183625313Y-59820038D01*
X183625313Y-59820038D02*
X183720551Y-59772419D01*
X183720551Y-59772419D02*
X183958646Y-59772419D01*
X183958646Y-59772419D02*
X184053884Y-59820038D01*
X184053884Y-59820038D02*
X184101503Y-59867657D01*
X184101503Y-59867657D02*
X184149122Y-59962895D01*
X184149122Y-59962895D02*
X184149122Y-60058133D01*
X184149122Y-60058133D02*
X184101503Y-60200990D01*
X184101503Y-60200990D02*
X183530075Y-60772419D01*
X183530075Y-60772419D02*
X184149122Y-60772419D01*
X184720551Y-60200990D02*
X184625313Y-60153371D01*
X184625313Y-60153371D02*
X184577694Y-60105752D01*
X184577694Y-60105752D02*
X184530075Y-60010514D01*
X184530075Y-60010514D02*
X184530075Y-59962895D01*
X184530075Y-59962895D02*
X184577694Y-59867657D01*
X184577694Y-59867657D02*
X184625313Y-59820038D01*
X184625313Y-59820038D02*
X184720551Y-59772419D01*
X184720551Y-59772419D02*
X184911027Y-59772419D01*
X184911027Y-59772419D02*
X185006265Y-59820038D01*
X185006265Y-59820038D02*
X185053884Y-59867657D01*
X185053884Y-59867657D02*
X185101503Y-59962895D01*
X185101503Y-59962895D02*
X185101503Y-60010514D01*
X185101503Y-60010514D02*
X185053884Y-60105752D01*
X185053884Y-60105752D02*
X185006265Y-60153371D01*
X185006265Y-60153371D02*
X184911027Y-60200990D01*
X184911027Y-60200990D02*
X184720551Y-60200990D01*
X184720551Y-60200990D02*
X184625313Y-60248609D01*
X184625313Y-60248609D02*
X184577694Y-60296228D01*
X184577694Y-60296228D02*
X184530075Y-60391466D01*
X184530075Y-60391466D02*
X184530075Y-60581942D01*
X184530075Y-60581942D02*
X184577694Y-60677180D01*
X184577694Y-60677180D02*
X184625313Y-60724800D01*
X184625313Y-60724800D02*
X184720551Y-60772419D01*
X184720551Y-60772419D02*
X184911027Y-60772419D01*
X184911027Y-60772419D02*
X185006265Y-60724800D01*
X185006265Y-60724800D02*
X185053884Y-60677180D01*
X185053884Y-60677180D02*
X185101503Y-60581942D01*
X185101503Y-60581942D02*
X185101503Y-60391466D01*
X185101503Y-60391466D02*
X185053884Y-60296228D01*
X185053884Y-60296228D02*
X185006265Y-60248609D01*
X185006265Y-60248609D02*
X184911027Y-60200990D01*
X185530075Y-60105752D02*
X185530075Y-61105752D01*
X185530075Y-60153371D02*
X185625313Y-60105752D01*
X185625313Y-60105752D02*
X185815789Y-60105752D01*
X185815789Y-60105752D02*
X185911027Y-60153371D01*
X185911027Y-60153371D02*
X185958646Y-60200990D01*
X185958646Y-60200990D02*
X186006265Y-60296228D01*
X186006265Y-60296228D02*
X186006265Y-60581942D01*
X186006265Y-60581942D02*
X185958646Y-60677180D01*
X185958646Y-60677180D02*
X185911027Y-60724800D01*
X185911027Y-60724800D02*
X185815789Y-60772419D01*
X185815789Y-60772419D02*
X185625313Y-60772419D01*
X185625313Y-60772419D02*
X185530075Y-60724800D01*
D11*
X188829197Y-64867219D02*
X188924435Y-64867219D01*
X188924435Y-64867219D02*
X189013720Y-64914838D01*
X189013720Y-64914838D02*
X189055387Y-64962457D01*
X189055387Y-64962457D02*
X189091101Y-65057695D01*
X189091101Y-65057695D02*
X189114911Y-65248171D01*
X189114911Y-65248171D02*
X189085149Y-65486266D01*
X189085149Y-65486266D02*
X189013720Y-65676742D01*
X189013720Y-65676742D02*
X188954197Y-65771980D01*
X188954197Y-65771980D02*
X188900625Y-65819600D01*
X188900625Y-65819600D02*
X188799435Y-65867219D01*
X188799435Y-65867219D02*
X188704197Y-65867219D01*
X188704197Y-65867219D02*
X188614911Y-65819600D01*
X188614911Y-65819600D02*
X188573244Y-65771980D01*
X188573244Y-65771980D02*
X188537530Y-65676742D01*
X188537530Y-65676742D02*
X188513720Y-65486266D01*
X188513720Y-65486266D02*
X188543482Y-65248171D01*
X188543482Y-65248171D02*
X188614911Y-65057695D01*
X188614911Y-65057695D02*
X188674435Y-64962457D01*
X188674435Y-64962457D02*
X188728006Y-64914838D01*
X188728006Y-64914838D02*
X188829197Y-64867219D01*
X189989911Y-65867219D02*
X189418482Y-65867219D01*
X189704197Y-65867219D02*
X189829197Y-64867219D01*
X189829197Y-64867219D02*
X189716101Y-65010076D01*
X189716101Y-65010076D02*
X189608959Y-65105314D01*
X189608959Y-65105314D02*
X189507768Y-65152933D01*
X190430387Y-65771980D02*
X190472054Y-65819600D01*
X190472054Y-65819600D02*
X190418482Y-65867219D01*
X190418482Y-65867219D02*
X190376816Y-65819600D01*
X190376816Y-65819600D02*
X190430387Y-65771980D01*
X190430387Y-65771980D02*
X190418482Y-65867219D01*
X190960149Y-64962457D02*
X191013720Y-64914838D01*
X191013720Y-64914838D02*
X191114910Y-64867219D01*
X191114910Y-64867219D02*
X191353006Y-64867219D01*
X191353006Y-64867219D02*
X191442291Y-64914838D01*
X191442291Y-64914838D02*
X191483958Y-64962457D01*
X191483958Y-64962457D02*
X191519672Y-65057695D01*
X191519672Y-65057695D02*
X191507768Y-65152933D01*
X191507768Y-65152933D02*
X191442291Y-65295790D01*
X191442291Y-65295790D02*
X190799434Y-65867219D01*
X190799434Y-65867219D02*
X191418482Y-65867219D01*
X192162530Y-64867219D02*
X192257768Y-64867219D01*
X192257768Y-64867219D02*
X192347053Y-64914838D01*
X192347053Y-64914838D02*
X192388720Y-64962457D01*
X192388720Y-64962457D02*
X192424434Y-65057695D01*
X192424434Y-65057695D02*
X192448244Y-65248171D01*
X192448244Y-65248171D02*
X192418482Y-65486266D01*
X192418482Y-65486266D02*
X192347053Y-65676742D01*
X192347053Y-65676742D02*
X192287530Y-65771980D01*
X192287530Y-65771980D02*
X192233958Y-65819600D01*
X192233958Y-65819600D02*
X192132768Y-65867219D01*
X192132768Y-65867219D02*
X192037530Y-65867219D01*
X192037530Y-65867219D02*
X191948244Y-65819600D01*
X191948244Y-65819600D02*
X191906577Y-65771980D01*
X191906577Y-65771980D02*
X191870863Y-65676742D01*
X191870863Y-65676742D02*
X191847053Y-65486266D01*
X191847053Y-65486266D02*
X191876815Y-65248171D01*
X191876815Y-65248171D02*
X191948244Y-65057695D01*
X191948244Y-65057695D02*
X192007768Y-64962457D01*
X192007768Y-64962457D02*
X192061339Y-64914838D01*
X192061339Y-64914838D02*
X192162530Y-64867219D01*
X192864911Y-64962457D02*
X192918482Y-64914838D01*
X192918482Y-64914838D02*
X193019672Y-64867219D01*
X193019672Y-64867219D02*
X193257768Y-64867219D01*
X193257768Y-64867219D02*
X193347053Y-64914838D01*
X193347053Y-64914838D02*
X193388720Y-64962457D01*
X193388720Y-64962457D02*
X193424434Y-65057695D01*
X193424434Y-65057695D02*
X193412530Y-65152933D01*
X193412530Y-65152933D02*
X193347053Y-65295790D01*
X193347053Y-65295790D02*
X192704196Y-65867219D01*
X192704196Y-65867219D02*
X193323244Y-65867219D01*
X194305387Y-64867219D02*
X194114911Y-64867219D01*
X194114911Y-64867219D02*
X194013720Y-64914838D01*
X194013720Y-64914838D02*
X193960149Y-64962457D01*
X193960149Y-64962457D02*
X193847053Y-65105314D01*
X193847053Y-65105314D02*
X193775625Y-65295790D01*
X193775625Y-65295790D02*
X193728006Y-65676742D01*
X193728006Y-65676742D02*
X193763720Y-65771980D01*
X193763720Y-65771980D02*
X193805387Y-65819600D01*
X193805387Y-65819600D02*
X193894673Y-65867219D01*
X193894673Y-65867219D02*
X194085149Y-65867219D01*
X194085149Y-65867219D02*
X194186339Y-65819600D01*
X194186339Y-65819600D02*
X194239911Y-65771980D01*
X194239911Y-65771980D02*
X194299434Y-65676742D01*
X194299434Y-65676742D02*
X194329196Y-65438647D01*
X194329196Y-65438647D02*
X194293482Y-65343409D01*
X194293482Y-65343409D02*
X194251815Y-65295790D01*
X194251815Y-65295790D02*
X194162530Y-65248171D01*
X194162530Y-65248171D02*
X193972053Y-65248171D01*
X193972053Y-65248171D02*
X193870863Y-65295790D01*
X193870863Y-65295790D02*
X193817292Y-65343409D01*
X193817292Y-65343409D02*
X193757768Y-65438647D01*
X194704196Y-65867219D02*
X194787530Y-65200552D01*
X194763720Y-65391028D02*
X194823244Y-65295790D01*
X194823244Y-65295790D02*
X194876815Y-65248171D01*
X194876815Y-65248171D02*
X194978006Y-65200552D01*
X194978006Y-65200552D02*
X195073244Y-65200552D01*
D10*
X182053884Y-67205752D02*
X182053884Y-68205752D01*
X182053884Y-67253371D02*
X182149122Y-67205752D01*
X182149122Y-67205752D02*
X182339598Y-67205752D01*
X182339598Y-67205752D02*
X182434836Y-67253371D01*
X182434836Y-67253371D02*
X182482455Y-67300990D01*
X182482455Y-67300990D02*
X182530074Y-67396228D01*
X182530074Y-67396228D02*
X182530074Y-67681942D01*
X182530074Y-67681942D02*
X182482455Y-67777180D01*
X182482455Y-67777180D02*
X182434836Y-67824800D01*
X182434836Y-67824800D02*
X182339598Y-67872419D01*
X182339598Y-67872419D02*
X182149122Y-67872419D01*
X182149122Y-67872419D02*
X182053884Y-67824800D01*
X182958646Y-67872419D02*
X182958646Y-67205752D01*
X182958646Y-67396228D02*
X183006265Y-67300990D01*
X183006265Y-67300990D02*
X183053884Y-67253371D01*
X183053884Y-67253371D02*
X183149122Y-67205752D01*
X183149122Y-67205752D02*
X183244360Y-67205752D01*
X183720551Y-67872419D02*
X183625313Y-67824800D01*
X183625313Y-67824800D02*
X183577694Y-67777180D01*
X183577694Y-67777180D02*
X183530075Y-67681942D01*
X183530075Y-67681942D02*
X183530075Y-67396228D01*
X183530075Y-67396228D02*
X183577694Y-67300990D01*
X183577694Y-67300990D02*
X183625313Y-67253371D01*
X183625313Y-67253371D02*
X183720551Y-67205752D01*
X183720551Y-67205752D02*
X183863408Y-67205752D01*
X183863408Y-67205752D02*
X183958646Y-67253371D01*
X183958646Y-67253371D02*
X184006265Y-67300990D01*
X184006265Y-67300990D02*
X184053884Y-67396228D01*
X184053884Y-67396228D02*
X184053884Y-67681942D01*
X184053884Y-67681942D02*
X184006265Y-67777180D01*
X184006265Y-67777180D02*
X183958646Y-67824800D01*
X183958646Y-67824800D02*
X183863408Y-67872419D01*
X183863408Y-67872419D02*
X183720551Y-67872419D01*
X184482456Y-67205752D02*
X184482456Y-68062895D01*
X184482456Y-68062895D02*
X184434837Y-68158133D01*
X184434837Y-68158133D02*
X184339599Y-68205752D01*
X184339599Y-68205752D02*
X184291980Y-68205752D01*
X184482456Y-66872419D02*
X184434837Y-66920038D01*
X184434837Y-66920038D02*
X184482456Y-66967657D01*
X184482456Y-66967657D02*
X184530075Y-66920038D01*
X184530075Y-66920038D02*
X184482456Y-66872419D01*
X184482456Y-66872419D02*
X184482456Y-66967657D01*
X185339598Y-67824800D02*
X185244360Y-67872419D01*
X185244360Y-67872419D02*
X185053884Y-67872419D01*
X185053884Y-67872419D02*
X184958646Y-67824800D01*
X184958646Y-67824800D02*
X184911027Y-67729561D01*
X184911027Y-67729561D02*
X184911027Y-67348609D01*
X184911027Y-67348609D02*
X184958646Y-67253371D01*
X184958646Y-67253371D02*
X185053884Y-67205752D01*
X185053884Y-67205752D02*
X185244360Y-67205752D01*
X185244360Y-67205752D02*
X185339598Y-67253371D01*
X185339598Y-67253371D02*
X185387217Y-67348609D01*
X185387217Y-67348609D02*
X185387217Y-67443847D01*
X185387217Y-67443847D02*
X184911027Y-67539085D01*
X185815789Y-67872419D02*
X185815789Y-66872419D01*
X185911027Y-67491466D02*
X186196741Y-67872419D01*
X186196741Y-67205752D02*
X185815789Y-67586704D01*
X186482456Y-67205752D02*
X186863408Y-67205752D01*
X186625313Y-66872419D02*
X186625313Y-67729561D01*
X186625313Y-67729561D02*
X186672932Y-67824800D01*
X186672932Y-67824800D02*
X186768170Y-67872419D01*
X186768170Y-67872419D02*
X186863408Y-67872419D01*
X187958647Y-67872419D02*
X187958647Y-66872419D01*
X187958647Y-67253371D02*
X188053885Y-67205752D01*
X188053885Y-67205752D02*
X188244361Y-67205752D01*
X188244361Y-67205752D02*
X188339599Y-67253371D01*
X188339599Y-67253371D02*
X188387218Y-67300990D01*
X188387218Y-67300990D02*
X188434837Y-67396228D01*
X188434837Y-67396228D02*
X188434837Y-67681942D01*
X188434837Y-67681942D02*
X188387218Y-67777180D01*
X188387218Y-67777180D02*
X188339599Y-67824800D01*
X188339599Y-67824800D02*
X188244361Y-67872419D01*
X188244361Y-67872419D02*
X188053885Y-67872419D01*
X188053885Y-67872419D02*
X187958647Y-67824800D01*
X188768171Y-67205752D02*
X189006266Y-67872419D01*
X189244361Y-67205752D02*
X189006266Y-67872419D01*
X189006266Y-67872419D02*
X188911028Y-68110514D01*
X188911028Y-68110514D02*
X188863409Y-68158133D01*
X188863409Y-68158133D02*
X188768171Y-68205752D01*
X190339600Y-67586704D02*
X190815790Y-67586704D01*
X190244362Y-67872419D02*
X190577695Y-66872419D01*
X190577695Y-66872419D02*
X190911028Y-67872419D01*
X191244362Y-67777180D02*
X191291981Y-67824800D01*
X191291981Y-67824800D02*
X191244362Y-67872419D01*
X191244362Y-67872419D02*
X191196743Y-67824800D01*
X191196743Y-67824800D02*
X191244362Y-67777180D01*
X191244362Y-67777180D02*
X191244362Y-67872419D01*
X192958647Y-67872419D02*
X192482457Y-67872419D01*
X192482457Y-67872419D02*
X192482457Y-66872419D01*
X193720552Y-67872419D02*
X193720552Y-67348609D01*
X193720552Y-67348609D02*
X193672933Y-67253371D01*
X193672933Y-67253371D02*
X193577695Y-67205752D01*
X193577695Y-67205752D02*
X193387219Y-67205752D01*
X193387219Y-67205752D02*
X193291981Y-67253371D01*
X193720552Y-67824800D02*
X193625314Y-67872419D01*
X193625314Y-67872419D02*
X193387219Y-67872419D01*
X193387219Y-67872419D02*
X193291981Y-67824800D01*
X193291981Y-67824800D02*
X193244362Y-67729561D01*
X193244362Y-67729561D02*
X193244362Y-67634323D01*
X193244362Y-67634323D02*
X193291981Y-67539085D01*
X193291981Y-67539085D02*
X193387219Y-67491466D01*
X193387219Y-67491466D02*
X193625314Y-67491466D01*
X193625314Y-67491466D02*
X193720552Y-67443847D01*
X194053886Y-67205752D02*
X194434838Y-67205752D01*
X194196743Y-66872419D02*
X194196743Y-67729561D01*
X194196743Y-67729561D02*
X194244362Y-67824800D01*
X194244362Y-67824800D02*
X194339600Y-67872419D01*
X194339600Y-67872419D02*
X194434838Y-67872419D01*
X195196743Y-67872419D02*
X195196743Y-67348609D01*
X195196743Y-67348609D02*
X195149124Y-67253371D01*
X195149124Y-67253371D02*
X195053886Y-67205752D01*
X195053886Y-67205752D02*
X194863410Y-67205752D01*
X194863410Y-67205752D02*
X194768172Y-67253371D01*
X195196743Y-67824800D02*
X195101505Y-67872419D01*
X195101505Y-67872419D02*
X194863410Y-67872419D01*
X194863410Y-67872419D02*
X194768172Y-67824800D01*
X194768172Y-67824800D02*
X194720553Y-67729561D01*
X194720553Y-67729561D02*
X194720553Y-67634323D01*
X194720553Y-67634323D02*
X194768172Y-67539085D01*
X194768172Y-67539085D02*
X194863410Y-67491466D01*
X194863410Y-67491466D02*
X195101505Y-67491466D01*
X195101505Y-67491466D02*
X195196743Y-67443847D01*
D12*
X176765977Y-62403704D02*
X177242167Y-63737038D01*
X177242167Y-63737038D02*
X177718358Y-62403704D01*
X179242168Y-63641800D02*
X179051692Y-63737038D01*
X179051692Y-63737038D02*
X178670739Y-63737038D01*
X178670739Y-63737038D02*
X178480263Y-63641800D01*
X178480263Y-63641800D02*
X178385025Y-63451323D01*
X178385025Y-63451323D02*
X178385025Y-62689419D01*
X178385025Y-62689419D02*
X178480263Y-62498942D01*
X178480263Y-62498942D02*
X178670739Y-62403704D01*
X178670739Y-62403704D02*
X179051692Y-62403704D01*
X179051692Y-62403704D02*
X179242168Y-62498942D01*
X179242168Y-62498942D02*
X179337406Y-62689419D01*
X179337406Y-62689419D02*
X179337406Y-62879895D01*
X179337406Y-62879895D02*
X178385025Y-63070371D01*
X180194549Y-63737038D02*
X180194549Y-62403704D01*
X180194549Y-62784657D02*
X180289787Y-62594180D01*
X180289787Y-62594180D02*
X180385025Y-62498942D01*
X180385025Y-62498942D02*
X180575501Y-62403704D01*
X180575501Y-62403704D02*
X180765978Y-62403704D01*
X181337406Y-63641800D02*
X181527882Y-63737038D01*
X181527882Y-63737038D02*
X181908834Y-63737038D01*
X181908834Y-63737038D02*
X182099311Y-63641800D01*
X182099311Y-63641800D02*
X182194549Y-63451323D01*
X182194549Y-63451323D02*
X182194549Y-63356085D01*
X182194549Y-63356085D02*
X182099311Y-63165609D01*
X182099311Y-63165609D02*
X181908834Y-63070371D01*
X181908834Y-63070371D02*
X181623120Y-63070371D01*
X181623120Y-63070371D02*
X181432644Y-62975133D01*
X181432644Y-62975133D02*
X181337406Y-62784657D01*
X181337406Y-62784657D02*
X181337406Y-62689419D01*
X181337406Y-62689419D02*
X181432644Y-62498942D01*
X181432644Y-62498942D02*
X181623120Y-62403704D01*
X181623120Y-62403704D02*
X181908834Y-62403704D01*
X181908834Y-62403704D02*
X182099311Y-62498942D01*
X183051692Y-62403704D02*
X183051692Y-64117990D01*
X183051692Y-64117990D02*
X182956454Y-64308466D01*
X182956454Y-64308466D02*
X182765978Y-64403704D01*
X182765978Y-64403704D02*
X182670740Y-64403704D01*
X183051692Y-61737038D02*
X182956454Y-61832276D01*
X182956454Y-61832276D02*
X183051692Y-61927514D01*
X183051692Y-61927514D02*
X183146930Y-61832276D01*
X183146930Y-61832276D02*
X183051692Y-61737038D01*
X183051692Y-61737038D02*
X183051692Y-61927514D01*
X184861216Y-63737038D02*
X184861216Y-62689419D01*
X184861216Y-62689419D02*
X184765978Y-62498942D01*
X184765978Y-62498942D02*
X184575502Y-62403704D01*
X184575502Y-62403704D02*
X184194549Y-62403704D01*
X184194549Y-62403704D02*
X184004073Y-62498942D01*
X184861216Y-63641800D02*
X184670740Y-63737038D01*
X184670740Y-63737038D02*
X184194549Y-63737038D01*
X184194549Y-63737038D02*
X184004073Y-63641800D01*
X184004073Y-63641800D02*
X183908835Y-63451323D01*
X183908835Y-63451323D02*
X183908835Y-63260847D01*
X183908835Y-63260847D02*
X184004073Y-63070371D01*
X184004073Y-63070371D02*
X184194549Y-62975133D01*
X184194549Y-62975133D02*
X184670740Y-62975133D01*
X184670740Y-62975133D02*
X184861216Y-62879895D01*
X188385026Y-63737038D02*
X187242169Y-63737038D01*
X187813597Y-63737038D02*
X187813597Y-61737038D01*
X187813597Y-61737038D02*
X187623121Y-62022752D01*
X187623121Y-62022752D02*
X187432645Y-62213228D01*
X187432645Y-62213228D02*
X187242169Y-62308466D01*
X189242169Y-63546561D02*
X189337407Y-63641800D01*
X189337407Y-63641800D02*
X189242169Y-63737038D01*
X189242169Y-63737038D02*
X189146931Y-63641800D01*
X189146931Y-63641800D02*
X189242169Y-63546561D01*
X189242169Y-63546561D02*
X189242169Y-63737038D01*
X190575502Y-61737038D02*
X190765979Y-61737038D01*
X190765979Y-61737038D02*
X190956455Y-61832276D01*
X190956455Y-61832276D02*
X191051693Y-61927514D01*
X191051693Y-61927514D02*
X191146931Y-62117990D01*
X191146931Y-62117990D02*
X191242169Y-62498942D01*
X191242169Y-62498942D02*
X191242169Y-62975133D01*
X191242169Y-62975133D02*
X191146931Y-63356085D01*
X191146931Y-63356085D02*
X191051693Y-63546561D01*
X191051693Y-63546561D02*
X190956455Y-63641800D01*
X190956455Y-63641800D02*
X190765979Y-63737038D01*
X190765979Y-63737038D02*
X190575502Y-63737038D01*
X190575502Y-63737038D02*
X190385026Y-63641800D01*
X190385026Y-63641800D02*
X190289788Y-63546561D01*
X190289788Y-63546561D02*
X190194550Y-63356085D01*
X190194550Y-63356085D02*
X190099312Y-62975133D01*
X190099312Y-62975133D02*
X190099312Y-62498942D01*
X190099312Y-62498942D02*
X190194550Y-62117990D01*
X190194550Y-62117990D02*
X190289788Y-61927514D01*
X190289788Y-61927514D02*
X190385026Y-61832276D01*
X190385026Y-61832276D02*
X190575502Y-61737038D01*
X192480264Y-61737038D02*
X192670741Y-61737038D01*
X192670741Y-61737038D02*
X192861217Y-61832276D01*
X192861217Y-61832276D02*
X192956455Y-61927514D01*
X192956455Y-61927514D02*
X193051693Y-62117990D01*
X193051693Y-62117990D02*
X193146931Y-62498942D01*
X193146931Y-62498942D02*
X193146931Y-62975133D01*
X193146931Y-62975133D02*
X193051693Y-63356085D01*
X193051693Y-63356085D02*
X192956455Y-63546561D01*
X192956455Y-63546561D02*
X192861217Y-63641800D01*
X192861217Y-63641800D02*
X192670741Y-63737038D01*
X192670741Y-63737038D02*
X192480264Y-63737038D01*
X192480264Y-63737038D02*
X192289788Y-63641800D01*
X192289788Y-63641800D02*
X192194550Y-63546561D01*
X192194550Y-63546561D02*
X192099312Y-63356085D01*
X192099312Y-63356085D02*
X192004074Y-62975133D01*
X192004074Y-62975133D02*
X192004074Y-62498942D01*
X192004074Y-62498942D02*
X192099312Y-62117990D01*
X192099312Y-62117990D02*
X192194550Y-61927514D01*
X192194550Y-61927514D02*
X192289788Y-61832276D01*
X192289788Y-61832276D02*
X192480264Y-61737038D01*
D10*
X169536704Y-69693734D02*
X169536704Y-69217544D01*
X169822419Y-69788972D02*
X168822419Y-69455639D01*
X168822419Y-69455639D02*
X169822419Y-69122306D01*
X169822419Y-68788972D02*
X168822419Y-68788972D01*
X168822419Y-68788972D02*
X168822419Y-68550877D01*
X168822419Y-68550877D02*
X168870038Y-68408020D01*
X168870038Y-68408020D02*
X168965276Y-68312782D01*
X168965276Y-68312782D02*
X169060514Y-68265163D01*
X169060514Y-68265163D02*
X169250990Y-68217544D01*
X169250990Y-68217544D02*
X169393847Y-68217544D01*
X169393847Y-68217544D02*
X169584323Y-68265163D01*
X169584323Y-68265163D02*
X169679561Y-68312782D01*
X169679561Y-68312782D02*
X169774800Y-68408020D01*
X169774800Y-68408020D02*
X169822419Y-68550877D01*
X169822419Y-68550877D02*
X169822419Y-68788972D01*
X169727180Y-67217544D02*
X169774800Y-67265163D01*
X169774800Y-67265163D02*
X169822419Y-67408020D01*
X169822419Y-67408020D02*
X169822419Y-67503258D01*
X169822419Y-67503258D02*
X169774800Y-67646115D01*
X169774800Y-67646115D02*
X169679561Y-67741353D01*
X169679561Y-67741353D02*
X169584323Y-67788972D01*
X169584323Y-67788972D02*
X169393847Y-67836591D01*
X169393847Y-67836591D02*
X169250990Y-67836591D01*
X169250990Y-67836591D02*
X169060514Y-67788972D01*
X169060514Y-67788972D02*
X168965276Y-67741353D01*
X168965276Y-67741353D02*
X168870038Y-67646115D01*
X168870038Y-67646115D02*
X168822419Y-67503258D01*
X168822419Y-67503258D02*
X168822419Y-67408020D01*
X168822419Y-67408020D02*
X168870038Y-67265163D01*
X168870038Y-67265163D02*
X168917657Y-67217544D01*
X169822419Y-66265163D02*
X169822419Y-66836591D01*
X169822419Y-66550877D02*
X168822419Y-66550877D01*
X168822419Y-66550877D02*
X168965276Y-66646115D01*
X168965276Y-66646115D02*
X169060514Y-66741353D01*
X169060514Y-66741353D02*
X169108133Y-66836591D01*
X167122419Y-69646115D02*
X166122419Y-69646115D01*
X166122419Y-69646115D02*
X166122419Y-69265163D01*
X166122419Y-69265163D02*
X166170038Y-69169925D01*
X166170038Y-69169925D02*
X166217657Y-69122306D01*
X166217657Y-69122306D02*
X166312895Y-69074687D01*
X166312895Y-69074687D02*
X166455752Y-69074687D01*
X166455752Y-69074687D02*
X166550990Y-69122306D01*
X166550990Y-69122306D02*
X166598609Y-69169925D01*
X166598609Y-69169925D02*
X166646228Y-69265163D01*
X166646228Y-69265163D02*
X166646228Y-69646115D01*
X166598609Y-68312782D02*
X166646228Y-68169925D01*
X166646228Y-68169925D02*
X166693847Y-68122306D01*
X166693847Y-68122306D02*
X166789085Y-68074687D01*
X166789085Y-68074687D02*
X166931942Y-68074687D01*
X166931942Y-68074687D02*
X167027180Y-68122306D01*
X167027180Y-68122306D02*
X167074800Y-68169925D01*
X167074800Y-68169925D02*
X167122419Y-68265163D01*
X167122419Y-68265163D02*
X167122419Y-68646115D01*
X167122419Y-68646115D02*
X166122419Y-68646115D01*
X166122419Y-68646115D02*
X166122419Y-68312782D01*
X166122419Y-68312782D02*
X166170038Y-68217544D01*
X166170038Y-68217544D02*
X166217657Y-68169925D01*
X166217657Y-68169925D02*
X166312895Y-68122306D01*
X166312895Y-68122306D02*
X166408133Y-68122306D01*
X166408133Y-68122306D02*
X166503371Y-68169925D01*
X166503371Y-68169925D02*
X166550990Y-68217544D01*
X166550990Y-68217544D02*
X166598609Y-68312782D01*
X166598609Y-68312782D02*
X166598609Y-68646115D01*
X166122419Y-67169925D02*
X166122419Y-67646115D01*
X166122419Y-67646115D02*
X166598609Y-67693734D01*
X166598609Y-67693734D02*
X166550990Y-67646115D01*
X166550990Y-67646115D02*
X166503371Y-67550877D01*
X166503371Y-67550877D02*
X166503371Y-67312782D01*
X166503371Y-67312782D02*
X166550990Y-67217544D01*
X166550990Y-67217544D02*
X166598609Y-67169925D01*
X166598609Y-67169925D02*
X166693847Y-67122306D01*
X166693847Y-67122306D02*
X166931942Y-67122306D01*
X166931942Y-67122306D02*
X167027180Y-67169925D01*
X167027180Y-67169925D02*
X167074800Y-67217544D01*
X167074800Y-67217544D02*
X167122419Y-67312782D01*
X167122419Y-67312782D02*
X167122419Y-67550877D01*
X167122419Y-67550877D02*
X167074800Y-67646115D01*
X167074800Y-67646115D02*
X167027180Y-67693734D01*
X164522419Y-69646115D02*
X163522419Y-69646115D01*
X163522419Y-69646115D02*
X163522419Y-69265163D01*
X163522419Y-69265163D02*
X163570038Y-69169925D01*
X163570038Y-69169925D02*
X163617657Y-69122306D01*
X163617657Y-69122306D02*
X163712895Y-69074687D01*
X163712895Y-69074687D02*
X163855752Y-69074687D01*
X163855752Y-69074687D02*
X163950990Y-69122306D01*
X163950990Y-69122306D02*
X163998609Y-69169925D01*
X163998609Y-69169925D02*
X164046228Y-69265163D01*
X164046228Y-69265163D02*
X164046228Y-69646115D01*
X163998609Y-68312782D02*
X164046228Y-68169925D01*
X164046228Y-68169925D02*
X164093847Y-68122306D01*
X164093847Y-68122306D02*
X164189085Y-68074687D01*
X164189085Y-68074687D02*
X164331942Y-68074687D01*
X164331942Y-68074687D02*
X164427180Y-68122306D01*
X164427180Y-68122306D02*
X164474800Y-68169925D01*
X164474800Y-68169925D02*
X164522419Y-68265163D01*
X164522419Y-68265163D02*
X164522419Y-68646115D01*
X164522419Y-68646115D02*
X163522419Y-68646115D01*
X163522419Y-68646115D02*
X163522419Y-68312782D01*
X163522419Y-68312782D02*
X163570038Y-68217544D01*
X163570038Y-68217544D02*
X163617657Y-68169925D01*
X163617657Y-68169925D02*
X163712895Y-68122306D01*
X163712895Y-68122306D02*
X163808133Y-68122306D01*
X163808133Y-68122306D02*
X163903371Y-68169925D01*
X163903371Y-68169925D02*
X163950990Y-68217544D01*
X163950990Y-68217544D02*
X163998609Y-68312782D01*
X163998609Y-68312782D02*
X163998609Y-68646115D01*
X163855752Y-67217544D02*
X164522419Y-67217544D01*
X163474800Y-67455639D02*
X164189085Y-67693734D01*
X164189085Y-67693734D02*
X164189085Y-67074687D01*
X161922419Y-69596115D02*
X160922419Y-69596115D01*
X160922419Y-69596115D02*
X160922419Y-69215163D01*
X160922419Y-69215163D02*
X160970038Y-69119925D01*
X160970038Y-69119925D02*
X161017657Y-69072306D01*
X161017657Y-69072306D02*
X161112895Y-69024687D01*
X161112895Y-69024687D02*
X161255752Y-69024687D01*
X161255752Y-69024687D02*
X161350990Y-69072306D01*
X161350990Y-69072306D02*
X161398609Y-69119925D01*
X161398609Y-69119925D02*
X161446228Y-69215163D01*
X161446228Y-69215163D02*
X161446228Y-69596115D01*
X161398609Y-68262782D02*
X161446228Y-68119925D01*
X161446228Y-68119925D02*
X161493847Y-68072306D01*
X161493847Y-68072306D02*
X161589085Y-68024687D01*
X161589085Y-68024687D02*
X161731942Y-68024687D01*
X161731942Y-68024687D02*
X161827180Y-68072306D01*
X161827180Y-68072306D02*
X161874800Y-68119925D01*
X161874800Y-68119925D02*
X161922419Y-68215163D01*
X161922419Y-68215163D02*
X161922419Y-68596115D01*
X161922419Y-68596115D02*
X160922419Y-68596115D01*
X160922419Y-68596115D02*
X160922419Y-68262782D01*
X160922419Y-68262782D02*
X160970038Y-68167544D01*
X160970038Y-68167544D02*
X161017657Y-68119925D01*
X161017657Y-68119925D02*
X161112895Y-68072306D01*
X161112895Y-68072306D02*
X161208133Y-68072306D01*
X161208133Y-68072306D02*
X161303371Y-68119925D01*
X161303371Y-68119925D02*
X161350990Y-68167544D01*
X161350990Y-68167544D02*
X161398609Y-68262782D01*
X161398609Y-68262782D02*
X161398609Y-68596115D01*
X160922419Y-67691353D02*
X160922419Y-67072306D01*
X160922419Y-67072306D02*
X161303371Y-67405639D01*
X161303371Y-67405639D02*
X161303371Y-67262782D01*
X161303371Y-67262782D02*
X161350990Y-67167544D01*
X161350990Y-67167544D02*
X161398609Y-67119925D01*
X161398609Y-67119925D02*
X161493847Y-67072306D01*
X161493847Y-67072306D02*
X161731942Y-67072306D01*
X161731942Y-67072306D02*
X161827180Y-67119925D01*
X161827180Y-67119925D02*
X161874800Y-67167544D01*
X161874800Y-67167544D02*
X161922419Y-67262782D01*
X161922419Y-67262782D02*
X161922419Y-67548496D01*
X161922419Y-67548496D02*
X161874800Y-67643734D01*
X161874800Y-67643734D02*
X161827180Y-67691353D01*
X159372419Y-69596115D02*
X158372419Y-69596115D01*
X158372419Y-69596115D02*
X158372419Y-69215163D01*
X158372419Y-69215163D02*
X158420038Y-69119925D01*
X158420038Y-69119925D02*
X158467657Y-69072306D01*
X158467657Y-69072306D02*
X158562895Y-69024687D01*
X158562895Y-69024687D02*
X158705752Y-69024687D01*
X158705752Y-69024687D02*
X158800990Y-69072306D01*
X158800990Y-69072306D02*
X158848609Y-69119925D01*
X158848609Y-69119925D02*
X158896228Y-69215163D01*
X158896228Y-69215163D02*
X158896228Y-69596115D01*
X158848609Y-68262782D02*
X158896228Y-68119925D01*
X158896228Y-68119925D02*
X158943847Y-68072306D01*
X158943847Y-68072306D02*
X159039085Y-68024687D01*
X159039085Y-68024687D02*
X159181942Y-68024687D01*
X159181942Y-68024687D02*
X159277180Y-68072306D01*
X159277180Y-68072306D02*
X159324800Y-68119925D01*
X159324800Y-68119925D02*
X159372419Y-68215163D01*
X159372419Y-68215163D02*
X159372419Y-68596115D01*
X159372419Y-68596115D02*
X158372419Y-68596115D01*
X158372419Y-68596115D02*
X158372419Y-68262782D01*
X158372419Y-68262782D02*
X158420038Y-68167544D01*
X158420038Y-68167544D02*
X158467657Y-68119925D01*
X158467657Y-68119925D02*
X158562895Y-68072306D01*
X158562895Y-68072306D02*
X158658133Y-68072306D01*
X158658133Y-68072306D02*
X158753371Y-68119925D01*
X158753371Y-68119925D02*
X158800990Y-68167544D01*
X158800990Y-68167544D02*
X158848609Y-68262782D01*
X158848609Y-68262782D02*
X158848609Y-68596115D01*
X158467657Y-67643734D02*
X158420038Y-67596115D01*
X158420038Y-67596115D02*
X158372419Y-67500877D01*
X158372419Y-67500877D02*
X158372419Y-67262782D01*
X158372419Y-67262782D02*
X158420038Y-67167544D01*
X158420038Y-67167544D02*
X158467657Y-67119925D01*
X158467657Y-67119925D02*
X158562895Y-67072306D01*
X158562895Y-67072306D02*
X158658133Y-67072306D01*
X158658133Y-67072306D02*
X158800990Y-67119925D01*
X158800990Y-67119925D02*
X159372419Y-67691353D01*
X159372419Y-67691353D02*
X159372419Y-67072306D01*
X156872419Y-69596115D02*
X155872419Y-69596115D01*
X155872419Y-69596115D02*
X155872419Y-69215163D01*
X155872419Y-69215163D02*
X155920038Y-69119925D01*
X155920038Y-69119925D02*
X155967657Y-69072306D01*
X155967657Y-69072306D02*
X156062895Y-69024687D01*
X156062895Y-69024687D02*
X156205752Y-69024687D01*
X156205752Y-69024687D02*
X156300990Y-69072306D01*
X156300990Y-69072306D02*
X156348609Y-69119925D01*
X156348609Y-69119925D02*
X156396228Y-69215163D01*
X156396228Y-69215163D02*
X156396228Y-69596115D01*
X156348609Y-68262782D02*
X156396228Y-68119925D01*
X156396228Y-68119925D02*
X156443847Y-68072306D01*
X156443847Y-68072306D02*
X156539085Y-68024687D01*
X156539085Y-68024687D02*
X156681942Y-68024687D01*
X156681942Y-68024687D02*
X156777180Y-68072306D01*
X156777180Y-68072306D02*
X156824800Y-68119925D01*
X156824800Y-68119925D02*
X156872419Y-68215163D01*
X156872419Y-68215163D02*
X156872419Y-68596115D01*
X156872419Y-68596115D02*
X155872419Y-68596115D01*
X155872419Y-68596115D02*
X155872419Y-68262782D01*
X155872419Y-68262782D02*
X155920038Y-68167544D01*
X155920038Y-68167544D02*
X155967657Y-68119925D01*
X155967657Y-68119925D02*
X156062895Y-68072306D01*
X156062895Y-68072306D02*
X156158133Y-68072306D01*
X156158133Y-68072306D02*
X156253371Y-68119925D01*
X156253371Y-68119925D02*
X156300990Y-68167544D01*
X156300990Y-68167544D02*
X156348609Y-68262782D01*
X156348609Y-68262782D02*
X156348609Y-68596115D01*
X156872419Y-67072306D02*
X156872419Y-67643734D01*
X156872419Y-67358020D02*
X155872419Y-67358020D01*
X155872419Y-67358020D02*
X156015276Y-67453258D01*
X156015276Y-67453258D02*
X156110514Y-67548496D01*
X156110514Y-67548496D02*
X156158133Y-67643734D01*
X154172419Y-69596115D02*
X153172419Y-69596115D01*
X153172419Y-69596115D02*
X153172419Y-69215163D01*
X153172419Y-69215163D02*
X153220038Y-69119925D01*
X153220038Y-69119925D02*
X153267657Y-69072306D01*
X153267657Y-69072306D02*
X153362895Y-69024687D01*
X153362895Y-69024687D02*
X153505752Y-69024687D01*
X153505752Y-69024687D02*
X153600990Y-69072306D01*
X153600990Y-69072306D02*
X153648609Y-69119925D01*
X153648609Y-69119925D02*
X153696228Y-69215163D01*
X153696228Y-69215163D02*
X153696228Y-69596115D01*
X153648609Y-68262782D02*
X153696228Y-68119925D01*
X153696228Y-68119925D02*
X153743847Y-68072306D01*
X153743847Y-68072306D02*
X153839085Y-68024687D01*
X153839085Y-68024687D02*
X153981942Y-68024687D01*
X153981942Y-68024687D02*
X154077180Y-68072306D01*
X154077180Y-68072306D02*
X154124800Y-68119925D01*
X154124800Y-68119925D02*
X154172419Y-68215163D01*
X154172419Y-68215163D02*
X154172419Y-68596115D01*
X154172419Y-68596115D02*
X153172419Y-68596115D01*
X153172419Y-68596115D02*
X153172419Y-68262782D01*
X153172419Y-68262782D02*
X153220038Y-68167544D01*
X153220038Y-68167544D02*
X153267657Y-68119925D01*
X153267657Y-68119925D02*
X153362895Y-68072306D01*
X153362895Y-68072306D02*
X153458133Y-68072306D01*
X153458133Y-68072306D02*
X153553371Y-68119925D01*
X153553371Y-68119925D02*
X153600990Y-68167544D01*
X153600990Y-68167544D02*
X153648609Y-68262782D01*
X153648609Y-68262782D02*
X153648609Y-68596115D01*
X153172419Y-67405639D02*
X153172419Y-67310401D01*
X153172419Y-67310401D02*
X153220038Y-67215163D01*
X153220038Y-67215163D02*
X153267657Y-67167544D01*
X153267657Y-67167544D02*
X153362895Y-67119925D01*
X153362895Y-67119925D02*
X153553371Y-67072306D01*
X153553371Y-67072306D02*
X153791466Y-67072306D01*
X153791466Y-67072306D02*
X153981942Y-67119925D01*
X153981942Y-67119925D02*
X154077180Y-67167544D01*
X154077180Y-67167544D02*
X154124800Y-67215163D01*
X154124800Y-67215163D02*
X154172419Y-67310401D01*
X154172419Y-67310401D02*
X154172419Y-67405639D01*
X154172419Y-67405639D02*
X154124800Y-67500877D01*
X154124800Y-67500877D02*
X154077180Y-67548496D01*
X154077180Y-67548496D02*
X153981942Y-67596115D01*
X153981942Y-67596115D02*
X153791466Y-67643734D01*
X153791466Y-67643734D02*
X153553371Y-67643734D01*
X153553371Y-67643734D02*
X153362895Y-67596115D01*
X153362895Y-67596115D02*
X153267657Y-67548496D01*
X153267657Y-67548496D02*
X153220038Y-67500877D01*
X153220038Y-67500877D02*
X153172419Y-67405639D01*
X151341466Y-69546115D02*
X151341466Y-68784211D01*
X151722419Y-69165163D02*
X150960514Y-69165163D01*
X150722419Y-67831830D02*
X150722419Y-68308020D01*
X150722419Y-68308020D02*
X151198609Y-68355639D01*
X151198609Y-68355639D02*
X151150990Y-68308020D01*
X151150990Y-68308020D02*
X151103371Y-68212782D01*
X151103371Y-68212782D02*
X151103371Y-67974687D01*
X151103371Y-67974687D02*
X151150990Y-67879449D01*
X151150990Y-67879449D02*
X151198609Y-67831830D01*
X151198609Y-67831830D02*
X151293847Y-67784211D01*
X151293847Y-67784211D02*
X151531942Y-67784211D01*
X151531942Y-67784211D02*
X151627180Y-67831830D01*
X151627180Y-67831830D02*
X151674800Y-67879449D01*
X151674800Y-67879449D02*
X151722419Y-67974687D01*
X151722419Y-67974687D02*
X151722419Y-68212782D01*
X151722419Y-68212782D02*
X151674800Y-68308020D01*
X151674800Y-68308020D02*
X151627180Y-68355639D01*
X150722419Y-67498496D02*
X151722419Y-67165163D01*
X151722419Y-67165163D02*
X150722419Y-66831830D01*
X149272419Y-69596115D02*
X148272419Y-69596115D01*
X148272419Y-69596115D02*
X148272419Y-69215163D01*
X148272419Y-69215163D02*
X148320038Y-69119925D01*
X148320038Y-69119925D02*
X148367657Y-69072306D01*
X148367657Y-69072306D02*
X148462895Y-69024687D01*
X148462895Y-69024687D02*
X148605752Y-69024687D01*
X148605752Y-69024687D02*
X148700990Y-69072306D01*
X148700990Y-69072306D02*
X148748609Y-69119925D01*
X148748609Y-69119925D02*
X148796228Y-69215163D01*
X148796228Y-69215163D02*
X148796228Y-69596115D01*
X149272419Y-68596115D02*
X148272419Y-68596115D01*
X148272419Y-68596115D02*
X148272419Y-68358020D01*
X148272419Y-68358020D02*
X148320038Y-68215163D01*
X148320038Y-68215163D02*
X148415276Y-68119925D01*
X148415276Y-68119925D02*
X148510514Y-68072306D01*
X148510514Y-68072306D02*
X148700990Y-68024687D01*
X148700990Y-68024687D02*
X148843847Y-68024687D01*
X148843847Y-68024687D02*
X149034323Y-68072306D01*
X149034323Y-68072306D02*
X149129561Y-68119925D01*
X149129561Y-68119925D02*
X149224800Y-68215163D01*
X149224800Y-68215163D02*
X149272419Y-68358020D01*
X149272419Y-68358020D02*
X149272419Y-68596115D01*
X148272419Y-67691353D02*
X148272419Y-67024687D01*
X148272419Y-67024687D02*
X149272419Y-67453258D01*
X146572419Y-69546115D02*
X145572419Y-69546115D01*
X145572419Y-69546115D02*
X145572419Y-69165163D01*
X145572419Y-69165163D02*
X145620038Y-69069925D01*
X145620038Y-69069925D02*
X145667657Y-69022306D01*
X145667657Y-69022306D02*
X145762895Y-68974687D01*
X145762895Y-68974687D02*
X145905752Y-68974687D01*
X145905752Y-68974687D02*
X146000990Y-69022306D01*
X146000990Y-69022306D02*
X146048609Y-69069925D01*
X146048609Y-69069925D02*
X146096228Y-69165163D01*
X146096228Y-69165163D02*
X146096228Y-69546115D01*
X146572419Y-68546115D02*
X145572419Y-68546115D01*
X145572419Y-68546115D02*
X145572419Y-68308020D01*
X145572419Y-68308020D02*
X145620038Y-68165163D01*
X145620038Y-68165163D02*
X145715276Y-68069925D01*
X145715276Y-68069925D02*
X145810514Y-68022306D01*
X145810514Y-68022306D02*
X146000990Y-67974687D01*
X146000990Y-67974687D02*
X146143847Y-67974687D01*
X146143847Y-67974687D02*
X146334323Y-68022306D01*
X146334323Y-68022306D02*
X146429561Y-68069925D01*
X146429561Y-68069925D02*
X146524800Y-68165163D01*
X146524800Y-68165163D02*
X146572419Y-68308020D01*
X146572419Y-68308020D02*
X146572419Y-68546115D01*
X145572419Y-67117544D02*
X145572419Y-67308020D01*
X145572419Y-67308020D02*
X145620038Y-67403258D01*
X145620038Y-67403258D02*
X145667657Y-67450877D01*
X145667657Y-67450877D02*
X145810514Y-67546115D01*
X145810514Y-67546115D02*
X146000990Y-67593734D01*
X146000990Y-67593734D02*
X146381942Y-67593734D01*
X146381942Y-67593734D02*
X146477180Y-67546115D01*
X146477180Y-67546115D02*
X146524800Y-67498496D01*
X146524800Y-67498496D02*
X146572419Y-67403258D01*
X146572419Y-67403258D02*
X146572419Y-67212782D01*
X146572419Y-67212782D02*
X146524800Y-67117544D01*
X146524800Y-67117544D02*
X146477180Y-67069925D01*
X146477180Y-67069925D02*
X146381942Y-67022306D01*
X146381942Y-67022306D02*
X146143847Y-67022306D01*
X146143847Y-67022306D02*
X146048609Y-67069925D01*
X146048609Y-67069925D02*
X146000990Y-67117544D01*
X146000990Y-67117544D02*
X145953371Y-67212782D01*
X145953371Y-67212782D02*
X145953371Y-67403258D01*
X145953371Y-67403258D02*
X146000990Y-67498496D01*
X146000990Y-67498496D02*
X146048609Y-67546115D01*
X146048609Y-67546115D02*
X146143847Y-67593734D01*
X144122419Y-69546115D02*
X143122419Y-69546115D01*
X143122419Y-69546115D02*
X143122419Y-69165163D01*
X143122419Y-69165163D02*
X143170038Y-69069925D01*
X143170038Y-69069925D02*
X143217657Y-69022306D01*
X143217657Y-69022306D02*
X143312895Y-68974687D01*
X143312895Y-68974687D02*
X143455752Y-68974687D01*
X143455752Y-68974687D02*
X143550990Y-69022306D01*
X143550990Y-69022306D02*
X143598609Y-69069925D01*
X143598609Y-69069925D02*
X143646228Y-69165163D01*
X143646228Y-69165163D02*
X143646228Y-69546115D01*
X144122419Y-68546115D02*
X143122419Y-68546115D01*
X143122419Y-68546115D02*
X143122419Y-68308020D01*
X143122419Y-68308020D02*
X143170038Y-68165163D01*
X143170038Y-68165163D02*
X143265276Y-68069925D01*
X143265276Y-68069925D02*
X143360514Y-68022306D01*
X143360514Y-68022306D02*
X143550990Y-67974687D01*
X143550990Y-67974687D02*
X143693847Y-67974687D01*
X143693847Y-67974687D02*
X143884323Y-68022306D01*
X143884323Y-68022306D02*
X143979561Y-68069925D01*
X143979561Y-68069925D02*
X144074800Y-68165163D01*
X144074800Y-68165163D02*
X144122419Y-68308020D01*
X144122419Y-68308020D02*
X144122419Y-68546115D01*
X143122419Y-67069925D02*
X143122419Y-67546115D01*
X143122419Y-67546115D02*
X143598609Y-67593734D01*
X143598609Y-67593734D02*
X143550990Y-67546115D01*
X143550990Y-67546115D02*
X143503371Y-67450877D01*
X143503371Y-67450877D02*
X143503371Y-67212782D01*
X143503371Y-67212782D02*
X143550990Y-67117544D01*
X143550990Y-67117544D02*
X143598609Y-67069925D01*
X143598609Y-67069925D02*
X143693847Y-67022306D01*
X143693847Y-67022306D02*
X143931942Y-67022306D01*
X143931942Y-67022306D02*
X144027180Y-67069925D01*
X144027180Y-67069925D02*
X144074800Y-67117544D01*
X144074800Y-67117544D02*
X144122419Y-67212782D01*
X144122419Y-67212782D02*
X144122419Y-67450877D01*
X144122419Y-67450877D02*
X144074800Y-67546115D01*
X144074800Y-67546115D02*
X144027180Y-67593734D01*
X140920038Y-68972306D02*
X140872419Y-69067544D01*
X140872419Y-69067544D02*
X140872419Y-69210401D01*
X140872419Y-69210401D02*
X140920038Y-69353258D01*
X140920038Y-69353258D02*
X141015276Y-69448496D01*
X141015276Y-69448496D02*
X141110514Y-69496115D01*
X141110514Y-69496115D02*
X141300990Y-69543734D01*
X141300990Y-69543734D02*
X141443847Y-69543734D01*
X141443847Y-69543734D02*
X141634323Y-69496115D01*
X141634323Y-69496115D02*
X141729561Y-69448496D01*
X141729561Y-69448496D02*
X141824800Y-69353258D01*
X141824800Y-69353258D02*
X141872419Y-69210401D01*
X141872419Y-69210401D02*
X141872419Y-69115163D01*
X141872419Y-69115163D02*
X141824800Y-68972306D01*
X141824800Y-68972306D02*
X141777180Y-68924687D01*
X141777180Y-68924687D02*
X141443847Y-68924687D01*
X141443847Y-68924687D02*
X141443847Y-69115163D01*
X141872419Y-68496115D02*
X140872419Y-68496115D01*
X140872419Y-68496115D02*
X141872419Y-67924687D01*
X141872419Y-67924687D02*
X140872419Y-67924687D01*
X141872419Y-67448496D02*
X140872419Y-67448496D01*
X140872419Y-67448496D02*
X140872419Y-67210401D01*
X140872419Y-67210401D02*
X140920038Y-67067544D01*
X140920038Y-67067544D02*
X141015276Y-66972306D01*
X141015276Y-66972306D02*
X141110514Y-66924687D01*
X141110514Y-66924687D02*
X141300990Y-66877068D01*
X141300990Y-66877068D02*
X141443847Y-66877068D01*
X141443847Y-66877068D02*
X141634323Y-66924687D01*
X141634323Y-66924687D02*
X141729561Y-66972306D01*
X141729561Y-66972306D02*
X141824800Y-67067544D01*
X141824800Y-67067544D02*
X141872419Y-67210401D01*
X141872419Y-67210401D02*
X141872419Y-67448496D01*
X138320038Y-68972306D02*
X138272419Y-69067544D01*
X138272419Y-69067544D02*
X138272419Y-69210401D01*
X138272419Y-69210401D02*
X138320038Y-69353258D01*
X138320038Y-69353258D02*
X138415276Y-69448496D01*
X138415276Y-69448496D02*
X138510514Y-69496115D01*
X138510514Y-69496115D02*
X138700990Y-69543734D01*
X138700990Y-69543734D02*
X138843847Y-69543734D01*
X138843847Y-69543734D02*
X139034323Y-69496115D01*
X139034323Y-69496115D02*
X139129561Y-69448496D01*
X139129561Y-69448496D02*
X139224800Y-69353258D01*
X139224800Y-69353258D02*
X139272419Y-69210401D01*
X139272419Y-69210401D02*
X139272419Y-69115163D01*
X139272419Y-69115163D02*
X139224800Y-68972306D01*
X139224800Y-68972306D02*
X139177180Y-68924687D01*
X139177180Y-68924687D02*
X138843847Y-68924687D01*
X138843847Y-68924687D02*
X138843847Y-69115163D01*
X139272419Y-68496115D02*
X138272419Y-68496115D01*
X138272419Y-68496115D02*
X139272419Y-67924687D01*
X139272419Y-67924687D02*
X138272419Y-67924687D01*
X139272419Y-67448496D02*
X138272419Y-67448496D01*
X138272419Y-67448496D02*
X138272419Y-67210401D01*
X138272419Y-67210401D02*
X138320038Y-67067544D01*
X138320038Y-67067544D02*
X138415276Y-66972306D01*
X138415276Y-66972306D02*
X138510514Y-66924687D01*
X138510514Y-66924687D02*
X138700990Y-66877068D01*
X138700990Y-66877068D02*
X138843847Y-66877068D01*
X138843847Y-66877068D02*
X139034323Y-66924687D01*
X139034323Y-66924687D02*
X139129561Y-66972306D01*
X139129561Y-66972306D02*
X139224800Y-67067544D01*
X139224800Y-67067544D02*
X139272419Y-67210401D01*
X139272419Y-67210401D02*
X139272419Y-67448496D01*
X135520038Y-68972306D02*
X135472419Y-69067544D01*
X135472419Y-69067544D02*
X135472419Y-69210401D01*
X135472419Y-69210401D02*
X135520038Y-69353258D01*
X135520038Y-69353258D02*
X135615276Y-69448496D01*
X135615276Y-69448496D02*
X135710514Y-69496115D01*
X135710514Y-69496115D02*
X135900990Y-69543734D01*
X135900990Y-69543734D02*
X136043847Y-69543734D01*
X136043847Y-69543734D02*
X136234323Y-69496115D01*
X136234323Y-69496115D02*
X136329561Y-69448496D01*
X136329561Y-69448496D02*
X136424800Y-69353258D01*
X136424800Y-69353258D02*
X136472419Y-69210401D01*
X136472419Y-69210401D02*
X136472419Y-69115163D01*
X136472419Y-69115163D02*
X136424800Y-68972306D01*
X136424800Y-68972306D02*
X136377180Y-68924687D01*
X136377180Y-68924687D02*
X136043847Y-68924687D01*
X136043847Y-68924687D02*
X136043847Y-69115163D01*
X136472419Y-68496115D02*
X135472419Y-68496115D01*
X135472419Y-68496115D02*
X136472419Y-67924687D01*
X136472419Y-67924687D02*
X135472419Y-67924687D01*
X136472419Y-67448496D02*
X135472419Y-67448496D01*
X135472419Y-67448496D02*
X135472419Y-67210401D01*
X135472419Y-67210401D02*
X135520038Y-67067544D01*
X135520038Y-67067544D02*
X135615276Y-66972306D01*
X135615276Y-66972306D02*
X135710514Y-66924687D01*
X135710514Y-66924687D02*
X135900990Y-66877068D01*
X135900990Y-66877068D02*
X136043847Y-66877068D01*
X136043847Y-66877068D02*
X136234323Y-66924687D01*
X136234323Y-66924687D02*
X136329561Y-66972306D01*
X136329561Y-66972306D02*
X136424800Y-67067544D01*
X136424800Y-67067544D02*
X136472419Y-67210401D01*
X136472419Y-67210401D02*
X136472419Y-67448496D01*
D13*
X133118738Y-68955859D02*
X133071119Y-69051097D01*
X133071119Y-69051097D02*
X133071119Y-69193954D01*
X133071119Y-69193954D02*
X133118738Y-69336811D01*
X133118738Y-69336811D02*
X133213976Y-69432049D01*
X133213976Y-69432049D02*
X133309214Y-69479668D01*
X133309214Y-69479668D02*
X133499690Y-69527287D01*
X133499690Y-69527287D02*
X133642547Y-69527287D01*
X133642547Y-69527287D02*
X133833023Y-69479668D01*
X133833023Y-69479668D02*
X133928261Y-69432049D01*
X133928261Y-69432049D02*
X134023500Y-69336811D01*
X134023500Y-69336811D02*
X134071119Y-69193954D01*
X134071119Y-69193954D02*
X134071119Y-69098716D01*
X134071119Y-69098716D02*
X134023500Y-68955859D01*
X134023500Y-68955859D02*
X133975880Y-68908240D01*
X133975880Y-68908240D02*
X133642547Y-68908240D01*
X133642547Y-68908240D02*
X133642547Y-69098716D01*
X134071119Y-68479668D02*
X133071119Y-68479668D01*
X133071119Y-68479668D02*
X134071119Y-67908240D01*
X134071119Y-67908240D02*
X133071119Y-67908240D01*
X134071119Y-67432049D02*
X133071119Y-67432049D01*
X133071119Y-67432049D02*
X133071119Y-67193954D01*
X133071119Y-67193954D02*
X133118738Y-67051097D01*
X133118738Y-67051097D02*
X133213976Y-66955859D01*
X133213976Y-66955859D02*
X133309214Y-66908240D01*
X133309214Y-66908240D02*
X133499690Y-66860621D01*
X133499690Y-66860621D02*
X133642547Y-66860621D01*
X133642547Y-66860621D02*
X133833023Y-66908240D01*
X133833023Y-66908240D02*
X133928261Y-66955859D01*
X133928261Y-66955859D02*
X134023500Y-67051097D01*
X134023500Y-67051097D02*
X134071119Y-67193954D01*
X134071119Y-67193954D02*
X134071119Y-67432049D01*
D10*
X169186704Y-32743734D02*
X169186704Y-32267544D01*
X169472419Y-32838972D02*
X168472419Y-32505639D01*
X168472419Y-32505639D02*
X169472419Y-32172306D01*
X169472419Y-31838972D02*
X168472419Y-31838972D01*
X168472419Y-31838972D02*
X168472419Y-31600877D01*
X168472419Y-31600877D02*
X168520038Y-31458020D01*
X168520038Y-31458020D02*
X168615276Y-31362782D01*
X168615276Y-31362782D02*
X168710514Y-31315163D01*
X168710514Y-31315163D02*
X168900990Y-31267544D01*
X168900990Y-31267544D02*
X169043847Y-31267544D01*
X169043847Y-31267544D02*
X169234323Y-31315163D01*
X169234323Y-31315163D02*
X169329561Y-31362782D01*
X169329561Y-31362782D02*
X169424800Y-31458020D01*
X169424800Y-31458020D02*
X169472419Y-31600877D01*
X169472419Y-31600877D02*
X169472419Y-31838972D01*
X169377180Y-30267544D02*
X169424800Y-30315163D01*
X169424800Y-30315163D02*
X169472419Y-30458020D01*
X169472419Y-30458020D02*
X169472419Y-30553258D01*
X169472419Y-30553258D02*
X169424800Y-30696115D01*
X169424800Y-30696115D02*
X169329561Y-30791353D01*
X169329561Y-30791353D02*
X169234323Y-30838972D01*
X169234323Y-30838972D02*
X169043847Y-30886591D01*
X169043847Y-30886591D02*
X168900990Y-30886591D01*
X168900990Y-30886591D02*
X168710514Y-30838972D01*
X168710514Y-30838972D02*
X168615276Y-30791353D01*
X168615276Y-30791353D02*
X168520038Y-30696115D01*
X168520038Y-30696115D02*
X168472419Y-30553258D01*
X168472419Y-30553258D02*
X168472419Y-30458020D01*
X168472419Y-30458020D02*
X168520038Y-30315163D01*
X168520038Y-30315163D02*
X168567657Y-30267544D01*
X168567657Y-29886591D02*
X168520038Y-29838972D01*
X168520038Y-29838972D02*
X168472419Y-29743734D01*
X168472419Y-29743734D02*
X168472419Y-29505639D01*
X168472419Y-29505639D02*
X168520038Y-29410401D01*
X168520038Y-29410401D02*
X168567657Y-29362782D01*
X168567657Y-29362782D02*
X168662895Y-29315163D01*
X168662895Y-29315163D02*
X168758133Y-29315163D01*
X168758133Y-29315163D02*
X168900990Y-29362782D01*
X168900990Y-29362782D02*
X169472419Y-29934210D01*
X169472419Y-29934210D02*
X169472419Y-29315163D01*
X166672419Y-32296115D02*
X165672419Y-32296115D01*
X165672419Y-32296115D02*
X165672419Y-31915163D01*
X165672419Y-31915163D02*
X165720038Y-31819925D01*
X165720038Y-31819925D02*
X165767657Y-31772306D01*
X165767657Y-31772306D02*
X165862895Y-31724687D01*
X165862895Y-31724687D02*
X166005752Y-31724687D01*
X166005752Y-31724687D02*
X166100990Y-31772306D01*
X166100990Y-31772306D02*
X166148609Y-31819925D01*
X166148609Y-31819925D02*
X166196228Y-31915163D01*
X166196228Y-31915163D02*
X166196228Y-32296115D01*
X166577180Y-30724687D02*
X166624800Y-30772306D01*
X166624800Y-30772306D02*
X166672419Y-30915163D01*
X166672419Y-30915163D02*
X166672419Y-31010401D01*
X166672419Y-31010401D02*
X166624800Y-31153258D01*
X166624800Y-31153258D02*
X166529561Y-31248496D01*
X166529561Y-31248496D02*
X166434323Y-31296115D01*
X166434323Y-31296115D02*
X166243847Y-31343734D01*
X166243847Y-31343734D02*
X166100990Y-31343734D01*
X166100990Y-31343734D02*
X165910514Y-31296115D01*
X165910514Y-31296115D02*
X165815276Y-31248496D01*
X165815276Y-31248496D02*
X165720038Y-31153258D01*
X165720038Y-31153258D02*
X165672419Y-31010401D01*
X165672419Y-31010401D02*
X165672419Y-30915163D01*
X165672419Y-30915163D02*
X165720038Y-30772306D01*
X165720038Y-30772306D02*
X165767657Y-30724687D01*
X165672419Y-30105639D02*
X165672419Y-30010401D01*
X165672419Y-30010401D02*
X165720038Y-29915163D01*
X165720038Y-29915163D02*
X165767657Y-29867544D01*
X165767657Y-29867544D02*
X165862895Y-29819925D01*
X165862895Y-29819925D02*
X166053371Y-29772306D01*
X166053371Y-29772306D02*
X166291466Y-29772306D01*
X166291466Y-29772306D02*
X166481942Y-29819925D01*
X166481942Y-29819925D02*
X166577180Y-29867544D01*
X166577180Y-29867544D02*
X166624800Y-29915163D01*
X166624800Y-29915163D02*
X166672419Y-30010401D01*
X166672419Y-30010401D02*
X166672419Y-30105639D01*
X166672419Y-30105639D02*
X166624800Y-30200877D01*
X166624800Y-30200877D02*
X166577180Y-30248496D01*
X166577180Y-30248496D02*
X166481942Y-30296115D01*
X166481942Y-30296115D02*
X166291466Y-30343734D01*
X166291466Y-30343734D02*
X166053371Y-30343734D01*
X166053371Y-30343734D02*
X165862895Y-30296115D01*
X165862895Y-30296115D02*
X165767657Y-30248496D01*
X165767657Y-30248496D02*
X165720038Y-30200877D01*
X165720038Y-30200877D02*
X165672419Y-30105639D01*
X164272419Y-32296115D02*
X163272419Y-32296115D01*
X163272419Y-32296115D02*
X163272419Y-31915163D01*
X163272419Y-31915163D02*
X163320038Y-31819925D01*
X163320038Y-31819925D02*
X163367657Y-31772306D01*
X163367657Y-31772306D02*
X163462895Y-31724687D01*
X163462895Y-31724687D02*
X163605752Y-31724687D01*
X163605752Y-31724687D02*
X163700990Y-31772306D01*
X163700990Y-31772306D02*
X163748609Y-31819925D01*
X163748609Y-31819925D02*
X163796228Y-31915163D01*
X163796228Y-31915163D02*
X163796228Y-32296115D01*
X164177180Y-30724687D02*
X164224800Y-30772306D01*
X164224800Y-30772306D02*
X164272419Y-30915163D01*
X164272419Y-30915163D02*
X164272419Y-31010401D01*
X164272419Y-31010401D02*
X164224800Y-31153258D01*
X164224800Y-31153258D02*
X164129561Y-31248496D01*
X164129561Y-31248496D02*
X164034323Y-31296115D01*
X164034323Y-31296115D02*
X163843847Y-31343734D01*
X163843847Y-31343734D02*
X163700990Y-31343734D01*
X163700990Y-31343734D02*
X163510514Y-31296115D01*
X163510514Y-31296115D02*
X163415276Y-31248496D01*
X163415276Y-31248496D02*
X163320038Y-31153258D01*
X163320038Y-31153258D02*
X163272419Y-31010401D01*
X163272419Y-31010401D02*
X163272419Y-30915163D01*
X163272419Y-30915163D02*
X163320038Y-30772306D01*
X163320038Y-30772306D02*
X163367657Y-30724687D01*
X164272419Y-29772306D02*
X164272419Y-30343734D01*
X164272419Y-30058020D02*
X163272419Y-30058020D01*
X163272419Y-30058020D02*
X163415276Y-30153258D01*
X163415276Y-30153258D02*
X163510514Y-30248496D01*
X163510514Y-30248496D02*
X163558133Y-30343734D01*
X161672419Y-32296115D02*
X160672419Y-32296115D01*
X160672419Y-32296115D02*
X160672419Y-31915163D01*
X160672419Y-31915163D02*
X160720038Y-31819925D01*
X160720038Y-31819925D02*
X160767657Y-31772306D01*
X160767657Y-31772306D02*
X160862895Y-31724687D01*
X160862895Y-31724687D02*
X161005752Y-31724687D01*
X161005752Y-31724687D02*
X161100990Y-31772306D01*
X161100990Y-31772306D02*
X161148609Y-31819925D01*
X161148609Y-31819925D02*
X161196228Y-31915163D01*
X161196228Y-31915163D02*
X161196228Y-32296115D01*
X161577180Y-30724687D02*
X161624800Y-30772306D01*
X161624800Y-30772306D02*
X161672419Y-30915163D01*
X161672419Y-30915163D02*
X161672419Y-31010401D01*
X161672419Y-31010401D02*
X161624800Y-31153258D01*
X161624800Y-31153258D02*
X161529561Y-31248496D01*
X161529561Y-31248496D02*
X161434323Y-31296115D01*
X161434323Y-31296115D02*
X161243847Y-31343734D01*
X161243847Y-31343734D02*
X161100990Y-31343734D01*
X161100990Y-31343734D02*
X160910514Y-31296115D01*
X160910514Y-31296115D02*
X160815276Y-31248496D01*
X160815276Y-31248496D02*
X160720038Y-31153258D01*
X160720038Y-31153258D02*
X160672419Y-31010401D01*
X160672419Y-31010401D02*
X160672419Y-30915163D01*
X160672419Y-30915163D02*
X160720038Y-30772306D01*
X160720038Y-30772306D02*
X160767657Y-30724687D01*
X160767657Y-30343734D02*
X160720038Y-30296115D01*
X160720038Y-30296115D02*
X160672419Y-30200877D01*
X160672419Y-30200877D02*
X160672419Y-29962782D01*
X160672419Y-29962782D02*
X160720038Y-29867544D01*
X160720038Y-29867544D02*
X160767657Y-29819925D01*
X160767657Y-29819925D02*
X160862895Y-29772306D01*
X160862895Y-29772306D02*
X160958133Y-29772306D01*
X160958133Y-29772306D02*
X161100990Y-29819925D01*
X161100990Y-29819925D02*
X161672419Y-30391353D01*
X161672419Y-30391353D02*
X161672419Y-29772306D01*
X159272419Y-32296115D02*
X158272419Y-32296115D01*
X158272419Y-32296115D02*
X158272419Y-31915163D01*
X158272419Y-31915163D02*
X158320038Y-31819925D01*
X158320038Y-31819925D02*
X158367657Y-31772306D01*
X158367657Y-31772306D02*
X158462895Y-31724687D01*
X158462895Y-31724687D02*
X158605752Y-31724687D01*
X158605752Y-31724687D02*
X158700990Y-31772306D01*
X158700990Y-31772306D02*
X158748609Y-31819925D01*
X158748609Y-31819925D02*
X158796228Y-31915163D01*
X158796228Y-31915163D02*
X158796228Y-32296115D01*
X159177180Y-30724687D02*
X159224800Y-30772306D01*
X159224800Y-30772306D02*
X159272419Y-30915163D01*
X159272419Y-30915163D02*
X159272419Y-31010401D01*
X159272419Y-31010401D02*
X159224800Y-31153258D01*
X159224800Y-31153258D02*
X159129561Y-31248496D01*
X159129561Y-31248496D02*
X159034323Y-31296115D01*
X159034323Y-31296115D02*
X158843847Y-31343734D01*
X158843847Y-31343734D02*
X158700990Y-31343734D01*
X158700990Y-31343734D02*
X158510514Y-31296115D01*
X158510514Y-31296115D02*
X158415276Y-31248496D01*
X158415276Y-31248496D02*
X158320038Y-31153258D01*
X158320038Y-31153258D02*
X158272419Y-31010401D01*
X158272419Y-31010401D02*
X158272419Y-30915163D01*
X158272419Y-30915163D02*
X158320038Y-30772306D01*
X158320038Y-30772306D02*
X158367657Y-30724687D01*
X158272419Y-30391353D02*
X158272419Y-29772306D01*
X158272419Y-29772306D02*
X158653371Y-30105639D01*
X158653371Y-30105639D02*
X158653371Y-29962782D01*
X158653371Y-29962782D02*
X158700990Y-29867544D01*
X158700990Y-29867544D02*
X158748609Y-29819925D01*
X158748609Y-29819925D02*
X158843847Y-29772306D01*
X158843847Y-29772306D02*
X159081942Y-29772306D01*
X159081942Y-29772306D02*
X159177180Y-29819925D01*
X159177180Y-29819925D02*
X159224800Y-29867544D01*
X159224800Y-29867544D02*
X159272419Y-29962782D01*
X159272419Y-29962782D02*
X159272419Y-30248496D01*
X159272419Y-30248496D02*
X159224800Y-30343734D01*
X159224800Y-30343734D02*
X159177180Y-30391353D01*
X156472419Y-32296115D02*
X155472419Y-32296115D01*
X155472419Y-32296115D02*
X155472419Y-31915163D01*
X155472419Y-31915163D02*
X155520038Y-31819925D01*
X155520038Y-31819925D02*
X155567657Y-31772306D01*
X155567657Y-31772306D02*
X155662895Y-31724687D01*
X155662895Y-31724687D02*
X155805752Y-31724687D01*
X155805752Y-31724687D02*
X155900990Y-31772306D01*
X155900990Y-31772306D02*
X155948609Y-31819925D01*
X155948609Y-31819925D02*
X155996228Y-31915163D01*
X155996228Y-31915163D02*
X155996228Y-32296115D01*
X156377180Y-30724687D02*
X156424800Y-30772306D01*
X156424800Y-30772306D02*
X156472419Y-30915163D01*
X156472419Y-30915163D02*
X156472419Y-31010401D01*
X156472419Y-31010401D02*
X156424800Y-31153258D01*
X156424800Y-31153258D02*
X156329561Y-31248496D01*
X156329561Y-31248496D02*
X156234323Y-31296115D01*
X156234323Y-31296115D02*
X156043847Y-31343734D01*
X156043847Y-31343734D02*
X155900990Y-31343734D01*
X155900990Y-31343734D02*
X155710514Y-31296115D01*
X155710514Y-31296115D02*
X155615276Y-31248496D01*
X155615276Y-31248496D02*
X155520038Y-31153258D01*
X155520038Y-31153258D02*
X155472419Y-31010401D01*
X155472419Y-31010401D02*
X155472419Y-30915163D01*
X155472419Y-30915163D02*
X155520038Y-30772306D01*
X155520038Y-30772306D02*
X155567657Y-30724687D01*
X155805752Y-29867544D02*
X156472419Y-29867544D01*
X155424800Y-30105639D02*
X156139085Y-30343734D01*
X156139085Y-30343734D02*
X156139085Y-29724687D01*
X154272419Y-32296115D02*
X153272419Y-32296115D01*
X153272419Y-32296115D02*
X153272419Y-31915163D01*
X153272419Y-31915163D02*
X153320038Y-31819925D01*
X153320038Y-31819925D02*
X153367657Y-31772306D01*
X153367657Y-31772306D02*
X153462895Y-31724687D01*
X153462895Y-31724687D02*
X153605752Y-31724687D01*
X153605752Y-31724687D02*
X153700990Y-31772306D01*
X153700990Y-31772306D02*
X153748609Y-31819925D01*
X153748609Y-31819925D02*
X153796228Y-31915163D01*
X153796228Y-31915163D02*
X153796228Y-32296115D01*
X154177180Y-30724687D02*
X154224800Y-30772306D01*
X154224800Y-30772306D02*
X154272419Y-30915163D01*
X154272419Y-30915163D02*
X154272419Y-31010401D01*
X154272419Y-31010401D02*
X154224800Y-31153258D01*
X154224800Y-31153258D02*
X154129561Y-31248496D01*
X154129561Y-31248496D02*
X154034323Y-31296115D01*
X154034323Y-31296115D02*
X153843847Y-31343734D01*
X153843847Y-31343734D02*
X153700990Y-31343734D01*
X153700990Y-31343734D02*
X153510514Y-31296115D01*
X153510514Y-31296115D02*
X153415276Y-31248496D01*
X153415276Y-31248496D02*
X153320038Y-31153258D01*
X153320038Y-31153258D02*
X153272419Y-31010401D01*
X153272419Y-31010401D02*
X153272419Y-30915163D01*
X153272419Y-30915163D02*
X153320038Y-30772306D01*
X153320038Y-30772306D02*
X153367657Y-30724687D01*
X153272419Y-29819925D02*
X153272419Y-30296115D01*
X153272419Y-30296115D02*
X153748609Y-30343734D01*
X153748609Y-30343734D02*
X153700990Y-30296115D01*
X153700990Y-30296115D02*
X153653371Y-30200877D01*
X153653371Y-30200877D02*
X153653371Y-29962782D01*
X153653371Y-29962782D02*
X153700990Y-29867544D01*
X153700990Y-29867544D02*
X153748609Y-29819925D01*
X153748609Y-29819925D02*
X153843847Y-29772306D01*
X153843847Y-29772306D02*
X154081942Y-29772306D01*
X154081942Y-29772306D02*
X154177180Y-29819925D01*
X154177180Y-29819925D02*
X154224800Y-29867544D01*
X154224800Y-29867544D02*
X154272419Y-29962782D01*
X154272419Y-29962782D02*
X154272419Y-30200877D01*
X154272419Y-30200877D02*
X154224800Y-30296115D01*
X154224800Y-30296115D02*
X154177180Y-30343734D01*
X151872419Y-32296115D02*
X150872419Y-32296115D01*
X150872419Y-32296115D02*
X150872419Y-31915163D01*
X150872419Y-31915163D02*
X150920038Y-31819925D01*
X150920038Y-31819925D02*
X150967657Y-31772306D01*
X150967657Y-31772306D02*
X151062895Y-31724687D01*
X151062895Y-31724687D02*
X151205752Y-31724687D01*
X151205752Y-31724687D02*
X151300990Y-31772306D01*
X151300990Y-31772306D02*
X151348609Y-31819925D01*
X151348609Y-31819925D02*
X151396228Y-31915163D01*
X151396228Y-31915163D02*
X151396228Y-32296115D01*
X151777180Y-30724687D02*
X151824800Y-30772306D01*
X151824800Y-30772306D02*
X151872419Y-30915163D01*
X151872419Y-30915163D02*
X151872419Y-31010401D01*
X151872419Y-31010401D02*
X151824800Y-31153258D01*
X151824800Y-31153258D02*
X151729561Y-31248496D01*
X151729561Y-31248496D02*
X151634323Y-31296115D01*
X151634323Y-31296115D02*
X151443847Y-31343734D01*
X151443847Y-31343734D02*
X151300990Y-31343734D01*
X151300990Y-31343734D02*
X151110514Y-31296115D01*
X151110514Y-31296115D02*
X151015276Y-31248496D01*
X151015276Y-31248496D02*
X150920038Y-31153258D01*
X150920038Y-31153258D02*
X150872419Y-31010401D01*
X150872419Y-31010401D02*
X150872419Y-30915163D01*
X150872419Y-30915163D02*
X150920038Y-30772306D01*
X150920038Y-30772306D02*
X150967657Y-30724687D01*
X150872419Y-29867544D02*
X150872419Y-30058020D01*
X150872419Y-30058020D02*
X150920038Y-30153258D01*
X150920038Y-30153258D02*
X150967657Y-30200877D01*
X150967657Y-30200877D02*
X151110514Y-30296115D01*
X151110514Y-30296115D02*
X151300990Y-30343734D01*
X151300990Y-30343734D02*
X151681942Y-30343734D01*
X151681942Y-30343734D02*
X151777180Y-30296115D01*
X151777180Y-30296115D02*
X151824800Y-30248496D01*
X151824800Y-30248496D02*
X151872419Y-30153258D01*
X151872419Y-30153258D02*
X151872419Y-29962782D01*
X151872419Y-29962782D02*
X151824800Y-29867544D01*
X151824800Y-29867544D02*
X151777180Y-29819925D01*
X151777180Y-29819925D02*
X151681942Y-29772306D01*
X151681942Y-29772306D02*
X151443847Y-29772306D01*
X151443847Y-29772306D02*
X151348609Y-29819925D01*
X151348609Y-29819925D02*
X151300990Y-29867544D01*
X151300990Y-29867544D02*
X151253371Y-29962782D01*
X151253371Y-29962782D02*
X151253371Y-30153258D01*
X151253371Y-30153258D02*
X151300990Y-30248496D01*
X151300990Y-30248496D02*
X151348609Y-30296115D01*
X151348609Y-30296115D02*
X151443847Y-30343734D01*
X149072419Y-32296115D02*
X148072419Y-32296115D01*
X148072419Y-32296115D02*
X148072419Y-31915163D01*
X148072419Y-31915163D02*
X148120038Y-31819925D01*
X148120038Y-31819925D02*
X148167657Y-31772306D01*
X148167657Y-31772306D02*
X148262895Y-31724687D01*
X148262895Y-31724687D02*
X148405752Y-31724687D01*
X148405752Y-31724687D02*
X148500990Y-31772306D01*
X148500990Y-31772306D02*
X148548609Y-31819925D01*
X148548609Y-31819925D02*
X148596228Y-31915163D01*
X148596228Y-31915163D02*
X148596228Y-32296115D01*
X149072419Y-31296115D02*
X148072419Y-31296115D01*
X148072419Y-31296115D02*
X148072419Y-31058020D01*
X148072419Y-31058020D02*
X148120038Y-30915163D01*
X148120038Y-30915163D02*
X148215276Y-30819925D01*
X148215276Y-30819925D02*
X148310514Y-30772306D01*
X148310514Y-30772306D02*
X148500990Y-30724687D01*
X148500990Y-30724687D02*
X148643847Y-30724687D01*
X148643847Y-30724687D02*
X148834323Y-30772306D01*
X148834323Y-30772306D02*
X148929561Y-30819925D01*
X148929561Y-30819925D02*
X149024800Y-30915163D01*
X149024800Y-30915163D02*
X149072419Y-31058020D01*
X149072419Y-31058020D02*
X149072419Y-31296115D01*
X148072419Y-30105639D02*
X148072419Y-30010401D01*
X148072419Y-30010401D02*
X148120038Y-29915163D01*
X148120038Y-29915163D02*
X148167657Y-29867544D01*
X148167657Y-29867544D02*
X148262895Y-29819925D01*
X148262895Y-29819925D02*
X148453371Y-29772306D01*
X148453371Y-29772306D02*
X148691466Y-29772306D01*
X148691466Y-29772306D02*
X148881942Y-29819925D01*
X148881942Y-29819925D02*
X148977180Y-29867544D01*
X148977180Y-29867544D02*
X149024800Y-29915163D01*
X149024800Y-29915163D02*
X149072419Y-30010401D01*
X149072419Y-30010401D02*
X149072419Y-30105639D01*
X149072419Y-30105639D02*
X149024800Y-30200877D01*
X149024800Y-30200877D02*
X148977180Y-30248496D01*
X148977180Y-30248496D02*
X148881942Y-30296115D01*
X148881942Y-30296115D02*
X148691466Y-30343734D01*
X148691466Y-30343734D02*
X148453371Y-30343734D01*
X148453371Y-30343734D02*
X148262895Y-30296115D01*
X148262895Y-30296115D02*
X148167657Y-30248496D01*
X148167657Y-30248496D02*
X148120038Y-30200877D01*
X148120038Y-30200877D02*
X148072419Y-30105639D01*
X146472419Y-32296115D02*
X145472419Y-32296115D01*
X145472419Y-32296115D02*
X145472419Y-31915163D01*
X145472419Y-31915163D02*
X145520038Y-31819925D01*
X145520038Y-31819925D02*
X145567657Y-31772306D01*
X145567657Y-31772306D02*
X145662895Y-31724687D01*
X145662895Y-31724687D02*
X145805752Y-31724687D01*
X145805752Y-31724687D02*
X145900990Y-31772306D01*
X145900990Y-31772306D02*
X145948609Y-31819925D01*
X145948609Y-31819925D02*
X145996228Y-31915163D01*
X145996228Y-31915163D02*
X145996228Y-32296115D01*
X146472419Y-31296115D02*
X145472419Y-31296115D01*
X145472419Y-31296115D02*
X145472419Y-31058020D01*
X145472419Y-31058020D02*
X145520038Y-30915163D01*
X145520038Y-30915163D02*
X145615276Y-30819925D01*
X145615276Y-30819925D02*
X145710514Y-30772306D01*
X145710514Y-30772306D02*
X145900990Y-30724687D01*
X145900990Y-30724687D02*
X146043847Y-30724687D01*
X146043847Y-30724687D02*
X146234323Y-30772306D01*
X146234323Y-30772306D02*
X146329561Y-30819925D01*
X146329561Y-30819925D02*
X146424800Y-30915163D01*
X146424800Y-30915163D02*
X146472419Y-31058020D01*
X146472419Y-31058020D02*
X146472419Y-31296115D01*
X146472419Y-29772306D02*
X146472419Y-30343734D01*
X146472419Y-30058020D02*
X145472419Y-30058020D01*
X145472419Y-30058020D02*
X145615276Y-30153258D01*
X145615276Y-30153258D02*
X145710514Y-30248496D01*
X145710514Y-30248496D02*
X145758133Y-30343734D01*
X143872419Y-32296115D02*
X142872419Y-32296115D01*
X142872419Y-32296115D02*
X142872419Y-31915163D01*
X142872419Y-31915163D02*
X142920038Y-31819925D01*
X142920038Y-31819925D02*
X142967657Y-31772306D01*
X142967657Y-31772306D02*
X143062895Y-31724687D01*
X143062895Y-31724687D02*
X143205752Y-31724687D01*
X143205752Y-31724687D02*
X143300990Y-31772306D01*
X143300990Y-31772306D02*
X143348609Y-31819925D01*
X143348609Y-31819925D02*
X143396228Y-31915163D01*
X143396228Y-31915163D02*
X143396228Y-32296115D01*
X143872419Y-31296115D02*
X142872419Y-31296115D01*
X142872419Y-31296115D02*
X142872419Y-31058020D01*
X142872419Y-31058020D02*
X142920038Y-30915163D01*
X142920038Y-30915163D02*
X143015276Y-30819925D01*
X143015276Y-30819925D02*
X143110514Y-30772306D01*
X143110514Y-30772306D02*
X143300990Y-30724687D01*
X143300990Y-30724687D02*
X143443847Y-30724687D01*
X143443847Y-30724687D02*
X143634323Y-30772306D01*
X143634323Y-30772306D02*
X143729561Y-30819925D01*
X143729561Y-30819925D02*
X143824800Y-30915163D01*
X143824800Y-30915163D02*
X143872419Y-31058020D01*
X143872419Y-31058020D02*
X143872419Y-31296115D01*
X142967657Y-30343734D02*
X142920038Y-30296115D01*
X142920038Y-30296115D02*
X142872419Y-30200877D01*
X142872419Y-30200877D02*
X142872419Y-29962782D01*
X142872419Y-29962782D02*
X142920038Y-29867544D01*
X142920038Y-29867544D02*
X142967657Y-29819925D01*
X142967657Y-29819925D02*
X143062895Y-29772306D01*
X143062895Y-29772306D02*
X143158133Y-29772306D01*
X143158133Y-29772306D02*
X143300990Y-29819925D01*
X143300990Y-29819925D02*
X143872419Y-30391353D01*
X143872419Y-30391353D02*
X143872419Y-29772306D01*
X141672419Y-32296115D02*
X140672419Y-32296115D01*
X140672419Y-32296115D02*
X140672419Y-31915163D01*
X140672419Y-31915163D02*
X140720038Y-31819925D01*
X140720038Y-31819925D02*
X140767657Y-31772306D01*
X140767657Y-31772306D02*
X140862895Y-31724687D01*
X140862895Y-31724687D02*
X141005752Y-31724687D01*
X141005752Y-31724687D02*
X141100990Y-31772306D01*
X141100990Y-31772306D02*
X141148609Y-31819925D01*
X141148609Y-31819925D02*
X141196228Y-31915163D01*
X141196228Y-31915163D02*
X141196228Y-32296115D01*
X141672419Y-31296115D02*
X140672419Y-31296115D01*
X140672419Y-31296115D02*
X140672419Y-31058020D01*
X140672419Y-31058020D02*
X140720038Y-30915163D01*
X140720038Y-30915163D02*
X140815276Y-30819925D01*
X140815276Y-30819925D02*
X140910514Y-30772306D01*
X140910514Y-30772306D02*
X141100990Y-30724687D01*
X141100990Y-30724687D02*
X141243847Y-30724687D01*
X141243847Y-30724687D02*
X141434323Y-30772306D01*
X141434323Y-30772306D02*
X141529561Y-30819925D01*
X141529561Y-30819925D02*
X141624800Y-30915163D01*
X141624800Y-30915163D02*
X141672419Y-31058020D01*
X141672419Y-31058020D02*
X141672419Y-31296115D01*
X140672419Y-30391353D02*
X140672419Y-29772306D01*
X140672419Y-29772306D02*
X141053371Y-30105639D01*
X141053371Y-30105639D02*
X141053371Y-29962782D01*
X141053371Y-29962782D02*
X141100990Y-29867544D01*
X141100990Y-29867544D02*
X141148609Y-29819925D01*
X141148609Y-29819925D02*
X141243847Y-29772306D01*
X141243847Y-29772306D02*
X141481942Y-29772306D01*
X141481942Y-29772306D02*
X141577180Y-29819925D01*
X141577180Y-29819925D02*
X141624800Y-29867544D01*
X141624800Y-29867544D02*
X141672419Y-29962782D01*
X141672419Y-29962782D02*
X141672419Y-30248496D01*
X141672419Y-30248496D02*
X141624800Y-30343734D01*
X141624800Y-30343734D02*
X141577180Y-30391353D01*
X138872419Y-32296115D02*
X137872419Y-32296115D01*
X137872419Y-32296115D02*
X137872419Y-31915163D01*
X137872419Y-31915163D02*
X137920038Y-31819925D01*
X137920038Y-31819925D02*
X137967657Y-31772306D01*
X137967657Y-31772306D02*
X138062895Y-31724687D01*
X138062895Y-31724687D02*
X138205752Y-31724687D01*
X138205752Y-31724687D02*
X138300990Y-31772306D01*
X138300990Y-31772306D02*
X138348609Y-31819925D01*
X138348609Y-31819925D02*
X138396228Y-31915163D01*
X138396228Y-31915163D02*
X138396228Y-32296115D01*
X138872419Y-31296115D02*
X137872419Y-31296115D01*
X137872419Y-31296115D02*
X137872419Y-31058020D01*
X137872419Y-31058020D02*
X137920038Y-30915163D01*
X137920038Y-30915163D02*
X138015276Y-30819925D01*
X138015276Y-30819925D02*
X138110514Y-30772306D01*
X138110514Y-30772306D02*
X138300990Y-30724687D01*
X138300990Y-30724687D02*
X138443847Y-30724687D01*
X138443847Y-30724687D02*
X138634323Y-30772306D01*
X138634323Y-30772306D02*
X138729561Y-30819925D01*
X138729561Y-30819925D02*
X138824800Y-30915163D01*
X138824800Y-30915163D02*
X138872419Y-31058020D01*
X138872419Y-31058020D02*
X138872419Y-31296115D01*
X138205752Y-29867544D02*
X138872419Y-29867544D01*
X137824800Y-30105639D02*
X138539085Y-30343734D01*
X138539085Y-30343734D02*
X138539085Y-29724687D01*
D14*
X135517438Y-31739411D02*
X135469819Y-31834649D01*
X135469819Y-31834649D02*
X135469819Y-31977506D01*
X135469819Y-31977506D02*
X135517438Y-32120363D01*
X135517438Y-32120363D02*
X135612676Y-32215601D01*
X135612676Y-32215601D02*
X135707914Y-32263220D01*
X135707914Y-32263220D02*
X135898390Y-32310839D01*
X135898390Y-32310839D02*
X136041247Y-32310839D01*
X136041247Y-32310839D02*
X136231723Y-32263220D01*
X136231723Y-32263220D02*
X136326961Y-32215601D01*
X136326961Y-32215601D02*
X136422200Y-32120363D01*
X136422200Y-32120363D02*
X136469819Y-31977506D01*
X136469819Y-31977506D02*
X136469819Y-31882268D01*
X136469819Y-31882268D02*
X136422200Y-31739411D01*
X136422200Y-31739411D02*
X136374580Y-31691792D01*
X136374580Y-31691792D02*
X136041247Y-31691792D01*
X136041247Y-31691792D02*
X136041247Y-31882268D01*
X136469819Y-31263220D02*
X135469819Y-31263220D01*
X135469819Y-31263220D02*
X136469819Y-30691792D01*
X136469819Y-30691792D02*
X135469819Y-30691792D01*
X136469819Y-30215601D02*
X135469819Y-30215601D01*
X135469819Y-30215601D02*
X135469819Y-29977506D01*
X135469819Y-29977506D02*
X135517438Y-29834649D01*
X135517438Y-29834649D02*
X135612676Y-29739411D01*
X135612676Y-29739411D02*
X135707914Y-29691792D01*
X135707914Y-29691792D02*
X135898390Y-29644173D01*
X135898390Y-29644173D02*
X136041247Y-29644173D01*
X136041247Y-29644173D02*
X136231723Y-29691792D01*
X136231723Y-29691792D02*
X136326961Y-29739411D01*
X136326961Y-29739411D02*
X136422200Y-29834649D01*
X136422200Y-29834649D02*
X136469819Y-29977506D01*
X136469819Y-29977506D02*
X136469819Y-30215601D01*
X133488866Y-32263220D02*
X133488866Y-31501316D01*
X133869819Y-31882268D02*
X133107914Y-31882268D01*
X132869819Y-30548935D02*
X132869819Y-31025125D01*
X132869819Y-31025125D02*
X133346009Y-31072744D01*
X133346009Y-31072744D02*
X133298390Y-31025125D01*
X133298390Y-31025125D02*
X133250771Y-30929887D01*
X133250771Y-30929887D02*
X133250771Y-30691792D01*
X133250771Y-30691792D02*
X133298390Y-30596554D01*
X133298390Y-30596554D02*
X133346009Y-30548935D01*
X133346009Y-30548935D02*
X133441247Y-30501316D01*
X133441247Y-30501316D02*
X133679342Y-30501316D01*
X133679342Y-30501316D02*
X133774580Y-30548935D01*
X133774580Y-30548935D02*
X133822200Y-30596554D01*
X133822200Y-30596554D02*
X133869819Y-30691792D01*
X133869819Y-30691792D02*
X133869819Y-30929887D01*
X133869819Y-30929887D02*
X133822200Y-31025125D01*
X133822200Y-31025125D02*
X133774580Y-31072744D01*
X132869819Y-30215601D02*
X133869819Y-29882268D01*
X133869819Y-29882268D02*
X132869819Y-29548935D01*
D11*
X194117219Y-35973183D02*
X195117219Y-35639850D01*
X195117219Y-35639850D02*
X194117219Y-35306517D01*
X195117219Y-34973183D02*
X194450552Y-34973183D01*
X194117219Y-34973183D02*
X194164838Y-35020802D01*
X194164838Y-35020802D02*
X194212457Y-34973183D01*
X194212457Y-34973183D02*
X194164838Y-34925564D01*
X194164838Y-34925564D02*
X194117219Y-34973183D01*
X194117219Y-34973183D02*
X194212457Y-34973183D01*
X194450552Y-34496993D02*
X195117219Y-34496993D01*
X194545790Y-34496993D02*
X194498171Y-34449374D01*
X194498171Y-34449374D02*
X194450552Y-34354136D01*
X194450552Y-34354136D02*
X194450552Y-34211279D01*
X194450552Y-34211279D02*
X194498171Y-34116041D01*
X194498171Y-34116041D02*
X194593409Y-34068422D01*
X194593409Y-34068422D02*
X195117219Y-34068422D01*
X194164838Y-39106517D02*
X194117219Y-39201755D01*
X194117219Y-39201755D02*
X194117219Y-39344612D01*
X194117219Y-39344612D02*
X194164838Y-39487469D01*
X194164838Y-39487469D02*
X194260076Y-39582707D01*
X194260076Y-39582707D02*
X194355314Y-39630326D01*
X194355314Y-39630326D02*
X194545790Y-39677945D01*
X194545790Y-39677945D02*
X194688647Y-39677945D01*
X194688647Y-39677945D02*
X194879123Y-39630326D01*
X194879123Y-39630326D02*
X194974361Y-39582707D01*
X194974361Y-39582707D02*
X195069600Y-39487469D01*
X195069600Y-39487469D02*
X195117219Y-39344612D01*
X195117219Y-39344612D02*
X195117219Y-39249374D01*
X195117219Y-39249374D02*
X195069600Y-39106517D01*
X195069600Y-39106517D02*
X195021980Y-39058898D01*
X195021980Y-39058898D02*
X194688647Y-39058898D01*
X194688647Y-39058898D02*
X194688647Y-39249374D01*
X194450552Y-38630326D02*
X195117219Y-38630326D01*
X194545790Y-38630326D02*
X194498171Y-38582707D01*
X194498171Y-38582707D02*
X194450552Y-38487469D01*
X194450552Y-38487469D02*
X194450552Y-38344612D01*
X194450552Y-38344612D02*
X194498171Y-38249374D01*
X194498171Y-38249374D02*
X194593409Y-38201755D01*
X194593409Y-38201755D02*
X195117219Y-38201755D01*
X195117219Y-37296993D02*
X194117219Y-37296993D01*
X195069600Y-37296993D02*
X195117219Y-37392231D01*
X195117219Y-37392231D02*
X195117219Y-37582707D01*
X195117219Y-37582707D02*
X195069600Y-37677945D01*
X195069600Y-37677945D02*
X195021980Y-37725564D01*
X195021980Y-37725564D02*
X194926742Y-37773183D01*
X194926742Y-37773183D02*
X194641028Y-37773183D01*
X194641028Y-37773183D02*
X194545790Y-37725564D01*
X194545790Y-37725564D02*
X194498171Y-37677945D01*
X194498171Y-37677945D02*
X194450552Y-37582707D01*
X194450552Y-37582707D02*
X194450552Y-37392231D01*
X194450552Y-37392231D02*
X194498171Y-37296993D01*
D14*
X178833333Y-53109580D02*
X178785714Y-53157200D01*
X178785714Y-53157200D02*
X178642857Y-53204819D01*
X178642857Y-53204819D02*
X178547619Y-53204819D01*
X178547619Y-53204819D02*
X178404762Y-53157200D01*
X178404762Y-53157200D02*
X178309524Y-53061961D01*
X178309524Y-53061961D02*
X178261905Y-52966723D01*
X178261905Y-52966723D02*
X178214286Y-52776247D01*
X178214286Y-52776247D02*
X178214286Y-52633390D01*
X178214286Y-52633390D02*
X178261905Y-52442914D01*
X178261905Y-52442914D02*
X178309524Y-52347676D01*
X178309524Y-52347676D02*
X178404762Y-52252438D01*
X178404762Y-52252438D02*
X178547619Y-52204819D01*
X178547619Y-52204819D02*
X178642857Y-52204819D01*
X178642857Y-52204819D02*
X178785714Y-52252438D01*
X178785714Y-52252438D02*
X178833333Y-52300057D01*
X179166667Y-52204819D02*
X179785714Y-52204819D01*
X179785714Y-52204819D02*
X179452381Y-52585771D01*
X179452381Y-52585771D02*
X179595238Y-52585771D01*
X179595238Y-52585771D02*
X179690476Y-52633390D01*
X179690476Y-52633390D02*
X179738095Y-52681009D01*
X179738095Y-52681009D02*
X179785714Y-52776247D01*
X179785714Y-52776247D02*
X179785714Y-53014342D01*
X179785714Y-53014342D02*
X179738095Y-53109580D01*
X179738095Y-53109580D02*
X179690476Y-53157200D01*
X179690476Y-53157200D02*
X179595238Y-53204819D01*
X179595238Y-53204819D02*
X179309524Y-53204819D01*
X179309524Y-53204819D02*
X179214286Y-53157200D01*
X179214286Y-53157200D02*
X179166667Y-53109580D01*
X182488095Y-32454819D02*
X182488095Y-33264342D01*
X182488095Y-33264342D02*
X182535714Y-33359580D01*
X182535714Y-33359580D02*
X182583333Y-33407200D01*
X182583333Y-33407200D02*
X182678571Y-33454819D01*
X182678571Y-33454819D02*
X182869047Y-33454819D01*
X182869047Y-33454819D02*
X182964285Y-33407200D01*
X182964285Y-33407200D02*
X183011904Y-33359580D01*
X183011904Y-33359580D02*
X183059523Y-33264342D01*
X183059523Y-33264342D02*
X183059523Y-32454819D01*
X183440476Y-32454819D02*
X184059523Y-32454819D01*
X184059523Y-32454819D02*
X183726190Y-32835771D01*
X183726190Y-32835771D02*
X183869047Y-32835771D01*
X183869047Y-32835771D02*
X183964285Y-32883390D01*
X183964285Y-32883390D02*
X184011904Y-32931009D01*
X184011904Y-32931009D02*
X184059523Y-33026247D01*
X184059523Y-33026247D02*
X184059523Y-33264342D01*
X184059523Y-33264342D02*
X184011904Y-33359580D01*
X184011904Y-33359580D02*
X183964285Y-33407200D01*
X183964285Y-33407200D02*
X183869047Y-33454819D01*
X183869047Y-33454819D02*
X183583333Y-33454819D01*
X183583333Y-33454819D02*
X183488095Y-33407200D01*
X183488095Y-33407200D02*
X183440476Y-33359580D01*
X188261905Y-54954819D02*
X188261905Y-53954819D01*
X188261905Y-53954819D02*
X188500000Y-53954819D01*
X188500000Y-53954819D02*
X188642857Y-54002438D01*
X188642857Y-54002438D02*
X188738095Y-54097676D01*
X188738095Y-54097676D02*
X188785714Y-54192914D01*
X188785714Y-54192914D02*
X188833333Y-54383390D01*
X188833333Y-54383390D02*
X188833333Y-54526247D01*
X188833333Y-54526247D02*
X188785714Y-54716723D01*
X188785714Y-54716723D02*
X188738095Y-54811961D01*
X188738095Y-54811961D02*
X188642857Y-54907200D01*
X188642857Y-54907200D02*
X188500000Y-54954819D01*
X188500000Y-54954819D02*
X188261905Y-54954819D01*
X189785714Y-54954819D02*
X189214286Y-54954819D01*
X189500000Y-54954819D02*
X189500000Y-53954819D01*
X189500000Y-53954819D02*
X189404762Y-54097676D01*
X189404762Y-54097676D02*
X189309524Y-54192914D01*
X189309524Y-54192914D02*
X189214286Y-54240533D01*
X131654819Y-60933333D02*
X132369104Y-60933333D01*
X132369104Y-60933333D02*
X132511961Y-60980952D01*
X132511961Y-60980952D02*
X132607200Y-61076190D01*
X132607200Y-61076190D02*
X132654819Y-61219047D01*
X132654819Y-61219047D02*
X132654819Y-61314285D01*
X131988152Y-60028571D02*
X132654819Y-60028571D01*
X131607200Y-60266666D02*
X132321485Y-60504761D01*
X132321485Y-60504761D02*
X132321485Y-59885714D01*
X141833333Y-47809580D02*
X141785714Y-47857200D01*
X141785714Y-47857200D02*
X141642857Y-47904819D01*
X141642857Y-47904819D02*
X141547619Y-47904819D01*
X141547619Y-47904819D02*
X141404762Y-47857200D01*
X141404762Y-47857200D02*
X141309524Y-47761961D01*
X141309524Y-47761961D02*
X141261905Y-47666723D01*
X141261905Y-47666723D02*
X141214286Y-47476247D01*
X141214286Y-47476247D02*
X141214286Y-47333390D01*
X141214286Y-47333390D02*
X141261905Y-47142914D01*
X141261905Y-47142914D02*
X141309524Y-47047676D01*
X141309524Y-47047676D02*
X141404762Y-46952438D01*
X141404762Y-46952438D02*
X141547619Y-46904819D01*
X141547619Y-46904819D02*
X141642857Y-46904819D01*
X141642857Y-46904819D02*
X141785714Y-46952438D01*
X141785714Y-46952438D02*
X141833333Y-47000057D01*
X142309524Y-47904819D02*
X142500000Y-47904819D01*
X142500000Y-47904819D02*
X142595238Y-47857200D01*
X142595238Y-47857200D02*
X142642857Y-47809580D01*
X142642857Y-47809580D02*
X142738095Y-47666723D01*
X142738095Y-47666723D02*
X142785714Y-47476247D01*
X142785714Y-47476247D02*
X142785714Y-47095295D01*
X142785714Y-47095295D02*
X142738095Y-47000057D01*
X142738095Y-47000057D02*
X142690476Y-46952438D01*
X142690476Y-46952438D02*
X142595238Y-46904819D01*
X142595238Y-46904819D02*
X142404762Y-46904819D01*
X142404762Y-46904819D02*
X142309524Y-46952438D01*
X142309524Y-46952438D02*
X142261905Y-47000057D01*
X142261905Y-47000057D02*
X142214286Y-47095295D01*
X142214286Y-47095295D02*
X142214286Y-47333390D01*
X142214286Y-47333390D02*
X142261905Y-47428628D01*
X142261905Y-47428628D02*
X142309524Y-47476247D01*
X142309524Y-47476247D02*
X142404762Y-47523866D01*
X142404762Y-47523866D02*
X142595238Y-47523866D01*
X142595238Y-47523866D02*
X142690476Y-47476247D01*
X142690476Y-47476247D02*
X142738095Y-47428628D01*
X142738095Y-47428628D02*
X142785714Y-47333390D01*
X149254819Y-41766666D02*
X148778628Y-42099999D01*
X149254819Y-42338094D02*
X148254819Y-42338094D01*
X148254819Y-42338094D02*
X148254819Y-41957142D01*
X148254819Y-41957142D02*
X148302438Y-41861904D01*
X148302438Y-41861904D02*
X148350057Y-41814285D01*
X148350057Y-41814285D02*
X148445295Y-41766666D01*
X148445295Y-41766666D02*
X148588152Y-41766666D01*
X148588152Y-41766666D02*
X148683390Y-41814285D01*
X148683390Y-41814285D02*
X148731009Y-41861904D01*
X148731009Y-41861904D02*
X148778628Y-41957142D01*
X148778628Y-41957142D02*
X148778628Y-42338094D01*
X149254819Y-40814285D02*
X149254819Y-41385713D01*
X149254819Y-41099999D02*
X148254819Y-41099999D01*
X148254819Y-41099999D02*
X148397676Y-41195237D01*
X148397676Y-41195237D02*
X148492914Y-41290475D01*
X148492914Y-41290475D02*
X148540533Y-41385713D01*
X158959580Y-56566666D02*
X159007200Y-56614285D01*
X159007200Y-56614285D02*
X159054819Y-56757142D01*
X159054819Y-56757142D02*
X159054819Y-56852380D01*
X159054819Y-56852380D02*
X159007200Y-56995237D01*
X159007200Y-56995237D02*
X158911961Y-57090475D01*
X158911961Y-57090475D02*
X158816723Y-57138094D01*
X158816723Y-57138094D02*
X158626247Y-57185713D01*
X158626247Y-57185713D02*
X158483390Y-57185713D01*
X158483390Y-57185713D02*
X158292914Y-57138094D01*
X158292914Y-57138094D02*
X158197676Y-57090475D01*
X158197676Y-57090475D02*
X158102438Y-56995237D01*
X158102438Y-56995237D02*
X158054819Y-56852380D01*
X158054819Y-56852380D02*
X158054819Y-56757142D01*
X158054819Y-56757142D02*
X158102438Y-56614285D01*
X158102438Y-56614285D02*
X158150057Y-56566666D01*
X158054819Y-55709523D02*
X158054819Y-55899999D01*
X158054819Y-55899999D02*
X158102438Y-55995237D01*
X158102438Y-55995237D02*
X158150057Y-56042856D01*
X158150057Y-56042856D02*
X158292914Y-56138094D01*
X158292914Y-56138094D02*
X158483390Y-56185713D01*
X158483390Y-56185713D02*
X158864342Y-56185713D01*
X158864342Y-56185713D02*
X158959580Y-56138094D01*
X158959580Y-56138094D02*
X159007200Y-56090475D01*
X159007200Y-56090475D02*
X159054819Y-55995237D01*
X159054819Y-55995237D02*
X159054819Y-55804761D01*
X159054819Y-55804761D02*
X159007200Y-55709523D01*
X159007200Y-55709523D02*
X158959580Y-55661904D01*
X158959580Y-55661904D02*
X158864342Y-55614285D01*
X158864342Y-55614285D02*
X158626247Y-55614285D01*
X158626247Y-55614285D02*
X158531009Y-55661904D01*
X158531009Y-55661904D02*
X158483390Y-55709523D01*
X158483390Y-55709523D02*
X158435771Y-55804761D01*
X158435771Y-55804761D02*
X158435771Y-55995237D01*
X158435771Y-55995237D02*
X158483390Y-56090475D01*
X158483390Y-56090475D02*
X158531009Y-56138094D01*
X158531009Y-56138094D02*
X158626247Y-56185713D01*
X196109580Y-45416666D02*
X196157200Y-45464285D01*
X196157200Y-45464285D02*
X196204819Y-45607142D01*
X196204819Y-45607142D02*
X196204819Y-45702380D01*
X196204819Y-45702380D02*
X196157200Y-45845237D01*
X196157200Y-45845237D02*
X196061961Y-45940475D01*
X196061961Y-45940475D02*
X195966723Y-45988094D01*
X195966723Y-45988094D02*
X195776247Y-46035713D01*
X195776247Y-46035713D02*
X195633390Y-46035713D01*
X195633390Y-46035713D02*
X195442914Y-45988094D01*
X195442914Y-45988094D02*
X195347676Y-45940475D01*
X195347676Y-45940475D02*
X195252438Y-45845237D01*
X195252438Y-45845237D02*
X195204819Y-45702380D01*
X195204819Y-45702380D02*
X195204819Y-45607142D01*
X195204819Y-45607142D02*
X195252438Y-45464285D01*
X195252438Y-45464285D02*
X195300057Y-45416666D01*
X195538152Y-44559523D02*
X196204819Y-44559523D01*
X195157200Y-44797618D02*
X195871485Y-45035713D01*
X195871485Y-45035713D02*
X195871485Y-44416666D01*
X166233333Y-58854819D02*
X165757143Y-58854819D01*
X165757143Y-58854819D02*
X165757143Y-57854819D01*
X167090476Y-58854819D02*
X166519048Y-58854819D01*
X166804762Y-58854819D02*
X166804762Y-57854819D01*
X166804762Y-57854819D02*
X166709524Y-57997676D01*
X166709524Y-57997676D02*
X166614286Y-58092914D01*
X166614286Y-58092914D02*
X166519048Y-58140533D01*
X131654819Y-39133333D02*
X132369104Y-39133333D01*
X132369104Y-39133333D02*
X132511961Y-39180952D01*
X132511961Y-39180952D02*
X132607200Y-39276190D01*
X132607200Y-39276190D02*
X132654819Y-39419047D01*
X132654819Y-39419047D02*
X132654819Y-39514285D01*
X131654819Y-38752380D02*
X131654819Y-38133333D01*
X131654819Y-38133333D02*
X132035771Y-38466666D01*
X132035771Y-38466666D02*
X132035771Y-38323809D01*
X132035771Y-38323809D02*
X132083390Y-38228571D01*
X132083390Y-38228571D02*
X132131009Y-38180952D01*
X132131009Y-38180952D02*
X132226247Y-38133333D01*
X132226247Y-38133333D02*
X132464342Y-38133333D01*
X132464342Y-38133333D02*
X132559580Y-38180952D01*
X132559580Y-38180952D02*
X132607200Y-38228571D01*
X132607200Y-38228571D02*
X132654819Y-38323809D01*
X132654819Y-38323809D02*
X132654819Y-38609523D01*
X132654819Y-38609523D02*
X132607200Y-38704761D01*
X132607200Y-38704761D02*
X132559580Y-38752380D01*
X151238095Y-51054819D02*
X151238095Y-51864342D01*
X151238095Y-51864342D02*
X151285714Y-51959580D01*
X151285714Y-51959580D02*
X151333333Y-52007200D01*
X151333333Y-52007200D02*
X151428571Y-52054819D01*
X151428571Y-52054819D02*
X151619047Y-52054819D01*
X151619047Y-52054819D02*
X151714285Y-52007200D01*
X151714285Y-52007200D02*
X151761904Y-51959580D01*
X151761904Y-51959580D02*
X151809523Y-51864342D01*
X151809523Y-51864342D02*
X151809523Y-51054819D01*
X152238095Y-51150057D02*
X152285714Y-51102438D01*
X152285714Y-51102438D02*
X152380952Y-51054819D01*
X152380952Y-51054819D02*
X152619047Y-51054819D01*
X152619047Y-51054819D02*
X152714285Y-51102438D01*
X152714285Y-51102438D02*
X152761904Y-51150057D01*
X152761904Y-51150057D02*
X152809523Y-51245295D01*
X152809523Y-51245295D02*
X152809523Y-51340533D01*
X152809523Y-51340533D02*
X152761904Y-51483390D01*
X152761904Y-51483390D02*
X152190476Y-52054819D01*
X152190476Y-52054819D02*
X152809523Y-52054819D01*
X143233333Y-55759580D02*
X143185714Y-55807200D01*
X143185714Y-55807200D02*
X143042857Y-55854819D01*
X143042857Y-55854819D02*
X142947619Y-55854819D01*
X142947619Y-55854819D02*
X142804762Y-55807200D01*
X142804762Y-55807200D02*
X142709524Y-55711961D01*
X142709524Y-55711961D02*
X142661905Y-55616723D01*
X142661905Y-55616723D02*
X142614286Y-55426247D01*
X142614286Y-55426247D02*
X142614286Y-55283390D01*
X142614286Y-55283390D02*
X142661905Y-55092914D01*
X142661905Y-55092914D02*
X142709524Y-54997676D01*
X142709524Y-54997676D02*
X142804762Y-54902438D01*
X142804762Y-54902438D02*
X142947619Y-54854819D01*
X142947619Y-54854819D02*
X143042857Y-54854819D01*
X143042857Y-54854819D02*
X143185714Y-54902438D01*
X143185714Y-54902438D02*
X143233333Y-54950057D01*
X143804762Y-55283390D02*
X143709524Y-55235771D01*
X143709524Y-55235771D02*
X143661905Y-55188152D01*
X143661905Y-55188152D02*
X143614286Y-55092914D01*
X143614286Y-55092914D02*
X143614286Y-55045295D01*
X143614286Y-55045295D02*
X143661905Y-54950057D01*
X143661905Y-54950057D02*
X143709524Y-54902438D01*
X143709524Y-54902438D02*
X143804762Y-54854819D01*
X143804762Y-54854819D02*
X143995238Y-54854819D01*
X143995238Y-54854819D02*
X144090476Y-54902438D01*
X144090476Y-54902438D02*
X144138095Y-54950057D01*
X144138095Y-54950057D02*
X144185714Y-55045295D01*
X144185714Y-55045295D02*
X144185714Y-55092914D01*
X144185714Y-55092914D02*
X144138095Y-55188152D01*
X144138095Y-55188152D02*
X144090476Y-55235771D01*
X144090476Y-55235771D02*
X143995238Y-55283390D01*
X143995238Y-55283390D02*
X143804762Y-55283390D01*
X143804762Y-55283390D02*
X143709524Y-55331009D01*
X143709524Y-55331009D02*
X143661905Y-55378628D01*
X143661905Y-55378628D02*
X143614286Y-55473866D01*
X143614286Y-55473866D02*
X143614286Y-55664342D01*
X143614286Y-55664342D02*
X143661905Y-55759580D01*
X143661905Y-55759580D02*
X143709524Y-55807200D01*
X143709524Y-55807200D02*
X143804762Y-55854819D01*
X143804762Y-55854819D02*
X143995238Y-55854819D01*
X143995238Y-55854819D02*
X144090476Y-55807200D01*
X144090476Y-55807200D02*
X144138095Y-55759580D01*
X144138095Y-55759580D02*
X144185714Y-55664342D01*
X144185714Y-55664342D02*
X144185714Y-55473866D01*
X144185714Y-55473866D02*
X144138095Y-55378628D01*
X144138095Y-55378628D02*
X144090476Y-55331009D01*
X144090476Y-55331009D02*
X143995238Y-55283390D01*
X187159580Y-49766666D02*
X187207200Y-49814285D01*
X187207200Y-49814285D02*
X187254819Y-49957142D01*
X187254819Y-49957142D02*
X187254819Y-50052380D01*
X187254819Y-50052380D02*
X187207200Y-50195237D01*
X187207200Y-50195237D02*
X187111961Y-50290475D01*
X187111961Y-50290475D02*
X187016723Y-50338094D01*
X187016723Y-50338094D02*
X186826247Y-50385713D01*
X186826247Y-50385713D02*
X186683390Y-50385713D01*
X186683390Y-50385713D02*
X186492914Y-50338094D01*
X186492914Y-50338094D02*
X186397676Y-50290475D01*
X186397676Y-50290475D02*
X186302438Y-50195237D01*
X186302438Y-50195237D02*
X186254819Y-50052380D01*
X186254819Y-50052380D02*
X186254819Y-49957142D01*
X186254819Y-49957142D02*
X186302438Y-49814285D01*
X186302438Y-49814285D02*
X186350057Y-49766666D01*
X187254819Y-48814285D02*
X187254819Y-49385713D01*
X187254819Y-49099999D02*
X186254819Y-49099999D01*
X186254819Y-49099999D02*
X186397676Y-49195237D01*
X186397676Y-49195237D02*
X186492914Y-49290475D01*
X186492914Y-49290475D02*
X186540533Y-49385713D01*
X183333333Y-53454819D02*
X183000000Y-52978628D01*
X182761905Y-53454819D02*
X182761905Y-52454819D01*
X182761905Y-52454819D02*
X183142857Y-52454819D01*
X183142857Y-52454819D02*
X183238095Y-52502438D01*
X183238095Y-52502438D02*
X183285714Y-52550057D01*
X183285714Y-52550057D02*
X183333333Y-52645295D01*
X183333333Y-52645295D02*
X183333333Y-52788152D01*
X183333333Y-52788152D02*
X183285714Y-52883390D01*
X183285714Y-52883390D02*
X183238095Y-52931009D01*
X183238095Y-52931009D02*
X183142857Y-52978628D01*
X183142857Y-52978628D02*
X182761905Y-52978628D01*
X183714286Y-52550057D02*
X183761905Y-52502438D01*
X183761905Y-52502438D02*
X183857143Y-52454819D01*
X183857143Y-52454819D02*
X184095238Y-52454819D01*
X184095238Y-52454819D02*
X184190476Y-52502438D01*
X184190476Y-52502438D02*
X184238095Y-52550057D01*
X184238095Y-52550057D02*
X184285714Y-52645295D01*
X184285714Y-52645295D02*
X184285714Y-52740533D01*
X184285714Y-52740533D02*
X184238095Y-52883390D01*
X184238095Y-52883390D02*
X183666667Y-53454819D01*
X183666667Y-53454819D02*
X184285714Y-53454819D01*
X176593333Y-44659580D02*
X176545714Y-44707200D01*
X176545714Y-44707200D02*
X176402857Y-44754819D01*
X176402857Y-44754819D02*
X176307619Y-44754819D01*
X176307619Y-44754819D02*
X176164762Y-44707200D01*
X176164762Y-44707200D02*
X176069524Y-44611961D01*
X176069524Y-44611961D02*
X176021905Y-44516723D01*
X176021905Y-44516723D02*
X175974286Y-44326247D01*
X175974286Y-44326247D02*
X175974286Y-44183390D01*
X175974286Y-44183390D02*
X176021905Y-43992914D01*
X176021905Y-43992914D02*
X176069524Y-43897676D01*
X176069524Y-43897676D02*
X176164762Y-43802438D01*
X176164762Y-43802438D02*
X176307619Y-43754819D01*
X176307619Y-43754819D02*
X176402857Y-43754819D01*
X176402857Y-43754819D02*
X176545714Y-43802438D01*
X176545714Y-43802438D02*
X176593333Y-43850057D01*
X176974286Y-43850057D02*
X177021905Y-43802438D01*
X177021905Y-43802438D02*
X177117143Y-43754819D01*
X177117143Y-43754819D02*
X177355238Y-43754819D01*
X177355238Y-43754819D02*
X177450476Y-43802438D01*
X177450476Y-43802438D02*
X177498095Y-43850057D01*
X177498095Y-43850057D02*
X177545714Y-43945295D01*
X177545714Y-43945295D02*
X177545714Y-44040533D01*
X177545714Y-44040533D02*
X177498095Y-44183390D01*
X177498095Y-44183390D02*
X176926667Y-44754819D01*
X176926667Y-44754819D02*
X177545714Y-44754819D01*
X135084819Y-57278333D02*
X135799104Y-57278333D01*
X135799104Y-57278333D02*
X135941961Y-57325952D01*
X135941961Y-57325952D02*
X136037200Y-57421190D01*
X136037200Y-57421190D02*
X136084819Y-57564047D01*
X136084819Y-57564047D02*
X136084819Y-57659285D01*
X135180057Y-56849761D02*
X135132438Y-56802142D01*
X135132438Y-56802142D02*
X135084819Y-56706904D01*
X135084819Y-56706904D02*
X135084819Y-56468809D01*
X135084819Y-56468809D02*
X135132438Y-56373571D01*
X135132438Y-56373571D02*
X135180057Y-56325952D01*
X135180057Y-56325952D02*
X135275295Y-56278333D01*
X135275295Y-56278333D02*
X135370533Y-56278333D01*
X135370533Y-56278333D02*
X135513390Y-56325952D01*
X135513390Y-56325952D02*
X136084819Y-56897380D01*
X136084819Y-56897380D02*
X136084819Y-56278333D01*
D15*
%TO.C,C3*%
X176250000Y-51710000D02*
X183015000Y-51710000D01*
X183015000Y-48290000D02*
X176250000Y-48290000D01*
X183015000Y-51710000D02*
X183015000Y-48290000D01*
%TO.C,U3*%
X179825000Y-35825000D02*
X179825000Y-42245000D01*
X179825000Y-42245000D02*
X180095000Y-42245000D01*
X186725000Y-35825000D02*
X186725000Y-42245000D01*
X186725000Y-42245000D02*
X186455000Y-42245000D01*
X180135000Y-43975000D02*
X179665000Y-44315000D01*
X179665000Y-43635000D01*
X180135000Y-43975000D01*
G36*
X180135000Y-43975000D02*
G01*
X179665000Y-44315000D01*
X179665000Y-43635000D01*
X180135000Y-43975000D01*
G37*
%TO.C,D1*%
X188000000Y-53460000D02*
X190685000Y-53460000D01*
X190685000Y-51540000D02*
X188000000Y-51540000D01*
X190685000Y-53460000D02*
X190685000Y-51540000D01*
%TO.C,J4*%
X132240000Y-65580000D02*
X132240000Y-64200000D01*
X133620000Y-65580000D02*
X132240000Y-65580000D01*
X134890000Y-62820000D02*
X170560000Y-62820000D01*
X134890000Y-65580000D02*
X134890000Y-62820000D01*
X134890000Y-65580000D02*
X170560000Y-65580000D01*
X170560000Y-65580000D02*
X170560000Y-62820000D01*
%TO.C,C9*%
X143310000Y-51385580D02*
X143310000Y-51104420D01*
X144330000Y-51385580D02*
X144330000Y-51104420D01*
%TO.C,R1*%
X150637258Y-39277500D02*
X150162742Y-39277500D01*
X150637258Y-40322500D02*
X150162742Y-40322500D01*
%TO.C,C6*%
X160859420Y-53890000D02*
X161140580Y-53890000D01*
X160859420Y-54910000D02*
X161140580Y-54910000D01*
%TO.C,C4*%
X191290000Y-41485000D02*
X191290000Y-48250000D01*
X194710000Y-41485000D02*
X191290000Y-41485000D01*
X194710000Y-48250000D02*
X194710000Y-41485000D01*
%TO.C,L1*%
X163635242Y-55890000D02*
X161964758Y-55890000D01*
X163635242Y-57710000D02*
X161964758Y-57710000D01*
%TO.C,J3*%
X132100000Y-36580000D02*
X132100000Y-35200000D01*
X133480000Y-36580000D02*
X132100000Y-36580000D01*
X134750000Y-33820000D02*
X170420000Y-33820000D01*
X134750000Y-36580000D02*
X134750000Y-33820000D01*
X134750000Y-36580000D02*
X170420000Y-36580000D01*
X170420000Y-36580000D02*
X170420000Y-33820000D01*
%TO.C,U2*%
X148460000Y-48047500D02*
X148735000Y-48047500D01*
X148460000Y-48322500D02*
X148460000Y-48047500D01*
X148460000Y-55267500D02*
X148460000Y-54992500D01*
X148735000Y-55267500D02*
X148460000Y-55267500D01*
X155405000Y-48047500D02*
X155680000Y-48047500D01*
X155680000Y-48047500D02*
X155680000Y-48322500D01*
X155680000Y-54992500D02*
X155680000Y-55267500D01*
X155680000Y-55267500D02*
X155405000Y-55267500D01*
X147820000Y-48317500D02*
X147480000Y-47847500D01*
X148160000Y-47847500D01*
X147820000Y-48317500D01*
G36*
X147820000Y-48317500D02*
G01*
X147480000Y-47847500D01*
X148160000Y-47847500D01*
X147820000Y-48317500D01*
G37*
%TO.C,J1*%
X190370000Y-34345000D02*
X191750000Y-34345000D01*
X190370000Y-35725000D02*
X190370000Y-34345000D01*
X190370000Y-36995000D02*
X190370000Y-39645000D01*
X190370000Y-36995000D02*
X193130000Y-36995000D01*
X190370000Y-39645000D02*
X193130000Y-39645000D01*
X193130000Y-36995000D02*
X193130000Y-39645000D01*
%TO.C,C8*%
X141710000Y-53079420D02*
X141710000Y-53360580D01*
X142730000Y-53079420D02*
X142730000Y-53360580D01*
%TO.C,C1*%
X184490000Y-47109420D02*
X184490000Y-47390580D01*
X185510000Y-47109420D02*
X185510000Y-47390580D01*
%TO.C,R2*%
X184727500Y-50737258D02*
X184727500Y-50262742D01*
X185772500Y-50737258D02*
X185772500Y-50262742D01*
%TO.C,C2*%
X181640580Y-46490000D02*
X181359420Y-46490000D01*
X181640580Y-47510000D02*
X181359420Y-47510000D01*
%TO.C,J2*%
X136870000Y-50870000D02*
X138250000Y-50870000D01*
X136870000Y-52250000D02*
X136870000Y-50870000D01*
X136870000Y-53520000D02*
X136870000Y-58710000D01*
X136870000Y-53520000D02*
X139630000Y-53520000D01*
X136870000Y-58710000D02*
X139630000Y-58710000D01*
X139630000Y-53520000D02*
X139630000Y-58710000D01*
%TD*%
M02*
