%TF.GenerationSoftware,KiCad,Pcbnew,9.0.6*%
%TF.CreationDate,2026-01-10T20:09:33+01:00*%
%TF.ProjectId,nowyprojekt,6e6f7779-7072-46f6-9a65-6b742e6b6963,rev?*%
%TF.SameCoordinates,Original*%
%TF.FileFunction,Copper,L3,Inr*%
%TF.FilePolarity,Positive*%
%FSLAX46Y46*%
G04 Gerber Fmt 4.6, Leading zero omitted, Abs format (unit mm)*
G04 Created by KiCad (PCBNEW 9.0.6) date 2026-01-10 20:09:33*
%MOMM*%
%LPD*%
G01*
G04 APERTURE LIST*
%TA.AperFunction,ComponentPad*%
%ADD10R,1.700000X1.700000*%
%TD*%
%TA.AperFunction,ComponentPad*%
%ADD11C,1.700000*%
%TD*%
%TA.AperFunction,ViaPad*%
%ADD12C,0.600000*%
%TD*%
G04 APERTURE END LIST*
D10*
%TO.N,GND*%
%TO.C,J4*%
X133620000Y-64200000D03*
D11*
X136160000Y-64200000D03*
X138700000Y-64200000D03*
X141240000Y-64200000D03*
%TO.N,PD5*%
X143780000Y-64200000D03*
%TO.N,PD6*%
X146320000Y-64200000D03*
%TO.N,PD7*%
X148860000Y-64200000D03*
%TO.N,+5V*%
X151400000Y-64200000D03*
%TO.N,PB0*%
X153940000Y-64200000D03*
%TO.N,PB1*%
X156480000Y-64200000D03*
%TO.N,PB2*%
X159020000Y-64200000D03*
%TO.N,PB3*%
X161560000Y-64200000D03*
%TO.N,PB4*%
X164100000Y-64200000D03*
%TO.N,PB5*%
X166640000Y-64200000D03*
%TO.N,ADC1*%
X169180000Y-64200000D03*
%TD*%
D10*
%TO.N,+5V*%
%TO.C,J3*%
X133480000Y-35200000D03*
D11*
%TO.N,GND*%
X136020000Y-35200000D03*
%TO.N,PD4*%
X138560000Y-35200000D03*
%TO.N,PD3*%
X141100000Y-35200000D03*
%TO.N,PD2*%
X143640000Y-35200000D03*
%TO.N,PD1*%
X146180000Y-35200000D03*
%TO.N,PD0*%
X148720000Y-35200000D03*
%TO.N,PC6*%
X151260000Y-35200000D03*
%TO.N,PC5*%
X153800000Y-35200000D03*
%TO.N,PC4*%
X156340000Y-35200000D03*
%TO.N,PC3*%
X158880000Y-35200000D03*
%TO.N,PC2*%
X161420000Y-35200000D03*
%TO.N,PC1*%
X163960000Y-35200000D03*
%TO.N,PC0*%
X166500000Y-35200000D03*
%TO.N,ADC2*%
X169040000Y-35200000D03*
%TD*%
D10*
%TO.N,VIN*%
%TO.C,J1*%
X191750000Y-35725000D03*
D11*
%TO.N,GND*%
X191750000Y-38265000D03*
%TD*%
D10*
%TO.N,Net-(J2-Pin_1)*%
%TO.C,J2*%
X138250000Y-52250000D03*
D11*
%TO.N,unconnected-(J2-Pin_2-Pad2)*%
X138250000Y-54790000D03*
%TO.N,Net-(J2-Pin_3)*%
X138250000Y-57330000D03*
%TD*%
D12*
%TO.N,Net-(J2-Pin_3)*%
X141750000Y-56700000D03*
%TO.N,Net-(J2-Pin_1)*%
X143400000Y-53395000D03*
%TO.N,+5V*%
X146020000Y-53245000D03*
X150000000Y-43200000D03*
X150800000Y-60000000D03*
X146020000Y-50845000D03*
X183510000Y-46550000D03*
X167420000Y-55820000D03*
X134000000Y-40600000D03*
%TO.N,GND*%
X175760000Y-47300000D03*
X142600000Y-59800000D03*
X134800000Y-59600000D03*
X192000000Y-49750000D03*
X158620000Y-50845000D03*
X137000000Y-60000000D03*
X139800000Y-60000000D03*
X186500000Y-48250000D03*
X146220000Y-52045000D03*
X137200000Y-41200000D03*
X145620000Y-49445000D03*
X190260000Y-40800000D03*
X164400000Y-54800000D03*
X149620000Y-53020000D03*
X149820000Y-51220000D03*
X179010000Y-43550000D03*
X153820000Y-52220000D03*
%TO.N,Net-(U2-AREF)*%
X158595000Y-52420000D03*
%TD*%
%TA.AperFunction,Conductor*%
%TO.N,+5V*%
G36*
X196442539Y-28870185D02*
G01*
X196488294Y-28922989D01*
X196499500Y-28974500D01*
X196499500Y-69575500D01*
X196479815Y-69642539D01*
X196427011Y-69688294D01*
X196375500Y-69699500D01*
X131624500Y-69699500D01*
X131557461Y-69679815D01*
X131511706Y-69627011D01*
X131500500Y-69575500D01*
X131500500Y-63325321D01*
X132519500Y-63325321D01*
X132519500Y-65074678D01*
X132534032Y-65147735D01*
X132534033Y-65147739D01*
X132552405Y-65175235D01*
X132589399Y-65230601D01*
X132672260Y-65285966D01*
X132672264Y-65285967D01*
X132745321Y-65300499D01*
X132745324Y-65300500D01*
X132745326Y-65300500D01*
X134494676Y-65300500D01*
X134494677Y-65300499D01*
X134567740Y-65285966D01*
X134650601Y-65230601D01*
X134705966Y-65147740D01*
X134720500Y-65074674D01*
X134720500Y-64113389D01*
X135059500Y-64113389D01*
X135059500Y-64286611D01*
X135086598Y-64457701D01*
X135140127Y-64622445D01*
X135218768Y-64776788D01*
X135320586Y-64916928D01*
X135443072Y-65039414D01*
X135583212Y-65141232D01*
X135737555Y-65219873D01*
X135902299Y-65273402D01*
X136073389Y-65300500D01*
X136073390Y-65300500D01*
X136246610Y-65300500D01*
X136246611Y-65300500D01*
X136417701Y-65273402D01*
X136582445Y-65219873D01*
X136736788Y-65141232D01*
X136876928Y-65039414D01*
X136999414Y-64916928D01*
X137101232Y-64776788D01*
X137179873Y-64622445D01*
X137233402Y-64457701D01*
X137260500Y-64286611D01*
X137260500Y-64113389D01*
X137599500Y-64113389D01*
X137599500Y-64286611D01*
X137626598Y-64457701D01*
X137680127Y-64622445D01*
X137758768Y-64776788D01*
X137860586Y-64916928D01*
X137983072Y-65039414D01*
X138123212Y-65141232D01*
X138277555Y-65219873D01*
X138442299Y-65273402D01*
X138613389Y-65300500D01*
X138613390Y-65300500D01*
X138786610Y-65300500D01*
X138786611Y-65300500D01*
X138957701Y-65273402D01*
X139122445Y-65219873D01*
X139276788Y-65141232D01*
X139416928Y-65039414D01*
X139539414Y-64916928D01*
X139641232Y-64776788D01*
X139719873Y-64622445D01*
X139773402Y-64457701D01*
X139800500Y-64286611D01*
X139800500Y-64113389D01*
X140139500Y-64113389D01*
X140139500Y-64286611D01*
X140166598Y-64457701D01*
X140220127Y-64622445D01*
X140298768Y-64776788D01*
X140400586Y-64916928D01*
X140523072Y-65039414D01*
X140663212Y-65141232D01*
X140817555Y-65219873D01*
X140982299Y-65273402D01*
X141153389Y-65300500D01*
X141153390Y-65300500D01*
X141326610Y-65300500D01*
X141326611Y-65300500D01*
X141497701Y-65273402D01*
X141662445Y-65219873D01*
X141816788Y-65141232D01*
X141956928Y-65039414D01*
X142079414Y-64916928D01*
X142181232Y-64776788D01*
X142259873Y-64622445D01*
X142313402Y-64457701D01*
X142340500Y-64286611D01*
X142340500Y-64113389D01*
X142679500Y-64113389D01*
X142679500Y-64286611D01*
X142706598Y-64457701D01*
X142760127Y-64622445D01*
X142838768Y-64776788D01*
X142940586Y-64916928D01*
X143063072Y-65039414D01*
X143203212Y-65141232D01*
X143357555Y-65219873D01*
X143522299Y-65273402D01*
X143693389Y-65300500D01*
X143693390Y-65300500D01*
X143866610Y-65300500D01*
X143866611Y-65300500D01*
X144037701Y-65273402D01*
X144202445Y-65219873D01*
X144356788Y-65141232D01*
X144496928Y-65039414D01*
X144619414Y-64916928D01*
X144721232Y-64776788D01*
X144799873Y-64622445D01*
X144853402Y-64457701D01*
X144880500Y-64286611D01*
X144880500Y-64113389D01*
X145219500Y-64113389D01*
X145219500Y-64286611D01*
X145246598Y-64457701D01*
X145300127Y-64622445D01*
X145378768Y-64776788D01*
X145480586Y-64916928D01*
X145603072Y-65039414D01*
X145743212Y-65141232D01*
X145897555Y-65219873D01*
X146062299Y-65273402D01*
X146233389Y-65300500D01*
X146233390Y-65300500D01*
X146406610Y-65300500D01*
X146406611Y-65300500D01*
X146577701Y-65273402D01*
X146742445Y-65219873D01*
X146896788Y-65141232D01*
X147036928Y-65039414D01*
X147159414Y-64916928D01*
X147261232Y-64776788D01*
X147339873Y-64622445D01*
X147393402Y-64457701D01*
X147420500Y-64286611D01*
X147420500Y-64113389D01*
X147759500Y-64113389D01*
X147759500Y-64286611D01*
X147786598Y-64457701D01*
X147840127Y-64622445D01*
X147918768Y-64776788D01*
X148020586Y-64916928D01*
X148143072Y-65039414D01*
X148283212Y-65141232D01*
X148437555Y-65219873D01*
X148602299Y-65273402D01*
X148773389Y-65300500D01*
X148773390Y-65300500D01*
X148946610Y-65300500D01*
X148946611Y-65300500D01*
X149117701Y-65273402D01*
X149282445Y-65219873D01*
X149436788Y-65141232D01*
X149576928Y-65039414D01*
X149699414Y-64916928D01*
X149801232Y-64776788D01*
X149879873Y-64622445D01*
X149880896Y-64619294D01*
X149881610Y-64618250D01*
X149881734Y-64617952D01*
X149881796Y-64617977D01*
X149920327Y-64561618D01*
X149984683Y-64534415D01*
X150053530Y-64546323D01*
X150105011Y-64593562D01*
X150116760Y-64619287D01*
X150148904Y-64718217D01*
X150245375Y-64907550D01*
X150284728Y-64961716D01*
X150917037Y-64329408D01*
X150934075Y-64392993D01*
X150999901Y-64507007D01*
X151092993Y-64600099D01*
X151207007Y-64665925D01*
X151270590Y-64682962D01*
X150638282Y-65315269D01*
X150638282Y-65315270D01*
X150692449Y-65354624D01*
X150881782Y-65451095D01*
X151083870Y-65516757D01*
X151293754Y-65550000D01*
X151506246Y-65550000D01*
X151716127Y-65516757D01*
X151716130Y-65516757D01*
X151918217Y-65451095D01*
X152107554Y-65354622D01*
X152161716Y-65315270D01*
X152161717Y-65315270D01*
X151529408Y-64682962D01*
X151592993Y-64665925D01*
X151707007Y-64600099D01*
X151800099Y-64507007D01*
X151865925Y-64392993D01*
X151882962Y-64329409D01*
X152515270Y-64961717D01*
X152515270Y-64961716D01*
X152554622Y-64907554D01*
X152651096Y-64718215D01*
X152683239Y-64619288D01*
X152722676Y-64561612D01*
X152787034Y-64534413D01*
X152855880Y-64546327D01*
X152907357Y-64593571D01*
X152919100Y-64619284D01*
X152920127Y-64622446D01*
X152942281Y-64665925D01*
X152998768Y-64776788D01*
X153100586Y-64916928D01*
X153223072Y-65039414D01*
X153363212Y-65141232D01*
X153517555Y-65219873D01*
X153682299Y-65273402D01*
X153853389Y-65300500D01*
X153853390Y-65300500D01*
X154026610Y-65300500D01*
X154026611Y-65300500D01*
X154197701Y-65273402D01*
X154362445Y-65219873D01*
X154516788Y-65141232D01*
X154656928Y-65039414D01*
X154779414Y-64916928D01*
X154881232Y-64776788D01*
X154959873Y-64622445D01*
X155013402Y-64457701D01*
X155040500Y-64286611D01*
X155040500Y-64113389D01*
X155379500Y-64113389D01*
X155379500Y-64286611D01*
X155406598Y-64457701D01*
X155460127Y-64622445D01*
X155538768Y-64776788D01*
X155640586Y-64916928D01*
X155763072Y-65039414D01*
X155903212Y-65141232D01*
X156057555Y-65219873D01*
X156222299Y-65273402D01*
X156393389Y-65300500D01*
X156393390Y-65300500D01*
X156566610Y-65300500D01*
X156566611Y-65300500D01*
X156737701Y-65273402D01*
X156902445Y-65219873D01*
X157056788Y-65141232D01*
X157196928Y-65039414D01*
X157319414Y-64916928D01*
X157421232Y-64776788D01*
X157499873Y-64622445D01*
X157553402Y-64457701D01*
X157580500Y-64286611D01*
X157580500Y-64113389D01*
X157919500Y-64113389D01*
X157919500Y-64286611D01*
X157946598Y-64457701D01*
X158000127Y-64622445D01*
X158078768Y-64776788D01*
X158180586Y-64916928D01*
X158303072Y-65039414D01*
X158443212Y-65141232D01*
X158597555Y-65219873D01*
X158762299Y-65273402D01*
X158933389Y-65300500D01*
X158933390Y-65300500D01*
X159106610Y-65300500D01*
X159106611Y-65300500D01*
X159277701Y-65273402D01*
X159442445Y-65219873D01*
X159596788Y-65141232D01*
X159736928Y-65039414D01*
X159859414Y-64916928D01*
X159961232Y-64776788D01*
X160039873Y-64622445D01*
X160093402Y-64457701D01*
X160120500Y-64286611D01*
X160120500Y-64113389D01*
X160459500Y-64113389D01*
X160459500Y-64286611D01*
X160486598Y-64457701D01*
X160540127Y-64622445D01*
X160618768Y-64776788D01*
X160720586Y-64916928D01*
X160843072Y-65039414D01*
X160983212Y-65141232D01*
X161137555Y-65219873D01*
X161302299Y-65273402D01*
X161473389Y-65300500D01*
X161473390Y-65300500D01*
X161646610Y-65300500D01*
X161646611Y-65300500D01*
X161817701Y-65273402D01*
X161982445Y-65219873D01*
X162136788Y-65141232D01*
X162276928Y-65039414D01*
X162399414Y-64916928D01*
X162501232Y-64776788D01*
X162579873Y-64622445D01*
X162633402Y-64457701D01*
X162660500Y-64286611D01*
X162660500Y-64113389D01*
X162999500Y-64113389D01*
X162999500Y-64286611D01*
X163026598Y-64457701D01*
X163080127Y-64622445D01*
X163158768Y-64776788D01*
X163260586Y-64916928D01*
X163383072Y-65039414D01*
X163523212Y-65141232D01*
X163677555Y-65219873D01*
X163842299Y-65273402D01*
X164013389Y-65300500D01*
X164013390Y-65300500D01*
X164186610Y-65300500D01*
X164186611Y-65300500D01*
X164357701Y-65273402D01*
X164522445Y-65219873D01*
X164676788Y-65141232D01*
X164816928Y-65039414D01*
X164939414Y-64916928D01*
X165041232Y-64776788D01*
X165119873Y-64622445D01*
X165173402Y-64457701D01*
X165200500Y-64286611D01*
X165200500Y-64113389D01*
X165539500Y-64113389D01*
X165539500Y-64286611D01*
X165566598Y-64457701D01*
X165620127Y-64622445D01*
X165698768Y-64776788D01*
X165800586Y-64916928D01*
X165923072Y-65039414D01*
X166063212Y-65141232D01*
X166217555Y-65219873D01*
X166382299Y-65273402D01*
X166553389Y-65300500D01*
X166553390Y-65300500D01*
X166726610Y-65300500D01*
X166726611Y-65300500D01*
X166897701Y-65273402D01*
X167062445Y-65219873D01*
X167216788Y-65141232D01*
X167356928Y-65039414D01*
X167479414Y-64916928D01*
X167581232Y-64776788D01*
X167659873Y-64622445D01*
X167713402Y-64457701D01*
X167740500Y-64286611D01*
X167740500Y-64113389D01*
X168079500Y-64113389D01*
X168079500Y-64286611D01*
X168106598Y-64457701D01*
X168160127Y-64622445D01*
X168238768Y-64776788D01*
X168340586Y-64916928D01*
X168463072Y-65039414D01*
X168603212Y-65141232D01*
X168757555Y-65219873D01*
X168922299Y-65273402D01*
X169093389Y-65300500D01*
X169093390Y-65300500D01*
X169266610Y-65300500D01*
X169266611Y-65300500D01*
X169437701Y-65273402D01*
X169602445Y-65219873D01*
X169756788Y-65141232D01*
X169896928Y-65039414D01*
X170019414Y-64916928D01*
X170121232Y-64776788D01*
X170199873Y-64622445D01*
X170253402Y-64457701D01*
X170280500Y-64286611D01*
X170280500Y-64113389D01*
X170253402Y-63942299D01*
X170199873Y-63777555D01*
X170121232Y-63623212D01*
X170019414Y-63483072D01*
X169896928Y-63360586D01*
X169756788Y-63258768D01*
X169602445Y-63180127D01*
X169437701Y-63126598D01*
X169437699Y-63126597D01*
X169437698Y-63126597D01*
X169306271Y-63105781D01*
X169266611Y-63099500D01*
X169093389Y-63099500D01*
X169053728Y-63105781D01*
X168922302Y-63126597D01*
X168757552Y-63180128D01*
X168603211Y-63258768D01*
X168523256Y-63316859D01*
X168463072Y-63360586D01*
X168463070Y-63360588D01*
X168463069Y-63360588D01*
X168340588Y-63483069D01*
X168340588Y-63483070D01*
X168340586Y-63483072D01*
X168296859Y-63543256D01*
X168238768Y-63623211D01*
X168160128Y-63777552D01*
X168106597Y-63942302D01*
X168096349Y-64007007D01*
X168079500Y-64113389D01*
X167740500Y-64113389D01*
X167713402Y-63942299D01*
X167659873Y-63777555D01*
X167581232Y-63623212D01*
X167479414Y-63483072D01*
X167356928Y-63360586D01*
X167216788Y-63258768D01*
X167062445Y-63180127D01*
X166897701Y-63126598D01*
X166897699Y-63126597D01*
X166897698Y-63126597D01*
X166766271Y-63105781D01*
X166726611Y-63099500D01*
X166553389Y-63099500D01*
X166513728Y-63105781D01*
X166382302Y-63126597D01*
X166217552Y-63180128D01*
X166063211Y-63258768D01*
X165983256Y-63316859D01*
X165923072Y-63360586D01*
X165923070Y-63360588D01*
X165923069Y-63360588D01*
X165800588Y-63483069D01*
X165800588Y-63483070D01*
X165800586Y-63483072D01*
X165756859Y-63543256D01*
X165698768Y-63623211D01*
X165620128Y-63777552D01*
X165566597Y-63942302D01*
X165556349Y-64007007D01*
X165539500Y-64113389D01*
X165200500Y-64113389D01*
X165173402Y-63942299D01*
X165119873Y-63777555D01*
X165041232Y-63623212D01*
X164939414Y-63483072D01*
X164816928Y-63360586D01*
X164676788Y-63258768D01*
X164522445Y-63180127D01*
X164357701Y-63126598D01*
X164357699Y-63126597D01*
X164357698Y-63126597D01*
X164226271Y-63105781D01*
X164186611Y-63099500D01*
X164013389Y-63099500D01*
X163973728Y-63105781D01*
X163842302Y-63126597D01*
X163677552Y-63180128D01*
X163523211Y-63258768D01*
X163443256Y-63316859D01*
X163383072Y-63360586D01*
X163383070Y-63360588D01*
X163383069Y-63360588D01*
X163260588Y-63483069D01*
X163260588Y-63483070D01*
X163260586Y-63483072D01*
X163216859Y-63543256D01*
X163158768Y-63623211D01*
X163080128Y-63777552D01*
X163026597Y-63942302D01*
X163016349Y-64007007D01*
X162999500Y-64113389D01*
X162660500Y-64113389D01*
X162633402Y-63942299D01*
X162579873Y-63777555D01*
X162501232Y-63623212D01*
X162399414Y-63483072D01*
X162276928Y-63360586D01*
X162136788Y-63258768D01*
X161982445Y-63180127D01*
X161817701Y-63126598D01*
X161817699Y-63126597D01*
X161817698Y-63126597D01*
X161686271Y-63105781D01*
X161646611Y-63099500D01*
X161473389Y-63099500D01*
X161433728Y-63105781D01*
X161302302Y-63126597D01*
X161137552Y-63180128D01*
X160983211Y-63258768D01*
X160903256Y-63316859D01*
X160843072Y-63360586D01*
X160843070Y-63360588D01*
X160843069Y-63360588D01*
X160720588Y-63483069D01*
X160720588Y-63483070D01*
X160720586Y-63483072D01*
X160676859Y-63543256D01*
X160618768Y-63623211D01*
X160540128Y-63777552D01*
X160486597Y-63942302D01*
X160476349Y-64007007D01*
X160459500Y-64113389D01*
X160120500Y-64113389D01*
X160093402Y-63942299D01*
X160039873Y-63777555D01*
X159961232Y-63623212D01*
X159859414Y-63483072D01*
X159736928Y-63360586D01*
X159596788Y-63258768D01*
X159442445Y-63180127D01*
X159277701Y-63126598D01*
X159277699Y-63126597D01*
X159277698Y-63126597D01*
X159146271Y-63105781D01*
X159106611Y-63099500D01*
X158933389Y-63099500D01*
X158893728Y-63105781D01*
X158762302Y-63126597D01*
X158597552Y-63180128D01*
X158443211Y-63258768D01*
X158363256Y-63316859D01*
X158303072Y-63360586D01*
X158303070Y-63360588D01*
X158303069Y-63360588D01*
X158180588Y-63483069D01*
X158180588Y-63483070D01*
X158180586Y-63483072D01*
X158136859Y-63543256D01*
X158078768Y-63623211D01*
X158000128Y-63777552D01*
X157946597Y-63942302D01*
X157936349Y-64007007D01*
X157919500Y-64113389D01*
X157580500Y-64113389D01*
X157553402Y-63942299D01*
X157499873Y-63777555D01*
X157421232Y-63623212D01*
X157319414Y-63483072D01*
X157196928Y-63360586D01*
X157056788Y-63258768D01*
X156902445Y-63180127D01*
X156737701Y-63126598D01*
X156737699Y-63126597D01*
X156737698Y-63126597D01*
X156606271Y-63105781D01*
X156566611Y-63099500D01*
X156393389Y-63099500D01*
X156353728Y-63105781D01*
X156222302Y-63126597D01*
X156057552Y-63180128D01*
X155903211Y-63258768D01*
X155823256Y-63316859D01*
X155763072Y-63360586D01*
X155763070Y-63360588D01*
X155763069Y-63360588D01*
X155640588Y-63483069D01*
X155640588Y-63483070D01*
X155640586Y-63483072D01*
X155596859Y-63543256D01*
X155538768Y-63623211D01*
X155460128Y-63777552D01*
X155406597Y-63942302D01*
X155396349Y-64007007D01*
X155379500Y-64113389D01*
X155040500Y-64113389D01*
X155013402Y-63942299D01*
X154959873Y-63777555D01*
X154881232Y-63623212D01*
X154779414Y-63483072D01*
X154656928Y-63360586D01*
X154516788Y-63258768D01*
X154362445Y-63180127D01*
X154197701Y-63126598D01*
X154197699Y-63126597D01*
X154197698Y-63126597D01*
X154066271Y-63105781D01*
X154026611Y-63099500D01*
X153853389Y-63099500D01*
X153813728Y-63105781D01*
X153682302Y-63126597D01*
X153517552Y-63180128D01*
X153363211Y-63258768D01*
X153283256Y-63316859D01*
X153223072Y-63360586D01*
X153223070Y-63360588D01*
X153223069Y-63360588D01*
X153100588Y-63483069D01*
X153100588Y-63483070D01*
X153100586Y-63483072D01*
X153056859Y-63543256D01*
X152998768Y-63623211D01*
X152920128Y-63777550D01*
X152919487Y-63779522D01*
X152919102Y-63780712D01*
X152919099Y-63780720D01*
X152918381Y-63781769D01*
X152918266Y-63782048D01*
X152918207Y-63782023D01*
X152879657Y-63838393D01*
X152815297Y-63865587D01*
X152746451Y-63853668D01*
X152694979Y-63806420D01*
X152683239Y-63780711D01*
X152651096Y-63681784D01*
X152554624Y-63492449D01*
X152515270Y-63438282D01*
X152515269Y-63438282D01*
X151882962Y-64070590D01*
X151865925Y-64007007D01*
X151800099Y-63892993D01*
X151707007Y-63799901D01*
X151592993Y-63734075D01*
X151529409Y-63717037D01*
X152161716Y-63084728D01*
X152107550Y-63045375D01*
X151918217Y-62948904D01*
X151716129Y-62883242D01*
X151506246Y-62850000D01*
X151293754Y-62850000D01*
X151083872Y-62883242D01*
X151083869Y-62883242D01*
X150881782Y-62948904D01*
X150692439Y-63045380D01*
X150638282Y-63084727D01*
X150638282Y-63084728D01*
X151270591Y-63717037D01*
X151207007Y-63734075D01*
X151092993Y-63799901D01*
X150999901Y-63892993D01*
X150934075Y-64007007D01*
X150917037Y-64070591D01*
X150284728Y-63438282D01*
X150284727Y-63438282D01*
X150245380Y-63492439D01*
X150148904Y-63681783D01*
X150116760Y-63780712D01*
X150077322Y-63838388D01*
X150012964Y-63865586D01*
X149944117Y-63853671D01*
X149892642Y-63806427D01*
X149880898Y-63780711D01*
X149879873Y-63777555D01*
X149801232Y-63623212D01*
X149699414Y-63483072D01*
X149576928Y-63360586D01*
X149436788Y-63258768D01*
X149282445Y-63180127D01*
X149117701Y-63126598D01*
X149117699Y-63126597D01*
X149117698Y-63126597D01*
X148986271Y-63105781D01*
X148946611Y-63099500D01*
X148773389Y-63099500D01*
X148733728Y-63105781D01*
X148602302Y-63126597D01*
X148437552Y-63180128D01*
X148283211Y-63258768D01*
X148203256Y-63316859D01*
X148143072Y-63360586D01*
X148143070Y-63360588D01*
X148143069Y-63360588D01*
X148020588Y-63483069D01*
X148020588Y-63483070D01*
X148020586Y-63483072D01*
X147976859Y-63543256D01*
X147918768Y-63623211D01*
X147840128Y-63777552D01*
X147786597Y-63942302D01*
X147776349Y-64007007D01*
X147759500Y-64113389D01*
X147420500Y-64113389D01*
X147393402Y-63942299D01*
X147339873Y-63777555D01*
X147261232Y-63623212D01*
X147159414Y-63483072D01*
X147036928Y-63360586D01*
X146896788Y-63258768D01*
X146742445Y-63180127D01*
X146577701Y-63126598D01*
X146577699Y-63126597D01*
X146577698Y-63126597D01*
X146446271Y-63105781D01*
X146406611Y-63099500D01*
X146233389Y-63099500D01*
X146193728Y-63105781D01*
X146062302Y-63126597D01*
X145897552Y-63180128D01*
X145743211Y-63258768D01*
X145663256Y-63316859D01*
X145603072Y-63360586D01*
X145603070Y-63360588D01*
X145603069Y-63360588D01*
X145480588Y-63483069D01*
X145480588Y-63483070D01*
X145480586Y-63483072D01*
X145436859Y-63543256D01*
X145378768Y-63623211D01*
X145300128Y-63777552D01*
X145246597Y-63942302D01*
X145236349Y-64007007D01*
X145219500Y-64113389D01*
X144880500Y-64113389D01*
X144853402Y-63942299D01*
X144799873Y-63777555D01*
X144721232Y-63623212D01*
X144619414Y-63483072D01*
X144496928Y-63360586D01*
X144356788Y-63258768D01*
X144202445Y-63180127D01*
X144037701Y-63126598D01*
X144037699Y-63126597D01*
X144037698Y-63126597D01*
X143906271Y-63105781D01*
X143866611Y-63099500D01*
X143693389Y-63099500D01*
X143653728Y-63105781D01*
X143522302Y-63126597D01*
X143357552Y-63180128D01*
X143203211Y-63258768D01*
X143123256Y-63316859D01*
X143063072Y-63360586D01*
X143063070Y-63360588D01*
X143063069Y-63360588D01*
X142940588Y-63483069D01*
X142940588Y-63483070D01*
X142940586Y-63483072D01*
X142896859Y-63543256D01*
X142838768Y-63623211D01*
X142760128Y-63777552D01*
X142706597Y-63942302D01*
X142696349Y-64007007D01*
X142679500Y-64113389D01*
X142340500Y-64113389D01*
X142313402Y-63942299D01*
X142259873Y-63777555D01*
X142181232Y-63623212D01*
X142079414Y-63483072D01*
X141956928Y-63360586D01*
X141816788Y-63258768D01*
X141662445Y-63180127D01*
X141497701Y-63126598D01*
X141497699Y-63126597D01*
X141497698Y-63126597D01*
X141366271Y-63105781D01*
X141326611Y-63099500D01*
X141153389Y-63099500D01*
X141113728Y-63105781D01*
X140982302Y-63126597D01*
X140817552Y-63180128D01*
X140663211Y-63258768D01*
X140583256Y-63316859D01*
X140523072Y-63360586D01*
X140523070Y-63360588D01*
X140523069Y-63360588D01*
X140400588Y-63483069D01*
X140400588Y-63483070D01*
X140400586Y-63483072D01*
X140356859Y-63543256D01*
X140298768Y-63623211D01*
X140220128Y-63777552D01*
X140166597Y-63942302D01*
X140156349Y-64007007D01*
X140139500Y-64113389D01*
X139800500Y-64113389D01*
X139773402Y-63942299D01*
X139719873Y-63777555D01*
X139641232Y-63623212D01*
X139539414Y-63483072D01*
X139416928Y-63360586D01*
X139276788Y-63258768D01*
X139122445Y-63180127D01*
X138957701Y-63126598D01*
X138957699Y-63126597D01*
X138957698Y-63126597D01*
X138826271Y-63105781D01*
X138786611Y-63099500D01*
X138613389Y-63099500D01*
X138573728Y-63105781D01*
X138442302Y-63126597D01*
X138277552Y-63180128D01*
X138123211Y-63258768D01*
X138043256Y-63316859D01*
X137983072Y-63360586D01*
X137983070Y-63360588D01*
X137983069Y-63360588D01*
X137860588Y-63483069D01*
X137860588Y-63483070D01*
X137860586Y-63483072D01*
X137816859Y-63543256D01*
X137758768Y-63623211D01*
X137680128Y-63777552D01*
X137626597Y-63942302D01*
X137616349Y-64007007D01*
X137599500Y-64113389D01*
X137260500Y-64113389D01*
X137233402Y-63942299D01*
X137179873Y-63777555D01*
X137101232Y-63623212D01*
X136999414Y-63483072D01*
X136876928Y-63360586D01*
X136736788Y-63258768D01*
X136582445Y-63180127D01*
X136417701Y-63126598D01*
X136417699Y-63126597D01*
X136417698Y-63126597D01*
X136286271Y-63105781D01*
X136246611Y-63099500D01*
X136073389Y-63099500D01*
X136033728Y-63105781D01*
X135902302Y-63126597D01*
X135737552Y-63180128D01*
X135583211Y-63258768D01*
X135503256Y-63316859D01*
X135443072Y-63360586D01*
X135443070Y-63360588D01*
X135443069Y-63360588D01*
X135320588Y-63483069D01*
X135320588Y-63483070D01*
X135320586Y-63483072D01*
X135276859Y-63543256D01*
X135218768Y-63623211D01*
X135140128Y-63777552D01*
X135086597Y-63942302D01*
X135076349Y-64007007D01*
X135059500Y-64113389D01*
X134720500Y-64113389D01*
X134720500Y-63325326D01*
X134720500Y-63325323D01*
X134720499Y-63325321D01*
X134705967Y-63252264D01*
X134705966Y-63252260D01*
X134699426Y-63242472D01*
X134650601Y-63169399D01*
X134567740Y-63114034D01*
X134567739Y-63114033D01*
X134567735Y-63114032D01*
X134494677Y-63099500D01*
X134494674Y-63099500D01*
X132745326Y-63099500D01*
X132745323Y-63099500D01*
X132672264Y-63114032D01*
X132672260Y-63114033D01*
X132589399Y-63169399D01*
X132534033Y-63252260D01*
X132534032Y-63252264D01*
X132519500Y-63325321D01*
X131500500Y-63325321D01*
X131500500Y-59527525D01*
X134249500Y-59527525D01*
X134249500Y-59672475D01*
X134287016Y-59812485D01*
X134287017Y-59812488D01*
X134359488Y-59938011D01*
X134359490Y-59938013D01*
X134359491Y-59938015D01*
X134461985Y-60040509D01*
X134461986Y-60040510D01*
X134461988Y-60040511D01*
X134587511Y-60112982D01*
X134587512Y-60112982D01*
X134587515Y-60112984D01*
X134727525Y-60150500D01*
X134727528Y-60150500D01*
X134872472Y-60150500D01*
X134872475Y-60150500D01*
X135012485Y-60112984D01*
X135138015Y-60040509D01*
X135240509Y-59938015D01*
X135246565Y-59927525D01*
X136449500Y-59927525D01*
X136449500Y-60072475D01*
X136470407Y-60150500D01*
X136487017Y-60212488D01*
X136559488Y-60338011D01*
X136559490Y-60338013D01*
X136559491Y-60338015D01*
X136661985Y-60440509D01*
X136661986Y-60440510D01*
X136661988Y-60440511D01*
X136787511Y-60512982D01*
X136787512Y-60512982D01*
X136787515Y-60512984D01*
X136927525Y-60550500D01*
X136927528Y-60550500D01*
X137072472Y-60550500D01*
X137072475Y-60550500D01*
X137212485Y-60512984D01*
X137338015Y-60440509D01*
X137440509Y-60338015D01*
X137512984Y-60212485D01*
X137550500Y-60072475D01*
X137550500Y-59927525D01*
X139249500Y-59927525D01*
X139249500Y-60072475D01*
X139270407Y-60150500D01*
X139287017Y-60212488D01*
X139359488Y-60338011D01*
X139359490Y-60338013D01*
X139359491Y-60338015D01*
X139461985Y-60440509D01*
X139461986Y-60440510D01*
X139461988Y-60440511D01*
X139587511Y-60512982D01*
X139587512Y-60512982D01*
X139587515Y-60512984D01*
X139727525Y-60550500D01*
X139727528Y-60550500D01*
X139872472Y-60550500D01*
X139872475Y-60550500D01*
X140012485Y-60512984D01*
X140138015Y-60440509D01*
X140240509Y-60338015D01*
X140312984Y-60212485D01*
X140350500Y-60072475D01*
X140350500Y-59927525D01*
X140312984Y-59787515D01*
X140312982Y-59787511D01*
X140309454Y-59781400D01*
X140309453Y-59781399D01*
X140304051Y-59772044D01*
X140278348Y-59727525D01*
X142049500Y-59727525D01*
X142049500Y-59872475D01*
X142087016Y-60012485D01*
X142087017Y-60012488D01*
X142159488Y-60138011D01*
X142159490Y-60138013D01*
X142159491Y-60138015D01*
X142261985Y-60240509D01*
X142261986Y-60240510D01*
X142261988Y-60240511D01*
X142387511Y-60312982D01*
X142387512Y-60312982D01*
X142387515Y-60312984D01*
X142527525Y-60350500D01*
X142527528Y-60350500D01*
X142672472Y-60350500D01*
X142672475Y-60350500D01*
X142812485Y-60312984D01*
X142938015Y-60240509D01*
X143040509Y-60138015D01*
X143112984Y-60012485D01*
X143150500Y-59872475D01*
X143150500Y-59727525D01*
X143112984Y-59587515D01*
X143096805Y-59559493D01*
X143040511Y-59461988D01*
X143040506Y-59461982D01*
X142938017Y-59359493D01*
X142938011Y-59359488D01*
X142812488Y-59287017D01*
X142812489Y-59287017D01*
X142801006Y-59283940D01*
X142672475Y-59249500D01*
X142527525Y-59249500D01*
X142398993Y-59283940D01*
X142387511Y-59287017D01*
X142261988Y-59359488D01*
X142261982Y-59359493D01*
X142159493Y-59461982D01*
X142159488Y-59461988D01*
X142087017Y-59587511D01*
X142087016Y-59587515D01*
X142049500Y-59727525D01*
X140278348Y-59727525D01*
X140240509Y-59661985D01*
X140138015Y-59559491D01*
X140138013Y-59559490D01*
X140138011Y-59559488D01*
X140012488Y-59487017D01*
X140012489Y-59487017D01*
X140001006Y-59483940D01*
X139872475Y-59449500D01*
X139727525Y-59449500D01*
X139598993Y-59483940D01*
X139587511Y-59487017D01*
X139461988Y-59559488D01*
X139461982Y-59559493D01*
X139359493Y-59661982D01*
X139359488Y-59661988D01*
X139287017Y-59787511D01*
X139287016Y-59787515D01*
X139249500Y-59927525D01*
X137550500Y-59927525D01*
X137512984Y-59787515D01*
X137509453Y-59781400D01*
X137440511Y-59661988D01*
X137440506Y-59661982D01*
X137338017Y-59559493D01*
X137338011Y-59559488D01*
X137212488Y-59487017D01*
X137212489Y-59487017D01*
X137201006Y-59483940D01*
X137072475Y-59449500D01*
X136927525Y-59449500D01*
X136798993Y-59483940D01*
X136787511Y-59487017D01*
X136661988Y-59559488D01*
X136661982Y-59559493D01*
X136559493Y-59661982D01*
X136559488Y-59661988D01*
X136487017Y-59787511D01*
X136487016Y-59787515D01*
X136449500Y-59927525D01*
X135246565Y-59927525D01*
X135312984Y-59812485D01*
X135350500Y-59672475D01*
X135350500Y-59527525D01*
X135312984Y-59387515D01*
X135296805Y-59359493D01*
X135240511Y-59261988D01*
X135240506Y-59261982D01*
X135138017Y-59159493D01*
X135138011Y-59159488D01*
X135012488Y-59087017D01*
X135012489Y-59087017D01*
X135001006Y-59083940D01*
X134872475Y-59049500D01*
X134727525Y-59049500D01*
X134598993Y-59083940D01*
X134587511Y-59087017D01*
X134461988Y-59159488D01*
X134461982Y-59159493D01*
X134359493Y-59261982D01*
X134359488Y-59261988D01*
X134287017Y-59387511D01*
X134287016Y-59387515D01*
X134249500Y-59527525D01*
X131500500Y-59527525D01*
X131500500Y-57243389D01*
X137149500Y-57243389D01*
X137149500Y-57416611D01*
X137176598Y-57587701D01*
X137230127Y-57752445D01*
X137308768Y-57906788D01*
X137410586Y-58046928D01*
X137533072Y-58169414D01*
X137673212Y-58271232D01*
X137827555Y-58349873D01*
X137992299Y-58403402D01*
X138163389Y-58430500D01*
X138163390Y-58430500D01*
X138336610Y-58430500D01*
X138336611Y-58430500D01*
X138507701Y-58403402D01*
X138672445Y-58349873D01*
X138826788Y-58271232D01*
X138966928Y-58169414D01*
X139089414Y-58046928D01*
X139191232Y-57906788D01*
X139269873Y-57752445D01*
X139323402Y-57587701D01*
X139350500Y-57416611D01*
X139350500Y-57243389D01*
X139323402Y-57072299D01*
X139269873Y-56907555D01*
X139191232Y-56753212D01*
X139099915Y-56627525D01*
X141199500Y-56627525D01*
X141199500Y-56772475D01*
X141235694Y-56907552D01*
X141237017Y-56912488D01*
X141309488Y-57038011D01*
X141309490Y-57038013D01*
X141309491Y-57038015D01*
X141411985Y-57140509D01*
X141411986Y-57140510D01*
X141411988Y-57140511D01*
X141537511Y-57212982D01*
X141537512Y-57212982D01*
X141537515Y-57212984D01*
X141677525Y-57250500D01*
X141677528Y-57250500D01*
X141822472Y-57250500D01*
X141822475Y-57250500D01*
X141962485Y-57212984D01*
X142088015Y-57140509D01*
X142190509Y-57038015D01*
X142262984Y-56912485D01*
X142300500Y-56772475D01*
X142300500Y-56627525D01*
X142262984Y-56487515D01*
X142190509Y-56361985D01*
X142088015Y-56259491D01*
X142088013Y-56259490D01*
X142088011Y-56259488D01*
X141962488Y-56187017D01*
X141962489Y-56187017D01*
X141951006Y-56183940D01*
X141822475Y-56149500D01*
X141677525Y-56149500D01*
X141548993Y-56183940D01*
X141537511Y-56187017D01*
X141411988Y-56259488D01*
X141411982Y-56259493D01*
X141309493Y-56361982D01*
X141309488Y-56361988D01*
X141237017Y-56487511D01*
X141237016Y-56487515D01*
X141199500Y-56627525D01*
X139099915Y-56627525D01*
X139089414Y-56613072D01*
X138966928Y-56490586D01*
X138826788Y-56388768D01*
X138672445Y-56310127D01*
X138507701Y-56256598D01*
X138507699Y-56256597D01*
X138507698Y-56256597D01*
X138376271Y-56235781D01*
X138336611Y-56229500D01*
X138163389Y-56229500D01*
X138123728Y-56235781D01*
X137992302Y-56256597D01*
X137827552Y-56310128D01*
X137673211Y-56388768D01*
X137593256Y-56446859D01*
X137533072Y-56490586D01*
X137533070Y-56490588D01*
X137533069Y-56490588D01*
X137410588Y-56613069D01*
X137410588Y-56613070D01*
X137410586Y-56613072D01*
X137400084Y-56627527D01*
X137308768Y-56753211D01*
X137230128Y-56907552D01*
X137176597Y-57072302D01*
X137165794Y-57140511D01*
X137149500Y-57243389D01*
X131500500Y-57243389D01*
X131500500Y-54703389D01*
X137149500Y-54703389D01*
X137149500Y-54876611D01*
X137176598Y-55047701D01*
X137230127Y-55212445D01*
X137308768Y-55366788D01*
X137410586Y-55506928D01*
X137533072Y-55629414D01*
X137673212Y-55731232D01*
X137827555Y-55809873D01*
X137992299Y-55863402D01*
X138163389Y-55890500D01*
X138163390Y-55890500D01*
X138336610Y-55890500D01*
X138336611Y-55890500D01*
X138507701Y-55863402D01*
X138672445Y-55809873D01*
X138826788Y-55731232D01*
X138966928Y-55629414D01*
X139089414Y-55506928D01*
X139191232Y-55366788D01*
X139269873Y-55212445D01*
X139323402Y-55047701D01*
X139350500Y-54876611D01*
X139350500Y-54727525D01*
X163849500Y-54727525D01*
X163849500Y-54872475D01*
X163887016Y-55012485D01*
X163887017Y-55012488D01*
X163959488Y-55138011D01*
X163959490Y-55138013D01*
X163959491Y-55138015D01*
X164061985Y-55240509D01*
X164061986Y-55240510D01*
X164061988Y-55240511D01*
X164187511Y-55312982D01*
X164187512Y-55312982D01*
X164187515Y-55312984D01*
X164327525Y-55350500D01*
X164327528Y-55350500D01*
X164472472Y-55350500D01*
X164472475Y-55350500D01*
X164612485Y-55312984D01*
X164738015Y-55240509D01*
X164840509Y-55138015D01*
X164912984Y-55012485D01*
X164950500Y-54872475D01*
X164950500Y-54727525D01*
X164912984Y-54587515D01*
X164840509Y-54461985D01*
X164738015Y-54359491D01*
X164738013Y-54359490D01*
X164738011Y-54359488D01*
X164612488Y-54287017D01*
X164612489Y-54287017D01*
X164601006Y-54283940D01*
X164472475Y-54249500D01*
X164327525Y-54249500D01*
X164198993Y-54283940D01*
X164187511Y-54287017D01*
X164061988Y-54359488D01*
X164061982Y-54359493D01*
X163959493Y-54461982D01*
X163959488Y-54461988D01*
X163887017Y-54587511D01*
X163887016Y-54587515D01*
X163849500Y-54727525D01*
X139350500Y-54727525D01*
X139350500Y-54703389D01*
X139323402Y-54532299D01*
X139269873Y-54367555D01*
X139191232Y-54213212D01*
X139089414Y-54073072D01*
X138966928Y-53950586D01*
X138826788Y-53848768D01*
X138672445Y-53770127D01*
X138507701Y-53716598D01*
X138507699Y-53716597D01*
X138507698Y-53716597D01*
X138376271Y-53695781D01*
X138336611Y-53689500D01*
X138163389Y-53689500D01*
X138123728Y-53695781D01*
X137992302Y-53716597D01*
X137827552Y-53770128D01*
X137673211Y-53848768D01*
X137593256Y-53906859D01*
X137533072Y-53950586D01*
X137533070Y-53950588D01*
X137533069Y-53950588D01*
X137410588Y-54073069D01*
X137410588Y-54073070D01*
X137410586Y-54073072D01*
X137366859Y-54133256D01*
X137308768Y-54213211D01*
X137230128Y-54367552D01*
X137176597Y-54532302D01*
X137149500Y-54703389D01*
X131500500Y-54703389D01*
X131500500Y-51375321D01*
X137149500Y-51375321D01*
X137149500Y-53124678D01*
X137164032Y-53197735D01*
X137164033Y-53197739D01*
X137164034Y-53197740D01*
X137219399Y-53280601D01*
X137282144Y-53322525D01*
X137302260Y-53335966D01*
X137302264Y-53335967D01*
X137375321Y-53350499D01*
X137375324Y-53350500D01*
X137375326Y-53350500D01*
X139124676Y-53350500D01*
X139124677Y-53350499D01*
X139197740Y-53335966D01*
X139217856Y-53322525D01*
X142849500Y-53322525D01*
X142849500Y-53467475D01*
X142877106Y-53570500D01*
X142887017Y-53607488D01*
X142959488Y-53733011D01*
X142959490Y-53733013D01*
X142959491Y-53733015D01*
X143061985Y-53835509D01*
X143061986Y-53835510D01*
X143061988Y-53835511D01*
X143187511Y-53907982D01*
X143187512Y-53907982D01*
X143187515Y-53907984D01*
X143327525Y-53945500D01*
X143327528Y-53945500D01*
X143472472Y-53945500D01*
X143472475Y-53945500D01*
X143612485Y-53907984D01*
X143738015Y-53835509D01*
X143840509Y-53733015D01*
X143912984Y-53607485D01*
X143950500Y-53467475D01*
X143950500Y-53322525D01*
X143912984Y-53182515D01*
X143879589Y-53124674D01*
X143840511Y-53056988D01*
X143840506Y-53056982D01*
X143738017Y-52954493D01*
X143738011Y-52954488D01*
X143725951Y-52947525D01*
X149069500Y-52947525D01*
X149069500Y-53092475D01*
X149097705Y-53197735D01*
X149107017Y-53232488D01*
X149179488Y-53358011D01*
X149179490Y-53358013D01*
X149179491Y-53358015D01*
X149281985Y-53460509D01*
X149281986Y-53460510D01*
X149281988Y-53460511D01*
X149407511Y-53532982D01*
X149407512Y-53532982D01*
X149407515Y-53532984D01*
X149547525Y-53570500D01*
X149547528Y-53570500D01*
X149692472Y-53570500D01*
X149692475Y-53570500D01*
X149832485Y-53532984D01*
X149958015Y-53460509D01*
X150060509Y-53358015D01*
X150132984Y-53232485D01*
X150170500Y-53092475D01*
X150170500Y-52947525D01*
X150132984Y-52807515D01*
X150111613Y-52770500D01*
X150060511Y-52681988D01*
X150060506Y-52681982D01*
X149958017Y-52579493D01*
X149958011Y-52579488D01*
X149832488Y-52507017D01*
X149832489Y-52507017D01*
X149821006Y-52503940D01*
X149692475Y-52469500D01*
X149547525Y-52469500D01*
X149418993Y-52503940D01*
X149407511Y-52507017D01*
X149281988Y-52579488D01*
X149281982Y-52579493D01*
X149179493Y-52681982D01*
X149179488Y-52681988D01*
X149107017Y-52807511D01*
X149107016Y-52807515D01*
X149069500Y-52947525D01*
X143725951Y-52947525D01*
X143612488Y-52882017D01*
X143612489Y-52882017D01*
X143601006Y-52878940D01*
X143472475Y-52844500D01*
X143327525Y-52844500D01*
X143198993Y-52878940D01*
X143187511Y-52882017D01*
X143061988Y-52954488D01*
X143061982Y-52954493D01*
X142959493Y-53056982D01*
X142959488Y-53056988D01*
X142887017Y-53182511D01*
X142887016Y-53182515D01*
X142849500Y-53322525D01*
X139217856Y-53322525D01*
X139280601Y-53280601D01*
X139335966Y-53197740D01*
X139350500Y-53124674D01*
X139350500Y-51972525D01*
X145669500Y-51972525D01*
X145669500Y-52117475D01*
X145707016Y-52257485D01*
X145707017Y-52257488D01*
X145779488Y-52383011D01*
X145779490Y-52383013D01*
X145779491Y-52383015D01*
X145881985Y-52485509D01*
X145881986Y-52485510D01*
X145881988Y-52485511D01*
X146007511Y-52557982D01*
X146007512Y-52557982D01*
X146007515Y-52557984D01*
X146147525Y-52595500D01*
X146147528Y-52595500D01*
X146292472Y-52595500D01*
X146292475Y-52595500D01*
X146432485Y-52557984D01*
X146558015Y-52485509D01*
X146660509Y-52383015D01*
X146732984Y-52257485D01*
X146762448Y-52147525D01*
X153269500Y-52147525D01*
X153269500Y-52292475D01*
X153293761Y-52383017D01*
X153307017Y-52432488D01*
X153379488Y-52558011D01*
X153379490Y-52558013D01*
X153379491Y-52558015D01*
X153481985Y-52660509D01*
X153481986Y-52660510D01*
X153481988Y-52660511D01*
X153607511Y-52732982D01*
X153607512Y-52732982D01*
X153607515Y-52732984D01*
X153747525Y-52770500D01*
X153747528Y-52770500D01*
X153892472Y-52770500D01*
X153892475Y-52770500D01*
X154032485Y-52732984D01*
X154158015Y-52660509D01*
X154260509Y-52558015D01*
X154332984Y-52432485D01*
X154355749Y-52347525D01*
X158044500Y-52347525D01*
X158044500Y-52492475D01*
X158067817Y-52579493D01*
X158082017Y-52632488D01*
X158154488Y-52758011D01*
X158154490Y-52758013D01*
X158154491Y-52758015D01*
X158256985Y-52860509D01*
X158256986Y-52860510D01*
X158256988Y-52860511D01*
X158382511Y-52932982D01*
X158382512Y-52932982D01*
X158382515Y-52932984D01*
X158522525Y-52970500D01*
X158522528Y-52970500D01*
X158667472Y-52970500D01*
X158667475Y-52970500D01*
X158807485Y-52932984D01*
X158933015Y-52860509D01*
X159035509Y-52758015D01*
X159107984Y-52632485D01*
X159145500Y-52492475D01*
X159145500Y-52347525D01*
X159107984Y-52207515D01*
X159055999Y-52117475D01*
X159035511Y-52081988D01*
X159035506Y-52081982D01*
X158933017Y-51979493D01*
X158933011Y-51979488D01*
X158807488Y-51907017D01*
X158807489Y-51907017D01*
X158796006Y-51903940D01*
X158667475Y-51869500D01*
X158522525Y-51869500D01*
X158393993Y-51903940D01*
X158382511Y-51907017D01*
X158256988Y-51979488D01*
X158256982Y-51979493D01*
X158154493Y-52081982D01*
X158154488Y-52081988D01*
X158082017Y-52207511D01*
X158082016Y-52207515D01*
X158044500Y-52347525D01*
X154355749Y-52347525D01*
X154370500Y-52292475D01*
X154370500Y-52147525D01*
X154332984Y-52007515D01*
X154316805Y-51979493D01*
X154260511Y-51881988D01*
X154260506Y-51881982D01*
X154158017Y-51779493D01*
X154158011Y-51779488D01*
X154032488Y-51707017D01*
X154032489Y-51707017D01*
X154021006Y-51703940D01*
X153892475Y-51669500D01*
X153747525Y-51669500D01*
X153618993Y-51703940D01*
X153607511Y-51707017D01*
X153481988Y-51779488D01*
X153481982Y-51779493D01*
X153379493Y-51881982D01*
X153379488Y-51881988D01*
X153307017Y-52007511D01*
X153307016Y-52007515D01*
X153269500Y-52147525D01*
X146762448Y-52147525D01*
X146770500Y-52117475D01*
X146770500Y-51972525D01*
X146732984Y-51832515D01*
X146702370Y-51779491D01*
X146660511Y-51706988D01*
X146660506Y-51706982D01*
X146558017Y-51604493D01*
X146558011Y-51604488D01*
X146432488Y-51532017D01*
X146432489Y-51532017D01*
X146421006Y-51528940D01*
X146292475Y-51494500D01*
X146147525Y-51494500D01*
X146018993Y-51528940D01*
X146007511Y-51532017D01*
X145881988Y-51604488D01*
X145881982Y-51604493D01*
X145779493Y-51706982D01*
X145779488Y-51706988D01*
X145707017Y-51832511D01*
X145707016Y-51832515D01*
X145669500Y-51972525D01*
X139350500Y-51972525D01*
X139350500Y-51375326D01*
X139350500Y-51375323D01*
X139350499Y-51375321D01*
X139335967Y-51302264D01*
X139335966Y-51302260D01*
X139324775Y-51285511D01*
X139280601Y-51219399D01*
X139197740Y-51164034D01*
X139197739Y-51164033D01*
X139197735Y-51164032D01*
X139124677Y-51149500D01*
X139124674Y-51149500D01*
X137375326Y-51149500D01*
X137375323Y-51149500D01*
X137302264Y-51164032D01*
X137302260Y-51164033D01*
X137219399Y-51219399D01*
X137164033Y-51302260D01*
X137164032Y-51302264D01*
X137149500Y-51375321D01*
X131500500Y-51375321D01*
X131500500Y-51147525D01*
X149269500Y-51147525D01*
X149269500Y-51292475D01*
X149297106Y-51395500D01*
X149307017Y-51432488D01*
X149379488Y-51558011D01*
X149379490Y-51558013D01*
X149379491Y-51558015D01*
X149481985Y-51660509D01*
X149481986Y-51660510D01*
X149481988Y-51660511D01*
X149607511Y-51732982D01*
X149607512Y-51732982D01*
X149607515Y-51732984D01*
X149747525Y-51770500D01*
X149747528Y-51770500D01*
X149892472Y-51770500D01*
X149892475Y-51770500D01*
X150032485Y-51732984D01*
X150158015Y-51660509D01*
X150260509Y-51558015D01*
X150332984Y-51432485D01*
X150370500Y-51292475D01*
X150370500Y-51147525D01*
X150332984Y-51007515D01*
X150280999Y-50917475D01*
X150260511Y-50881988D01*
X150260506Y-50881982D01*
X150158017Y-50779493D01*
X150158011Y-50779488D01*
X150145951Y-50772525D01*
X158069500Y-50772525D01*
X158069500Y-50917475D01*
X158107016Y-51057485D01*
X158107017Y-51057488D01*
X158179488Y-51183011D01*
X158179490Y-51183013D01*
X158179491Y-51183015D01*
X158281985Y-51285509D01*
X158281986Y-51285510D01*
X158281988Y-51285511D01*
X158407511Y-51357982D01*
X158407512Y-51357982D01*
X158407515Y-51357984D01*
X158547525Y-51395500D01*
X158547528Y-51395500D01*
X158692472Y-51395500D01*
X158692475Y-51395500D01*
X158832485Y-51357984D01*
X158958015Y-51285509D01*
X159060509Y-51183015D01*
X159132984Y-51057485D01*
X159170500Y-50917475D01*
X159170500Y-50772525D01*
X159132984Y-50632515D01*
X159060509Y-50506985D01*
X158958015Y-50404491D01*
X158958013Y-50404490D01*
X158958011Y-50404488D01*
X158832488Y-50332017D01*
X158832489Y-50332017D01*
X158821006Y-50328940D01*
X158692475Y-50294500D01*
X158547525Y-50294500D01*
X158418993Y-50328940D01*
X158407511Y-50332017D01*
X158281988Y-50404488D01*
X158281982Y-50404493D01*
X158179493Y-50506982D01*
X158179488Y-50506988D01*
X158107017Y-50632511D01*
X158107016Y-50632515D01*
X158069500Y-50772525D01*
X150145951Y-50772525D01*
X150032488Y-50707017D01*
X150032489Y-50707017D01*
X150021006Y-50703940D01*
X149892475Y-50669500D01*
X149747525Y-50669500D01*
X149618993Y-50703940D01*
X149607511Y-50707017D01*
X149481988Y-50779488D01*
X149481982Y-50779493D01*
X149379493Y-50881982D01*
X149379488Y-50881988D01*
X149307017Y-51007511D01*
X149307016Y-51007515D01*
X149269500Y-51147525D01*
X131500500Y-51147525D01*
X131500500Y-49372525D01*
X145069500Y-49372525D01*
X145069500Y-49517475D01*
X145107016Y-49657485D01*
X145107017Y-49657488D01*
X145179488Y-49783011D01*
X145179490Y-49783013D01*
X145179491Y-49783015D01*
X145281985Y-49885509D01*
X145281986Y-49885510D01*
X145281988Y-49885511D01*
X145407511Y-49957982D01*
X145407512Y-49957982D01*
X145407515Y-49957984D01*
X145547525Y-49995500D01*
X145547528Y-49995500D01*
X145692472Y-49995500D01*
X145692475Y-49995500D01*
X145832485Y-49957984D01*
X145958015Y-49885509D01*
X146060509Y-49783015D01*
X146121414Y-49677525D01*
X191449500Y-49677525D01*
X191449500Y-49822475D01*
X191485810Y-49957984D01*
X191487017Y-49962488D01*
X191559488Y-50088011D01*
X191559490Y-50088013D01*
X191559491Y-50088015D01*
X191661985Y-50190509D01*
X191661986Y-50190510D01*
X191661988Y-50190511D01*
X191787511Y-50262982D01*
X191787512Y-50262982D01*
X191787515Y-50262984D01*
X191927525Y-50300500D01*
X191927528Y-50300500D01*
X192072472Y-50300500D01*
X192072475Y-50300500D01*
X192212485Y-50262984D01*
X192338015Y-50190509D01*
X192440509Y-50088015D01*
X192512984Y-49962485D01*
X192550500Y-49822475D01*
X192550500Y-49677525D01*
X192512984Y-49537515D01*
X192440509Y-49411985D01*
X192338015Y-49309491D01*
X192338013Y-49309490D01*
X192338011Y-49309488D01*
X192212488Y-49237017D01*
X192212489Y-49237017D01*
X192195672Y-49232511D01*
X192072475Y-49199500D01*
X191927525Y-49199500D01*
X191804328Y-49232511D01*
X191787511Y-49237017D01*
X191661988Y-49309488D01*
X191661982Y-49309493D01*
X191559493Y-49411982D01*
X191559488Y-49411988D01*
X191487017Y-49537511D01*
X191487016Y-49537515D01*
X191449500Y-49677525D01*
X146121414Y-49677525D01*
X146132984Y-49657485D01*
X146170500Y-49517475D01*
X146170500Y-49372525D01*
X146132984Y-49232515D01*
X146060509Y-49106985D01*
X145958015Y-49004491D01*
X145958013Y-49004490D01*
X145958011Y-49004488D01*
X145832488Y-48932017D01*
X145832489Y-48932017D01*
X145821006Y-48928940D01*
X145692475Y-48894500D01*
X145547525Y-48894500D01*
X145418993Y-48928940D01*
X145407511Y-48932017D01*
X145281988Y-49004488D01*
X145281982Y-49004493D01*
X145179493Y-49106982D01*
X145179488Y-49106988D01*
X145107017Y-49232511D01*
X145107016Y-49232515D01*
X145069500Y-49372525D01*
X131500500Y-49372525D01*
X131500500Y-48177525D01*
X185949500Y-48177525D01*
X185949500Y-48322475D01*
X185987016Y-48462485D01*
X185987017Y-48462488D01*
X186059488Y-48588011D01*
X186059490Y-48588013D01*
X186059491Y-48588015D01*
X186161985Y-48690509D01*
X186161986Y-48690510D01*
X186161988Y-48690511D01*
X186287511Y-48762982D01*
X186287512Y-48762982D01*
X186287515Y-48762984D01*
X186427525Y-48800500D01*
X186427528Y-48800500D01*
X186572472Y-48800500D01*
X186572475Y-48800500D01*
X186712485Y-48762984D01*
X186838015Y-48690509D01*
X186940509Y-48588015D01*
X187012984Y-48462485D01*
X187050500Y-48322475D01*
X187050500Y-48177525D01*
X187012984Y-48037515D01*
X186940509Y-47911985D01*
X186838015Y-47809491D01*
X186838013Y-47809490D01*
X186838011Y-47809488D01*
X186712488Y-47737017D01*
X186712489Y-47737017D01*
X186701006Y-47733940D01*
X186572475Y-47699500D01*
X186427525Y-47699500D01*
X186298993Y-47733940D01*
X186287511Y-47737017D01*
X186161988Y-47809488D01*
X186161982Y-47809493D01*
X186059493Y-47911982D01*
X186059488Y-47911988D01*
X185987017Y-48037511D01*
X185987016Y-48037515D01*
X185949500Y-48177525D01*
X131500500Y-48177525D01*
X131500500Y-47227525D01*
X175209500Y-47227525D01*
X175209500Y-47372475D01*
X175247016Y-47512485D01*
X175247017Y-47512488D01*
X175319488Y-47638011D01*
X175319490Y-47638013D01*
X175319491Y-47638015D01*
X175421985Y-47740509D01*
X175421986Y-47740510D01*
X175421988Y-47740511D01*
X175547511Y-47812982D01*
X175547512Y-47812982D01*
X175547515Y-47812984D01*
X175687525Y-47850500D01*
X175687528Y-47850500D01*
X175832472Y-47850500D01*
X175832475Y-47850500D01*
X175972485Y-47812984D01*
X176098015Y-47740509D01*
X176200509Y-47638015D01*
X176272984Y-47512485D01*
X176310500Y-47372475D01*
X176310500Y-47227525D01*
X176272984Y-47087515D01*
X176200509Y-46961985D01*
X176098015Y-46859491D01*
X176098013Y-46859490D01*
X176098011Y-46859488D01*
X175972488Y-46787017D01*
X175972489Y-46787017D01*
X175961006Y-46783940D01*
X175832475Y-46749500D01*
X175687525Y-46749500D01*
X175558993Y-46783940D01*
X175547511Y-46787017D01*
X175421988Y-46859488D01*
X175421982Y-46859493D01*
X175319493Y-46961982D01*
X175319488Y-46961988D01*
X175247017Y-47087511D01*
X175247016Y-47087515D01*
X175209500Y-47227525D01*
X131500500Y-47227525D01*
X131500500Y-43477525D01*
X178459500Y-43477525D01*
X178459500Y-43622475D01*
X178497016Y-43762485D01*
X178497017Y-43762488D01*
X178569488Y-43888011D01*
X178569490Y-43888013D01*
X178569491Y-43888015D01*
X178671985Y-43990509D01*
X178671986Y-43990510D01*
X178671988Y-43990511D01*
X178797511Y-44062982D01*
X178797512Y-44062982D01*
X178797515Y-44062984D01*
X178937525Y-44100500D01*
X178937528Y-44100500D01*
X179082472Y-44100500D01*
X179082475Y-44100500D01*
X179222485Y-44062984D01*
X179348015Y-43990509D01*
X179450509Y-43888015D01*
X179522984Y-43762485D01*
X179560500Y-43622475D01*
X179560500Y-43477525D01*
X179522984Y-43337515D01*
X179450509Y-43211985D01*
X179348015Y-43109491D01*
X179348013Y-43109490D01*
X179348011Y-43109488D01*
X179222488Y-43037017D01*
X179222489Y-43037017D01*
X179211006Y-43033940D01*
X179082475Y-42999500D01*
X178937525Y-42999500D01*
X178808993Y-43033940D01*
X178797511Y-43037017D01*
X178671988Y-43109488D01*
X178671982Y-43109493D01*
X178569493Y-43211982D01*
X178569488Y-43211988D01*
X178497017Y-43337511D01*
X178497016Y-43337515D01*
X178459500Y-43477525D01*
X131500500Y-43477525D01*
X131500500Y-41127525D01*
X136649500Y-41127525D01*
X136649500Y-41272475D01*
X136670407Y-41350500D01*
X136687017Y-41412488D01*
X136759488Y-41538011D01*
X136759490Y-41538013D01*
X136759491Y-41538015D01*
X136861985Y-41640509D01*
X136861986Y-41640510D01*
X136861988Y-41640511D01*
X136987511Y-41712982D01*
X136987512Y-41712982D01*
X136987515Y-41712984D01*
X137127525Y-41750500D01*
X137127528Y-41750500D01*
X137272472Y-41750500D01*
X137272475Y-41750500D01*
X137412485Y-41712984D01*
X137538015Y-41640509D01*
X137640509Y-41538015D01*
X137712984Y-41412485D01*
X137750500Y-41272475D01*
X137750500Y-41127525D01*
X137712984Y-40987515D01*
X137646565Y-40872475D01*
X137640511Y-40861988D01*
X137640506Y-40861982D01*
X137538017Y-40759493D01*
X137538011Y-40759488D01*
X137482650Y-40727525D01*
X189709500Y-40727525D01*
X189709500Y-40872475D01*
X189747016Y-41012485D01*
X189747017Y-41012488D01*
X189819488Y-41138011D01*
X189819490Y-41138013D01*
X189819491Y-41138015D01*
X189921985Y-41240509D01*
X189921986Y-41240510D01*
X189921988Y-41240511D01*
X190047511Y-41312982D01*
X190047512Y-41312982D01*
X190047515Y-41312984D01*
X190187525Y-41350500D01*
X190187528Y-41350500D01*
X190332472Y-41350500D01*
X190332475Y-41350500D01*
X190472485Y-41312984D01*
X190598015Y-41240509D01*
X190700509Y-41138015D01*
X190772984Y-41012485D01*
X190810500Y-40872475D01*
X190810500Y-40727525D01*
X190772984Y-40587515D01*
X190700509Y-40461985D01*
X190598015Y-40359491D01*
X190598013Y-40359490D01*
X190598011Y-40359488D01*
X190472488Y-40287017D01*
X190472489Y-40287017D01*
X190461006Y-40283940D01*
X190332475Y-40249500D01*
X190187525Y-40249500D01*
X190058993Y-40283940D01*
X190047511Y-40287017D01*
X189921988Y-40359488D01*
X189921982Y-40359493D01*
X189819493Y-40461982D01*
X189819488Y-40461988D01*
X189747017Y-40587511D01*
X189747016Y-40587515D01*
X189709500Y-40727525D01*
X137482650Y-40727525D01*
X137412488Y-40687017D01*
X137412489Y-40687017D01*
X137401006Y-40683940D01*
X137272475Y-40649500D01*
X137127525Y-40649500D01*
X136998993Y-40683940D01*
X136987511Y-40687017D01*
X136861988Y-40759488D01*
X136861982Y-40759493D01*
X136759493Y-40861982D01*
X136759488Y-40861988D01*
X136687017Y-40987511D01*
X136687016Y-40987515D01*
X136649500Y-41127525D01*
X131500500Y-41127525D01*
X131500500Y-38178389D01*
X190649500Y-38178389D01*
X190649500Y-38351611D01*
X190676598Y-38522701D01*
X190730127Y-38687445D01*
X190808768Y-38841788D01*
X190910586Y-38981928D01*
X191033072Y-39104414D01*
X191173212Y-39206232D01*
X191327555Y-39284873D01*
X191492299Y-39338402D01*
X191663389Y-39365500D01*
X191663390Y-39365500D01*
X191836610Y-39365500D01*
X191836611Y-39365500D01*
X192007701Y-39338402D01*
X192172445Y-39284873D01*
X192326788Y-39206232D01*
X192466928Y-39104414D01*
X192589414Y-38981928D01*
X192691232Y-38841788D01*
X192769873Y-38687445D01*
X192823402Y-38522701D01*
X192850500Y-38351611D01*
X192850500Y-38178389D01*
X192823402Y-38007299D01*
X192769873Y-37842555D01*
X192691232Y-37688212D01*
X192589414Y-37548072D01*
X192466928Y-37425586D01*
X192326788Y-37323768D01*
X192172445Y-37245127D01*
X192007701Y-37191598D01*
X192007699Y-37191597D01*
X192007698Y-37191597D01*
X191876271Y-37170781D01*
X191836611Y-37164500D01*
X191663389Y-37164500D01*
X191623728Y-37170781D01*
X191492302Y-37191597D01*
X191327552Y-37245128D01*
X191173211Y-37323768D01*
X191093256Y-37381859D01*
X191033072Y-37425586D01*
X191033070Y-37425588D01*
X191033069Y-37425588D01*
X190910588Y-37548069D01*
X190910588Y-37548070D01*
X190910586Y-37548072D01*
X190866859Y-37608256D01*
X190808768Y-37688211D01*
X190730128Y-37842552D01*
X190676597Y-38007302D01*
X190649500Y-38178389D01*
X131500500Y-38178389D01*
X131500500Y-34302155D01*
X132130000Y-34302155D01*
X132130000Y-34950000D01*
X133046988Y-34950000D01*
X133014075Y-35007007D01*
X132980000Y-35134174D01*
X132980000Y-35265826D01*
X133014075Y-35392993D01*
X133046988Y-35450000D01*
X132130000Y-35450000D01*
X132130000Y-36097844D01*
X132136401Y-36157372D01*
X132136403Y-36157379D01*
X132186645Y-36292086D01*
X132186649Y-36292093D01*
X132272809Y-36407187D01*
X132272812Y-36407190D01*
X132387906Y-36493350D01*
X132387913Y-36493354D01*
X132522620Y-36543596D01*
X132522627Y-36543598D01*
X132582155Y-36549999D01*
X132582172Y-36550000D01*
X133230000Y-36550000D01*
X133230000Y-35633012D01*
X133287007Y-35665925D01*
X133414174Y-35700000D01*
X133545826Y-35700000D01*
X133672993Y-35665925D01*
X133730000Y-35633012D01*
X133730000Y-36550000D01*
X134377828Y-36550000D01*
X134377844Y-36549999D01*
X134437372Y-36543598D01*
X134437379Y-36543596D01*
X134572086Y-36493354D01*
X134572093Y-36493350D01*
X134687187Y-36407190D01*
X134687190Y-36407187D01*
X134773350Y-36292093D01*
X134773354Y-36292086D01*
X134823596Y-36157379D01*
X134823598Y-36157372D01*
X134829999Y-36097844D01*
X134830000Y-36097827D01*
X134830000Y-35805050D01*
X134849685Y-35738011D01*
X134902489Y-35692256D01*
X134971647Y-35682312D01*
X135035203Y-35711337D01*
X135064485Y-35748756D01*
X135078766Y-35776786D01*
X135109357Y-35818890D01*
X135180586Y-35916928D01*
X135303072Y-36039414D01*
X135443212Y-36141232D01*
X135597555Y-36219873D01*
X135762299Y-36273402D01*
X135933389Y-36300500D01*
X135933390Y-36300500D01*
X136106610Y-36300500D01*
X136106611Y-36300500D01*
X136277701Y-36273402D01*
X136442445Y-36219873D01*
X136596788Y-36141232D01*
X136736928Y-36039414D01*
X136859414Y-35916928D01*
X136961232Y-35776788D01*
X137039873Y-35622445D01*
X137093402Y-35457701D01*
X137120500Y-35286611D01*
X137120500Y-35113389D01*
X137459500Y-35113389D01*
X137459500Y-35286611D01*
X137486598Y-35457701D01*
X137540127Y-35622445D01*
X137618768Y-35776788D01*
X137720586Y-35916928D01*
X137843072Y-36039414D01*
X137983212Y-36141232D01*
X138137555Y-36219873D01*
X138302299Y-36273402D01*
X138473389Y-36300500D01*
X138473390Y-36300500D01*
X138646610Y-36300500D01*
X138646611Y-36300500D01*
X138817701Y-36273402D01*
X138982445Y-36219873D01*
X139136788Y-36141232D01*
X139276928Y-36039414D01*
X139399414Y-35916928D01*
X139501232Y-35776788D01*
X139579873Y-35622445D01*
X139633402Y-35457701D01*
X139660500Y-35286611D01*
X139660500Y-35113389D01*
X139999500Y-35113389D01*
X139999500Y-35286611D01*
X140026598Y-35457701D01*
X140080127Y-35622445D01*
X140158768Y-35776788D01*
X140260586Y-35916928D01*
X140383072Y-36039414D01*
X140523212Y-36141232D01*
X140677555Y-36219873D01*
X140842299Y-36273402D01*
X141013389Y-36300500D01*
X141013390Y-36300500D01*
X141186610Y-36300500D01*
X141186611Y-36300500D01*
X141357701Y-36273402D01*
X141522445Y-36219873D01*
X141676788Y-36141232D01*
X141816928Y-36039414D01*
X141939414Y-35916928D01*
X142041232Y-35776788D01*
X142119873Y-35622445D01*
X142173402Y-35457701D01*
X142200500Y-35286611D01*
X142200500Y-35113389D01*
X142539500Y-35113389D01*
X142539500Y-35286611D01*
X142566598Y-35457701D01*
X142620127Y-35622445D01*
X142698768Y-35776788D01*
X142800586Y-35916928D01*
X142923072Y-36039414D01*
X143063212Y-36141232D01*
X143217555Y-36219873D01*
X143382299Y-36273402D01*
X143553389Y-36300500D01*
X143553390Y-36300500D01*
X143726610Y-36300500D01*
X143726611Y-36300500D01*
X143897701Y-36273402D01*
X144062445Y-36219873D01*
X144216788Y-36141232D01*
X144356928Y-36039414D01*
X144479414Y-35916928D01*
X144581232Y-35776788D01*
X144659873Y-35622445D01*
X144713402Y-35457701D01*
X144740500Y-35286611D01*
X144740500Y-35113389D01*
X145079500Y-35113389D01*
X145079500Y-35286611D01*
X145106598Y-35457701D01*
X145160127Y-35622445D01*
X145238768Y-35776788D01*
X145340586Y-35916928D01*
X145463072Y-36039414D01*
X145603212Y-36141232D01*
X145757555Y-36219873D01*
X145922299Y-36273402D01*
X146093389Y-36300500D01*
X146093390Y-36300500D01*
X146266610Y-36300500D01*
X146266611Y-36300500D01*
X146437701Y-36273402D01*
X146602445Y-36219873D01*
X146756788Y-36141232D01*
X146896928Y-36039414D01*
X147019414Y-35916928D01*
X147121232Y-35776788D01*
X147199873Y-35622445D01*
X147253402Y-35457701D01*
X147280500Y-35286611D01*
X147280500Y-35113389D01*
X147619500Y-35113389D01*
X147619500Y-35286611D01*
X147646598Y-35457701D01*
X147700127Y-35622445D01*
X147778768Y-35776788D01*
X147880586Y-35916928D01*
X148003072Y-36039414D01*
X148143212Y-36141232D01*
X148297555Y-36219873D01*
X148462299Y-36273402D01*
X148633389Y-36300500D01*
X148633390Y-36300500D01*
X148806610Y-36300500D01*
X148806611Y-36300500D01*
X148977701Y-36273402D01*
X149142445Y-36219873D01*
X149296788Y-36141232D01*
X149436928Y-36039414D01*
X149559414Y-35916928D01*
X149661232Y-35776788D01*
X149739873Y-35622445D01*
X149793402Y-35457701D01*
X149820500Y-35286611D01*
X149820500Y-35113389D01*
X150159500Y-35113389D01*
X150159500Y-35286611D01*
X150186598Y-35457701D01*
X150240127Y-35622445D01*
X150318768Y-35776788D01*
X150420586Y-35916928D01*
X150543072Y-36039414D01*
X150683212Y-36141232D01*
X150837555Y-36219873D01*
X151002299Y-36273402D01*
X151173389Y-36300500D01*
X151173390Y-36300500D01*
X151346610Y-36300500D01*
X151346611Y-36300500D01*
X151517701Y-36273402D01*
X151682445Y-36219873D01*
X151836788Y-36141232D01*
X151976928Y-36039414D01*
X152099414Y-35916928D01*
X152201232Y-35776788D01*
X152279873Y-35622445D01*
X152333402Y-35457701D01*
X152360500Y-35286611D01*
X152360500Y-35113389D01*
X152699500Y-35113389D01*
X152699500Y-35286611D01*
X152726598Y-35457701D01*
X152780127Y-35622445D01*
X152858768Y-35776788D01*
X152960586Y-35916928D01*
X153083072Y-36039414D01*
X153223212Y-36141232D01*
X153377555Y-36219873D01*
X153542299Y-36273402D01*
X153713389Y-36300500D01*
X153713390Y-36300500D01*
X153886610Y-36300500D01*
X153886611Y-36300500D01*
X154057701Y-36273402D01*
X154222445Y-36219873D01*
X154376788Y-36141232D01*
X154516928Y-36039414D01*
X154639414Y-35916928D01*
X154741232Y-35776788D01*
X154819873Y-35622445D01*
X154873402Y-35457701D01*
X154900500Y-35286611D01*
X154900500Y-35113389D01*
X155239500Y-35113389D01*
X155239500Y-35286611D01*
X155266598Y-35457701D01*
X155320127Y-35622445D01*
X155398768Y-35776788D01*
X155500586Y-35916928D01*
X155623072Y-36039414D01*
X155763212Y-36141232D01*
X155917555Y-36219873D01*
X156082299Y-36273402D01*
X156253389Y-36300500D01*
X156253390Y-36300500D01*
X156426610Y-36300500D01*
X156426611Y-36300500D01*
X156597701Y-36273402D01*
X156762445Y-36219873D01*
X156916788Y-36141232D01*
X157056928Y-36039414D01*
X157179414Y-35916928D01*
X157281232Y-35776788D01*
X157359873Y-35622445D01*
X157413402Y-35457701D01*
X157440500Y-35286611D01*
X157440500Y-35113389D01*
X157779500Y-35113389D01*
X157779500Y-35286611D01*
X157806598Y-35457701D01*
X157860127Y-35622445D01*
X157938768Y-35776788D01*
X158040586Y-35916928D01*
X158163072Y-36039414D01*
X158303212Y-36141232D01*
X158457555Y-36219873D01*
X158622299Y-36273402D01*
X158793389Y-36300500D01*
X158793390Y-36300500D01*
X158966610Y-36300500D01*
X158966611Y-36300500D01*
X159137701Y-36273402D01*
X159302445Y-36219873D01*
X159456788Y-36141232D01*
X159596928Y-36039414D01*
X159719414Y-35916928D01*
X159821232Y-35776788D01*
X159899873Y-35622445D01*
X159953402Y-35457701D01*
X159980500Y-35286611D01*
X159980500Y-35113389D01*
X160319500Y-35113389D01*
X160319500Y-35286611D01*
X160346598Y-35457701D01*
X160400127Y-35622445D01*
X160478768Y-35776788D01*
X160580586Y-35916928D01*
X160703072Y-36039414D01*
X160843212Y-36141232D01*
X160997555Y-36219873D01*
X161162299Y-36273402D01*
X161333389Y-36300500D01*
X161333390Y-36300500D01*
X161506610Y-36300500D01*
X161506611Y-36300500D01*
X161677701Y-36273402D01*
X161842445Y-36219873D01*
X161996788Y-36141232D01*
X162136928Y-36039414D01*
X162259414Y-35916928D01*
X162361232Y-35776788D01*
X162439873Y-35622445D01*
X162493402Y-35457701D01*
X162520500Y-35286611D01*
X162520500Y-35113389D01*
X162859500Y-35113389D01*
X162859500Y-35286611D01*
X162886598Y-35457701D01*
X162940127Y-35622445D01*
X163018768Y-35776788D01*
X163120586Y-35916928D01*
X163243072Y-36039414D01*
X163383212Y-36141232D01*
X163537555Y-36219873D01*
X163702299Y-36273402D01*
X163873389Y-36300500D01*
X163873390Y-36300500D01*
X164046610Y-36300500D01*
X164046611Y-36300500D01*
X164217701Y-36273402D01*
X164382445Y-36219873D01*
X164536788Y-36141232D01*
X164676928Y-36039414D01*
X164799414Y-35916928D01*
X164901232Y-35776788D01*
X164979873Y-35622445D01*
X165033402Y-35457701D01*
X165060500Y-35286611D01*
X165060500Y-35113389D01*
X165399500Y-35113389D01*
X165399500Y-35286611D01*
X165426598Y-35457701D01*
X165480127Y-35622445D01*
X165558768Y-35776788D01*
X165660586Y-35916928D01*
X165783072Y-36039414D01*
X165923212Y-36141232D01*
X166077555Y-36219873D01*
X166242299Y-36273402D01*
X166413389Y-36300500D01*
X166413390Y-36300500D01*
X166586610Y-36300500D01*
X166586611Y-36300500D01*
X166757701Y-36273402D01*
X166922445Y-36219873D01*
X167076788Y-36141232D01*
X167216928Y-36039414D01*
X167339414Y-35916928D01*
X167441232Y-35776788D01*
X167519873Y-35622445D01*
X167573402Y-35457701D01*
X167600500Y-35286611D01*
X167600500Y-35113389D01*
X167939500Y-35113389D01*
X167939500Y-35286611D01*
X167966598Y-35457701D01*
X168020127Y-35622445D01*
X168098768Y-35776788D01*
X168200586Y-35916928D01*
X168323072Y-36039414D01*
X168463212Y-36141232D01*
X168617555Y-36219873D01*
X168782299Y-36273402D01*
X168953389Y-36300500D01*
X168953390Y-36300500D01*
X169126610Y-36300500D01*
X169126611Y-36300500D01*
X169297701Y-36273402D01*
X169462445Y-36219873D01*
X169616788Y-36141232D01*
X169756928Y-36039414D01*
X169879414Y-35916928D01*
X169981232Y-35776788D01*
X170059873Y-35622445D01*
X170113402Y-35457701D01*
X170140500Y-35286611D01*
X170140500Y-35113389D01*
X170113402Y-34942299D01*
X170083516Y-34850321D01*
X190649500Y-34850321D01*
X190649500Y-36599678D01*
X190664032Y-36672735D01*
X190664033Y-36672739D01*
X190664034Y-36672740D01*
X190719399Y-36755601D01*
X190802260Y-36810966D01*
X190802264Y-36810967D01*
X190875321Y-36825499D01*
X190875324Y-36825500D01*
X190875326Y-36825500D01*
X192624676Y-36825500D01*
X192624677Y-36825499D01*
X192697740Y-36810966D01*
X192780601Y-36755601D01*
X192835966Y-36672740D01*
X192850500Y-36599674D01*
X192850500Y-34850326D01*
X192850500Y-34850323D01*
X192850499Y-34850321D01*
X192835967Y-34777264D01*
X192835966Y-34777260D01*
X192785706Y-34702040D01*
X192780601Y-34694399D01*
X192716014Y-34651244D01*
X192697739Y-34639033D01*
X192697735Y-34639032D01*
X192624677Y-34624500D01*
X192624674Y-34624500D01*
X190875326Y-34624500D01*
X190875323Y-34624500D01*
X190802264Y-34639032D01*
X190802260Y-34639033D01*
X190719399Y-34694399D01*
X190664033Y-34777260D01*
X190664032Y-34777264D01*
X190649500Y-34850321D01*
X170083516Y-34850321D01*
X170059873Y-34777555D01*
X170059871Y-34777552D01*
X170059871Y-34777550D01*
X169990592Y-34641582D01*
X169981232Y-34623212D01*
X169879414Y-34483072D01*
X169756928Y-34360586D01*
X169616788Y-34258768D01*
X169462445Y-34180127D01*
X169297701Y-34126598D01*
X169297699Y-34126597D01*
X169297698Y-34126597D01*
X169166271Y-34105781D01*
X169126611Y-34099500D01*
X168953389Y-34099500D01*
X168913728Y-34105781D01*
X168782302Y-34126597D01*
X168617552Y-34180128D01*
X168463211Y-34258768D01*
X168383256Y-34316859D01*
X168323072Y-34360586D01*
X168323070Y-34360588D01*
X168323069Y-34360588D01*
X168200588Y-34483069D01*
X168200588Y-34483070D01*
X168200586Y-34483072D01*
X168156859Y-34543256D01*
X168098768Y-34623211D01*
X168020128Y-34777552D01*
X167966597Y-34942302D01*
X167965378Y-34950000D01*
X167939500Y-35113389D01*
X167600500Y-35113389D01*
X167573402Y-34942299D01*
X167519873Y-34777555D01*
X167441232Y-34623212D01*
X167339414Y-34483072D01*
X167216928Y-34360586D01*
X167076788Y-34258768D01*
X166922445Y-34180127D01*
X166757701Y-34126598D01*
X166757699Y-34126597D01*
X166757698Y-34126597D01*
X166626271Y-34105781D01*
X166586611Y-34099500D01*
X166413389Y-34099500D01*
X166373728Y-34105781D01*
X166242302Y-34126597D01*
X166077552Y-34180128D01*
X165923211Y-34258768D01*
X165843256Y-34316859D01*
X165783072Y-34360586D01*
X165783070Y-34360588D01*
X165783069Y-34360588D01*
X165660588Y-34483069D01*
X165660588Y-34483070D01*
X165660586Y-34483072D01*
X165616859Y-34543256D01*
X165558768Y-34623211D01*
X165480128Y-34777552D01*
X165426597Y-34942302D01*
X165425378Y-34950000D01*
X165399500Y-35113389D01*
X165060500Y-35113389D01*
X165033402Y-34942299D01*
X164979873Y-34777555D01*
X164901232Y-34623212D01*
X164799414Y-34483072D01*
X164676928Y-34360586D01*
X164536788Y-34258768D01*
X164382445Y-34180127D01*
X164217701Y-34126598D01*
X164217699Y-34126597D01*
X164217698Y-34126597D01*
X164086271Y-34105781D01*
X164046611Y-34099500D01*
X163873389Y-34099500D01*
X163833728Y-34105781D01*
X163702302Y-34126597D01*
X163537552Y-34180128D01*
X163383211Y-34258768D01*
X163303256Y-34316859D01*
X163243072Y-34360586D01*
X163243070Y-34360588D01*
X163243069Y-34360588D01*
X163120588Y-34483069D01*
X163120588Y-34483070D01*
X163120586Y-34483072D01*
X163076859Y-34543256D01*
X163018768Y-34623211D01*
X162940128Y-34777552D01*
X162886597Y-34942302D01*
X162885378Y-34950000D01*
X162859500Y-35113389D01*
X162520500Y-35113389D01*
X162493402Y-34942299D01*
X162439873Y-34777555D01*
X162361232Y-34623212D01*
X162259414Y-34483072D01*
X162136928Y-34360586D01*
X161996788Y-34258768D01*
X161842445Y-34180127D01*
X161677701Y-34126598D01*
X161677699Y-34126597D01*
X161677698Y-34126597D01*
X161546271Y-34105781D01*
X161506611Y-34099500D01*
X161333389Y-34099500D01*
X161293728Y-34105781D01*
X161162302Y-34126597D01*
X160997552Y-34180128D01*
X160843211Y-34258768D01*
X160763256Y-34316859D01*
X160703072Y-34360586D01*
X160703070Y-34360588D01*
X160703069Y-34360588D01*
X160580588Y-34483069D01*
X160580588Y-34483070D01*
X160580586Y-34483072D01*
X160536859Y-34543256D01*
X160478768Y-34623211D01*
X160400128Y-34777552D01*
X160346597Y-34942302D01*
X160345378Y-34950000D01*
X160319500Y-35113389D01*
X159980500Y-35113389D01*
X159953402Y-34942299D01*
X159899873Y-34777555D01*
X159821232Y-34623212D01*
X159719414Y-34483072D01*
X159596928Y-34360586D01*
X159456788Y-34258768D01*
X159302445Y-34180127D01*
X159137701Y-34126598D01*
X159137699Y-34126597D01*
X159137698Y-34126597D01*
X159006271Y-34105781D01*
X158966611Y-34099500D01*
X158793389Y-34099500D01*
X158753728Y-34105781D01*
X158622302Y-34126597D01*
X158457552Y-34180128D01*
X158303211Y-34258768D01*
X158223256Y-34316859D01*
X158163072Y-34360586D01*
X158163070Y-34360588D01*
X158163069Y-34360588D01*
X158040588Y-34483069D01*
X158040588Y-34483070D01*
X158040586Y-34483072D01*
X157996859Y-34543256D01*
X157938768Y-34623211D01*
X157860128Y-34777552D01*
X157806597Y-34942302D01*
X157805378Y-34950000D01*
X157779500Y-35113389D01*
X157440500Y-35113389D01*
X157413402Y-34942299D01*
X157359873Y-34777555D01*
X157281232Y-34623212D01*
X157179414Y-34483072D01*
X157056928Y-34360586D01*
X156916788Y-34258768D01*
X156762445Y-34180127D01*
X156597701Y-34126598D01*
X156597699Y-34126597D01*
X156597698Y-34126597D01*
X156466271Y-34105781D01*
X156426611Y-34099500D01*
X156253389Y-34099500D01*
X156213728Y-34105781D01*
X156082302Y-34126597D01*
X155917552Y-34180128D01*
X155763211Y-34258768D01*
X155683256Y-34316859D01*
X155623072Y-34360586D01*
X155623070Y-34360588D01*
X155623069Y-34360588D01*
X155500588Y-34483069D01*
X155500588Y-34483070D01*
X155500586Y-34483072D01*
X155456859Y-34543256D01*
X155398768Y-34623211D01*
X155320128Y-34777552D01*
X155266597Y-34942302D01*
X155265378Y-34950000D01*
X155239500Y-35113389D01*
X154900500Y-35113389D01*
X154873402Y-34942299D01*
X154819873Y-34777555D01*
X154741232Y-34623212D01*
X154639414Y-34483072D01*
X154516928Y-34360586D01*
X154376788Y-34258768D01*
X154222445Y-34180127D01*
X154057701Y-34126598D01*
X154057699Y-34126597D01*
X154057698Y-34126597D01*
X153926271Y-34105781D01*
X153886611Y-34099500D01*
X153713389Y-34099500D01*
X153673728Y-34105781D01*
X153542302Y-34126597D01*
X153377552Y-34180128D01*
X153223211Y-34258768D01*
X153143256Y-34316859D01*
X153083072Y-34360586D01*
X153083070Y-34360588D01*
X153083069Y-34360588D01*
X152960588Y-34483069D01*
X152960588Y-34483070D01*
X152960586Y-34483072D01*
X152916859Y-34543256D01*
X152858768Y-34623211D01*
X152780128Y-34777552D01*
X152726597Y-34942302D01*
X152725378Y-34950000D01*
X152699500Y-35113389D01*
X152360500Y-35113389D01*
X152333402Y-34942299D01*
X152279873Y-34777555D01*
X152201232Y-34623212D01*
X152099414Y-34483072D01*
X151976928Y-34360586D01*
X151836788Y-34258768D01*
X151682445Y-34180127D01*
X151517701Y-34126598D01*
X151517699Y-34126597D01*
X151517698Y-34126597D01*
X151386271Y-34105781D01*
X151346611Y-34099500D01*
X151173389Y-34099500D01*
X151133728Y-34105781D01*
X151002302Y-34126597D01*
X150837552Y-34180128D01*
X150683211Y-34258768D01*
X150603256Y-34316859D01*
X150543072Y-34360586D01*
X150543070Y-34360588D01*
X150543069Y-34360588D01*
X150420588Y-34483069D01*
X150420588Y-34483070D01*
X150420586Y-34483072D01*
X150376859Y-34543256D01*
X150318768Y-34623211D01*
X150240128Y-34777552D01*
X150186597Y-34942302D01*
X150185378Y-34950000D01*
X150159500Y-35113389D01*
X149820500Y-35113389D01*
X149793402Y-34942299D01*
X149739873Y-34777555D01*
X149661232Y-34623212D01*
X149559414Y-34483072D01*
X149436928Y-34360586D01*
X149296788Y-34258768D01*
X149142445Y-34180127D01*
X148977701Y-34126598D01*
X148977699Y-34126597D01*
X148977698Y-34126597D01*
X148846271Y-34105781D01*
X148806611Y-34099500D01*
X148633389Y-34099500D01*
X148593728Y-34105781D01*
X148462302Y-34126597D01*
X148297552Y-34180128D01*
X148143211Y-34258768D01*
X148063256Y-34316859D01*
X148003072Y-34360586D01*
X148003070Y-34360588D01*
X148003069Y-34360588D01*
X147880588Y-34483069D01*
X147880588Y-34483070D01*
X147880586Y-34483072D01*
X147836859Y-34543256D01*
X147778768Y-34623211D01*
X147700128Y-34777552D01*
X147646597Y-34942302D01*
X147645378Y-34950000D01*
X147619500Y-35113389D01*
X147280500Y-35113389D01*
X147253402Y-34942299D01*
X147199873Y-34777555D01*
X147121232Y-34623212D01*
X147019414Y-34483072D01*
X146896928Y-34360586D01*
X146756788Y-34258768D01*
X146602445Y-34180127D01*
X146437701Y-34126598D01*
X146437699Y-34126597D01*
X146437698Y-34126597D01*
X146306271Y-34105781D01*
X146266611Y-34099500D01*
X146093389Y-34099500D01*
X146053728Y-34105781D01*
X145922302Y-34126597D01*
X145757552Y-34180128D01*
X145603211Y-34258768D01*
X145523256Y-34316859D01*
X145463072Y-34360586D01*
X145463070Y-34360588D01*
X145463069Y-34360588D01*
X145340588Y-34483069D01*
X145340588Y-34483070D01*
X145340586Y-34483072D01*
X145296859Y-34543256D01*
X145238768Y-34623211D01*
X145160128Y-34777552D01*
X145106597Y-34942302D01*
X145105378Y-34950000D01*
X145079500Y-35113389D01*
X144740500Y-35113389D01*
X144713402Y-34942299D01*
X144659873Y-34777555D01*
X144581232Y-34623212D01*
X144479414Y-34483072D01*
X144356928Y-34360586D01*
X144216788Y-34258768D01*
X144062445Y-34180127D01*
X143897701Y-34126598D01*
X143897699Y-34126597D01*
X143897698Y-34126597D01*
X143766271Y-34105781D01*
X143726611Y-34099500D01*
X143553389Y-34099500D01*
X143513728Y-34105781D01*
X143382302Y-34126597D01*
X143217552Y-34180128D01*
X143063211Y-34258768D01*
X142983256Y-34316859D01*
X142923072Y-34360586D01*
X142923070Y-34360588D01*
X142923069Y-34360588D01*
X142800588Y-34483069D01*
X142800588Y-34483070D01*
X142800586Y-34483072D01*
X142756859Y-34543256D01*
X142698768Y-34623211D01*
X142620128Y-34777552D01*
X142566597Y-34942302D01*
X142565378Y-34950000D01*
X142539500Y-35113389D01*
X142200500Y-35113389D01*
X142173402Y-34942299D01*
X142119873Y-34777555D01*
X142041232Y-34623212D01*
X141939414Y-34483072D01*
X141816928Y-34360586D01*
X141676788Y-34258768D01*
X141522445Y-34180127D01*
X141357701Y-34126598D01*
X141357699Y-34126597D01*
X141357698Y-34126597D01*
X141226271Y-34105781D01*
X141186611Y-34099500D01*
X141013389Y-34099500D01*
X140973728Y-34105781D01*
X140842302Y-34126597D01*
X140677552Y-34180128D01*
X140523211Y-34258768D01*
X140443256Y-34316859D01*
X140383072Y-34360586D01*
X140383070Y-34360588D01*
X140383069Y-34360588D01*
X140260588Y-34483069D01*
X140260588Y-34483070D01*
X140260586Y-34483072D01*
X140216859Y-34543256D01*
X140158768Y-34623211D01*
X140080128Y-34777552D01*
X140026597Y-34942302D01*
X140025378Y-34950000D01*
X139999500Y-35113389D01*
X139660500Y-35113389D01*
X139633402Y-34942299D01*
X139579873Y-34777555D01*
X139501232Y-34623212D01*
X139399414Y-34483072D01*
X139276928Y-34360586D01*
X139136788Y-34258768D01*
X138982445Y-34180127D01*
X138817701Y-34126598D01*
X138817699Y-34126597D01*
X138817698Y-34126597D01*
X138686271Y-34105781D01*
X138646611Y-34099500D01*
X138473389Y-34099500D01*
X138433728Y-34105781D01*
X138302302Y-34126597D01*
X138137552Y-34180128D01*
X137983211Y-34258768D01*
X137903256Y-34316859D01*
X137843072Y-34360586D01*
X137843070Y-34360588D01*
X137843069Y-34360588D01*
X137720588Y-34483069D01*
X137720588Y-34483070D01*
X137720586Y-34483072D01*
X137676859Y-34543256D01*
X137618768Y-34623211D01*
X137540128Y-34777552D01*
X137486597Y-34942302D01*
X137485378Y-34950000D01*
X137459500Y-35113389D01*
X137120500Y-35113389D01*
X137093402Y-34942299D01*
X137039873Y-34777555D01*
X136961232Y-34623212D01*
X136859414Y-34483072D01*
X136736928Y-34360586D01*
X136596788Y-34258768D01*
X136442445Y-34180127D01*
X136277701Y-34126598D01*
X136277699Y-34126597D01*
X136277698Y-34126597D01*
X136146271Y-34105781D01*
X136106611Y-34099500D01*
X135933389Y-34099500D01*
X135893728Y-34105781D01*
X135762302Y-34126597D01*
X135597552Y-34180128D01*
X135443211Y-34258768D01*
X135363256Y-34316859D01*
X135303072Y-34360586D01*
X135303070Y-34360588D01*
X135303069Y-34360588D01*
X135180588Y-34483069D01*
X135180588Y-34483070D01*
X135180586Y-34483072D01*
X135136859Y-34543256D01*
X135078768Y-34623211D01*
X135064485Y-34651244D01*
X135016510Y-34702040D01*
X134948689Y-34718835D01*
X134882554Y-34696297D01*
X134839103Y-34641582D01*
X134830000Y-34594949D01*
X134830000Y-34302172D01*
X134829999Y-34302155D01*
X134823598Y-34242627D01*
X134823596Y-34242620D01*
X134773354Y-34107913D01*
X134773350Y-34107906D01*
X134687190Y-33992812D01*
X134687187Y-33992809D01*
X134572093Y-33906649D01*
X134572086Y-33906645D01*
X134437379Y-33856403D01*
X134437372Y-33856401D01*
X134377844Y-33850000D01*
X133730000Y-33850000D01*
X133730000Y-34766988D01*
X133672993Y-34734075D01*
X133545826Y-34700000D01*
X133414174Y-34700000D01*
X133287007Y-34734075D01*
X133230000Y-34766988D01*
X133230000Y-33850000D01*
X132582155Y-33850000D01*
X132522627Y-33856401D01*
X132522620Y-33856403D01*
X132387913Y-33906645D01*
X132387906Y-33906649D01*
X132272812Y-33992809D01*
X132272809Y-33992812D01*
X132186649Y-34107906D01*
X132186645Y-34107913D01*
X132136403Y-34242620D01*
X132136401Y-34242627D01*
X132130000Y-34302155D01*
X131500500Y-34302155D01*
X131500500Y-28974500D01*
X131520185Y-28907461D01*
X131572989Y-28861706D01*
X131624500Y-28850500D01*
X196375500Y-28850500D01*
X196442539Y-28870185D01*
G37*
%TD.AperFunction*%
%TD*%
M02*
