M48
; DRILL file {KiCad 9.0.6} date 2026-01-10T20:22:41+0100
; FORMAT={-:-/ absolute / metric / decimal}
; #@! TF.CreationDate,2026-01-10T20:22:41+01:00
; #@! TF.GenerationSoftware,Kicad,Pcbnew,9.0.6
; #@! TF.FileFunction,Plated,1,4,PTH
FMAT,2
METRIC
; #@! TA.AperFunction,Plated,PTH,ViaDrill
T1C0.300
; #@! TA.AperFunction,Plated,PTH,ComponentDrill
T2C1.000
%
G90
G05
T1
X134.0Y-40.6
X134.8Y-59.6
X137.0Y-60.0
X137.2Y-41.2
X139.8Y-60.0
X141.75Y-56.7
X142.6Y-59.8
X143.4Y-53.395
X145.62Y-49.445
X146.02Y-50.845
X146.02Y-53.245
X146.22Y-52.045
X149.62Y-53.02
X149.82Y-51.22
X150.0Y-43.2
X150.8Y-60.0
X153.82Y-52.22
X158.595Y-52.42
X158.62Y-50.845
X164.4Y-54.8
X167.42Y-55.82
X175.76Y-47.3
X179.01Y-43.55
X183.51Y-46.55
X186.5Y-48.25
X190.26Y-40.8
X192.0Y-49.75
T2
X133.48Y-35.2
X133.62Y-64.2
X136.02Y-35.2
X136.16Y-64.2
X138.25Y-52.25
X138.25Y-54.79
X138.25Y-57.33
X138.56Y-35.2
X138.7Y-64.2
X141.1Y-35.2
X141.24Y-64.2
X143.64Y-35.2
X143.78Y-64.2
X146.18Y-35.2
X146.32Y-64.2
X148.72Y-35.2
X148.86Y-64.2
X151.26Y-35.2
X151.4Y-64.2
X153.8Y-35.2
X153.94Y-64.2
X156.34Y-35.2
X156.48Y-64.2
X158.88Y-35.2
X159.02Y-64.2
X161.42Y-35.2
X161.56Y-64.2
X163.96Y-35.2
X164.1Y-64.2
X166.5Y-35.2
X166.64Y-64.2
X169.04Y-35.2
X169.18Y-64.2
X191.75Y-35.725
X191.75Y-38.265
M30
