%TF.GenerationSoftware,KiCad,Pcbnew,9.0.6*%
%TF.CreationDate,2026-03-06T19:06:09+01:00*%
%TF.ProjectId,nowyprojekt,6e6f7779-7072-46f6-9a65-6b742e6b6963,rev?*%
%TF.SameCoordinates,Original*%
%TF.FileFunction,Legend,Top*%
%TF.FilePolarity,Positive*%
%FSLAX46Y46*%
G04 Gerber Fmt 4.6, Leading zero omitted, Abs format (unit mm)*
G04 Created by KiCad (PCBNEW 9.0.6) date 2026-03-06 19:06:09*
%MOMM*%
%LPD*%
G01*
G04 APERTURE LIST*
%ADD10C,0.150000*%
%ADD11C,0.120000*%
G04 APERTURE END LIST*
D10*
X164938095Y-48054819D02*
X164938095Y-48864342D01*
X164938095Y-48864342D02*
X164985714Y-48959580D01*
X164985714Y-48959580D02*
X165033333Y-49007200D01*
X165033333Y-49007200D02*
X165128571Y-49054819D01*
X165128571Y-49054819D02*
X165319047Y-49054819D01*
X165319047Y-49054819D02*
X165414285Y-49007200D01*
X165414285Y-49007200D02*
X165461904Y-48959580D01*
X165461904Y-48959580D02*
X165509523Y-48864342D01*
X165509523Y-48864342D02*
X165509523Y-48054819D01*
X166509523Y-49054819D02*
X165938095Y-49054819D01*
X166223809Y-49054819D02*
X166223809Y-48054819D01*
X166223809Y-48054819D02*
X166128571Y-48197676D01*
X166128571Y-48197676D02*
X166033333Y-48292914D01*
X166033333Y-48292914D02*
X165938095Y-48340533D01*
X177111905Y-87104819D02*
X177111905Y-86104819D01*
X177111905Y-86104819D02*
X177350000Y-86104819D01*
X177350000Y-86104819D02*
X177492857Y-86152438D01*
X177492857Y-86152438D02*
X177588095Y-86247676D01*
X177588095Y-86247676D02*
X177635714Y-86342914D01*
X177635714Y-86342914D02*
X177683333Y-86533390D01*
X177683333Y-86533390D02*
X177683333Y-86676247D01*
X177683333Y-86676247D02*
X177635714Y-86866723D01*
X177635714Y-86866723D02*
X177588095Y-86961961D01*
X177588095Y-86961961D02*
X177492857Y-87057200D01*
X177492857Y-87057200D02*
X177350000Y-87104819D01*
X177350000Y-87104819D02*
X177111905Y-87104819D01*
X178635714Y-87104819D02*
X178064286Y-87104819D01*
X178350000Y-87104819D02*
X178350000Y-86104819D01*
X178350000Y-86104819D02*
X178254762Y-86247676D01*
X178254762Y-86247676D02*
X178159524Y-86342914D01*
X178159524Y-86342914D02*
X178064286Y-86390533D01*
X163966666Y-50654819D02*
X163966666Y-51369104D01*
X163966666Y-51369104D02*
X163919047Y-51511961D01*
X163919047Y-51511961D02*
X163823809Y-51607200D01*
X163823809Y-51607200D02*
X163680952Y-51654819D01*
X163680952Y-51654819D02*
X163585714Y-51654819D01*
X164871428Y-50988152D02*
X164871428Y-51654819D01*
X164633333Y-50607200D02*
X164395238Y-51321485D01*
X164395238Y-51321485D02*
X165014285Y-51321485D01*
X180383333Y-63759580D02*
X180335714Y-63807200D01*
X180335714Y-63807200D02*
X180192857Y-63854819D01*
X180192857Y-63854819D02*
X180097619Y-63854819D01*
X180097619Y-63854819D02*
X179954762Y-63807200D01*
X179954762Y-63807200D02*
X179859524Y-63711961D01*
X179859524Y-63711961D02*
X179811905Y-63616723D01*
X179811905Y-63616723D02*
X179764286Y-63426247D01*
X179764286Y-63426247D02*
X179764286Y-63283390D01*
X179764286Y-63283390D02*
X179811905Y-63092914D01*
X179811905Y-63092914D02*
X179859524Y-62997676D01*
X179859524Y-62997676D02*
X179954762Y-62902438D01*
X179954762Y-62902438D02*
X180097619Y-62854819D01*
X180097619Y-62854819D02*
X180192857Y-62854819D01*
X180192857Y-62854819D02*
X180335714Y-62902438D01*
X180335714Y-62902438D02*
X180383333Y-62950057D01*
X180859524Y-63854819D02*
X181050000Y-63854819D01*
X181050000Y-63854819D02*
X181145238Y-63807200D01*
X181145238Y-63807200D02*
X181192857Y-63759580D01*
X181192857Y-63759580D02*
X181288095Y-63616723D01*
X181288095Y-63616723D02*
X181335714Y-63426247D01*
X181335714Y-63426247D02*
X181335714Y-63045295D01*
X181335714Y-63045295D02*
X181288095Y-62950057D01*
X181288095Y-62950057D02*
X181240476Y-62902438D01*
X181240476Y-62902438D02*
X181145238Y-62854819D01*
X181145238Y-62854819D02*
X180954762Y-62854819D01*
X180954762Y-62854819D02*
X180859524Y-62902438D01*
X180859524Y-62902438D02*
X180811905Y-62950057D01*
X180811905Y-62950057D02*
X180764286Y-63045295D01*
X180764286Y-63045295D02*
X180764286Y-63283390D01*
X180764286Y-63283390D02*
X180811905Y-63378628D01*
X180811905Y-63378628D02*
X180859524Y-63426247D01*
X180859524Y-63426247D02*
X180954762Y-63473866D01*
X180954762Y-63473866D02*
X181145238Y-63473866D01*
X181145238Y-63473866D02*
X181240476Y-63426247D01*
X181240476Y-63426247D02*
X181288095Y-63378628D01*
X181288095Y-63378628D02*
X181335714Y-63283390D01*
X187633333Y-69654819D02*
X187300000Y-69178628D01*
X187061905Y-69654819D02*
X187061905Y-68654819D01*
X187061905Y-68654819D02*
X187442857Y-68654819D01*
X187442857Y-68654819D02*
X187538095Y-68702438D01*
X187538095Y-68702438D02*
X187585714Y-68750057D01*
X187585714Y-68750057D02*
X187633333Y-68845295D01*
X187633333Y-68845295D02*
X187633333Y-68988152D01*
X187633333Y-68988152D02*
X187585714Y-69083390D01*
X187585714Y-69083390D02*
X187538095Y-69131009D01*
X187538095Y-69131009D02*
X187442857Y-69178628D01*
X187442857Y-69178628D02*
X187061905Y-69178628D01*
X188585714Y-69654819D02*
X188014286Y-69654819D01*
X188300000Y-69654819D02*
X188300000Y-68654819D01*
X188300000Y-68654819D02*
X188204762Y-68797676D01*
X188204762Y-68797676D02*
X188109524Y-68892914D01*
X188109524Y-68892914D02*
X188014286Y-68940533D01*
X171008333Y-84954819D02*
X170532143Y-84954819D01*
X170532143Y-84954819D02*
X170532143Y-83954819D01*
X171865476Y-84954819D02*
X171294048Y-84954819D01*
X171579762Y-84954819D02*
X171579762Y-83954819D01*
X171579762Y-83954819D02*
X171484524Y-84097676D01*
X171484524Y-84097676D02*
X171389286Y-84192914D01*
X171389286Y-84192914D02*
X171294048Y-84240533D01*
X194966666Y-50354819D02*
X194966666Y-51069104D01*
X194966666Y-51069104D02*
X194919047Y-51211961D01*
X194919047Y-51211961D02*
X194823809Y-51307200D01*
X194823809Y-51307200D02*
X194680952Y-51354819D01*
X194680952Y-51354819D02*
X194585714Y-51354819D01*
X195347619Y-50354819D02*
X195966666Y-50354819D01*
X195966666Y-50354819D02*
X195633333Y-50735771D01*
X195633333Y-50735771D02*
X195776190Y-50735771D01*
X195776190Y-50735771D02*
X195871428Y-50783390D01*
X195871428Y-50783390D02*
X195919047Y-50831009D01*
X195919047Y-50831009D02*
X195966666Y-50926247D01*
X195966666Y-50926247D02*
X195966666Y-51164342D01*
X195966666Y-51164342D02*
X195919047Y-51259580D01*
X195919047Y-51259580D02*
X195871428Y-51307200D01*
X195871428Y-51307200D02*
X195776190Y-51354819D01*
X195776190Y-51354819D02*
X195490476Y-51354819D01*
X195490476Y-51354819D02*
X195395238Y-51307200D01*
X195395238Y-51307200D02*
X195347619Y-51259580D01*
X178738095Y-74204819D02*
X178738095Y-75014342D01*
X178738095Y-75014342D02*
X178785714Y-75109580D01*
X178785714Y-75109580D02*
X178833333Y-75157200D01*
X178833333Y-75157200D02*
X178928571Y-75204819D01*
X178928571Y-75204819D02*
X179119047Y-75204819D01*
X179119047Y-75204819D02*
X179214285Y-75157200D01*
X179214285Y-75157200D02*
X179261904Y-75109580D01*
X179261904Y-75109580D02*
X179309523Y-75014342D01*
X179309523Y-75014342D02*
X179309523Y-74204819D01*
X179738095Y-74300057D02*
X179785714Y-74252438D01*
X179785714Y-74252438D02*
X179880952Y-74204819D01*
X179880952Y-74204819D02*
X180119047Y-74204819D01*
X180119047Y-74204819D02*
X180214285Y-74252438D01*
X180214285Y-74252438D02*
X180261904Y-74300057D01*
X180261904Y-74300057D02*
X180309523Y-74395295D01*
X180309523Y-74395295D02*
X180309523Y-74490533D01*
X180309523Y-74490533D02*
X180261904Y-74633390D01*
X180261904Y-74633390D02*
X179690476Y-75204819D01*
X179690476Y-75204819D02*
X180309523Y-75204819D01*
X173833333Y-61709580D02*
X173785714Y-61757200D01*
X173785714Y-61757200D02*
X173642857Y-61804819D01*
X173642857Y-61804819D02*
X173547619Y-61804819D01*
X173547619Y-61804819D02*
X173404762Y-61757200D01*
X173404762Y-61757200D02*
X173309524Y-61661961D01*
X173309524Y-61661961D02*
X173261905Y-61566723D01*
X173261905Y-61566723D02*
X173214286Y-61376247D01*
X173214286Y-61376247D02*
X173214286Y-61233390D01*
X173214286Y-61233390D02*
X173261905Y-61042914D01*
X173261905Y-61042914D02*
X173309524Y-60947676D01*
X173309524Y-60947676D02*
X173404762Y-60852438D01*
X173404762Y-60852438D02*
X173547619Y-60804819D01*
X173547619Y-60804819D02*
X173642857Y-60804819D01*
X173642857Y-60804819D02*
X173785714Y-60852438D01*
X173785714Y-60852438D02*
X173833333Y-60900057D01*
X174404762Y-61233390D02*
X174309524Y-61185771D01*
X174309524Y-61185771D02*
X174261905Y-61138152D01*
X174261905Y-61138152D02*
X174214286Y-61042914D01*
X174214286Y-61042914D02*
X174214286Y-60995295D01*
X174214286Y-60995295D02*
X174261905Y-60900057D01*
X174261905Y-60900057D02*
X174309524Y-60852438D01*
X174309524Y-60852438D02*
X174404762Y-60804819D01*
X174404762Y-60804819D02*
X174595238Y-60804819D01*
X174595238Y-60804819D02*
X174690476Y-60852438D01*
X174690476Y-60852438D02*
X174738095Y-60900057D01*
X174738095Y-60900057D02*
X174785714Y-60995295D01*
X174785714Y-60995295D02*
X174785714Y-61042914D01*
X174785714Y-61042914D02*
X174738095Y-61138152D01*
X174738095Y-61138152D02*
X174690476Y-61185771D01*
X174690476Y-61185771D02*
X174595238Y-61233390D01*
X174595238Y-61233390D02*
X174404762Y-61233390D01*
X174404762Y-61233390D02*
X174309524Y-61281009D01*
X174309524Y-61281009D02*
X174261905Y-61328628D01*
X174261905Y-61328628D02*
X174214286Y-61423866D01*
X174214286Y-61423866D02*
X174214286Y-61614342D01*
X174214286Y-61614342D02*
X174261905Y-61709580D01*
X174261905Y-61709580D02*
X174309524Y-61757200D01*
X174309524Y-61757200D02*
X174404762Y-61804819D01*
X174404762Y-61804819D02*
X174595238Y-61804819D01*
X174595238Y-61804819D02*
X174690476Y-61757200D01*
X174690476Y-61757200D02*
X174738095Y-61709580D01*
X174738095Y-61709580D02*
X174785714Y-61614342D01*
X174785714Y-61614342D02*
X174785714Y-61423866D01*
X174785714Y-61423866D02*
X174738095Y-61328628D01*
X174738095Y-61328628D02*
X174690476Y-61281009D01*
X174690476Y-61281009D02*
X174595238Y-61233390D01*
X172083333Y-78109580D02*
X172035714Y-78157200D01*
X172035714Y-78157200D02*
X171892857Y-78204819D01*
X171892857Y-78204819D02*
X171797619Y-78204819D01*
X171797619Y-78204819D02*
X171654762Y-78157200D01*
X171654762Y-78157200D02*
X171559524Y-78061961D01*
X171559524Y-78061961D02*
X171511905Y-77966723D01*
X171511905Y-77966723D02*
X171464286Y-77776247D01*
X171464286Y-77776247D02*
X171464286Y-77633390D01*
X171464286Y-77633390D02*
X171511905Y-77442914D01*
X171511905Y-77442914D02*
X171559524Y-77347676D01*
X171559524Y-77347676D02*
X171654762Y-77252438D01*
X171654762Y-77252438D02*
X171797619Y-77204819D01*
X171797619Y-77204819D02*
X171892857Y-77204819D01*
X171892857Y-77204819D02*
X172035714Y-77252438D01*
X172035714Y-77252438D02*
X172083333Y-77300057D01*
X172416667Y-77204819D02*
X173083333Y-77204819D01*
X173083333Y-77204819D02*
X172654762Y-78204819D01*
X177283333Y-81959580D02*
X177235714Y-82007200D01*
X177235714Y-82007200D02*
X177092857Y-82054819D01*
X177092857Y-82054819D02*
X176997619Y-82054819D01*
X176997619Y-82054819D02*
X176854762Y-82007200D01*
X176854762Y-82007200D02*
X176759524Y-81911961D01*
X176759524Y-81911961D02*
X176711905Y-81816723D01*
X176711905Y-81816723D02*
X176664286Y-81626247D01*
X176664286Y-81626247D02*
X176664286Y-81483390D01*
X176664286Y-81483390D02*
X176711905Y-81292914D01*
X176711905Y-81292914D02*
X176759524Y-81197676D01*
X176759524Y-81197676D02*
X176854762Y-81102438D01*
X176854762Y-81102438D02*
X176997619Y-81054819D01*
X176997619Y-81054819D02*
X177092857Y-81054819D01*
X177092857Y-81054819D02*
X177235714Y-81102438D01*
X177235714Y-81102438D02*
X177283333Y-81150057D01*
X178188095Y-81054819D02*
X177711905Y-81054819D01*
X177711905Y-81054819D02*
X177664286Y-81531009D01*
X177664286Y-81531009D02*
X177711905Y-81483390D01*
X177711905Y-81483390D02*
X177807143Y-81435771D01*
X177807143Y-81435771D02*
X178045238Y-81435771D01*
X178045238Y-81435771D02*
X178140476Y-81483390D01*
X178140476Y-81483390D02*
X178188095Y-81531009D01*
X178188095Y-81531009D02*
X178235714Y-81626247D01*
X178235714Y-81626247D02*
X178235714Y-81864342D01*
X178235714Y-81864342D02*
X178188095Y-81959580D01*
X178188095Y-81959580D02*
X178140476Y-82007200D01*
X178140476Y-82007200D02*
X178045238Y-82054819D01*
X178045238Y-82054819D02*
X177807143Y-82054819D01*
X177807143Y-82054819D02*
X177711905Y-82007200D01*
X177711905Y-82007200D02*
X177664286Y-81959580D01*
X181283333Y-86454819D02*
X180950000Y-85978628D01*
X180711905Y-86454819D02*
X180711905Y-85454819D01*
X180711905Y-85454819D02*
X181092857Y-85454819D01*
X181092857Y-85454819D02*
X181188095Y-85502438D01*
X181188095Y-85502438D02*
X181235714Y-85550057D01*
X181235714Y-85550057D02*
X181283333Y-85645295D01*
X181283333Y-85645295D02*
X181283333Y-85788152D01*
X181283333Y-85788152D02*
X181235714Y-85883390D01*
X181235714Y-85883390D02*
X181188095Y-85931009D01*
X181188095Y-85931009D02*
X181092857Y-85978628D01*
X181092857Y-85978628D02*
X180711905Y-85978628D01*
X181664286Y-85550057D02*
X181711905Y-85502438D01*
X181711905Y-85502438D02*
X181807143Y-85454819D01*
X181807143Y-85454819D02*
X182045238Y-85454819D01*
X182045238Y-85454819D02*
X182140476Y-85502438D01*
X182140476Y-85502438D02*
X182188095Y-85550057D01*
X182188095Y-85550057D02*
X182235714Y-85645295D01*
X182235714Y-85645295D02*
X182235714Y-85740533D01*
X182235714Y-85740533D02*
X182188095Y-85883390D01*
X182188095Y-85883390D02*
X181616667Y-86454819D01*
X181616667Y-86454819D02*
X182235714Y-86454819D01*
X189857142Y-53384580D02*
X189809523Y-53432200D01*
X189809523Y-53432200D02*
X189666666Y-53479819D01*
X189666666Y-53479819D02*
X189571428Y-53479819D01*
X189571428Y-53479819D02*
X189428571Y-53432200D01*
X189428571Y-53432200D02*
X189333333Y-53336961D01*
X189333333Y-53336961D02*
X189285714Y-53241723D01*
X189285714Y-53241723D02*
X189238095Y-53051247D01*
X189238095Y-53051247D02*
X189238095Y-52908390D01*
X189238095Y-52908390D02*
X189285714Y-52717914D01*
X189285714Y-52717914D02*
X189333333Y-52622676D01*
X189333333Y-52622676D02*
X189428571Y-52527438D01*
X189428571Y-52527438D02*
X189571428Y-52479819D01*
X189571428Y-52479819D02*
X189666666Y-52479819D01*
X189666666Y-52479819D02*
X189809523Y-52527438D01*
X189809523Y-52527438D02*
X189857142Y-52575057D01*
X190809523Y-53479819D02*
X190238095Y-53479819D01*
X190523809Y-53479819D02*
X190523809Y-52479819D01*
X190523809Y-52479819D02*
X190428571Y-52622676D01*
X190428571Y-52622676D02*
X190333333Y-52717914D01*
X190333333Y-52717914D02*
X190238095Y-52765533D01*
X191714285Y-52479819D02*
X191238095Y-52479819D01*
X191238095Y-52479819D02*
X191190476Y-52956009D01*
X191190476Y-52956009D02*
X191238095Y-52908390D01*
X191238095Y-52908390D02*
X191333333Y-52860771D01*
X191333333Y-52860771D02*
X191571428Y-52860771D01*
X191571428Y-52860771D02*
X191666666Y-52908390D01*
X191666666Y-52908390D02*
X191714285Y-52956009D01*
X191714285Y-52956009D02*
X191761904Y-53051247D01*
X191761904Y-53051247D02*
X191761904Y-53289342D01*
X191761904Y-53289342D02*
X191714285Y-53384580D01*
X191714285Y-53384580D02*
X191666666Y-53432200D01*
X191666666Y-53432200D02*
X191571428Y-53479819D01*
X191571428Y-53479819D02*
X191333333Y-53479819D01*
X191333333Y-53479819D02*
X191238095Y-53432200D01*
X191238095Y-53432200D02*
X191190476Y-53384580D01*
X221933333Y-34059580D02*
X221885714Y-34107200D01*
X221885714Y-34107200D02*
X221742857Y-34154819D01*
X221742857Y-34154819D02*
X221647619Y-34154819D01*
X221647619Y-34154819D02*
X221504762Y-34107200D01*
X221504762Y-34107200D02*
X221409524Y-34011961D01*
X221409524Y-34011961D02*
X221361905Y-33916723D01*
X221361905Y-33916723D02*
X221314286Y-33726247D01*
X221314286Y-33726247D02*
X221314286Y-33583390D01*
X221314286Y-33583390D02*
X221361905Y-33392914D01*
X221361905Y-33392914D02*
X221409524Y-33297676D01*
X221409524Y-33297676D02*
X221504762Y-33202438D01*
X221504762Y-33202438D02*
X221647619Y-33154819D01*
X221647619Y-33154819D02*
X221742857Y-33154819D01*
X221742857Y-33154819D02*
X221885714Y-33202438D01*
X221885714Y-33202438D02*
X221933333Y-33250057D01*
X222314286Y-33250057D02*
X222361905Y-33202438D01*
X222361905Y-33202438D02*
X222457143Y-33154819D01*
X222457143Y-33154819D02*
X222695238Y-33154819D01*
X222695238Y-33154819D02*
X222790476Y-33202438D01*
X222790476Y-33202438D02*
X222838095Y-33250057D01*
X222838095Y-33250057D02*
X222885714Y-33345295D01*
X222885714Y-33345295D02*
X222885714Y-33440533D01*
X222885714Y-33440533D02*
X222838095Y-33583390D01*
X222838095Y-33583390D02*
X222266667Y-34154819D01*
X222266667Y-34154819D02*
X222885714Y-34154819D01*
X172071666Y-55704819D02*
X172071666Y-56419104D01*
X172071666Y-56419104D02*
X172024047Y-56561961D01*
X172024047Y-56561961D02*
X171928809Y-56657200D01*
X171928809Y-56657200D02*
X171785952Y-56704819D01*
X171785952Y-56704819D02*
X171690714Y-56704819D01*
X172500238Y-55800057D02*
X172547857Y-55752438D01*
X172547857Y-55752438D02*
X172643095Y-55704819D01*
X172643095Y-55704819D02*
X172881190Y-55704819D01*
X172881190Y-55704819D02*
X172976428Y-55752438D01*
X172976428Y-55752438D02*
X173024047Y-55800057D01*
X173024047Y-55800057D02*
X173071666Y-55895295D01*
X173071666Y-55895295D02*
X173071666Y-55990533D01*
X173071666Y-55990533D02*
X173024047Y-56133390D01*
X173024047Y-56133390D02*
X172452619Y-56704819D01*
X172452619Y-56704819D02*
X173071666Y-56704819D01*
D11*
%TO.C,U1*%
X159081250Y-46120000D02*
X159081250Y-26880000D01*
X159081250Y-46120000D02*
X209621250Y-46120000D01*
X177001250Y-46500000D02*
X179001250Y-46500000D01*
X209621250Y-26880000D02*
X159081250Y-26880000D01*
X209621250Y-46120000D02*
X209621250Y-26880000D01*
%TO.C,D1*%
X177315000Y-88062500D02*
X177315000Y-90347500D01*
X177315000Y-90347500D02*
X178785000Y-90347500D01*
X178785000Y-90347500D02*
X178785000Y-88062500D01*
%TO.C,J4*%
X163770000Y-52860000D02*
X165150000Y-52860000D01*
X163770000Y-54240000D02*
X163770000Y-52860000D01*
X163770000Y-55510000D02*
X163770000Y-91180000D01*
X163770000Y-55510000D02*
X166530000Y-55510000D01*
X163770000Y-91180000D02*
X166530000Y-91180000D01*
X166530000Y-55510000D02*
X166530000Y-91180000D01*
%TO.C,C9*%
X178290580Y-63890000D02*
X178009420Y-63890000D01*
X178290580Y-64910000D02*
X178009420Y-64910000D01*
%TO.C,R1*%
X189027500Y-70782742D02*
X189027500Y-71257258D01*
X190072500Y-70782742D02*
X190072500Y-71257258D01*
%TO.C,L1*%
X172339758Y-81590000D02*
X174010242Y-81590000D01*
X172339758Y-83410000D02*
X174010242Y-83410000D01*
%TO.C,J3*%
X192770000Y-52720000D02*
X194150000Y-52720000D01*
X192770000Y-54100000D02*
X192770000Y-52720000D01*
X192770000Y-55370000D02*
X192770000Y-91040000D01*
X192770000Y-55370000D02*
X195530000Y-55370000D01*
X192770000Y-91040000D02*
X195530000Y-91040000D01*
X195530000Y-55370000D02*
X195530000Y-91040000D01*
%TO.C,U2*%
X174090000Y-69102500D02*
X174365000Y-69102500D01*
X174090000Y-69377500D02*
X174090000Y-69102500D01*
X174090000Y-76322500D02*
X174090000Y-76047500D01*
X174365000Y-76322500D02*
X174090000Y-76322500D01*
X181035000Y-69102500D02*
X181310000Y-69102500D01*
X181310000Y-69102500D02*
X181310000Y-69377500D01*
X181310000Y-76047500D02*
X181310000Y-76322500D01*
X181310000Y-76322500D02*
X181035000Y-76322500D01*
X181510000Y-68802500D02*
X181040000Y-68462500D01*
X181510000Y-68122500D01*
X181510000Y-68802500D01*
G36*
X181510000Y-68802500D02*
G01*
X181040000Y-68462500D01*
X181510000Y-68122500D01*
X181510000Y-68802500D01*
G37*
%TO.C,C8*%
X175989420Y-62330000D02*
X176270580Y-62330000D01*
X175989420Y-63350000D02*
X176270580Y-63350000D01*
%TO.C,C7*%
X173365580Y-78740000D02*
X173084420Y-78740000D01*
X173365580Y-79760000D02*
X173084420Y-79760000D01*
%TO.C,C5*%
X177834420Y-79690000D02*
X178115580Y-79690000D01*
X177834420Y-80710000D02*
X178115580Y-80710000D01*
%TO.C,R2*%
X180927500Y-87962742D02*
X180927500Y-88437258D01*
X181972500Y-87962742D02*
X181972500Y-88437258D01*
%TO.C,C15*%
X190740000Y-55109420D02*
X190740000Y-55390580D01*
X191760000Y-55109420D02*
X191760000Y-55390580D01*
%TO.C,C2*%
X223034420Y-34590000D02*
X223315580Y-34590000D01*
X223034420Y-35610000D02*
X223315580Y-35610000D01*
%TO.C,J2*%
X170640000Y-57490000D02*
X170640000Y-60250000D01*
X175830000Y-57490000D02*
X170640000Y-57490000D01*
X175830000Y-57490000D02*
X175830000Y-60250000D01*
X175830000Y-60250000D02*
X170640000Y-60250000D01*
X177100000Y-57490000D02*
X178480000Y-57490000D01*
X178480000Y-57490000D02*
X178480000Y-58870000D01*
%TD*%
M02*
