%TF.GenerationSoftware,KiCad,Pcbnew,9.0.6*%
%TF.CreationDate,2026-03-06T19:06:09+01:00*%
%TF.ProjectId,nowyprojekt,6e6f7779-7072-46f6-9a65-6b742e6b6963,rev?*%
%TF.SameCoordinates,Original*%
%TF.FileFunction,Paste,Bot*%
%TF.FilePolarity,Positive*%
%FSLAX46Y46*%
G04 Gerber Fmt 4.6, Leading zero omitted, Abs format (unit mm)*
G04 Created by KiCad (PCBNEW 9.0.6) date 2026-03-06 19:06:09*
%MOMM*%
%LPD*%
G01*
G04 APERTURE LIST*
G04 Aperture macros list*
%AMRoundRect*
0 Rectangle with rounded corners*
0 $1 Rounding radius*
0 $2 $3 $4 $5 $6 $7 $8 $9 X,Y pos of 4 corners*
0 Add a 4 corners polygon primitive as box body*
4,1,4,$2,$3,$4,$5,$6,$7,$8,$9,$2,$3,0*
0 Add four circle primitives for the rounded corners*
1,1,$1+$1,$2,$3*
1,1,$1+$1,$4,$5*
1,1,$1+$1,$6,$7*
1,1,$1+$1,$8,$9*
0 Add four rect primitives between the rounded corners*
20,1,$1+$1,$2,$3,$4,$5,0*
20,1,$1+$1,$4,$5,$6,$7,0*
20,1,$1+$1,$6,$7,$8,$9,0*
20,1,$1+$1,$8,$9,$2,$3,0*%
G04 Aperture macros list end*
%ADD10RoundRect,0.200000X0.200000X0.275000X-0.200000X0.275000X-0.200000X-0.275000X0.200000X-0.275000X0*%
%ADD11RoundRect,0.225000X-0.225000X-0.250000X0.225000X-0.250000X0.225000X0.250000X-0.225000X0.250000X0*%
%ADD12RoundRect,0.150000X0.150000X-0.587500X0.150000X0.587500X-0.150000X0.587500X-0.150000X-0.587500X0*%
%ADD13RoundRect,0.225000X0.225000X0.250000X-0.225000X0.250000X-0.225000X-0.250000X0.225000X-0.250000X0*%
%ADD14RoundRect,0.250000X-1.750000X-1.000000X1.750000X-1.000000X1.750000X1.000000X-1.750000X1.000000X0*%
%ADD15RoundRect,0.200000X0.275000X-0.200000X0.275000X0.200000X-0.275000X0.200000X-0.275000X-0.200000X0*%
%ADD16RoundRect,0.375000X0.375000X-0.625000X0.375000X0.625000X-0.375000X0.625000X-0.375000X-0.625000X0*%
%ADD17RoundRect,0.500000X1.400000X-0.500000X1.400000X0.500000X-1.400000X0.500000X-1.400000X-0.500000X0*%
%ADD18RoundRect,0.150000X-0.587500X-0.150000X0.587500X-0.150000X0.587500X0.150000X-0.587500X0.150000X0*%
%ADD19RoundRect,0.225000X-0.250000X0.225000X-0.250000X-0.225000X0.250000X-0.225000X0.250000X0.225000X0*%
%ADD20RoundRect,0.200000X-0.275000X0.200000X-0.275000X-0.200000X0.275000X-0.200000X0.275000X0.200000X0*%
%ADD21RoundRect,0.250000X1.000000X-1.750000X1.000000X1.750000X-1.000000X1.750000X-1.000000X-1.750000X0*%
G04 APERTURE END LIST*
D10*
%TO.C,R14*%
X195400000Y-44750000D03*
X193750000Y-44750000D03*
%TD*%
D11*
%TO.C,C14*%
X195850000Y-37800000D03*
X197400000Y-37800000D03*
%TD*%
D12*
%TO.C,Q3*%
X196500000Y-31152500D03*
X194600000Y-31152500D03*
X195550000Y-29277500D03*
%TD*%
D11*
%TO.C,C12*%
X170025000Y-41800000D03*
X171575000Y-41800000D03*
%TD*%
D13*
%TO.C,C11*%
X162600000Y-39400000D03*
X161050000Y-39400000D03*
%TD*%
D14*
%TO.C,C3*%
X222400000Y-42100000D03*
X228500000Y-42100000D03*
%TD*%
D12*
%TO.C,Q1*%
X172220000Y-38427500D03*
X170320000Y-38427500D03*
X171270000Y-36552500D03*
%TD*%
%TO.C,Q2*%
X164706250Y-35475000D03*
X162806250Y-35475000D03*
X163756250Y-33600000D03*
%TD*%
D15*
%TO.C,R4*%
X189200000Y-36650000D03*
X189200000Y-35000000D03*
%TD*%
D13*
%TO.C,C10*%
X177250000Y-65000000D03*
X175700000Y-65000000D03*
%TD*%
D16*
%TO.C,U3*%
X224300000Y-33650000D03*
X222000000Y-33650000D03*
D17*
X222000000Y-27350000D03*
D16*
X219700000Y-33650000D03*
%TD*%
D18*
%TO.C,Q4*%
X196098750Y-42400000D03*
X196098750Y-40500000D03*
X197973750Y-41450000D03*
%TD*%
D10*
%TO.C,R13*%
X196650000Y-34000000D03*
X195000000Y-34000000D03*
%TD*%
D15*
%TO.C,R8*%
X184400000Y-36450000D03*
X184400000Y-34800000D03*
%TD*%
%TO.C,R3*%
X180300000Y-36425000D03*
X180300000Y-34775000D03*
%TD*%
D19*
%TO.C,C13*%
X192000000Y-31200000D03*
X192000000Y-32750000D03*
%TD*%
D11*
%TO.C,C6*%
X178750000Y-64900000D03*
X180300000Y-64900000D03*
%TD*%
D20*
%TO.C,R12*%
X166600000Y-37800000D03*
X166600000Y-39450000D03*
%TD*%
D15*
%TO.C,R7*%
X175000000Y-50575000D03*
X175000000Y-48925000D03*
%TD*%
%TO.C,R5*%
X185250000Y-50575000D03*
X185250000Y-48925000D03*
%TD*%
%TO.C,R10*%
X182000000Y-50575000D03*
X182000000Y-48925000D03*
%TD*%
%TO.C,R9*%
X188200000Y-50575000D03*
X188200000Y-48925000D03*
%TD*%
D19*
%TO.C,C1*%
X220000000Y-36625000D03*
X220000000Y-38175000D03*
%TD*%
D21*
%TO.C,C4*%
X212900000Y-41932500D03*
X212900000Y-35832500D03*
%TD*%
D20*
%TO.C,R11*%
X174280000Y-39100000D03*
X174280000Y-40750000D03*
%TD*%
D15*
%TO.C,R6*%
X177750000Y-50575000D03*
X177750000Y-48925000D03*
%TD*%
M02*
