%TF.GenerationSoftware,KiCad,Pcbnew,9.0.6*%
%TF.CreationDate,2026-03-06T19:06:09+01:00*%
%TF.ProjectId,nowyprojekt,6e6f7779-7072-46f6-9a65-6b742e6b6963,rev?*%
%TF.SameCoordinates,Original*%
%TF.FileFunction,Copper,L1,Top*%
%TF.FilePolarity,Positive*%
%FSLAX46Y46*%
G04 Gerber Fmt 4.6, Leading zero omitted, Abs format (unit mm)*
G04 Created by KiCad (PCBNEW 9.0.6) date 2026-03-06 19:06:09*
%MOMM*%
%LPD*%
G01*
G04 APERTURE LIST*
G04 Aperture macros list*
%AMRoundRect*
0 Rectangle with rounded corners*
0 $1 Rounding radius*
0 $2 $3 $4 $5 $6 $7 $8 $9 X,Y pos of 4 corners*
0 Add a 4 corners polygon primitive as box body*
4,1,4,$2,$3,$4,$5,$6,$7,$8,$9,$2,$3,0*
0 Add four circle primitives for the rounded corners*
1,1,$1+$1,$2,$3*
1,1,$1+$1,$4,$5*
1,1,$1+$1,$6,$7*
1,1,$1+$1,$8,$9*
0 Add four rect primitives between the rounded corners*
20,1,$1+$1,$2,$3,$4,$5,0*
20,1,$1+$1,$4,$5,$6,$7,0*
20,1,$1+$1,$6,$7,$8,$9,0*
20,1,$1+$1,$8,$9,$2,$3,0*%
G04 Aperture macros list end*
%TA.AperFunction,ComponentPad*%
%ADD10R,1.500000X1.500000*%
%TD*%
%TA.AperFunction,ComponentPad*%
%ADD11C,1.500000*%
%TD*%
%TA.AperFunction,SMDPad,CuDef*%
%ADD12RoundRect,0.218750X0.256250X-0.218750X0.256250X0.218750X-0.256250X0.218750X-0.256250X-0.218750X0*%
%TD*%
%TA.AperFunction,ComponentPad*%
%ADD13R,1.700000X1.700000*%
%TD*%
%TA.AperFunction,ComponentPad*%
%ADD14C,1.700000*%
%TD*%
%TA.AperFunction,SMDPad,CuDef*%
%ADD15RoundRect,0.225000X0.225000X0.250000X-0.225000X0.250000X-0.225000X-0.250000X0.225000X-0.250000X0*%
%TD*%
%TA.AperFunction,SMDPad,CuDef*%
%ADD16RoundRect,0.200000X-0.275000X0.200000X-0.275000X-0.200000X0.275000X-0.200000X0.275000X0.200000X0*%
%TD*%
%TA.AperFunction,SMDPad,CuDef*%
%ADD17RoundRect,0.250000X-0.275000X-0.700000X0.275000X-0.700000X0.275000X0.700000X-0.275000X0.700000X0*%
%TD*%
%TA.AperFunction,SMDPad,CuDef*%
%ADD18RoundRect,0.137500X-0.137500X0.600000X-0.137500X-0.600000X0.137500X-0.600000X0.137500X0.600000X0*%
%TD*%
%TA.AperFunction,SMDPad,CuDef*%
%ADD19RoundRect,0.137500X-0.600000X0.137500X-0.600000X-0.137500X0.600000X-0.137500X0.600000X0.137500X0*%
%TD*%
%TA.AperFunction,SMDPad,CuDef*%
%ADD20RoundRect,0.225000X-0.225000X-0.250000X0.225000X-0.250000X0.225000X0.250000X-0.225000X0.250000X0*%
%TD*%
%TA.AperFunction,SMDPad,CuDef*%
%ADD21RoundRect,0.225000X-0.250000X0.225000X-0.250000X-0.225000X0.250000X-0.225000X0.250000X0.225000X0*%
%TD*%
%TA.AperFunction,ViaPad*%
%ADD22C,0.600000*%
%TD*%
%TA.AperFunction,Conductor*%
%ADD23C,0.200000*%
%TD*%
%TA.AperFunction,Conductor*%
%ADD24C,0.400000*%
%TD*%
%TA.AperFunction,Conductor*%
%ADD25C,0.800000*%
%TD*%
%TA.AperFunction,Conductor*%
%ADD26C,0.300000*%
%TD*%
%TA.AperFunction,Conductor*%
%ADD27C,0.350000*%
%TD*%
G04 APERTURE END LIST*
D10*
%TO.P,U1,1,e*%
%TO.N,Net-(U1-e)*%
X178001250Y-44120000D03*
D11*
%TO.P,U1,2,d*%
%TO.N,Net-(U1-d)*%
X180541250Y-44120000D03*
%TO.P,U1,3,DPX*%
%TO.N,Net-(U1-DPX)*%
X183081250Y-44120000D03*
%TO.P,U1,4,c*%
%TO.N,Net-(U1-c)*%
X185621250Y-44120000D03*
%TO.P,U1,5,g*%
%TO.N,Net-(U1-g)*%
X188161250Y-44120000D03*
%TO.P,U1,6,CA4*%
%TO.N,Net-(Q4-C)*%
X190701250Y-44120000D03*
%TO.P,U1,7,b*%
%TO.N,Net-(U1-b)*%
X190701250Y-28880000D03*
%TO.P,U1,8,CA3*%
%TO.N,Net-(Q3-C)*%
X188161250Y-28880000D03*
%TO.P,U1,9,CA2*%
%TO.N,Net-(Q2-C)*%
X185621250Y-28880000D03*
%TO.P,U1,10,f*%
%TO.N,Net-(U1-f)*%
X183081250Y-28880000D03*
%TO.P,U1,11,a*%
%TO.N,Net-(U1-a)*%
X180541250Y-28880000D03*
%TO.P,U1,12,CA1*%
%TO.N,Net-(Q1-C)*%
X178001250Y-28880000D03*
%TD*%
D12*
%TO.P,D1,1,K*%
%TO.N,GND*%
X178050000Y-89650000D03*
%TO.P,D1,2,A*%
%TO.N,Net-(D1-A)*%
X178050000Y-88075000D03*
%TD*%
D13*
%TO.P,J4,1,Pin_1*%
%TO.N,GND*%
X165150000Y-54240000D03*
D14*
%TO.P,J4,2,Pin_2*%
X165150000Y-56780000D03*
%TO.P,J4,3,Pin_3*%
X165150000Y-59320000D03*
%TO.P,J4,4,Pin_4*%
X165150000Y-61860000D03*
%TO.P,J4,5,Pin_5*%
%TO.N,PD5*%
X165150000Y-64400000D03*
%TO.P,J4,6,Pin_6*%
%TO.N,PD6*%
X165150000Y-66940000D03*
%TO.P,J4,7,Pin_7*%
%TO.N,PD7*%
X165150000Y-69480000D03*
%TO.P,J4,8,Pin_8*%
%TO.N,+5V*%
X165150000Y-72020000D03*
%TO.P,J4,9,Pin_9*%
%TO.N,PB0*%
X165150000Y-74560000D03*
%TO.P,J4,10,Pin_10*%
%TO.N,PB1*%
X165150000Y-77100000D03*
%TO.P,J4,11,Pin_11*%
%TO.N,PB2*%
X165150000Y-79640000D03*
%TO.P,J4,12,Pin_12*%
%TO.N,PB3*%
X165150000Y-82180000D03*
%TO.P,J4,13,Pin_13*%
%TO.N,PB4*%
X165150000Y-84720000D03*
%TO.P,J4,14,Pin_14*%
%TO.N,PB5*%
X165150000Y-87260000D03*
%TO.P,J4,15,Pin_15*%
%TO.N,ADC1*%
X165150000Y-89800000D03*
%TD*%
D15*
%TO.P,C9,1*%
%TO.N,GND*%
X178925000Y-64400000D03*
%TO.P,C9,2*%
%TO.N,Net-(J2-Pin_1)*%
X177375000Y-64400000D03*
%TD*%
D16*
%TO.P,R1,1*%
%TO.N,+5V*%
X189550000Y-70195000D03*
%TO.P,R1,2*%
%TO.N,PC6*%
X189550000Y-71845000D03*
%TD*%
D17*
%TO.P,L1,1,1*%
%TO.N,+5V*%
X171600000Y-82500000D03*
%TO.P,L1,2,2*%
%TO.N,Net-(U2-AVCC)*%
X174750000Y-82500000D03*
%TD*%
D13*
%TO.P,J3,1,Pin_1*%
%TO.N,+5V*%
X194150000Y-54100000D03*
D14*
%TO.P,J3,2,Pin_2*%
%TO.N,GND*%
X194150000Y-56640000D03*
%TO.P,J3,3,Pin_3*%
%TO.N,PD4*%
X194150000Y-59180000D03*
%TO.P,J3,4,Pin_4*%
%TO.N,PD3*%
X194150000Y-61720000D03*
%TO.P,J3,5,Pin_5*%
%TO.N,PD2*%
X194150000Y-64260000D03*
%TO.P,J3,6,Pin_6*%
%TO.N,PD1*%
X194150000Y-66800000D03*
%TO.P,J3,7,Pin_7*%
%TO.N,PD0*%
X194150000Y-69340000D03*
%TO.P,J3,8,Pin_8*%
%TO.N,PC6*%
X194150000Y-71880000D03*
%TO.P,J3,9,Pin_9*%
%TO.N,PC5*%
X194150000Y-74420000D03*
%TO.P,J3,10,Pin_10*%
%TO.N,PC4*%
X194150000Y-76960000D03*
%TO.P,J3,11,Pin_11*%
%TO.N,PC3*%
X194150000Y-79500000D03*
%TO.P,J3,12,Pin_12*%
%TO.N,PC2*%
X194150000Y-82040000D03*
%TO.P,J3,13,Pin_13*%
%TO.N,PC1*%
X194150000Y-84580000D03*
%TO.P,J3,14,Pin_14*%
%TO.N,PC0*%
X194150000Y-87120000D03*
%TO.P,J3,15,Pin_15*%
%TO.N,ADC2*%
X194150000Y-89660000D03*
%TD*%
D18*
%TO.P,U2,1,PD3*%
%TO.N,PD3*%
X180500000Y-68550000D03*
%TO.P,U2,2,PD4*%
%TO.N,PD4*%
X179700000Y-68550000D03*
%TO.P,U2,3,GND*%
%TO.N,GND*%
X178900000Y-68550000D03*
%TO.P,U2,4,VCC*%
%TO.N,+5V*%
X178100000Y-68550000D03*
%TO.P,U2,5,GND*%
%TO.N,GND*%
X177300000Y-68550000D03*
%TO.P,U2,6,VCC*%
%TO.N,+5V*%
X176500000Y-68550000D03*
%TO.P,U2,7,XTAL1/PB6*%
%TO.N,Net-(J2-Pin_1)*%
X175700000Y-68550000D03*
%TO.P,U2,8,XTAL2/PB7*%
%TO.N,Net-(J2-Pin_3)*%
X174900000Y-68550000D03*
D19*
%TO.P,U2,9,PD5*%
%TO.N,PD5*%
X173537500Y-69912500D03*
%TO.P,U2,10,PD6*%
%TO.N,PD6*%
X173537500Y-70712500D03*
%TO.P,U2,11,PD7*%
%TO.N,PD7*%
X173537500Y-71512500D03*
%TO.P,U2,12,PB0*%
%TO.N,PB0*%
X173537500Y-72312500D03*
%TO.P,U2,13,PB1*%
%TO.N,PB1*%
X173537500Y-73112500D03*
%TO.P,U2,14,PB2*%
%TO.N,PB2*%
X173537500Y-73912500D03*
%TO.P,U2,15,PB3*%
%TO.N,PB3*%
X173537500Y-74712500D03*
%TO.P,U2,16,PB4*%
%TO.N,PB4*%
X173537500Y-75512500D03*
D18*
%TO.P,U2,17,PB5*%
%TO.N,PB5*%
X174900000Y-76875000D03*
%TO.P,U2,18,AVCC*%
%TO.N,Net-(U2-AVCC)*%
X175700000Y-76875000D03*
%TO.P,U2,19,ADC6*%
%TO.N,ADC1*%
X176500000Y-76875000D03*
%TO.P,U2,20,AREF*%
%TO.N,Net-(U2-AREF)*%
X177300000Y-76875000D03*
%TO.P,U2,21,GND*%
%TO.N,GND*%
X178100000Y-76875000D03*
%TO.P,U2,22,ADC7*%
%TO.N,ADC2*%
X178900000Y-76875000D03*
%TO.P,U2,23,PC0*%
%TO.N,PC0*%
X179700000Y-76875000D03*
%TO.P,U2,24,PC1*%
%TO.N,PC1*%
X180500000Y-76875000D03*
D19*
%TO.P,U2,25,PC2*%
%TO.N,PC2*%
X181862500Y-75512500D03*
%TO.P,U2,26,PC3*%
%TO.N,PC3*%
X181862500Y-74712500D03*
%TO.P,U2,27,PC4*%
%TO.N,PC4*%
X181862500Y-73912500D03*
%TO.P,U2,28,PC5*%
%TO.N,PC5*%
X181862500Y-73112500D03*
%TO.P,U2,29,~{RESET}/PC6*%
%TO.N,PC6*%
X181862500Y-72312500D03*
%TO.P,U2,30,PD0*%
%TO.N,PD0*%
X181862500Y-71512500D03*
%TO.P,U2,31,PD1*%
%TO.N,PD1*%
X181862500Y-70712500D03*
%TO.P,U2,32,PD2*%
%TO.N,PD2*%
X181862500Y-69912500D03*
%TD*%
D20*
%TO.P,C8,1*%
%TO.N,Net-(J2-Pin_3)*%
X175355000Y-62840000D03*
%TO.P,C8,2*%
%TO.N,GND*%
X176905000Y-62840000D03*
%TD*%
D15*
%TO.P,C7,1*%
%TO.N,Net-(U2-AVCC)*%
X174000000Y-79250000D03*
%TO.P,C7,2*%
%TO.N,GND*%
X172450000Y-79250000D03*
%TD*%
D20*
%TO.P,C5,1*%
%TO.N,Net-(U2-AREF)*%
X177200000Y-80200000D03*
%TO.P,C5,2*%
%TO.N,GND*%
X178750000Y-80200000D03*
%TD*%
D16*
%TO.P,R2,1*%
%TO.N,Net-(D1-A)*%
X181450000Y-87375000D03*
%TO.P,R2,2*%
%TO.N,+5V*%
X181450000Y-89025000D03*
%TD*%
D21*
%TO.P,C15,1*%
%TO.N,+5V*%
X191250000Y-54475000D03*
%TO.P,C15,2*%
%TO.N,GND*%
X191250000Y-56025000D03*
%TD*%
D20*
%TO.P,C2,1*%
%TO.N,+5V*%
X222400000Y-35100000D03*
%TO.P,C2,2*%
%TO.N,GND*%
X223950000Y-35100000D03*
%TD*%
D13*
%TO.P,J2,1,Pin_1*%
%TO.N,Net-(J2-Pin_1)*%
X177100000Y-58870000D03*
D14*
%TO.P,J2,2,Pin_2*%
%TO.N,unconnected-(J2-Pin_2-Pad2)*%
X174560000Y-58870000D03*
%TO.P,J2,3,Pin_3*%
%TO.N,Net-(J2-Pin_3)*%
X172020000Y-58870000D03*
%TD*%
D13*
%TO.P,J1,1,Pin_1*%
%TO.N,VIN*%
X212450000Y-27675000D03*
D14*
%TO.P,J1,2,Pin_2*%
%TO.N,GND*%
X212450000Y-30215000D03*
%TD*%
D22*
%TO.N,+5V*%
X170200000Y-39800000D03*
X176000000Y-66000000D03*
X193200000Y-31000000D03*
X162800000Y-37400000D03*
X176500000Y-66500000D03*
X221500000Y-37800000D03*
X170000000Y-40600000D03*
X162800000Y-38400000D03*
X196356239Y-39465642D03*
X192250000Y-54525000D03*
X178100000Y-67200000D03*
X222400000Y-37000000D03*
X171600000Y-80900000D03*
X190600000Y-70200000D03*
X193600000Y-31800000D03*
X221500000Y-36500000D03*
X182600000Y-89025000D03*
X195600000Y-39000000D03*
X178720229Y-66490545D03*
%TO.N,GND*%
X196800000Y-38800000D03*
X225100000Y-36600000D03*
X172400000Y-80600000D03*
X192250000Y-56025000D03*
X177305000Y-66840000D03*
X178200000Y-78500000D03*
X171000000Y-40600000D03*
X179905000Y-66240000D03*
X225400000Y-37800000D03*
X161600000Y-38400000D03*
X178450000Y-79200000D03*
X178000000Y-91200000D03*
X212650000Y-32850000D03*
X178750000Y-63250000D03*
X179482702Y-66732702D03*
X177250000Y-66000000D03*
X178000000Y-62750000D03*
X224000000Y-37000000D03*
X193000000Y-32400000D03*
X218400000Y-37600000D03*
%TO.N,PD0*%
X186005707Y-68765707D03*
%TO.N,PD6*%
X179650000Y-70660000D03*
%TO.N,PB1*%
X172100000Y-73090000D03*
%TO.N,PD2*%
X185855000Y-65215000D03*
%TO.N,PD1*%
X186550000Y-67210000D03*
%TO.N,PB4*%
X179400000Y-73160000D03*
%TO.N,PD3*%
X184530000Y-64490000D03*
%TO.N,PD7*%
X182000000Y-53000000D03*
X171850000Y-71490000D03*
X180250000Y-60410000D03*
%TO.N,PD4*%
X183300000Y-63850000D03*
%TO.N,PB2*%
X170750000Y-73890000D03*
%TO.N,PD5*%
X183500000Y-47800000D03*
X173650000Y-66010000D03*
X182650000Y-60010000D03*
%TO.N,PB3*%
X176692154Y-72160000D03*
%TD*%
D23*
%TO.N,+5V*%
X192200000Y-54475000D02*
X192250000Y-54525000D01*
D24*
X191250000Y-54475000D02*
X192200000Y-54475000D01*
X178100000Y-68550000D02*
X178100000Y-67200000D01*
D25*
X222400000Y-35100000D02*
X222400000Y-37000000D01*
D23*
X181450000Y-89025000D02*
X182525000Y-89025000D01*
D24*
X171600000Y-82500000D02*
X171600000Y-80900000D01*
D23*
X193900000Y-54100000D02*
X193800000Y-54200000D01*
D26*
X189550000Y-70195000D02*
X190595000Y-70195000D01*
D24*
X176492500Y-68527500D02*
X176492500Y-67027500D01*
D23*
X194200000Y-54150000D02*
X194150000Y-54100000D01*
D24*
X176492500Y-67027500D02*
X176492500Y-66507500D01*
D23*
X190595000Y-70195000D02*
X190600000Y-70200000D01*
D24*
X176492500Y-66507500D02*
X176500000Y-66500000D01*
X176505000Y-68515000D02*
X176492500Y-68527500D01*
%TO.N,GND*%
X172450000Y-79250000D02*
X172450000Y-80250000D01*
D23*
X178050000Y-89800000D02*
X178050000Y-91200000D01*
D24*
X178092500Y-78027500D02*
X178092500Y-78392500D01*
X177910000Y-62840000D02*
X178000000Y-62750000D01*
X172450000Y-80250000D02*
X172450000Y-80550000D01*
D23*
X223950000Y-36950000D02*
X224000000Y-37000000D01*
D24*
X178092500Y-76852500D02*
X178092500Y-78027500D01*
X177292500Y-68527500D02*
X177292500Y-66852500D01*
D23*
X178900000Y-67315404D02*
X178962904Y-67252500D01*
D25*
X223950000Y-35100000D02*
X223950000Y-36950000D01*
D24*
X177292500Y-66852500D02*
X177305000Y-66840000D01*
X178925000Y-64400000D02*
X178925000Y-63425000D01*
X178962904Y-67252500D02*
X179482702Y-66732702D01*
X178925000Y-63425000D02*
X178750000Y-63250000D01*
X172450000Y-80550000D02*
X172400000Y-80600000D01*
X178900000Y-68550000D02*
X178900000Y-67315404D01*
D23*
X178050000Y-91200000D02*
X178050000Y-91350000D01*
D24*
X177550000Y-62840000D02*
X176905000Y-62840000D01*
X191250000Y-56025000D02*
X192250000Y-56025000D01*
X177550000Y-62840000D02*
X177910000Y-62840000D01*
X178750000Y-79500000D02*
X178450000Y-79200000D01*
X178092500Y-78392500D02*
X178200000Y-78500000D01*
X178750000Y-80200000D02*
X178750000Y-79500000D01*
%TO.N,Net-(U2-AVCC)*%
X174750000Y-80950000D02*
X174000000Y-80200000D01*
X174750000Y-82500000D02*
X174750000Y-80950000D01*
X174000000Y-80200000D02*
X174000000Y-79250000D01*
X174930000Y-79040000D02*
X175692500Y-78277500D01*
X174930000Y-79040000D02*
X173930000Y-79040000D01*
X175692500Y-78277500D02*
X175692500Y-76852500D01*
%TO.N,Net-(U2-AREF)*%
X177300000Y-78900000D02*
X177200000Y-79000000D01*
X177300000Y-76875000D02*
X177300000Y-78900000D01*
X177200000Y-79000000D02*
X177200000Y-80200000D01*
D26*
%TO.N,PC6*%
X184380000Y-72290000D02*
X184825000Y-71845000D01*
X181855000Y-72290000D02*
X184380000Y-72290000D01*
D23*
X189585000Y-71880000D02*
X189550000Y-71845000D01*
D26*
X194150000Y-71880000D02*
X189585000Y-71880000D01*
X189550000Y-71845000D02*
X184825000Y-71845000D01*
%TO.N,PB5*%
X171317500Y-76852500D02*
X174892500Y-76852500D01*
X169550000Y-84820000D02*
X167110000Y-87260000D01*
X167110000Y-87260000D02*
X165150000Y-87260000D01*
X169550000Y-84820000D02*
X169550000Y-78620000D01*
X169550000Y-78620000D02*
X171317500Y-76852500D01*
D27*
%TO.N,PD0*%
X181855000Y-71490000D02*
X183281414Y-71490000D01*
D26*
X192070000Y-69340000D02*
X191350000Y-68620000D01*
X191350000Y-68620000D02*
X186150000Y-68620000D01*
X194150000Y-69340000D02*
X192070000Y-69340000D01*
D27*
X183281414Y-71490000D02*
X186005707Y-68765707D01*
D26*
%TO.N,PD6*%
X175900000Y-71410000D02*
X175180000Y-70690000D01*
X167820000Y-69610000D02*
X165150000Y-66940000D01*
X175180000Y-70690000D02*
X173530000Y-70690000D01*
X170300000Y-69610000D02*
X171380000Y-70690000D01*
X170300000Y-69610000D02*
X167820000Y-69610000D01*
X179650000Y-70660000D02*
X178900000Y-71410000D01*
X178900000Y-71410000D02*
X175900000Y-71410000D01*
X171380000Y-70690000D02*
X173530000Y-70690000D01*
%TO.N,PB1*%
X169160000Y-73090000D02*
X171050000Y-73090000D01*
D27*
X171700000Y-73090000D02*
X171050000Y-73090000D01*
X173530000Y-73090000D02*
X172100000Y-73090000D01*
X172100000Y-73090000D02*
X172000000Y-73090000D01*
D26*
X169160000Y-73090000D02*
X165150000Y-77100000D01*
D27*
X172100000Y-73090000D02*
X171700000Y-73090000D01*
D26*
%TO.N,PC3*%
X181855000Y-74690000D02*
X183620000Y-74690000D01*
X194150000Y-79500000D02*
X188430000Y-79500000D01*
X183620000Y-74690000D02*
X188430000Y-79500000D01*
%TO.N,PC4*%
X194150000Y-76960000D02*
X192090000Y-76960000D01*
X192090000Y-76960000D02*
X189770000Y-74640000D01*
X183780000Y-73890000D02*
X181855000Y-73890000D01*
X184530000Y-74640000D02*
X183780000Y-73890000D01*
X189770000Y-74640000D02*
X184530000Y-74640000D01*
%TO.N,PD2*%
X185855000Y-65115000D02*
X186710000Y-64260000D01*
D27*
X185755000Y-65215000D02*
X182130000Y-68840000D01*
D26*
X185855000Y-65215000D02*
X185755000Y-65215000D01*
X186710000Y-64260000D02*
X194150000Y-64260000D01*
X185855000Y-65215000D02*
X185855000Y-65115000D01*
D27*
X182130000Y-69615000D02*
X182130000Y-68840000D01*
%TO.N,PD1*%
X186550000Y-67220000D02*
X186550000Y-67210000D01*
X181855000Y-70690000D02*
X183080000Y-70690000D01*
X183080000Y-70690000D02*
X186550000Y-67220000D01*
D26*
X186550000Y-67210000D02*
X186640000Y-67210000D01*
X186550000Y-67210000D02*
X186960000Y-66800000D01*
X186960000Y-66800000D02*
X194150000Y-66800000D01*
%TO.N,PB4*%
X173530000Y-75490000D02*
X174320000Y-75490000D01*
X168150000Y-78420000D02*
X171080000Y-75490000D01*
X167050000Y-84720000D02*
X165150000Y-84720000D01*
X176650000Y-73160000D02*
X179400000Y-73160000D01*
X174320000Y-75490000D02*
X176650000Y-73160000D01*
X168150000Y-78420000D02*
X168150000Y-83620000D01*
X171080000Y-75490000D02*
X173530000Y-75490000D01*
X167050000Y-84720000D02*
X168150000Y-83620000D01*
D23*
%TO.N,PC0*%
X179692500Y-77427500D02*
X179705000Y-77440000D01*
X179692500Y-76852500D02*
X179692500Y-77427500D01*
D26*
X179692500Y-78202500D02*
X179692500Y-76852500D01*
X188610000Y-87120000D02*
X194150000Y-87120000D01*
X179692500Y-78202500D02*
X188610000Y-87120000D01*
%TO.N,PD3*%
X184656000Y-64364000D02*
X187300000Y-61720000D01*
D23*
X184530000Y-64490000D02*
X184656000Y-64364000D01*
D26*
X187300000Y-61720000D02*
X194150000Y-61720000D01*
D27*
X180492500Y-68527500D02*
X184530000Y-64490000D01*
D26*
%TO.N,ADC1*%
X173950000Y-89800000D02*
X175930000Y-87820000D01*
X175930000Y-79040000D02*
X175930000Y-87820000D01*
X165150000Y-89800000D02*
X173950000Y-89800000D01*
X176492500Y-76852500D02*
X176492500Y-78477500D01*
X176492500Y-78477500D02*
X175930000Y-79040000D01*
%TO.N,PD7*%
X182000000Y-58660000D02*
X180250000Y-60410000D01*
X169931000Y-70241000D02*
X165911000Y-70241000D01*
X165911000Y-70241000D02*
X165150000Y-69480000D01*
D27*
X173530000Y-71490000D02*
X171850000Y-71490000D01*
D26*
X171850000Y-71490000D02*
X171180000Y-71490000D01*
X171180000Y-71490000D02*
X169931000Y-70241000D01*
X182000000Y-53000000D02*
X182000000Y-58660000D01*
%TO.N,PC1*%
X194150000Y-84580000D02*
X186870000Y-84580000D01*
X180492500Y-76852500D02*
X180492500Y-78202500D01*
X180492500Y-78202500D02*
X186870000Y-84580000D01*
%TO.N,ADC2*%
X178892500Y-78402500D02*
X178892500Y-76852500D01*
X194150000Y-89660000D02*
X187590000Y-89660000D01*
X179950000Y-79460000D02*
X178892500Y-78402500D01*
X187590000Y-89660000D02*
X179950000Y-82020000D01*
X179950000Y-82020000D02*
X179950000Y-79460000D01*
%TO.N,PC5*%
X190820000Y-73090000D02*
X181855000Y-73090000D01*
X192150000Y-74420000D02*
X190820000Y-73090000D01*
X194150000Y-74420000D02*
X192150000Y-74420000D01*
D27*
%TO.N,PD4*%
X179692500Y-67477500D02*
X183060000Y-64110000D01*
X179692500Y-68527500D02*
X179692500Y-67477500D01*
D26*
X187990000Y-59180000D02*
X194150000Y-59180000D01*
D27*
X183460000Y-63710000D02*
X183605000Y-63565000D01*
D26*
X183605000Y-63565000D02*
X187990000Y-59180000D01*
D27*
X183060000Y-64110000D02*
X183460000Y-63710000D01*
D26*
%TO.N,PB2*%
X166650000Y-78140000D02*
X165150000Y-79640000D01*
X166650000Y-77010000D02*
X166650000Y-78140000D01*
D27*
X173530000Y-73890000D02*
X170750000Y-73890000D01*
D26*
X169770000Y-73890000D02*
X166650000Y-77010000D01*
X169770000Y-73890000D02*
X170750000Y-73890000D01*
D27*
X170750000Y-73890000D02*
X170600000Y-73890000D01*
D26*
%TO.N,PC2*%
X182150000Y-76840000D02*
X187350000Y-82040000D01*
X182150000Y-75785000D02*
X182150000Y-76840000D01*
X194150000Y-82040000D02*
X187350000Y-82040000D01*
%TO.N,PB0*%
X173530000Y-72290000D02*
X167420000Y-72290000D01*
X167420000Y-72290000D02*
X165150000Y-74560000D01*
%TO.N,PD5*%
X173650000Y-68950000D02*
X173530000Y-69070000D01*
X173530000Y-69890000D02*
X171380000Y-69890000D01*
X170530000Y-69040000D02*
X169790000Y-69040000D01*
X173530000Y-69070000D02*
X173530000Y-69890000D01*
X183500000Y-47800000D02*
X183500000Y-59360000D01*
D23*
X182650000Y-60010000D02*
X182850000Y-60010000D01*
D26*
X182850000Y-60010000D02*
X183500000Y-59360000D01*
X169790000Y-69040000D02*
X165150000Y-64400000D01*
X173650000Y-66010000D02*
X173650000Y-68950000D01*
X171380000Y-69890000D02*
X170530000Y-69040000D01*
%TO.N,PB3*%
X167450000Y-81410000D02*
X167450000Y-77520000D01*
X176692154Y-72160000D02*
X176692154Y-72190000D01*
X174169654Y-74712500D02*
X173537500Y-74712500D01*
X165150000Y-82180000D02*
X166680000Y-82180000D01*
X170280000Y-74690000D02*
X173530000Y-74690000D01*
X167450000Y-77520000D02*
X170280000Y-74690000D01*
X176692154Y-72190000D02*
X174169654Y-74712500D01*
X166680000Y-82180000D02*
X167450000Y-81410000D01*
D23*
%TO.N,Net-(D1-A)*%
X179575000Y-87925000D02*
X178050000Y-87925000D01*
X180125000Y-87375000D02*
X179575000Y-87925000D01*
X178150000Y-88025000D02*
X178050000Y-87925000D01*
X181450000Y-87375000D02*
X180125000Y-87375000D01*
%TO.N,Net-(J2-Pin_3)*%
X175355000Y-64615000D02*
X175355000Y-62840000D01*
X175355000Y-62840000D02*
X173120000Y-62840000D01*
X174892500Y-65077500D02*
X175355000Y-64615000D01*
X174892500Y-68527500D02*
X174892500Y-65077500D01*
X172020000Y-61740000D02*
X172020000Y-58870000D01*
X173120000Y-62840000D02*
X172020000Y-61740000D01*
D24*
%TO.N,Net-(J2-Pin_1)*%
X177305000Y-64640000D02*
X177105000Y-64440000D01*
D23*
X175692500Y-67077443D02*
X175305000Y-66689943D01*
X177100000Y-60560000D02*
X177100000Y-58870000D01*
X176130000Y-64440000D02*
X177330000Y-64440000D01*
X175305000Y-66689943D02*
X175305000Y-65265000D01*
X175305000Y-65265000D02*
X176130000Y-64440000D01*
X176130000Y-61530000D02*
X177100000Y-60560000D01*
X176130000Y-64440000D02*
X176130000Y-61530000D01*
X175692500Y-68527500D02*
X175692500Y-67077443D01*
%TD*%
M02*
