%TF.GenerationSoftware,KiCad,Pcbnew,9.0.6*%
%TF.CreationDate,2026-03-06T19:06:09+01:00*%
%TF.ProjectId,nowyprojekt,6e6f7779-7072-46f6-9a65-6b742e6b6963,rev?*%
%TF.SameCoordinates,Original*%
%TF.FileFunction,Copper,L3,Inr*%
%TF.FilePolarity,Positive*%
%FSLAX46Y46*%
G04 Gerber Fmt 4.6, Leading zero omitted, Abs format (unit mm)*
G04 Created by KiCad (PCBNEW 9.0.6) date 2026-03-06 19:06:09*
%MOMM*%
%LPD*%
G01*
G04 APERTURE LIST*
%TA.AperFunction,ComponentPad*%
%ADD10R,1.500000X1.500000*%
%TD*%
%TA.AperFunction,ComponentPad*%
%ADD11C,1.500000*%
%TD*%
%TA.AperFunction,ComponentPad*%
%ADD12R,1.700000X1.700000*%
%TD*%
%TA.AperFunction,ComponentPad*%
%ADD13C,1.700000*%
%TD*%
%TA.AperFunction,ViaPad*%
%ADD14C,0.600000*%
%TD*%
G04 APERTURE END LIST*
D10*
%TO.N,Net-(U1-e)*%
%TO.C,U1*%
X178001250Y-44120000D03*
D11*
%TO.N,Net-(U1-d)*%
X180541250Y-44120000D03*
%TO.N,Net-(U1-DPX)*%
X183081250Y-44120000D03*
%TO.N,Net-(U1-c)*%
X185621250Y-44120000D03*
%TO.N,Net-(U1-g)*%
X188161250Y-44120000D03*
%TO.N,Net-(Q4-C)*%
X190701250Y-44120000D03*
%TO.N,Net-(U1-b)*%
X190701250Y-28880000D03*
%TO.N,Net-(Q3-C)*%
X188161250Y-28880000D03*
%TO.N,Net-(Q2-C)*%
X185621250Y-28880000D03*
%TO.N,Net-(U1-f)*%
X183081250Y-28880000D03*
%TO.N,Net-(U1-a)*%
X180541250Y-28880000D03*
%TO.N,Net-(Q1-C)*%
X178001250Y-28880000D03*
%TD*%
D12*
%TO.N,GND*%
%TO.C,J4*%
X165150000Y-54240000D03*
D13*
X165150000Y-56780000D03*
X165150000Y-59320000D03*
X165150000Y-61860000D03*
%TO.N,PD5*%
X165150000Y-64400000D03*
%TO.N,PD6*%
X165150000Y-66940000D03*
%TO.N,PD7*%
X165150000Y-69480000D03*
%TO.N,+5V*%
X165150000Y-72020000D03*
%TO.N,PB0*%
X165150000Y-74560000D03*
%TO.N,PB1*%
X165150000Y-77100000D03*
%TO.N,PB2*%
X165150000Y-79640000D03*
%TO.N,PB3*%
X165150000Y-82180000D03*
%TO.N,PB4*%
X165150000Y-84720000D03*
%TO.N,PB5*%
X165150000Y-87260000D03*
%TO.N,ADC1*%
X165150000Y-89800000D03*
%TD*%
D12*
%TO.N,+5V*%
%TO.C,J3*%
X194150000Y-54100000D03*
D13*
%TO.N,GND*%
X194150000Y-56640000D03*
%TO.N,PD4*%
X194150000Y-59180000D03*
%TO.N,PD3*%
X194150000Y-61720000D03*
%TO.N,PD2*%
X194150000Y-64260000D03*
%TO.N,PD1*%
X194150000Y-66800000D03*
%TO.N,PD0*%
X194150000Y-69340000D03*
%TO.N,PC6*%
X194150000Y-71880000D03*
%TO.N,PC5*%
X194150000Y-74420000D03*
%TO.N,PC4*%
X194150000Y-76960000D03*
%TO.N,PC3*%
X194150000Y-79500000D03*
%TO.N,PC2*%
X194150000Y-82040000D03*
%TO.N,PC1*%
X194150000Y-84580000D03*
%TO.N,PC0*%
X194150000Y-87120000D03*
%TO.N,ADC2*%
X194150000Y-89660000D03*
%TD*%
D12*
%TO.N,Net-(J2-Pin_1)*%
%TO.C,J2*%
X177100000Y-58870000D03*
D13*
%TO.N,unconnected-(J2-Pin_2-Pad2)*%
X174560000Y-58870000D03*
%TO.N,Net-(J2-Pin_3)*%
X172020000Y-58870000D03*
%TD*%
D12*
%TO.N,VIN*%
%TO.C,J1*%
X212450000Y-27675000D03*
D13*
%TO.N,GND*%
X212450000Y-30215000D03*
%TD*%
D14*
%TO.N,+5V*%
X170200000Y-39800000D03*
X176000000Y-66000000D03*
X193200000Y-31000000D03*
X162800000Y-37400000D03*
X176500000Y-66500000D03*
X221500000Y-37800000D03*
X170000000Y-40600000D03*
X162800000Y-38400000D03*
X196356239Y-39465642D03*
X192250000Y-54525000D03*
X178100000Y-67200000D03*
X222400000Y-37000000D03*
X171600000Y-80900000D03*
X190600000Y-70200000D03*
X193600000Y-31800000D03*
X221500000Y-36500000D03*
X182600000Y-89025000D03*
X195600000Y-39000000D03*
X178720229Y-66490545D03*
%TO.N,GND*%
X196800000Y-38800000D03*
X225100000Y-36600000D03*
X172400000Y-80600000D03*
X192250000Y-56025000D03*
X177305000Y-66840000D03*
X178200000Y-78500000D03*
X171000000Y-40600000D03*
X179905000Y-66240000D03*
X225400000Y-37800000D03*
X161600000Y-38400000D03*
X178450000Y-79200000D03*
X178000000Y-91200000D03*
X212650000Y-32850000D03*
X178750000Y-63250000D03*
X179482702Y-66732702D03*
X177250000Y-66000000D03*
X178000000Y-62750000D03*
X224000000Y-37000000D03*
X193000000Y-32400000D03*
X218400000Y-37600000D03*
%TO.N,PD0*%
X186005707Y-68765707D03*
%TO.N,PD6*%
X179650000Y-70660000D03*
%TO.N,PB1*%
X172100000Y-73090000D03*
%TO.N,PD2*%
X185855000Y-65215000D03*
%TO.N,PD1*%
X186550000Y-67210000D03*
%TO.N,PB4*%
X179400000Y-73160000D03*
%TO.N,PD3*%
X184530000Y-64490000D03*
%TO.N,PD7*%
X182000000Y-53000000D03*
X171850000Y-71490000D03*
X180250000Y-60410000D03*
%TO.N,PD4*%
X183300000Y-63850000D03*
%TO.N,PB2*%
X170750000Y-73890000D03*
%TO.N,PD5*%
X183500000Y-47800000D03*
X173650000Y-66010000D03*
X182650000Y-60010000D03*
%TO.N,PB3*%
X176692154Y-72160000D03*
%TD*%
%TA.AperFunction,Conductor*%
%TO.N,+5V*%
G36*
X231942539Y-24400185D02*
G01*
X231988294Y-24452989D01*
X231999500Y-24504500D01*
X231999500Y-94035500D01*
X231979815Y-94102539D01*
X231927011Y-94148294D01*
X231875500Y-94159500D01*
X157534500Y-94159500D01*
X157467461Y-94139815D01*
X157421706Y-94087011D01*
X157410500Y-94035500D01*
X157410500Y-91127525D01*
X177449500Y-91127525D01*
X177449500Y-91272475D01*
X177487016Y-91412485D01*
X177487017Y-91412488D01*
X177559488Y-91538011D01*
X177559490Y-91538013D01*
X177559491Y-91538015D01*
X177661985Y-91640509D01*
X177661986Y-91640510D01*
X177661988Y-91640511D01*
X177787511Y-91712982D01*
X177787512Y-91712982D01*
X177787515Y-91712984D01*
X177927525Y-91750500D01*
X177927528Y-91750500D01*
X178072472Y-91750500D01*
X178072475Y-91750500D01*
X178212485Y-91712984D01*
X178338015Y-91640509D01*
X178440509Y-91538015D01*
X178512984Y-91412485D01*
X178550500Y-91272475D01*
X178550500Y-91127525D01*
X178512984Y-90987515D01*
X178440509Y-90861985D01*
X178338015Y-90759491D01*
X178338013Y-90759490D01*
X178338011Y-90759488D01*
X178212488Y-90687017D01*
X178212489Y-90687017D01*
X178185827Y-90679873D01*
X178072475Y-90649500D01*
X177927525Y-90649500D01*
X177814173Y-90679873D01*
X177787511Y-90687017D01*
X177661988Y-90759488D01*
X177661982Y-90759493D01*
X177559493Y-90861982D01*
X177559488Y-90861988D01*
X177487017Y-90987511D01*
X177487016Y-90987515D01*
X177449500Y-91127525D01*
X157410500Y-91127525D01*
X157410500Y-89713389D01*
X164049500Y-89713389D01*
X164049500Y-89886611D01*
X164076598Y-90057701D01*
X164130127Y-90222445D01*
X164208768Y-90376788D01*
X164310586Y-90516928D01*
X164433072Y-90639414D01*
X164573212Y-90741232D01*
X164727555Y-90819873D01*
X164892299Y-90873402D01*
X165063389Y-90900500D01*
X165063390Y-90900500D01*
X165236610Y-90900500D01*
X165236611Y-90900500D01*
X165407701Y-90873402D01*
X165572445Y-90819873D01*
X165726788Y-90741232D01*
X165866928Y-90639414D01*
X165989414Y-90516928D01*
X166091232Y-90376788D01*
X166169873Y-90222445D01*
X166223402Y-90057701D01*
X166250500Y-89886611D01*
X166250500Y-89713389D01*
X166228326Y-89573389D01*
X193049500Y-89573389D01*
X193049500Y-89746610D01*
X193071673Y-89886610D01*
X193076598Y-89917701D01*
X193130127Y-90082445D01*
X193208768Y-90236788D01*
X193310586Y-90376928D01*
X193433072Y-90499414D01*
X193573212Y-90601232D01*
X193727555Y-90679873D01*
X193892299Y-90733402D01*
X194063389Y-90760500D01*
X194063390Y-90760500D01*
X194236610Y-90760500D01*
X194236611Y-90760500D01*
X194407701Y-90733402D01*
X194572445Y-90679873D01*
X194726788Y-90601232D01*
X194866928Y-90499414D01*
X194989414Y-90376928D01*
X195091232Y-90236788D01*
X195169873Y-90082445D01*
X195223402Y-89917701D01*
X195250500Y-89746611D01*
X195250500Y-89573389D01*
X195223402Y-89402299D01*
X195169873Y-89237555D01*
X195091232Y-89083212D01*
X194989414Y-88943072D01*
X194866928Y-88820586D01*
X194726788Y-88718768D01*
X194572445Y-88640127D01*
X194407701Y-88586598D01*
X194407699Y-88586597D01*
X194407698Y-88586597D01*
X194276271Y-88565781D01*
X194236611Y-88559500D01*
X194063389Y-88559500D01*
X194023728Y-88565781D01*
X193892302Y-88586597D01*
X193727552Y-88640128D01*
X193573211Y-88718768D01*
X193493256Y-88776859D01*
X193433072Y-88820586D01*
X193433070Y-88820588D01*
X193433069Y-88820588D01*
X193310588Y-88943069D01*
X193310588Y-88943070D01*
X193310586Y-88943072D01*
X193297860Y-88960588D01*
X193208768Y-89083211D01*
X193130128Y-89237552D01*
X193076597Y-89402302D01*
X193049500Y-89573389D01*
X166228326Y-89573389D01*
X166223402Y-89542299D01*
X166169873Y-89377555D01*
X166091232Y-89223212D01*
X165989414Y-89083072D01*
X165866928Y-88960586D01*
X165726788Y-88858768D01*
X165572445Y-88780127D01*
X165407701Y-88726598D01*
X165407699Y-88726597D01*
X165407698Y-88726597D01*
X165276271Y-88705781D01*
X165236611Y-88699500D01*
X165063389Y-88699500D01*
X165023728Y-88705781D01*
X164892302Y-88726597D01*
X164727552Y-88780128D01*
X164573211Y-88858768D01*
X164493256Y-88916859D01*
X164433072Y-88960586D01*
X164433070Y-88960588D01*
X164433069Y-88960588D01*
X164310588Y-89083069D01*
X164310588Y-89083070D01*
X164310586Y-89083072D01*
X164266859Y-89143256D01*
X164208768Y-89223211D01*
X164130128Y-89377552D01*
X164076597Y-89542302D01*
X164069373Y-89587915D01*
X164049500Y-89713389D01*
X157410500Y-89713389D01*
X157410500Y-87173389D01*
X164049500Y-87173389D01*
X164049500Y-87346611D01*
X164076598Y-87517701D01*
X164130127Y-87682445D01*
X164208768Y-87836788D01*
X164310586Y-87976928D01*
X164433072Y-88099414D01*
X164573212Y-88201232D01*
X164727555Y-88279873D01*
X164892299Y-88333402D01*
X165063389Y-88360500D01*
X165063390Y-88360500D01*
X165236610Y-88360500D01*
X165236611Y-88360500D01*
X165407701Y-88333402D01*
X165572445Y-88279873D01*
X165726788Y-88201232D01*
X165866928Y-88099414D01*
X165989414Y-87976928D01*
X166091232Y-87836788D01*
X166169873Y-87682445D01*
X166223402Y-87517701D01*
X166250500Y-87346611D01*
X166250500Y-87173389D01*
X166228326Y-87033389D01*
X193049500Y-87033389D01*
X193049500Y-87206610D01*
X193071673Y-87346610D01*
X193076598Y-87377701D01*
X193130127Y-87542445D01*
X193208768Y-87696788D01*
X193310586Y-87836928D01*
X193433072Y-87959414D01*
X193573212Y-88061232D01*
X193727555Y-88139873D01*
X193892299Y-88193402D01*
X194063389Y-88220500D01*
X194063390Y-88220500D01*
X194236610Y-88220500D01*
X194236611Y-88220500D01*
X194407701Y-88193402D01*
X194572445Y-88139873D01*
X194726788Y-88061232D01*
X194866928Y-87959414D01*
X194989414Y-87836928D01*
X195091232Y-87696788D01*
X195169873Y-87542445D01*
X195223402Y-87377701D01*
X195250500Y-87206611D01*
X195250500Y-87033389D01*
X195223402Y-86862299D01*
X195169873Y-86697555D01*
X195091232Y-86543212D01*
X194989414Y-86403072D01*
X194866928Y-86280586D01*
X194726788Y-86178768D01*
X194572445Y-86100127D01*
X194407701Y-86046598D01*
X194407699Y-86046597D01*
X194407698Y-86046597D01*
X194276271Y-86025781D01*
X194236611Y-86019500D01*
X194063389Y-86019500D01*
X194023728Y-86025781D01*
X193892302Y-86046597D01*
X193727552Y-86100128D01*
X193573211Y-86178768D01*
X193493256Y-86236859D01*
X193433072Y-86280586D01*
X193433070Y-86280588D01*
X193433069Y-86280588D01*
X193310588Y-86403069D01*
X193310588Y-86403070D01*
X193310586Y-86403072D01*
X193297860Y-86420588D01*
X193208768Y-86543211D01*
X193130128Y-86697552D01*
X193076597Y-86862302D01*
X193049500Y-87033389D01*
X166228326Y-87033389D01*
X166223402Y-87002299D01*
X166169873Y-86837555D01*
X166091232Y-86683212D01*
X165989414Y-86543072D01*
X165866928Y-86420586D01*
X165726788Y-86318768D01*
X165572445Y-86240127D01*
X165407701Y-86186598D01*
X165407699Y-86186597D01*
X165407698Y-86186597D01*
X165276271Y-86165781D01*
X165236611Y-86159500D01*
X165063389Y-86159500D01*
X165023728Y-86165781D01*
X164892302Y-86186597D01*
X164727552Y-86240128D01*
X164573211Y-86318768D01*
X164493256Y-86376859D01*
X164433072Y-86420586D01*
X164433070Y-86420588D01*
X164433069Y-86420588D01*
X164310588Y-86543069D01*
X164310588Y-86543070D01*
X164310586Y-86543072D01*
X164266859Y-86603256D01*
X164208768Y-86683211D01*
X164130128Y-86837552D01*
X164076597Y-87002302D01*
X164069373Y-87047915D01*
X164049500Y-87173389D01*
X157410500Y-87173389D01*
X157410500Y-84481902D01*
X158599500Y-84481902D01*
X158599500Y-84718097D01*
X158636446Y-84951368D01*
X158709433Y-85175996D01*
X158771052Y-85296928D01*
X158816657Y-85386433D01*
X158955483Y-85577510D01*
X159122490Y-85744517D01*
X159313567Y-85883343D01*
X159412991Y-85934002D01*
X159524003Y-85990566D01*
X159524005Y-85990566D01*
X159524008Y-85990568D01*
X159644412Y-86029689D01*
X159748631Y-86063553D01*
X159981903Y-86100500D01*
X159981908Y-86100500D01*
X160218097Y-86100500D01*
X160451368Y-86063553D01*
X160675992Y-85990568D01*
X160886433Y-85883343D01*
X161077510Y-85744517D01*
X161244517Y-85577510D01*
X161383343Y-85386433D01*
X161490568Y-85175992D01*
X161563553Y-84951368D01*
X161581557Y-84837697D01*
X161600500Y-84718097D01*
X161600500Y-84633389D01*
X164049500Y-84633389D01*
X164049500Y-84806611D01*
X164076598Y-84977701D01*
X164130127Y-85142445D01*
X164208768Y-85296788D01*
X164310586Y-85436928D01*
X164433072Y-85559414D01*
X164573212Y-85661232D01*
X164727555Y-85739873D01*
X164892299Y-85793402D01*
X165063389Y-85820500D01*
X165063390Y-85820500D01*
X165236610Y-85820500D01*
X165236611Y-85820500D01*
X165407701Y-85793402D01*
X165572445Y-85739873D01*
X165726788Y-85661232D01*
X165866928Y-85559414D01*
X165989414Y-85436928D01*
X166091232Y-85296788D01*
X166169873Y-85142445D01*
X166223402Y-84977701D01*
X166250500Y-84806611D01*
X166250500Y-84633389D01*
X166228326Y-84493389D01*
X193049500Y-84493389D01*
X193049500Y-84666610D01*
X193071673Y-84806610D01*
X193076598Y-84837701D01*
X193130127Y-85002445D01*
X193208768Y-85156788D01*
X193310586Y-85296928D01*
X193433072Y-85419414D01*
X193573212Y-85521232D01*
X193727555Y-85599873D01*
X193892299Y-85653402D01*
X194063389Y-85680500D01*
X194063390Y-85680500D01*
X194236610Y-85680500D01*
X194236611Y-85680500D01*
X194407701Y-85653402D01*
X194572445Y-85599873D01*
X194726788Y-85521232D01*
X194866928Y-85419414D01*
X194989414Y-85296928D01*
X195091232Y-85156788D01*
X195169873Y-85002445D01*
X195223402Y-84837701D01*
X195250500Y-84666611D01*
X195250500Y-84493389D01*
X195248681Y-84481902D01*
X227499500Y-84481902D01*
X227499500Y-84718097D01*
X227536446Y-84951368D01*
X227609433Y-85175996D01*
X227671052Y-85296928D01*
X227716657Y-85386433D01*
X227855483Y-85577510D01*
X228022490Y-85744517D01*
X228213567Y-85883343D01*
X228312991Y-85934002D01*
X228424003Y-85990566D01*
X228424005Y-85990566D01*
X228424008Y-85990568D01*
X228544412Y-86029689D01*
X228648631Y-86063553D01*
X228881903Y-86100500D01*
X228881908Y-86100500D01*
X229118097Y-86100500D01*
X229351368Y-86063553D01*
X229575992Y-85990568D01*
X229786433Y-85883343D01*
X229977510Y-85744517D01*
X230144517Y-85577510D01*
X230283343Y-85386433D01*
X230390568Y-85175992D01*
X230463553Y-84951368D01*
X230481557Y-84837697D01*
X230500500Y-84718097D01*
X230500500Y-84481902D01*
X230463553Y-84248631D01*
X230390566Y-84024003D01*
X230308566Y-83863070D01*
X230283343Y-83813567D01*
X230144517Y-83622490D01*
X229977510Y-83455483D01*
X229786433Y-83316657D01*
X229575996Y-83209433D01*
X229351368Y-83136446D01*
X229118097Y-83099500D01*
X229118092Y-83099500D01*
X228881908Y-83099500D01*
X228881903Y-83099500D01*
X228648631Y-83136446D01*
X228424003Y-83209433D01*
X228213566Y-83316657D01*
X228104550Y-83395862D01*
X228022490Y-83455483D01*
X228022488Y-83455485D01*
X228022487Y-83455485D01*
X227855485Y-83622487D01*
X227855485Y-83622488D01*
X227855483Y-83622490D01*
X227799076Y-83700127D01*
X227716657Y-83813566D01*
X227609433Y-84024003D01*
X227536446Y-84248631D01*
X227499500Y-84481902D01*
X195248681Y-84481902D01*
X195223402Y-84322299D01*
X195169873Y-84157555D01*
X195091232Y-84003212D01*
X194989414Y-83863072D01*
X194866928Y-83740586D01*
X194726788Y-83638768D01*
X194572445Y-83560127D01*
X194407701Y-83506598D01*
X194407699Y-83506597D01*
X194407698Y-83506597D01*
X194276271Y-83485781D01*
X194236611Y-83479500D01*
X194063389Y-83479500D01*
X194023728Y-83485781D01*
X193892302Y-83506597D01*
X193727552Y-83560128D01*
X193573211Y-83638768D01*
X193493256Y-83696859D01*
X193433072Y-83740586D01*
X193433070Y-83740588D01*
X193433069Y-83740588D01*
X193310588Y-83863069D01*
X193310588Y-83863070D01*
X193310586Y-83863072D01*
X193297860Y-83880588D01*
X193208768Y-84003211D01*
X193130128Y-84157552D01*
X193076597Y-84322302D01*
X193049500Y-84493389D01*
X166228326Y-84493389D01*
X166223402Y-84462299D01*
X166169873Y-84297555D01*
X166091232Y-84143212D01*
X165989414Y-84003072D01*
X165866928Y-83880586D01*
X165726788Y-83778768D01*
X165572445Y-83700127D01*
X165407701Y-83646598D01*
X165407699Y-83646597D01*
X165407698Y-83646597D01*
X165255470Y-83622487D01*
X165236611Y-83619500D01*
X165063389Y-83619500D01*
X165044530Y-83622487D01*
X164892302Y-83646597D01*
X164727552Y-83700128D01*
X164573211Y-83778768D01*
X164525315Y-83813567D01*
X164433072Y-83880586D01*
X164433070Y-83880588D01*
X164433069Y-83880588D01*
X164310588Y-84003069D01*
X164310588Y-84003070D01*
X164310586Y-84003072D01*
X164295379Y-84024003D01*
X164208768Y-84143211D01*
X164130128Y-84297552D01*
X164076597Y-84462302D01*
X164069373Y-84507915D01*
X164049500Y-84633389D01*
X161600500Y-84633389D01*
X161600500Y-84481902D01*
X161563553Y-84248631D01*
X161490566Y-84024003D01*
X161408566Y-83863070D01*
X161383343Y-83813567D01*
X161244517Y-83622490D01*
X161077510Y-83455483D01*
X160886433Y-83316657D01*
X160675996Y-83209433D01*
X160451368Y-83136446D01*
X160218097Y-83099500D01*
X160218092Y-83099500D01*
X159981908Y-83099500D01*
X159981903Y-83099500D01*
X159748631Y-83136446D01*
X159524003Y-83209433D01*
X159313566Y-83316657D01*
X159204550Y-83395862D01*
X159122490Y-83455483D01*
X159122488Y-83455485D01*
X159122487Y-83455485D01*
X158955485Y-83622487D01*
X158955485Y-83622488D01*
X158955483Y-83622490D01*
X158899076Y-83700127D01*
X158816657Y-83813566D01*
X158709433Y-84024003D01*
X158636446Y-84248631D01*
X158599500Y-84481902D01*
X157410500Y-84481902D01*
X157410500Y-82093389D01*
X164049500Y-82093389D01*
X164049500Y-82266611D01*
X164076598Y-82437701D01*
X164130127Y-82602445D01*
X164208768Y-82756788D01*
X164310586Y-82896928D01*
X164433072Y-83019414D01*
X164573212Y-83121232D01*
X164727555Y-83199873D01*
X164892299Y-83253402D01*
X165063389Y-83280500D01*
X165063390Y-83280500D01*
X165236610Y-83280500D01*
X165236611Y-83280500D01*
X165407701Y-83253402D01*
X165572445Y-83199873D01*
X165726788Y-83121232D01*
X165866928Y-83019414D01*
X165989414Y-82896928D01*
X166091232Y-82756788D01*
X166169873Y-82602445D01*
X166223402Y-82437701D01*
X166250500Y-82266611D01*
X166250500Y-82093389D01*
X166228326Y-81953389D01*
X193049500Y-81953389D01*
X193049500Y-82126610D01*
X193071673Y-82266610D01*
X193076598Y-82297701D01*
X193130127Y-82462445D01*
X193208768Y-82616788D01*
X193310586Y-82756928D01*
X193433072Y-82879414D01*
X193573212Y-82981232D01*
X193727555Y-83059873D01*
X193892299Y-83113402D01*
X194063389Y-83140500D01*
X194063390Y-83140500D01*
X194236610Y-83140500D01*
X194236611Y-83140500D01*
X194407701Y-83113402D01*
X194572445Y-83059873D01*
X194726788Y-82981232D01*
X194866928Y-82879414D01*
X194989414Y-82756928D01*
X195091232Y-82616788D01*
X195169873Y-82462445D01*
X195223402Y-82297701D01*
X195250500Y-82126611D01*
X195250500Y-81953389D01*
X195223402Y-81782299D01*
X195169873Y-81617555D01*
X195091232Y-81463212D01*
X194989414Y-81323072D01*
X194866928Y-81200586D01*
X194726788Y-81098768D01*
X194572445Y-81020127D01*
X194407701Y-80966598D01*
X194407699Y-80966597D01*
X194407698Y-80966597D01*
X194276271Y-80945781D01*
X194236611Y-80939500D01*
X194063389Y-80939500D01*
X194023728Y-80945781D01*
X193892302Y-80966597D01*
X193727552Y-81020128D01*
X193573211Y-81098768D01*
X193553645Y-81112984D01*
X193433072Y-81200586D01*
X193433070Y-81200588D01*
X193433069Y-81200588D01*
X193310588Y-81323069D01*
X193310588Y-81323070D01*
X193310586Y-81323072D01*
X193297860Y-81340588D01*
X193208768Y-81463211D01*
X193130128Y-81617552D01*
X193076597Y-81782302D01*
X193049500Y-81953389D01*
X166228326Y-81953389D01*
X166223402Y-81922299D01*
X166169873Y-81757555D01*
X166091232Y-81603212D01*
X165989414Y-81463072D01*
X165866928Y-81340586D01*
X165726788Y-81238768D01*
X165572445Y-81160127D01*
X165407701Y-81106598D01*
X165407699Y-81106597D01*
X165407698Y-81106597D01*
X165276271Y-81085781D01*
X165236611Y-81079500D01*
X165063389Y-81079500D01*
X165023728Y-81085781D01*
X164892302Y-81106597D01*
X164727552Y-81160128D01*
X164573211Y-81238768D01*
X164493256Y-81296859D01*
X164433072Y-81340586D01*
X164433070Y-81340588D01*
X164433069Y-81340588D01*
X164310588Y-81463069D01*
X164310588Y-81463070D01*
X164310586Y-81463072D01*
X164266859Y-81523256D01*
X164208768Y-81603211D01*
X164130128Y-81757552D01*
X164076597Y-81922302D01*
X164069373Y-81967915D01*
X164049500Y-82093389D01*
X157410500Y-82093389D01*
X157410500Y-79553389D01*
X164049500Y-79553389D01*
X164049500Y-79726611D01*
X164076598Y-79897701D01*
X164130127Y-80062445D01*
X164208768Y-80216788D01*
X164310586Y-80356928D01*
X164433072Y-80479414D01*
X164573212Y-80581232D01*
X164727555Y-80659873D01*
X164892299Y-80713402D01*
X165063389Y-80740500D01*
X165063390Y-80740500D01*
X165236610Y-80740500D01*
X165236611Y-80740500D01*
X165407701Y-80713402D01*
X165572445Y-80659873D01*
X165726788Y-80581232D01*
X165800709Y-80527525D01*
X171849500Y-80527525D01*
X171849500Y-80672475D01*
X171887016Y-80812485D01*
X171887017Y-80812488D01*
X171959488Y-80938011D01*
X171959490Y-80938013D01*
X171959491Y-80938015D01*
X172061985Y-81040509D01*
X172061986Y-81040510D01*
X172061988Y-81040511D01*
X172187511Y-81112982D01*
X172187512Y-81112982D01*
X172187515Y-81112984D01*
X172327525Y-81150500D01*
X172327528Y-81150500D01*
X172472472Y-81150500D01*
X172472475Y-81150500D01*
X172612485Y-81112984D01*
X172738015Y-81040509D01*
X172840509Y-80938015D01*
X172912984Y-80812485D01*
X172950500Y-80672475D01*
X172950500Y-80527525D01*
X172912984Y-80387515D01*
X172840509Y-80261985D01*
X172738015Y-80159491D01*
X172738013Y-80159490D01*
X172738011Y-80159488D01*
X172612488Y-80087017D01*
X172612489Y-80087017D01*
X172601006Y-80083940D01*
X172472475Y-80049500D01*
X172327525Y-80049500D01*
X172198993Y-80083940D01*
X172187511Y-80087017D01*
X172061988Y-80159488D01*
X172061982Y-80159493D01*
X171959493Y-80261982D01*
X171959488Y-80261988D01*
X171887017Y-80387511D01*
X171887016Y-80387515D01*
X171849500Y-80527525D01*
X165800709Y-80527525D01*
X165866928Y-80479414D01*
X165989414Y-80356928D01*
X166091232Y-80216788D01*
X166169873Y-80062445D01*
X166223402Y-79897701D01*
X166250500Y-79726611D01*
X166250500Y-79553389D01*
X166223402Y-79382299D01*
X166169873Y-79217555D01*
X166091232Y-79063212D01*
X165989414Y-78923072D01*
X165866928Y-78800586D01*
X165726788Y-78698768D01*
X165572445Y-78620127D01*
X165407701Y-78566598D01*
X165407699Y-78566597D01*
X165407698Y-78566597D01*
X165284967Y-78547158D01*
X165236611Y-78539500D01*
X165063389Y-78539500D01*
X165023728Y-78545781D01*
X164892302Y-78566597D01*
X164727552Y-78620128D01*
X164573211Y-78698768D01*
X164500161Y-78751843D01*
X164433072Y-78800586D01*
X164433070Y-78800588D01*
X164433069Y-78800588D01*
X164310588Y-78923069D01*
X164310588Y-78923070D01*
X164310586Y-78923072D01*
X164294321Y-78945459D01*
X164208768Y-79063211D01*
X164130128Y-79217552D01*
X164076597Y-79382302D01*
X164051936Y-79538011D01*
X164049500Y-79553389D01*
X157410500Y-79553389D01*
X157410500Y-78427525D01*
X177649500Y-78427525D01*
X177649500Y-78572475D01*
X177687016Y-78712485D01*
X177687017Y-78712488D01*
X177759488Y-78838011D01*
X177759490Y-78838013D01*
X177759491Y-78838015D01*
X177861985Y-78940509D01*
X177861987Y-78940510D01*
X177868436Y-78945459D01*
X177866358Y-78948165D01*
X177903689Y-78987322D01*
X177916908Y-79055930D01*
X177913245Y-79076228D01*
X177899500Y-79127525D01*
X177899500Y-79272475D01*
X177937016Y-79412485D01*
X177937017Y-79412488D01*
X178009488Y-79538011D01*
X178009490Y-79538013D01*
X178009491Y-79538015D01*
X178111985Y-79640509D01*
X178111986Y-79640510D01*
X178111988Y-79640511D01*
X178237511Y-79712982D01*
X178237512Y-79712982D01*
X178237515Y-79712984D01*
X178377525Y-79750500D01*
X178377528Y-79750500D01*
X178522472Y-79750500D01*
X178522475Y-79750500D01*
X178662485Y-79712984D01*
X178788015Y-79640509D01*
X178890509Y-79538015D01*
X178962462Y-79413389D01*
X193049500Y-79413389D01*
X193049500Y-79586610D01*
X193071673Y-79726610D01*
X193076598Y-79757701D01*
X193130127Y-79922445D01*
X193208768Y-80076788D01*
X193310586Y-80216928D01*
X193433072Y-80339414D01*
X193573212Y-80441232D01*
X193727555Y-80519873D01*
X193892299Y-80573402D01*
X194063389Y-80600500D01*
X194063390Y-80600500D01*
X194236610Y-80600500D01*
X194236611Y-80600500D01*
X194407701Y-80573402D01*
X194572445Y-80519873D01*
X194726788Y-80441232D01*
X194866928Y-80339414D01*
X194989414Y-80216928D01*
X195091232Y-80076788D01*
X195169873Y-79922445D01*
X195223402Y-79757701D01*
X195250500Y-79586611D01*
X195250500Y-79413389D01*
X195223402Y-79242299D01*
X195169873Y-79077555D01*
X195091232Y-78923212D01*
X194989414Y-78783072D01*
X194866928Y-78660586D01*
X194726788Y-78558768D01*
X194572445Y-78480127D01*
X194407701Y-78426598D01*
X194407699Y-78426597D01*
X194407698Y-78426597D01*
X194276271Y-78405781D01*
X194236611Y-78399500D01*
X194063389Y-78399500D01*
X194023728Y-78405781D01*
X193892302Y-78426597D01*
X193727552Y-78480128D01*
X193573211Y-78558768D01*
X193493256Y-78616859D01*
X193433072Y-78660586D01*
X193433070Y-78660588D01*
X193433069Y-78660588D01*
X193310588Y-78783069D01*
X193310588Y-78783070D01*
X193310586Y-78783072D01*
X193297860Y-78800588D01*
X193208768Y-78923211D01*
X193130128Y-79077552D01*
X193076597Y-79242302D01*
X193049500Y-79413389D01*
X178962462Y-79413389D01*
X178962984Y-79412485D01*
X179000500Y-79272475D01*
X179000500Y-79127525D01*
X178962984Y-78987515D01*
X178890509Y-78861985D01*
X178788015Y-78759491D01*
X178788013Y-78759490D01*
X178781564Y-78754541D01*
X178783633Y-78751843D01*
X178746275Y-78712610D01*
X178733098Y-78643994D01*
X178736753Y-78623776D01*
X178750500Y-78572475D01*
X178750500Y-78427525D01*
X178712984Y-78287515D01*
X178640509Y-78161985D01*
X178538015Y-78059491D01*
X178538013Y-78059490D01*
X178538011Y-78059488D01*
X178412488Y-77987017D01*
X178412489Y-77987017D01*
X178385827Y-77979873D01*
X178272475Y-77949500D01*
X178127525Y-77949500D01*
X178014173Y-77979873D01*
X177987511Y-77987017D01*
X177861988Y-78059488D01*
X177861982Y-78059493D01*
X177759493Y-78161982D01*
X177759488Y-78161988D01*
X177687017Y-78287511D01*
X177687016Y-78287515D01*
X177649500Y-78427525D01*
X157410500Y-78427525D01*
X157410500Y-77013389D01*
X164049500Y-77013389D01*
X164049500Y-77186611D01*
X164076598Y-77357701D01*
X164130127Y-77522445D01*
X164208768Y-77676788D01*
X164310586Y-77816928D01*
X164433072Y-77939414D01*
X164573212Y-78041232D01*
X164727555Y-78119873D01*
X164892299Y-78173402D01*
X165063389Y-78200500D01*
X165063390Y-78200500D01*
X165236610Y-78200500D01*
X165236611Y-78200500D01*
X165407701Y-78173402D01*
X165572445Y-78119873D01*
X165726788Y-78041232D01*
X165866928Y-77939414D01*
X165989414Y-77816928D01*
X166091232Y-77676788D01*
X166169873Y-77522445D01*
X166223402Y-77357701D01*
X166250500Y-77186611D01*
X166250500Y-77013389D01*
X166228326Y-76873389D01*
X193049500Y-76873389D01*
X193049500Y-77046610D01*
X193071673Y-77186610D01*
X193076598Y-77217701D01*
X193130127Y-77382445D01*
X193208768Y-77536788D01*
X193310586Y-77676928D01*
X193433072Y-77799414D01*
X193573212Y-77901232D01*
X193727555Y-77979873D01*
X193892299Y-78033402D01*
X194063389Y-78060500D01*
X194063390Y-78060500D01*
X194236610Y-78060500D01*
X194236611Y-78060500D01*
X194407701Y-78033402D01*
X194572445Y-77979873D01*
X194726788Y-77901232D01*
X194866928Y-77799414D01*
X194989414Y-77676928D01*
X195091232Y-77536788D01*
X195169873Y-77382445D01*
X195223402Y-77217701D01*
X195250500Y-77046611D01*
X195250500Y-76873389D01*
X195223402Y-76702299D01*
X195169873Y-76537555D01*
X195091232Y-76383212D01*
X194989414Y-76243072D01*
X194866928Y-76120586D01*
X194726788Y-76018768D01*
X194572445Y-75940127D01*
X194407701Y-75886598D01*
X194407699Y-75886597D01*
X194407698Y-75886597D01*
X194276271Y-75865781D01*
X194236611Y-75859500D01*
X194063389Y-75859500D01*
X194023728Y-75865781D01*
X193892302Y-75886597D01*
X193727552Y-75940128D01*
X193573211Y-76018768D01*
X193493256Y-76076859D01*
X193433072Y-76120586D01*
X193433070Y-76120588D01*
X193433069Y-76120588D01*
X193310588Y-76243069D01*
X193310588Y-76243070D01*
X193310586Y-76243072D01*
X193297860Y-76260588D01*
X193208768Y-76383211D01*
X193130128Y-76537552D01*
X193076597Y-76702302D01*
X193049500Y-76873389D01*
X166228326Y-76873389D01*
X166223402Y-76842299D01*
X166169873Y-76677555D01*
X166091232Y-76523212D01*
X165989414Y-76383072D01*
X165866928Y-76260586D01*
X165726788Y-76158768D01*
X165572445Y-76080127D01*
X165407701Y-76026598D01*
X165407699Y-76026597D01*
X165407698Y-76026597D01*
X165276271Y-76005781D01*
X165236611Y-75999500D01*
X165063389Y-75999500D01*
X165023728Y-76005781D01*
X164892302Y-76026597D01*
X164727552Y-76080128D01*
X164573211Y-76158768D01*
X164493256Y-76216859D01*
X164433072Y-76260586D01*
X164433070Y-76260588D01*
X164433069Y-76260588D01*
X164310588Y-76383069D01*
X164310588Y-76383070D01*
X164310586Y-76383072D01*
X164266859Y-76443256D01*
X164208768Y-76523211D01*
X164130128Y-76677552D01*
X164076597Y-76842302D01*
X164069373Y-76887915D01*
X164049500Y-77013389D01*
X157410500Y-77013389D01*
X157410500Y-71913753D01*
X163800000Y-71913753D01*
X163800000Y-72126246D01*
X163833242Y-72336127D01*
X163833242Y-72336130D01*
X163898904Y-72538217D01*
X163995375Y-72727550D01*
X164034728Y-72781716D01*
X164667037Y-72149408D01*
X164684075Y-72212993D01*
X164749901Y-72327007D01*
X164842993Y-72420099D01*
X164957007Y-72485925D01*
X165020590Y-72502962D01*
X164388282Y-73135269D01*
X164388282Y-73135270D01*
X164442449Y-73174624D01*
X164631784Y-73271096D01*
X164730711Y-73303239D01*
X164788387Y-73342676D01*
X164815586Y-73407034D01*
X164803672Y-73475881D01*
X164756428Y-73527357D01*
X164730722Y-73539097D01*
X164729522Y-73539487D01*
X164727550Y-73540128D01*
X164573211Y-73618768D01*
X164498593Y-73672982D01*
X164433072Y-73720586D01*
X164433070Y-73720588D01*
X164433069Y-73720588D01*
X164310588Y-73843069D01*
X164310588Y-73843070D01*
X164310586Y-73843072D01*
X164282097Y-73882284D01*
X164208768Y-73983211D01*
X164130128Y-74137552D01*
X164076597Y-74302302D01*
X164060651Y-74402982D01*
X164049500Y-74473389D01*
X164049500Y-74646611D01*
X164076598Y-74817701D01*
X164130127Y-74982445D01*
X164208768Y-75136788D01*
X164310586Y-75276928D01*
X164433072Y-75399414D01*
X164573212Y-75501232D01*
X164727555Y-75579873D01*
X164892299Y-75633402D01*
X165063389Y-75660500D01*
X165063390Y-75660500D01*
X165236610Y-75660500D01*
X165236611Y-75660500D01*
X165407701Y-75633402D01*
X165572445Y-75579873D01*
X165726788Y-75501232D01*
X165866928Y-75399414D01*
X165989414Y-75276928D01*
X166091232Y-75136788D01*
X166169873Y-74982445D01*
X166223402Y-74817701D01*
X166250500Y-74646611D01*
X166250500Y-74473389D01*
X166223402Y-74302299D01*
X166169873Y-74137555D01*
X166091232Y-73983212D01*
X165989414Y-73843072D01*
X165963867Y-73817525D01*
X170199500Y-73817525D01*
X170199500Y-73962475D01*
X170208900Y-73997555D01*
X170237017Y-74102488D01*
X170309488Y-74228011D01*
X170309490Y-74228013D01*
X170309491Y-74228015D01*
X170411985Y-74330509D01*
X170411986Y-74330510D01*
X170411988Y-74330511D01*
X170537511Y-74402982D01*
X170537512Y-74402982D01*
X170537515Y-74402984D01*
X170677525Y-74440500D01*
X170677528Y-74440500D01*
X170822472Y-74440500D01*
X170822475Y-74440500D01*
X170962485Y-74402984D01*
X171083027Y-74333389D01*
X193049500Y-74333389D01*
X193049500Y-74506610D01*
X193071673Y-74646610D01*
X193076598Y-74677701D01*
X193130127Y-74842445D01*
X193208768Y-74996788D01*
X193310586Y-75136928D01*
X193433072Y-75259414D01*
X193573212Y-75361232D01*
X193727555Y-75439873D01*
X193892299Y-75493402D01*
X194063389Y-75520500D01*
X194063390Y-75520500D01*
X194236610Y-75520500D01*
X194236611Y-75520500D01*
X194407701Y-75493402D01*
X194572445Y-75439873D01*
X194726788Y-75361232D01*
X194866928Y-75259414D01*
X194989414Y-75136928D01*
X195091232Y-74996788D01*
X195169873Y-74842445D01*
X195223402Y-74677701D01*
X195250500Y-74506611D01*
X195250500Y-74333389D01*
X195223402Y-74162299D01*
X195169873Y-73997555D01*
X195091232Y-73843212D01*
X194989414Y-73703072D01*
X194866928Y-73580586D01*
X194726788Y-73478768D01*
X194572445Y-73400127D01*
X194407701Y-73346598D01*
X194407699Y-73346597D01*
X194407698Y-73346597D01*
X194276271Y-73325781D01*
X194236611Y-73319500D01*
X194063389Y-73319500D01*
X194023728Y-73325781D01*
X193892302Y-73346597D01*
X193727552Y-73400128D01*
X193573211Y-73478768D01*
X193544455Y-73499661D01*
X193433072Y-73580586D01*
X193433070Y-73580588D01*
X193433069Y-73580588D01*
X193310588Y-73703069D01*
X193310588Y-73703070D01*
X193310586Y-73703072D01*
X193297860Y-73720588D01*
X193208768Y-73843211D01*
X193130128Y-73997552D01*
X193076597Y-74162302D01*
X193049500Y-74333389D01*
X171083027Y-74333389D01*
X171088015Y-74330509D01*
X171190509Y-74228015D01*
X171262984Y-74102485D01*
X171300500Y-73962475D01*
X171300500Y-73817525D01*
X171262984Y-73677515D01*
X171241613Y-73640500D01*
X171190511Y-73551988D01*
X171190506Y-73551982D01*
X171088017Y-73449493D01*
X171088011Y-73449488D01*
X170962488Y-73377017D01*
X170962489Y-73377017D01*
X170945575Y-73372485D01*
X170822475Y-73339500D01*
X170677525Y-73339500D01*
X170554425Y-73372485D01*
X170537511Y-73377017D01*
X170411988Y-73449488D01*
X170411982Y-73449493D01*
X170309493Y-73551982D01*
X170309488Y-73551988D01*
X170237017Y-73677511D01*
X170237016Y-73677515D01*
X170199500Y-73817525D01*
X165963867Y-73817525D01*
X165866928Y-73720586D01*
X165726788Y-73618768D01*
X165695806Y-73602982D01*
X165572446Y-73540127D01*
X165569284Y-73539100D01*
X165568236Y-73538383D01*
X165567952Y-73538266D01*
X165567976Y-73538206D01*
X165511609Y-73499661D01*
X165484413Y-73435302D01*
X165496329Y-73366456D01*
X165543574Y-73314981D01*
X165569288Y-73303239D01*
X165668215Y-73271096D01*
X165857554Y-73174622D01*
X165911716Y-73135270D01*
X165911717Y-73135270D01*
X165873526Y-73097079D01*
X165793972Y-73017525D01*
X171549500Y-73017525D01*
X171549500Y-73162475D01*
X171587016Y-73302485D01*
X171587017Y-73302488D01*
X171659488Y-73428011D01*
X171659490Y-73428013D01*
X171659491Y-73428015D01*
X171761985Y-73530509D01*
X171761986Y-73530510D01*
X171761988Y-73530511D01*
X171887511Y-73602982D01*
X171887512Y-73602982D01*
X171887515Y-73602984D01*
X172027525Y-73640500D01*
X172027528Y-73640500D01*
X172172472Y-73640500D01*
X172172475Y-73640500D01*
X172312485Y-73602984D01*
X172438015Y-73530509D01*
X172540509Y-73428015D01*
X172612984Y-73302485D01*
X172650500Y-73162475D01*
X172650500Y-73087525D01*
X178849500Y-73087525D01*
X178849500Y-73232475D01*
X178880080Y-73346598D01*
X178887017Y-73372488D01*
X178959488Y-73498011D01*
X178959490Y-73498013D01*
X178959491Y-73498015D01*
X179061985Y-73600509D01*
X179061986Y-73600510D01*
X179061988Y-73600511D01*
X179187511Y-73672982D01*
X179187512Y-73672982D01*
X179187515Y-73672984D01*
X179327525Y-73710500D01*
X179327528Y-73710500D01*
X179472472Y-73710500D01*
X179472475Y-73710500D01*
X179612485Y-73672984D01*
X179738015Y-73600509D01*
X179840509Y-73498015D01*
X179912984Y-73372485D01*
X179950500Y-73232475D01*
X179950500Y-73087525D01*
X179912984Y-72947515D01*
X179872569Y-72877515D01*
X179840511Y-72821988D01*
X179840506Y-72821982D01*
X179738017Y-72719493D01*
X179738011Y-72719488D01*
X179612488Y-72647017D01*
X179612489Y-72647017D01*
X179601006Y-72643940D01*
X179472475Y-72609500D01*
X179327525Y-72609500D01*
X179198993Y-72643940D01*
X179187511Y-72647017D01*
X179061988Y-72719488D01*
X179061982Y-72719493D01*
X178959493Y-72821982D01*
X178959488Y-72821988D01*
X178887017Y-72947511D01*
X178887016Y-72947515D01*
X178849500Y-73087525D01*
X172650500Y-73087525D01*
X172650500Y-73017525D01*
X172612984Y-72877515D01*
X172580925Y-72821988D01*
X172540511Y-72751988D01*
X172540506Y-72751982D01*
X172438017Y-72649493D01*
X172438011Y-72649488D01*
X172312488Y-72577017D01*
X172312489Y-72577017D01*
X172301006Y-72573940D01*
X172172475Y-72539500D01*
X172027525Y-72539500D01*
X171898993Y-72573940D01*
X171887511Y-72577017D01*
X171761988Y-72649488D01*
X171761982Y-72649493D01*
X171659493Y-72751982D01*
X171659488Y-72751988D01*
X171587017Y-72877511D01*
X171587016Y-72877515D01*
X171549500Y-73017525D01*
X165793972Y-73017525D01*
X165279408Y-72502962D01*
X165342993Y-72485925D01*
X165457007Y-72420099D01*
X165550099Y-72327007D01*
X165615925Y-72212993D01*
X165632962Y-72149408D01*
X166265270Y-72781717D01*
X166265270Y-72781716D01*
X166304622Y-72727554D01*
X166401095Y-72538217D01*
X166466757Y-72336130D01*
X166466757Y-72336127D01*
X166500000Y-72126246D01*
X166500000Y-72087525D01*
X176141654Y-72087525D01*
X176141654Y-72232475D01*
X176166984Y-72327007D01*
X176179171Y-72372488D01*
X176251642Y-72498011D01*
X176251644Y-72498013D01*
X176251645Y-72498015D01*
X176354139Y-72600509D01*
X176354140Y-72600510D01*
X176354142Y-72600511D01*
X176479665Y-72672982D01*
X176479666Y-72672982D01*
X176479669Y-72672984D01*
X176619679Y-72710500D01*
X176619682Y-72710500D01*
X176764626Y-72710500D01*
X176764629Y-72710500D01*
X176904639Y-72672984D01*
X177030169Y-72600509D01*
X177132663Y-72498015D01*
X177205138Y-72372485D01*
X177242654Y-72232475D01*
X177242654Y-72087525D01*
X177205138Y-71947515D01*
X177132663Y-71821985D01*
X177104067Y-71793389D01*
X193049500Y-71793389D01*
X193049500Y-71966610D01*
X193074783Y-72126246D01*
X193076598Y-72137701D01*
X193130127Y-72302445D01*
X193208768Y-72456788D01*
X193310586Y-72596928D01*
X193433072Y-72719414D01*
X193573212Y-72821232D01*
X193727555Y-72899873D01*
X193892299Y-72953402D01*
X194063389Y-72980500D01*
X194063390Y-72980500D01*
X194236610Y-72980500D01*
X194236611Y-72980500D01*
X194407701Y-72953402D01*
X194572445Y-72899873D01*
X194726788Y-72821232D01*
X194866928Y-72719414D01*
X194989414Y-72596928D01*
X195091232Y-72456788D01*
X195169873Y-72302445D01*
X195223402Y-72137701D01*
X195250500Y-71966611D01*
X195250500Y-71793389D01*
X195223402Y-71622299D01*
X195169873Y-71457555D01*
X195091232Y-71303212D01*
X194989414Y-71163072D01*
X194866928Y-71040586D01*
X194726788Y-70938768D01*
X194572445Y-70860127D01*
X194407701Y-70806598D01*
X194407699Y-70806597D01*
X194407698Y-70806597D01*
X194276271Y-70785781D01*
X194236611Y-70779500D01*
X194063389Y-70779500D01*
X194023728Y-70785781D01*
X193892302Y-70806597D01*
X193727552Y-70860128D01*
X193573211Y-70938768D01*
X193572204Y-70939500D01*
X193433072Y-71040586D01*
X193433070Y-71040588D01*
X193433069Y-71040588D01*
X193310588Y-71163069D01*
X193310588Y-71163070D01*
X193310586Y-71163072D01*
X193266859Y-71223256D01*
X193208768Y-71303211D01*
X193130128Y-71457552D01*
X193076597Y-71622302D01*
X193049500Y-71793389D01*
X177104067Y-71793389D01*
X177030169Y-71719491D01*
X177030167Y-71719490D01*
X177030165Y-71719488D01*
X176904642Y-71647017D01*
X176904643Y-71647017D01*
X176893160Y-71643940D01*
X176764629Y-71609500D01*
X176619679Y-71609500D01*
X176491147Y-71643940D01*
X176479665Y-71647017D01*
X176354142Y-71719488D01*
X176354136Y-71719493D01*
X176251647Y-71821982D01*
X176251642Y-71821988D01*
X176179171Y-71947511D01*
X176179170Y-71947515D01*
X176141654Y-72087525D01*
X166500000Y-72087525D01*
X166500000Y-71913753D01*
X166466757Y-71703872D01*
X166466757Y-71703869D01*
X166401095Y-71501782D01*
X166382707Y-71465693D01*
X166358164Y-71417525D01*
X171299500Y-71417525D01*
X171299500Y-71562475D01*
X171337016Y-71702485D01*
X171337017Y-71702488D01*
X171409488Y-71828011D01*
X171409490Y-71828013D01*
X171409491Y-71828015D01*
X171511985Y-71930509D01*
X171511986Y-71930510D01*
X171511988Y-71930511D01*
X171637511Y-72002982D01*
X171637512Y-72002982D01*
X171637515Y-72002984D01*
X171777525Y-72040500D01*
X171777528Y-72040500D01*
X171922472Y-72040500D01*
X171922475Y-72040500D01*
X172062485Y-72002984D01*
X172188015Y-71930509D01*
X172290509Y-71828015D01*
X172362984Y-71702485D01*
X172400500Y-71562475D01*
X172400500Y-71417525D01*
X172362984Y-71277515D01*
X172296908Y-71163069D01*
X172290511Y-71151988D01*
X172290506Y-71151982D01*
X172188017Y-71049493D01*
X172188011Y-71049488D01*
X172062488Y-70977017D01*
X172062489Y-70977017D01*
X172051006Y-70973940D01*
X171922475Y-70939500D01*
X171777525Y-70939500D01*
X171648993Y-70973940D01*
X171637511Y-70977017D01*
X171511988Y-71049488D01*
X171511982Y-71049493D01*
X171409493Y-71151982D01*
X171409488Y-71151988D01*
X171337017Y-71277511D01*
X171337016Y-71277515D01*
X171299500Y-71417525D01*
X166358164Y-71417525D01*
X166304624Y-71312450D01*
X166265270Y-71258282D01*
X166265269Y-71258282D01*
X165632962Y-71890590D01*
X165615925Y-71827007D01*
X165550099Y-71712993D01*
X165457007Y-71619901D01*
X165342993Y-71554075D01*
X165279409Y-71537037D01*
X165911716Y-70904728D01*
X165857550Y-70865375D01*
X165668217Y-70768904D01*
X165569287Y-70736760D01*
X165549890Y-70723497D01*
X165528322Y-70714172D01*
X165521585Y-70704143D01*
X165511611Y-70697323D01*
X165502463Y-70675676D01*
X165489362Y-70656173D01*
X165489116Y-70644094D01*
X165484413Y-70632964D01*
X165488420Y-70609809D01*
X165487968Y-70587525D01*
X179099500Y-70587525D01*
X179099500Y-70732475D01*
X179133705Y-70860127D01*
X179137017Y-70872488D01*
X179209488Y-70998011D01*
X179209490Y-70998013D01*
X179209491Y-70998015D01*
X179311985Y-71100509D01*
X179311986Y-71100510D01*
X179311988Y-71100511D01*
X179437511Y-71172982D01*
X179437512Y-71172982D01*
X179437515Y-71172984D01*
X179577525Y-71210500D01*
X179577528Y-71210500D01*
X179722472Y-71210500D01*
X179722475Y-71210500D01*
X179862485Y-71172984D01*
X179988015Y-71100509D01*
X180090509Y-70998015D01*
X180162984Y-70872485D01*
X180200500Y-70732475D01*
X180200500Y-70587525D01*
X180162984Y-70447515D01*
X180147809Y-70421232D01*
X180090511Y-70321988D01*
X180090506Y-70321982D01*
X179988017Y-70219493D01*
X179988011Y-70219488D01*
X179862488Y-70147017D01*
X179862489Y-70147017D01*
X179851006Y-70143940D01*
X179722475Y-70109500D01*
X179577525Y-70109500D01*
X179448993Y-70143940D01*
X179437511Y-70147017D01*
X179311988Y-70219488D01*
X179311982Y-70219493D01*
X179209493Y-70321982D01*
X179209488Y-70321988D01*
X179137017Y-70447511D01*
X179137016Y-70447515D01*
X179099500Y-70587525D01*
X165487968Y-70587525D01*
X165487943Y-70586318D01*
X165494267Y-70576022D01*
X165496328Y-70564118D01*
X165512215Y-70546806D01*
X165524516Y-70526785D01*
X165537460Y-70519301D01*
X165543572Y-70512642D01*
X165553813Y-70507104D01*
X165561331Y-70503483D01*
X165572445Y-70499873D01*
X165726788Y-70421232D01*
X165866928Y-70319414D01*
X165989414Y-70196928D01*
X166091232Y-70056788D01*
X166169873Y-69902445D01*
X166223402Y-69737701D01*
X166250500Y-69566611D01*
X166250500Y-69393389D01*
X166223402Y-69222299D01*
X166169873Y-69057555D01*
X166091232Y-68903212D01*
X165989414Y-68763072D01*
X165919574Y-68693232D01*
X185455207Y-68693232D01*
X185455207Y-68838182D01*
X185492723Y-68978192D01*
X185492724Y-68978195D01*
X185565195Y-69103718D01*
X185565197Y-69103720D01*
X185565198Y-69103722D01*
X185667692Y-69206216D01*
X185667693Y-69206217D01*
X185667695Y-69206218D01*
X185793218Y-69278689D01*
X185793219Y-69278689D01*
X185793222Y-69278691D01*
X185933232Y-69316207D01*
X185933235Y-69316207D01*
X186078179Y-69316207D01*
X186078182Y-69316207D01*
X186218192Y-69278691D01*
X186262016Y-69253389D01*
X193049500Y-69253389D01*
X193049500Y-69426610D01*
X193071673Y-69566610D01*
X193076598Y-69597701D01*
X193130127Y-69762445D01*
X193208768Y-69916788D01*
X193310586Y-70056928D01*
X193433072Y-70179414D01*
X193573212Y-70281232D01*
X193727555Y-70359873D01*
X193892299Y-70413402D01*
X194063389Y-70440500D01*
X194063390Y-70440500D01*
X194236610Y-70440500D01*
X194236611Y-70440500D01*
X194407701Y-70413402D01*
X194572445Y-70359873D01*
X194726788Y-70281232D01*
X194866928Y-70179414D01*
X194989414Y-70056928D01*
X195091232Y-69916788D01*
X195169873Y-69762445D01*
X195223402Y-69597701D01*
X195250500Y-69426611D01*
X195250500Y-69253389D01*
X195223402Y-69082299D01*
X195169873Y-68917555D01*
X195091232Y-68763212D01*
X194989414Y-68623072D01*
X194866928Y-68500586D01*
X194726788Y-68398768D01*
X194582401Y-68325200D01*
X194572447Y-68320128D01*
X194572446Y-68320127D01*
X194572445Y-68320127D01*
X194407701Y-68266598D01*
X194407699Y-68266597D01*
X194407698Y-68266597D01*
X194276271Y-68245781D01*
X194236611Y-68239500D01*
X194063389Y-68239500D01*
X194023728Y-68245781D01*
X193892302Y-68266597D01*
X193727552Y-68320128D01*
X193573211Y-68398768D01*
X193493256Y-68456859D01*
X193433072Y-68500586D01*
X193433070Y-68500588D01*
X193433069Y-68500588D01*
X193310588Y-68623069D01*
X193310588Y-68623070D01*
X193310586Y-68623072D01*
X193297860Y-68640588D01*
X193208768Y-68763211D01*
X193130128Y-68917552D01*
X193076597Y-69082302D01*
X193049500Y-69253389D01*
X186262016Y-69253389D01*
X186343722Y-69206216D01*
X186446216Y-69103722D01*
X186518691Y-68978192D01*
X186556207Y-68838182D01*
X186556207Y-68693232D01*
X186518691Y-68553222D01*
X186488301Y-68500586D01*
X186446218Y-68427695D01*
X186446213Y-68427689D01*
X186343724Y-68325200D01*
X186343718Y-68325195D01*
X186218195Y-68252724D01*
X186218196Y-68252724D01*
X186206713Y-68249647D01*
X186078182Y-68215207D01*
X185933232Y-68215207D01*
X185804700Y-68249647D01*
X185793218Y-68252724D01*
X185667695Y-68325195D01*
X185667689Y-68325200D01*
X185565200Y-68427689D01*
X185565195Y-68427695D01*
X185492724Y-68553218D01*
X185492723Y-68553222D01*
X185455207Y-68693232D01*
X165919574Y-68693232D01*
X165866928Y-68640586D01*
X165726788Y-68538768D01*
X165572445Y-68460127D01*
X165407701Y-68406598D01*
X165407699Y-68406597D01*
X165407698Y-68406597D01*
X165276271Y-68385781D01*
X165236611Y-68379500D01*
X165063389Y-68379500D01*
X165023728Y-68385781D01*
X164892302Y-68406597D01*
X164727552Y-68460128D01*
X164573211Y-68538768D01*
X164493256Y-68596859D01*
X164433072Y-68640586D01*
X164433070Y-68640588D01*
X164433069Y-68640588D01*
X164310588Y-68763069D01*
X164310588Y-68763070D01*
X164310586Y-68763072D01*
X164266859Y-68823256D01*
X164208768Y-68903211D01*
X164130128Y-69057552D01*
X164076597Y-69222302D01*
X164067666Y-69278691D01*
X164049500Y-69393389D01*
X164049500Y-69566611D01*
X164076598Y-69737701D01*
X164130127Y-69902445D01*
X164208768Y-70056788D01*
X164310586Y-70196928D01*
X164433072Y-70319414D01*
X164573212Y-70421232D01*
X164727555Y-70499873D01*
X164730708Y-70500897D01*
X164731752Y-70501611D01*
X164732048Y-70501734D01*
X164732022Y-70501795D01*
X164788383Y-70540330D01*
X164815585Y-70604688D01*
X164803674Y-70673535D01*
X164756433Y-70725013D01*
X164730712Y-70736760D01*
X164631783Y-70768904D01*
X164442439Y-70865380D01*
X164388282Y-70904727D01*
X164388282Y-70904728D01*
X165020591Y-71537037D01*
X164957007Y-71554075D01*
X164842993Y-71619901D01*
X164749901Y-71712993D01*
X164684075Y-71827007D01*
X164667037Y-71890591D01*
X164034728Y-71258282D01*
X164034727Y-71258282D01*
X163995380Y-71312439D01*
X163898904Y-71501782D01*
X163833242Y-71703869D01*
X163833242Y-71703872D01*
X163800000Y-71913753D01*
X157410500Y-71913753D01*
X157410500Y-66853389D01*
X164049500Y-66853389D01*
X164049500Y-67026610D01*
X164072718Y-67173208D01*
X164076598Y-67197701D01*
X164130127Y-67362445D01*
X164208768Y-67516788D01*
X164310586Y-67656928D01*
X164433072Y-67779414D01*
X164573212Y-67881232D01*
X164727555Y-67959873D01*
X164892299Y-68013402D01*
X165063389Y-68040500D01*
X165063390Y-68040500D01*
X165236610Y-68040500D01*
X165236611Y-68040500D01*
X165407701Y-68013402D01*
X165572445Y-67959873D01*
X165726788Y-67881232D01*
X165866928Y-67779414D01*
X165989414Y-67656928D01*
X166091232Y-67516788D01*
X166169873Y-67362445D01*
X166223402Y-67197701D01*
X166250500Y-67026611D01*
X166250500Y-66853389D01*
X166223402Y-66682299D01*
X166169873Y-66517555D01*
X166091232Y-66363212D01*
X165989414Y-66223072D01*
X165866928Y-66100586D01*
X165726788Y-65998768D01*
X165606591Y-65937525D01*
X173099500Y-65937525D01*
X173099500Y-66082475D01*
X173135802Y-66217953D01*
X173137017Y-66222488D01*
X173209488Y-66348011D01*
X173209490Y-66348013D01*
X173209491Y-66348015D01*
X173311985Y-66450509D01*
X173311986Y-66450510D01*
X173311988Y-66450511D01*
X173437511Y-66522982D01*
X173437512Y-66522982D01*
X173437515Y-66522984D01*
X173577525Y-66560500D01*
X173577528Y-66560500D01*
X173722472Y-66560500D01*
X173722475Y-66560500D01*
X173862485Y-66522984D01*
X173988015Y-66450509D01*
X174090509Y-66348015D01*
X174162984Y-66222485D01*
X174200500Y-66082475D01*
X174200500Y-65937525D01*
X174197820Y-65927525D01*
X176699500Y-65927525D01*
X176699500Y-66072475D01*
X176730973Y-66189933D01*
X176737017Y-66212488D01*
X176809488Y-66338011D01*
X176809493Y-66338017D01*
X176837096Y-66365620D01*
X176870581Y-66426943D01*
X176865597Y-66496635D01*
X176856802Y-66515301D01*
X176792017Y-66627511D01*
X176792016Y-66627515D01*
X176754500Y-66767525D01*
X176754500Y-66912475D01*
X176777286Y-66997511D01*
X176792017Y-67052488D01*
X176864488Y-67178011D01*
X176864490Y-67178013D01*
X176864491Y-67178015D01*
X176966985Y-67280509D01*
X176966986Y-67280510D01*
X176966988Y-67280511D01*
X177092511Y-67352982D01*
X177092512Y-67352982D01*
X177092515Y-67352984D01*
X177232525Y-67390500D01*
X177232528Y-67390500D01*
X177377472Y-67390500D01*
X177377475Y-67390500D01*
X177517485Y-67352984D01*
X177643015Y-67280509D01*
X177745509Y-67178015D01*
X177817984Y-67052485D01*
X177855500Y-66912475D01*
X177855500Y-66767525D01*
X177826749Y-66660227D01*
X178932202Y-66660227D01*
X178932202Y-66805177D01*
X178960952Y-66912472D01*
X178969719Y-66945190D01*
X179042190Y-67070713D01*
X179042192Y-67070715D01*
X179042193Y-67070717D01*
X179144687Y-67173211D01*
X179144688Y-67173212D01*
X179144690Y-67173213D01*
X179270213Y-67245684D01*
X179270214Y-67245684D01*
X179270217Y-67245686D01*
X179410227Y-67283202D01*
X179410230Y-67283202D01*
X179555174Y-67283202D01*
X179555177Y-67283202D01*
X179695187Y-67245686D01*
X179820717Y-67173211D01*
X179856403Y-67137525D01*
X185999500Y-67137525D01*
X185999500Y-67282475D01*
X186028446Y-67390500D01*
X186037017Y-67422488D01*
X186109488Y-67548011D01*
X186109490Y-67548013D01*
X186109491Y-67548015D01*
X186211985Y-67650509D01*
X186211986Y-67650510D01*
X186211988Y-67650511D01*
X186337511Y-67722982D01*
X186337512Y-67722982D01*
X186337515Y-67722984D01*
X186477525Y-67760500D01*
X186477528Y-67760500D01*
X186622472Y-67760500D01*
X186622475Y-67760500D01*
X186762485Y-67722984D01*
X186888015Y-67650509D01*
X186990509Y-67548015D01*
X187062984Y-67422485D01*
X187100500Y-67282475D01*
X187100500Y-67137525D01*
X187062984Y-66997515D01*
X187032772Y-66945187D01*
X186990511Y-66871988D01*
X186990506Y-66871982D01*
X186888017Y-66769493D01*
X186888011Y-66769488D01*
X186790845Y-66713389D01*
X193049500Y-66713389D01*
X193049500Y-66886611D01*
X193057677Y-66938239D01*
X193071673Y-67026610D01*
X193076598Y-67057701D01*
X193130127Y-67222445D01*
X193208768Y-67376788D01*
X193310586Y-67516928D01*
X193433072Y-67639414D01*
X193573212Y-67741232D01*
X193727555Y-67819873D01*
X193892299Y-67873402D01*
X194063389Y-67900500D01*
X194063390Y-67900500D01*
X194236610Y-67900500D01*
X194236611Y-67900500D01*
X194407701Y-67873402D01*
X194572445Y-67819873D01*
X194726788Y-67741232D01*
X194866928Y-67639414D01*
X194989414Y-67516928D01*
X195091232Y-67376788D01*
X195169873Y-67222445D01*
X195223402Y-67057701D01*
X195250500Y-66886611D01*
X195250500Y-66713389D01*
X195223402Y-66542299D01*
X195169873Y-66377555D01*
X195091232Y-66223212D01*
X194989414Y-66083072D01*
X194866928Y-65960586D01*
X194726788Y-65858768D01*
X194572445Y-65780127D01*
X194407701Y-65726598D01*
X194407699Y-65726597D01*
X194407698Y-65726597D01*
X194276271Y-65705781D01*
X194236611Y-65699500D01*
X194063389Y-65699500D01*
X194023728Y-65705781D01*
X193892302Y-65726597D01*
X193727552Y-65780128D01*
X193573211Y-65858768D01*
X193513733Y-65901982D01*
X193433072Y-65960586D01*
X193433070Y-65960588D01*
X193433069Y-65960588D01*
X193310588Y-66083069D01*
X193310588Y-66083070D01*
X193310586Y-66083072D01*
X193297860Y-66100588D01*
X193208768Y-66223211D01*
X193130128Y-66377552D01*
X193076597Y-66542302D01*
X193054424Y-66682299D01*
X193049500Y-66713389D01*
X186790845Y-66713389D01*
X186762488Y-66697017D01*
X186762489Y-66697017D01*
X186714629Y-66684193D01*
X186622475Y-66659500D01*
X186477525Y-66659500D01*
X186385371Y-66684193D01*
X186337511Y-66697017D01*
X186211988Y-66769488D01*
X186211982Y-66769493D01*
X186109493Y-66871982D01*
X186109488Y-66871988D01*
X186037017Y-66997511D01*
X186037016Y-66997515D01*
X185999500Y-67137525D01*
X179856403Y-67137525D01*
X179923211Y-67070717D01*
X179995686Y-66945187D01*
X180023221Y-66842425D01*
X180059584Y-66782768D01*
X180110901Y-66754747D01*
X180117485Y-66752984D01*
X180243015Y-66680509D01*
X180345509Y-66578015D01*
X180417984Y-66452485D01*
X180455500Y-66312475D01*
X180455500Y-66167525D01*
X180417984Y-66027515D01*
X180379342Y-65960586D01*
X180345511Y-65901988D01*
X180345506Y-65901982D01*
X180243017Y-65799493D01*
X180243011Y-65799488D01*
X180117488Y-65727017D01*
X180117489Y-65727017D01*
X180106006Y-65723940D01*
X179977475Y-65689500D01*
X179832525Y-65689500D01*
X179703993Y-65723940D01*
X179692511Y-65727017D01*
X179566988Y-65799488D01*
X179566982Y-65799493D01*
X179464493Y-65901982D01*
X179464488Y-65901988D01*
X179392017Y-66027511D01*
X179392016Y-66027515D01*
X179372437Y-66100586D01*
X179364482Y-66130273D01*
X179328116Y-66189933D01*
X179276804Y-66217953D01*
X179270215Y-66219718D01*
X179270213Y-66219719D01*
X179144690Y-66292190D01*
X179144684Y-66292195D01*
X179042195Y-66394684D01*
X179042190Y-66394690D01*
X178969719Y-66520213D01*
X178969718Y-66520217D01*
X178932202Y-66660227D01*
X177826749Y-66660227D01*
X177817984Y-66627515D01*
X177789406Y-66578017D01*
X177745511Y-66501988D01*
X177745506Y-66501982D01*
X177717903Y-66474379D01*
X177684418Y-66413056D01*
X177689402Y-66343364D01*
X177698191Y-66324708D01*
X177762984Y-66212485D01*
X177800500Y-66072475D01*
X177800500Y-65927525D01*
X177762984Y-65787515D01*
X177728055Y-65727017D01*
X177690511Y-65661988D01*
X177690506Y-65661982D01*
X177588017Y-65559493D01*
X177588011Y-65559488D01*
X177462488Y-65487017D01*
X177462489Y-65487017D01*
X177411677Y-65473402D01*
X177322475Y-65449500D01*
X177177525Y-65449500D01*
X177088323Y-65473402D01*
X177037511Y-65487017D01*
X176911988Y-65559488D01*
X176911982Y-65559493D01*
X176809493Y-65661982D01*
X176809488Y-65661988D01*
X176737017Y-65787511D01*
X176737016Y-65787515D01*
X176699500Y-65927525D01*
X174197820Y-65927525D01*
X174162984Y-65797515D01*
X174157210Y-65787515D01*
X174090511Y-65671988D01*
X174090506Y-65671982D01*
X173988017Y-65569493D01*
X173988011Y-65569488D01*
X173862488Y-65497017D01*
X173862489Y-65497017D01*
X173851006Y-65493940D01*
X173722475Y-65459500D01*
X173577525Y-65459500D01*
X173448993Y-65493940D01*
X173437511Y-65497017D01*
X173311988Y-65569488D01*
X173311982Y-65569493D01*
X173209493Y-65671982D01*
X173209488Y-65671988D01*
X173137017Y-65797511D01*
X173136486Y-65799493D01*
X173099500Y-65937525D01*
X165606591Y-65937525D01*
X165572445Y-65920127D01*
X165407701Y-65866598D01*
X165407699Y-65866597D01*
X165407698Y-65866597D01*
X165276271Y-65845781D01*
X165236611Y-65839500D01*
X165063389Y-65839500D01*
X165023728Y-65845781D01*
X164892302Y-65866597D01*
X164727552Y-65920128D01*
X164573211Y-65998768D01*
X164493256Y-66056859D01*
X164433072Y-66100586D01*
X164433070Y-66100588D01*
X164433069Y-66100588D01*
X164310588Y-66223069D01*
X164310588Y-66223070D01*
X164310586Y-66223072D01*
X164266859Y-66283256D01*
X164208768Y-66363211D01*
X164130128Y-66517552D01*
X164130127Y-66517554D01*
X164130127Y-66517555D01*
X164110482Y-66578015D01*
X164076597Y-66682302D01*
X164049500Y-66853389D01*
X157410500Y-66853389D01*
X157410500Y-64313389D01*
X164049500Y-64313389D01*
X164049500Y-64486611D01*
X164076598Y-64657701D01*
X164130127Y-64822445D01*
X164208768Y-64976788D01*
X164310586Y-65116928D01*
X164433072Y-65239414D01*
X164573212Y-65341232D01*
X164727555Y-65419873D01*
X164892299Y-65473402D01*
X165063389Y-65500500D01*
X165063390Y-65500500D01*
X165236610Y-65500500D01*
X165236611Y-65500500D01*
X165407701Y-65473402D01*
X165572445Y-65419873D01*
X165726788Y-65341232D01*
X165866928Y-65239414D01*
X165963817Y-65142525D01*
X185304500Y-65142525D01*
X185304500Y-65287475D01*
X185342016Y-65427485D01*
X185342017Y-65427488D01*
X185414488Y-65553011D01*
X185414490Y-65553013D01*
X185414491Y-65553015D01*
X185516985Y-65655509D01*
X185516986Y-65655510D01*
X185516988Y-65655511D01*
X185642511Y-65727982D01*
X185642512Y-65727982D01*
X185642515Y-65727984D01*
X185782525Y-65765500D01*
X185782528Y-65765500D01*
X185927472Y-65765500D01*
X185927475Y-65765500D01*
X186067485Y-65727984D01*
X186193015Y-65655509D01*
X186295509Y-65553015D01*
X186367984Y-65427485D01*
X186405500Y-65287475D01*
X186405500Y-65142525D01*
X186367984Y-65002515D01*
X186353212Y-64976930D01*
X186295511Y-64876988D01*
X186295506Y-64876982D01*
X186193017Y-64774493D01*
X186193011Y-64774488D01*
X186067488Y-64702017D01*
X186067489Y-64702017D01*
X186056006Y-64698940D01*
X185927475Y-64664500D01*
X185782525Y-64664500D01*
X185653993Y-64698940D01*
X185642511Y-64702017D01*
X185516988Y-64774488D01*
X185516982Y-64774493D01*
X185414493Y-64876982D01*
X185414488Y-64876988D01*
X185342017Y-65002511D01*
X185342016Y-65002515D01*
X185304500Y-65142525D01*
X165963817Y-65142525D01*
X165989414Y-65116928D01*
X166091232Y-64976788D01*
X166169873Y-64822445D01*
X166223402Y-64657701D01*
X166250500Y-64486611D01*
X166250500Y-64417525D01*
X183979500Y-64417525D01*
X183979500Y-64562475D01*
X184016891Y-64702017D01*
X184017017Y-64702488D01*
X184089488Y-64828011D01*
X184089490Y-64828013D01*
X184089491Y-64828015D01*
X184191985Y-64930509D01*
X184191986Y-64930510D01*
X184191988Y-64930511D01*
X184317511Y-65002982D01*
X184317512Y-65002982D01*
X184317515Y-65002984D01*
X184457525Y-65040500D01*
X184457528Y-65040500D01*
X184602472Y-65040500D01*
X184602475Y-65040500D01*
X184742485Y-65002984D01*
X184868015Y-64930509D01*
X184970509Y-64828015D01*
X185042984Y-64702485D01*
X185080500Y-64562475D01*
X185080500Y-64417525D01*
X185042984Y-64277515D01*
X184982867Y-64173389D01*
X193049500Y-64173389D01*
X193049500Y-64346610D01*
X193071673Y-64486610D01*
X193076598Y-64517701D01*
X193130127Y-64682445D01*
X193208768Y-64836788D01*
X193310586Y-64976928D01*
X193433072Y-65099414D01*
X193573212Y-65201232D01*
X193727555Y-65279873D01*
X193892299Y-65333402D01*
X194063389Y-65360500D01*
X194063390Y-65360500D01*
X194236610Y-65360500D01*
X194236611Y-65360500D01*
X194407701Y-65333402D01*
X194572445Y-65279873D01*
X194726788Y-65201232D01*
X194866928Y-65099414D01*
X194989414Y-64976928D01*
X195091232Y-64836788D01*
X195169873Y-64682445D01*
X195223402Y-64517701D01*
X195250500Y-64346611D01*
X195250500Y-64173389D01*
X195223402Y-64002299D01*
X195169873Y-63837555D01*
X195091232Y-63683212D01*
X194989414Y-63543072D01*
X194866928Y-63420586D01*
X194726788Y-63318768D01*
X194572445Y-63240127D01*
X194407701Y-63186598D01*
X194407699Y-63186597D01*
X194407698Y-63186597D01*
X194276271Y-63165781D01*
X194236611Y-63159500D01*
X194063389Y-63159500D01*
X194023728Y-63165781D01*
X193892302Y-63186597D01*
X193727552Y-63240128D01*
X193573211Y-63318768D01*
X193493256Y-63376859D01*
X193433072Y-63420586D01*
X193433070Y-63420588D01*
X193433069Y-63420588D01*
X193310588Y-63543069D01*
X193310588Y-63543070D01*
X193310586Y-63543072D01*
X193266859Y-63603256D01*
X193208768Y-63683211D01*
X193130128Y-63837552D01*
X193076597Y-64002302D01*
X193049500Y-64173389D01*
X184982867Y-64173389D01*
X184970509Y-64151985D01*
X184868015Y-64049491D01*
X184868013Y-64049490D01*
X184868011Y-64049488D01*
X184742488Y-63977017D01*
X184742489Y-63977017D01*
X184731006Y-63973940D01*
X184602475Y-63939500D01*
X184457525Y-63939500D01*
X184328993Y-63973940D01*
X184317511Y-63977017D01*
X184191988Y-64049488D01*
X184191982Y-64049493D01*
X184089493Y-64151982D01*
X184089488Y-64151988D01*
X184017017Y-64277511D01*
X184017016Y-64277515D01*
X183979500Y-64417525D01*
X166250500Y-64417525D01*
X166250500Y-64313389D01*
X166223402Y-64142299D01*
X166169873Y-63977555D01*
X166091232Y-63823212D01*
X165989414Y-63683072D01*
X165866928Y-63560586D01*
X165726788Y-63458768D01*
X165572445Y-63380127D01*
X165407701Y-63326598D01*
X165407699Y-63326597D01*
X165407698Y-63326597D01*
X165256739Y-63302688D01*
X165236611Y-63299500D01*
X165063389Y-63299500D01*
X165043261Y-63302688D01*
X164892302Y-63326597D01*
X164727552Y-63380128D01*
X164573211Y-63458768D01*
X164499969Y-63511982D01*
X164433072Y-63560586D01*
X164433070Y-63560588D01*
X164433069Y-63560588D01*
X164310588Y-63683069D01*
X164310588Y-63683070D01*
X164310586Y-63683072D01*
X164266859Y-63743256D01*
X164208768Y-63823211D01*
X164130128Y-63977552D01*
X164076597Y-64142302D01*
X164051302Y-64302010D01*
X164049500Y-64313389D01*
X157410500Y-64313389D01*
X157410500Y-61773389D01*
X164049500Y-61773389D01*
X164049500Y-61946611D01*
X164076598Y-62117701D01*
X164115366Y-62237017D01*
X164130128Y-62282447D01*
X164143909Y-62309493D01*
X164208768Y-62436788D01*
X164310586Y-62576928D01*
X164433072Y-62699414D01*
X164573212Y-62801232D01*
X164727555Y-62879873D01*
X164892299Y-62933402D01*
X165063389Y-62960500D01*
X165063390Y-62960500D01*
X165236610Y-62960500D01*
X165236611Y-62960500D01*
X165407701Y-62933402D01*
X165572445Y-62879873D01*
X165726788Y-62801232D01*
X165866928Y-62699414D01*
X165888817Y-62677525D01*
X177449500Y-62677525D01*
X177449500Y-62822475D01*
X177479223Y-62933402D01*
X177487017Y-62962488D01*
X177559488Y-63088011D01*
X177559490Y-63088013D01*
X177559491Y-63088015D01*
X177661985Y-63190509D01*
X177661986Y-63190510D01*
X177661988Y-63190511D01*
X177787511Y-63262982D01*
X177787512Y-63262982D01*
X177787515Y-63262984D01*
X177927525Y-63300500D01*
X177927528Y-63300500D01*
X178072474Y-63300500D01*
X178072475Y-63300500D01*
X178072475Y-63300499D01*
X178080532Y-63299439D01*
X178080959Y-63302688D01*
X178135466Y-63303937D01*
X178193364Y-63343047D01*
X178217590Y-63389987D01*
X178222817Y-63409493D01*
X178237017Y-63462488D01*
X178309488Y-63588011D01*
X178309490Y-63588013D01*
X178309491Y-63588015D01*
X178411985Y-63690509D01*
X178411986Y-63690510D01*
X178411988Y-63690511D01*
X178537511Y-63762982D01*
X178537512Y-63762982D01*
X178537515Y-63762984D01*
X178677525Y-63800500D01*
X178677528Y-63800500D01*
X178822472Y-63800500D01*
X178822475Y-63800500D01*
X178908218Y-63777525D01*
X182749500Y-63777525D01*
X182749500Y-63922475D01*
X182783534Y-64049491D01*
X182787017Y-64062488D01*
X182859488Y-64188011D01*
X182859490Y-64188013D01*
X182859491Y-64188015D01*
X182961985Y-64290509D01*
X182961986Y-64290510D01*
X182961988Y-64290511D01*
X183087511Y-64362982D01*
X183087512Y-64362982D01*
X183087515Y-64362984D01*
X183227525Y-64400500D01*
X183227528Y-64400500D01*
X183372472Y-64400500D01*
X183372475Y-64400500D01*
X183512485Y-64362984D01*
X183638015Y-64290509D01*
X183740509Y-64188015D01*
X183812984Y-64062485D01*
X183850500Y-63922475D01*
X183850500Y-63777525D01*
X183812984Y-63637515D01*
X183784406Y-63588017D01*
X183740511Y-63511988D01*
X183740506Y-63511982D01*
X183638017Y-63409493D01*
X183638011Y-63409488D01*
X183512488Y-63337017D01*
X183512489Y-63337017D01*
X183501006Y-63333940D01*
X183372475Y-63299500D01*
X183227525Y-63299500D01*
X183098993Y-63333940D01*
X183087511Y-63337017D01*
X182961988Y-63409488D01*
X182961982Y-63409493D01*
X182859493Y-63511982D01*
X182859488Y-63511988D01*
X182787017Y-63637511D01*
X182787016Y-63637515D01*
X182749500Y-63777525D01*
X178908218Y-63777525D01*
X178962485Y-63762984D01*
X179088015Y-63690509D01*
X179190509Y-63588015D01*
X179262984Y-63462485D01*
X179300500Y-63322475D01*
X179300500Y-63177525D01*
X179262984Y-63037515D01*
X179219665Y-62962485D01*
X179190511Y-62911988D01*
X179190506Y-62911982D01*
X179088017Y-62809493D01*
X179088011Y-62809488D01*
X178962488Y-62737017D01*
X178962489Y-62737017D01*
X178949498Y-62733536D01*
X178822475Y-62699500D01*
X178677525Y-62699500D01*
X178677523Y-62699500D01*
X178669469Y-62700561D01*
X178669044Y-62697336D01*
X178614379Y-62696013D01*
X178556532Y-62656827D01*
X178532409Y-62610012D01*
X178512984Y-62537515D01*
X178454910Y-62436929D01*
X178440511Y-62411988D01*
X178440506Y-62411982D01*
X178338017Y-62309493D01*
X178338011Y-62309488D01*
X178212488Y-62237017D01*
X178212489Y-62237017D01*
X178201006Y-62233940D01*
X178072475Y-62199500D01*
X177927525Y-62199500D01*
X177798993Y-62233940D01*
X177787511Y-62237017D01*
X177661988Y-62309488D01*
X177661982Y-62309493D01*
X177559493Y-62411982D01*
X177559488Y-62411988D01*
X177487017Y-62537511D01*
X177487016Y-62537515D01*
X177449500Y-62677525D01*
X165888817Y-62677525D01*
X165989414Y-62576928D01*
X166091232Y-62436788D01*
X166169873Y-62282445D01*
X166223402Y-62117701D01*
X166250500Y-61946611D01*
X166250500Y-61773389D01*
X166228326Y-61633389D01*
X193049500Y-61633389D01*
X193049500Y-61806610D01*
X193071673Y-61946610D01*
X193076598Y-61977701D01*
X193130127Y-62142445D01*
X193208768Y-62296788D01*
X193310586Y-62436928D01*
X193433072Y-62559414D01*
X193573212Y-62661232D01*
X193727555Y-62739873D01*
X193892299Y-62793402D01*
X194063389Y-62820500D01*
X194063390Y-62820500D01*
X194236610Y-62820500D01*
X194236611Y-62820500D01*
X194407701Y-62793402D01*
X194572445Y-62739873D01*
X194726788Y-62661232D01*
X194866928Y-62559414D01*
X194989414Y-62436928D01*
X195091232Y-62296788D01*
X195169873Y-62142445D01*
X195223402Y-61977701D01*
X195250500Y-61806611D01*
X195250500Y-61633389D01*
X195223402Y-61462299D01*
X195169873Y-61297555D01*
X195091232Y-61143212D01*
X194989414Y-61003072D01*
X194866928Y-60880586D01*
X194726788Y-60778768D01*
X194572445Y-60700127D01*
X194407701Y-60646598D01*
X194407699Y-60646597D01*
X194407698Y-60646597D01*
X194255476Y-60622488D01*
X194236611Y-60619500D01*
X194063389Y-60619500D01*
X194044524Y-60622488D01*
X193892302Y-60646597D01*
X193727552Y-60700128D01*
X193573211Y-60778768D01*
X193493256Y-60836859D01*
X193433072Y-60880586D01*
X193433070Y-60880588D01*
X193433069Y-60880588D01*
X193310588Y-61003069D01*
X193310588Y-61003070D01*
X193310586Y-61003072D01*
X193297860Y-61020588D01*
X193208768Y-61143211D01*
X193130128Y-61297552D01*
X193076597Y-61462302D01*
X193049500Y-61633389D01*
X166228326Y-61633389D01*
X166223402Y-61602299D01*
X166169873Y-61437555D01*
X166091232Y-61283212D01*
X165989414Y-61143072D01*
X165866928Y-61020586D01*
X165726788Y-60918768D01*
X165572445Y-60840127D01*
X165407701Y-60786598D01*
X165407699Y-60786597D01*
X165407698Y-60786597D01*
X165276271Y-60765781D01*
X165236611Y-60759500D01*
X165063389Y-60759500D01*
X165023728Y-60765781D01*
X164892302Y-60786597D01*
X164727552Y-60840128D01*
X164573211Y-60918768D01*
X164515773Y-60960500D01*
X164433072Y-61020586D01*
X164433070Y-61020588D01*
X164433069Y-61020588D01*
X164310588Y-61143069D01*
X164310588Y-61143070D01*
X164310586Y-61143072D01*
X164266859Y-61203256D01*
X164208768Y-61283211D01*
X164130128Y-61437552D01*
X164076597Y-61602302D01*
X164069373Y-61647915D01*
X164049500Y-61773389D01*
X157410500Y-61773389D01*
X157410500Y-59233389D01*
X164049500Y-59233389D01*
X164049500Y-59406610D01*
X164075297Y-59569491D01*
X164076598Y-59577701D01*
X164130127Y-59742445D01*
X164208768Y-59896788D01*
X164310586Y-60036928D01*
X164433072Y-60159414D01*
X164573212Y-60261232D01*
X164727555Y-60339873D01*
X164892299Y-60393402D01*
X165063389Y-60420500D01*
X165063390Y-60420500D01*
X165236610Y-60420500D01*
X165236611Y-60420500D01*
X165407701Y-60393402D01*
X165572445Y-60339873D01*
X165577053Y-60337525D01*
X179699500Y-60337525D01*
X179699500Y-60482475D01*
X179720407Y-60560500D01*
X179737017Y-60622488D01*
X179809488Y-60748011D01*
X179809490Y-60748013D01*
X179809491Y-60748015D01*
X179911985Y-60850509D01*
X179911986Y-60850510D01*
X179911988Y-60850511D01*
X180037511Y-60922982D01*
X180037512Y-60922982D01*
X180037515Y-60922984D01*
X180177525Y-60960500D01*
X180177528Y-60960500D01*
X180322472Y-60960500D01*
X180322475Y-60960500D01*
X180462485Y-60922984D01*
X180588015Y-60850509D01*
X180690509Y-60748015D01*
X180762984Y-60622485D01*
X180800500Y-60482475D01*
X180800500Y-60337525D01*
X180762984Y-60197515D01*
X180740986Y-60159414D01*
X180690511Y-60071988D01*
X180690506Y-60071982D01*
X180588017Y-59969493D01*
X180588011Y-59969488D01*
X180532650Y-59937525D01*
X182099500Y-59937525D01*
X182099500Y-60082475D01*
X182130957Y-60199871D01*
X182137017Y-60222488D01*
X182209488Y-60348011D01*
X182209490Y-60348013D01*
X182209491Y-60348015D01*
X182311985Y-60450509D01*
X182311986Y-60450510D01*
X182311988Y-60450511D01*
X182437511Y-60522982D01*
X182437512Y-60522982D01*
X182437515Y-60522984D01*
X182577525Y-60560500D01*
X182577528Y-60560500D01*
X182722472Y-60560500D01*
X182722475Y-60560500D01*
X182862485Y-60522984D01*
X182988015Y-60450509D01*
X183090509Y-60348015D01*
X183162984Y-60222485D01*
X183200500Y-60082475D01*
X183200500Y-59937525D01*
X183162984Y-59797515D01*
X183132478Y-59744678D01*
X183090511Y-59671988D01*
X183090506Y-59671982D01*
X182988017Y-59569493D01*
X182988011Y-59569488D01*
X182862488Y-59497017D01*
X182862489Y-59497017D01*
X182851006Y-59493940D01*
X182722475Y-59459500D01*
X182577525Y-59459500D01*
X182448993Y-59493940D01*
X182437511Y-59497017D01*
X182311988Y-59569488D01*
X182311982Y-59569493D01*
X182209493Y-59671982D01*
X182209488Y-59671988D01*
X182137017Y-59797511D01*
X182137016Y-59797515D01*
X182099500Y-59937525D01*
X180532650Y-59937525D01*
X180462488Y-59897017D01*
X180462489Y-59897017D01*
X180435827Y-59889873D01*
X180322475Y-59859500D01*
X180177525Y-59859500D01*
X180064173Y-59889873D01*
X180037511Y-59897017D01*
X179911988Y-59969488D01*
X179911982Y-59969493D01*
X179809493Y-60071982D01*
X179809488Y-60071988D01*
X179737017Y-60197511D01*
X179737016Y-60197515D01*
X179699500Y-60337525D01*
X165577053Y-60337525D01*
X165726788Y-60261232D01*
X165866928Y-60159414D01*
X165989414Y-60036928D01*
X166091232Y-59896788D01*
X166169873Y-59742445D01*
X166223402Y-59577701D01*
X166250500Y-59406611D01*
X166250500Y-59233389D01*
X166223402Y-59062299D01*
X166169873Y-58897555D01*
X166111703Y-58783389D01*
X170919500Y-58783389D01*
X170919500Y-58956610D01*
X170941163Y-59093389D01*
X170946598Y-59127701D01*
X171000127Y-59292445D01*
X171078768Y-59446788D01*
X171180586Y-59586928D01*
X171303072Y-59709414D01*
X171443212Y-59811232D01*
X171597555Y-59889873D01*
X171762299Y-59943402D01*
X171933389Y-59970500D01*
X171933390Y-59970500D01*
X172106610Y-59970500D01*
X172106611Y-59970500D01*
X172277701Y-59943402D01*
X172442445Y-59889873D01*
X172596788Y-59811232D01*
X172736928Y-59709414D01*
X172859414Y-59586928D01*
X172961232Y-59446788D01*
X173039873Y-59292445D01*
X173093402Y-59127701D01*
X173120500Y-58956611D01*
X173120500Y-58783389D01*
X173459500Y-58783389D01*
X173459500Y-58956610D01*
X173481163Y-59093389D01*
X173486598Y-59127701D01*
X173540127Y-59292445D01*
X173618768Y-59446788D01*
X173720586Y-59586928D01*
X173843072Y-59709414D01*
X173983212Y-59811232D01*
X174137555Y-59889873D01*
X174302299Y-59943402D01*
X174473389Y-59970500D01*
X174473390Y-59970500D01*
X174646610Y-59970500D01*
X174646611Y-59970500D01*
X174817701Y-59943402D01*
X174982445Y-59889873D01*
X175136788Y-59811232D01*
X175276928Y-59709414D01*
X175399414Y-59586928D01*
X175501232Y-59446788D01*
X175579873Y-59292445D01*
X175633402Y-59127701D01*
X175660500Y-58956611D01*
X175660500Y-58783389D01*
X175633402Y-58612299D01*
X175579873Y-58447555D01*
X175501232Y-58293212D01*
X175399414Y-58153072D01*
X175276928Y-58030586D01*
X175228390Y-57995321D01*
X175999500Y-57995321D01*
X175999500Y-59744678D01*
X176014032Y-59817735D01*
X176014033Y-59817739D01*
X176014034Y-59817740D01*
X176069399Y-59900601D01*
X176152260Y-59955966D01*
X176152264Y-59955967D01*
X176225321Y-59970499D01*
X176225324Y-59970500D01*
X176225326Y-59970500D01*
X177974676Y-59970500D01*
X177974677Y-59970499D01*
X178047740Y-59955966D01*
X178130601Y-59900601D01*
X178185966Y-59817740D01*
X178200500Y-59744674D01*
X178200500Y-59093389D01*
X193049500Y-59093389D01*
X193049500Y-59266610D01*
X193071673Y-59406610D01*
X193076598Y-59437701D01*
X193130127Y-59602445D01*
X193208768Y-59756788D01*
X193310586Y-59896928D01*
X193433072Y-60019414D01*
X193573212Y-60121232D01*
X193727555Y-60199873D01*
X193892299Y-60253402D01*
X194063389Y-60280500D01*
X194063390Y-60280500D01*
X194236610Y-60280500D01*
X194236611Y-60280500D01*
X194407701Y-60253402D01*
X194572445Y-60199873D01*
X194726788Y-60121232D01*
X194866928Y-60019414D01*
X194989414Y-59896928D01*
X195091232Y-59756788D01*
X195169873Y-59602445D01*
X195223402Y-59437701D01*
X195250500Y-59266611D01*
X195250500Y-59093389D01*
X195223402Y-58922299D01*
X195169873Y-58757555D01*
X195091232Y-58603212D01*
X194989414Y-58463072D01*
X194866928Y-58340586D01*
X194726788Y-58238768D01*
X194572445Y-58160127D01*
X194407701Y-58106598D01*
X194407699Y-58106597D01*
X194407698Y-58106597D01*
X194276271Y-58085781D01*
X194236611Y-58079500D01*
X194063389Y-58079500D01*
X194023728Y-58085781D01*
X193892302Y-58106597D01*
X193727552Y-58160128D01*
X193573211Y-58238768D01*
X193493256Y-58296859D01*
X193433072Y-58340586D01*
X193433070Y-58340588D01*
X193433069Y-58340588D01*
X193310588Y-58463069D01*
X193310588Y-58463070D01*
X193310586Y-58463072D01*
X193297860Y-58480588D01*
X193208768Y-58603211D01*
X193130128Y-58757552D01*
X193076597Y-58922302D01*
X193049500Y-59093389D01*
X178200500Y-59093389D01*
X178200500Y-57995326D01*
X178200500Y-57995323D01*
X178200499Y-57995321D01*
X178185967Y-57922264D01*
X178185966Y-57922260D01*
X178139957Y-57853402D01*
X178130601Y-57839399D01*
X178047740Y-57784034D01*
X178047739Y-57784033D01*
X178047735Y-57784032D01*
X177974677Y-57769500D01*
X177974674Y-57769500D01*
X176225326Y-57769500D01*
X176225323Y-57769500D01*
X176152264Y-57784032D01*
X176152260Y-57784033D01*
X176069399Y-57839399D01*
X176014033Y-57922260D01*
X176014032Y-57922264D01*
X175999500Y-57995321D01*
X175228390Y-57995321D01*
X175136788Y-57928768D01*
X174982445Y-57850127D01*
X174817701Y-57796598D01*
X174817699Y-57796597D01*
X174817698Y-57796597D01*
X174686271Y-57775781D01*
X174646611Y-57769500D01*
X174473389Y-57769500D01*
X174433728Y-57775781D01*
X174302302Y-57796597D01*
X174137552Y-57850128D01*
X173983211Y-57928768D01*
X173903256Y-57986859D01*
X173843072Y-58030586D01*
X173843070Y-58030588D01*
X173843069Y-58030588D01*
X173720588Y-58153069D01*
X173720588Y-58153070D01*
X173720586Y-58153072D01*
X173676859Y-58213256D01*
X173618768Y-58293211D01*
X173540128Y-58447552D01*
X173540127Y-58447554D01*
X173540127Y-58447555D01*
X173529394Y-58480588D01*
X173486597Y-58612302D01*
X173459500Y-58783389D01*
X173120500Y-58783389D01*
X173093402Y-58612299D01*
X173039873Y-58447555D01*
X172961232Y-58293212D01*
X172859414Y-58153072D01*
X172736928Y-58030586D01*
X172596788Y-57928768D01*
X172442445Y-57850127D01*
X172277701Y-57796598D01*
X172277699Y-57796597D01*
X172277698Y-57796597D01*
X172146271Y-57775781D01*
X172106611Y-57769500D01*
X171933389Y-57769500D01*
X171893728Y-57775781D01*
X171762302Y-57796597D01*
X171597552Y-57850128D01*
X171443211Y-57928768D01*
X171363256Y-57986859D01*
X171303072Y-58030586D01*
X171303070Y-58030588D01*
X171303069Y-58030588D01*
X171180588Y-58153069D01*
X171180588Y-58153070D01*
X171180586Y-58153072D01*
X171136859Y-58213256D01*
X171078768Y-58293211D01*
X171000128Y-58447552D01*
X171000127Y-58447554D01*
X171000127Y-58447555D01*
X170989394Y-58480588D01*
X170946597Y-58612302D01*
X170919500Y-58783389D01*
X166111703Y-58783389D01*
X166091232Y-58743212D01*
X166091231Y-58743211D01*
X166075937Y-58722160D01*
X165989414Y-58603072D01*
X165866928Y-58480586D01*
X165726788Y-58378768D01*
X165572445Y-58300127D01*
X165407701Y-58246598D01*
X165407699Y-58246597D01*
X165407698Y-58246597D01*
X165276271Y-58225781D01*
X165236611Y-58219500D01*
X165063389Y-58219500D01*
X165023728Y-58225781D01*
X164892302Y-58246597D01*
X164727552Y-58300128D01*
X164573211Y-58378768D01*
X164493256Y-58436859D01*
X164433072Y-58480586D01*
X164433070Y-58480588D01*
X164433069Y-58480588D01*
X164310588Y-58603069D01*
X164310588Y-58603070D01*
X164310586Y-58603072D01*
X164303880Y-58612302D01*
X164208768Y-58743211D01*
X164130128Y-58897552D01*
X164076597Y-59062302D01*
X164049500Y-59233389D01*
X157410500Y-59233389D01*
X157410500Y-56693389D01*
X164049500Y-56693389D01*
X164049500Y-56866611D01*
X164076598Y-57037701D01*
X164123920Y-57183343D01*
X164130128Y-57202447D01*
X164175028Y-57290568D01*
X164208768Y-57356788D01*
X164310586Y-57496928D01*
X164433072Y-57619414D01*
X164573212Y-57721232D01*
X164727555Y-57799873D01*
X164892299Y-57853402D01*
X165063389Y-57880500D01*
X165063390Y-57880500D01*
X165236610Y-57880500D01*
X165236611Y-57880500D01*
X165407701Y-57853402D01*
X165572445Y-57799873D01*
X165726788Y-57721232D01*
X165866928Y-57619414D01*
X165989414Y-57496928D01*
X166091232Y-57356788D01*
X166169873Y-57202445D01*
X166223402Y-57037701D01*
X166250500Y-56866611D01*
X166250500Y-56693389D01*
X166223402Y-56522299D01*
X166169873Y-56357555D01*
X166091232Y-56203212D01*
X165989414Y-56063072D01*
X165878867Y-55952525D01*
X191699500Y-55952525D01*
X191699500Y-56097475D01*
X191731675Y-56217552D01*
X191737017Y-56237488D01*
X191809488Y-56363011D01*
X191809490Y-56363013D01*
X191809491Y-56363015D01*
X191911985Y-56465509D01*
X191911986Y-56465510D01*
X191911988Y-56465511D01*
X192037511Y-56537982D01*
X192037512Y-56537982D01*
X192037515Y-56537984D01*
X192177525Y-56575500D01*
X192177528Y-56575500D01*
X192322472Y-56575500D01*
X192322475Y-56575500D01*
X192462485Y-56537984D01*
X192588015Y-56465509D01*
X192690509Y-56363015D01*
X192762984Y-56237485D01*
X192800500Y-56097475D01*
X192800500Y-55952525D01*
X192762984Y-55812515D01*
X192732738Y-55760128D01*
X192690511Y-55686988D01*
X192690506Y-55686982D01*
X192588017Y-55584493D01*
X192588011Y-55584488D01*
X192462488Y-55512017D01*
X192462489Y-55512017D01*
X192451006Y-55508940D01*
X192322475Y-55474500D01*
X192177525Y-55474500D01*
X192048993Y-55508940D01*
X192037511Y-55512017D01*
X191911988Y-55584488D01*
X191911982Y-55584493D01*
X191809493Y-55686982D01*
X191809488Y-55686988D01*
X191737017Y-55812511D01*
X191737016Y-55812515D01*
X191699500Y-55952525D01*
X165878867Y-55952525D01*
X165866928Y-55940586D01*
X165726788Y-55838768D01*
X165572445Y-55760127D01*
X165407701Y-55706598D01*
X165407699Y-55706597D01*
X165407698Y-55706597D01*
X165268085Y-55684485D01*
X165236611Y-55679500D01*
X165063389Y-55679500D01*
X165031915Y-55684485D01*
X164892302Y-55706597D01*
X164727552Y-55760128D01*
X164573211Y-55838768D01*
X164493256Y-55896859D01*
X164433072Y-55940586D01*
X164433070Y-55940588D01*
X164433069Y-55940588D01*
X164310588Y-56063069D01*
X164310588Y-56063070D01*
X164310586Y-56063072D01*
X164285593Y-56097472D01*
X164208768Y-56203211D01*
X164130128Y-56357552D01*
X164076597Y-56522302D01*
X164050602Y-56686433D01*
X164049500Y-56693389D01*
X157410500Y-56693389D01*
X157410500Y-52381902D01*
X158649500Y-52381902D01*
X158649500Y-52618097D01*
X158686446Y-52851368D01*
X158759433Y-53075996D01*
X158828980Y-53212488D01*
X158866657Y-53286433D01*
X159005483Y-53477510D01*
X159172490Y-53644517D01*
X159363567Y-53783343D01*
X159462991Y-53834002D01*
X159574003Y-53890566D01*
X159574005Y-53890566D01*
X159574008Y-53890568D01*
X159694412Y-53929689D01*
X159798631Y-53963553D01*
X160031903Y-54000500D01*
X160031908Y-54000500D01*
X160268097Y-54000500D01*
X160501368Y-53963553D01*
X160725992Y-53890568D01*
X160936433Y-53783343D01*
X161127510Y-53644517D01*
X161294517Y-53477510D01*
X161376027Y-53365321D01*
X164049500Y-53365321D01*
X164049500Y-55114678D01*
X164064032Y-55187735D01*
X164064033Y-55187739D01*
X164082405Y-55215235D01*
X164119399Y-55270601D01*
X164199322Y-55324003D01*
X164202260Y-55325966D01*
X164202264Y-55325967D01*
X164275321Y-55340499D01*
X164275324Y-55340500D01*
X164275326Y-55340500D01*
X166024676Y-55340500D01*
X166024677Y-55340499D01*
X166097740Y-55325966D01*
X166180601Y-55270601D01*
X166235966Y-55187740D01*
X166250500Y-55114674D01*
X166250500Y-53365326D01*
X166250500Y-53365323D01*
X166250499Y-53365321D01*
X166235967Y-53292264D01*
X166235966Y-53292260D01*
X166232073Y-53286433D01*
X166180601Y-53209399D01*
X166097740Y-53154034D01*
X166097739Y-53154033D01*
X166097735Y-53154032D01*
X166024677Y-53139500D01*
X166024674Y-53139500D01*
X164275326Y-53139500D01*
X164275323Y-53139500D01*
X164202264Y-53154032D01*
X164202260Y-53154033D01*
X164119399Y-53209399D01*
X164064033Y-53292260D01*
X164064032Y-53292264D01*
X164049500Y-53365321D01*
X161376027Y-53365321D01*
X161433343Y-53286433D01*
X161540568Y-53075992D01*
X161588808Y-52927525D01*
X181449500Y-52927525D01*
X181449500Y-53072475D01*
X181484248Y-53202155D01*
X181487017Y-53212488D01*
X181559488Y-53338011D01*
X181559490Y-53338013D01*
X181559491Y-53338015D01*
X181661985Y-53440509D01*
X181661986Y-53440510D01*
X181661988Y-53440511D01*
X181787511Y-53512982D01*
X181787512Y-53512982D01*
X181787515Y-53512984D01*
X181927525Y-53550500D01*
X181927528Y-53550500D01*
X182072472Y-53550500D01*
X182072475Y-53550500D01*
X182212485Y-53512984D01*
X182338015Y-53440509D01*
X182440509Y-53338015D01*
X182512984Y-53212485D01*
X182515752Y-53202155D01*
X192800000Y-53202155D01*
X192800000Y-53850000D01*
X193716988Y-53850000D01*
X193684075Y-53907007D01*
X193650000Y-54034174D01*
X193650000Y-54165826D01*
X193684075Y-54292993D01*
X193716988Y-54350000D01*
X192800000Y-54350000D01*
X192800000Y-54997844D01*
X192806401Y-55057372D01*
X192806403Y-55057379D01*
X192856645Y-55192086D01*
X192856649Y-55192093D01*
X192942809Y-55307187D01*
X192942812Y-55307190D01*
X193057906Y-55393350D01*
X193057913Y-55393354D01*
X193192620Y-55443596D01*
X193192627Y-55443598D01*
X193252155Y-55449999D01*
X193252172Y-55450000D01*
X193544949Y-55450000D01*
X193611988Y-55469685D01*
X193657743Y-55522489D01*
X193667687Y-55591647D01*
X193638662Y-55655203D01*
X193601244Y-55684485D01*
X193573211Y-55698768D01*
X193493256Y-55756859D01*
X193433072Y-55800586D01*
X193433070Y-55800588D01*
X193433069Y-55800588D01*
X193310588Y-55923069D01*
X193310588Y-55923070D01*
X193310586Y-55923072D01*
X193297860Y-55940588D01*
X193208768Y-56063211D01*
X193130128Y-56217552D01*
X193076597Y-56382302D01*
X193049500Y-56553389D01*
X193049500Y-56726610D01*
X193071673Y-56866610D01*
X193076598Y-56897701D01*
X193130127Y-57062445D01*
X193208768Y-57216788D01*
X193310586Y-57356928D01*
X193433072Y-57479414D01*
X193573212Y-57581232D01*
X193727555Y-57659873D01*
X193892299Y-57713402D01*
X194063389Y-57740500D01*
X194063390Y-57740500D01*
X194236610Y-57740500D01*
X194236611Y-57740500D01*
X194407701Y-57713402D01*
X194572445Y-57659873D01*
X194726788Y-57581232D01*
X194866928Y-57479414D01*
X194989414Y-57356928D01*
X195091232Y-57216788D01*
X195169873Y-57062445D01*
X195223402Y-56897701D01*
X195250500Y-56726611D01*
X195250500Y-56553389D01*
X195223402Y-56382299D01*
X195169873Y-56217555D01*
X195091232Y-56063212D01*
X194989414Y-55923072D01*
X194866928Y-55800586D01*
X194841212Y-55781902D01*
X227599500Y-55781902D01*
X227599500Y-56018097D01*
X227636446Y-56251368D01*
X227709433Y-56475996D01*
X227816657Y-56686433D01*
X227955483Y-56877510D01*
X228122490Y-57044517D01*
X228313567Y-57183343D01*
X228351057Y-57202445D01*
X228524003Y-57290566D01*
X228524005Y-57290566D01*
X228524008Y-57290568D01*
X228644412Y-57329689D01*
X228748631Y-57363553D01*
X228981903Y-57400500D01*
X228981908Y-57400500D01*
X229218097Y-57400500D01*
X229451368Y-57363553D01*
X229471751Y-57356930D01*
X229675992Y-57290568D01*
X229886433Y-57183343D01*
X230077510Y-57044517D01*
X230244517Y-56877510D01*
X230383343Y-56686433D01*
X230490568Y-56475992D01*
X230563553Y-56251368D01*
X230565752Y-56237485D01*
X230600500Y-56018097D01*
X230600500Y-55781902D01*
X230563553Y-55548631D01*
X230513100Y-55393354D01*
X230490568Y-55324008D01*
X230490566Y-55324005D01*
X230490566Y-55324003D01*
X230421136Y-55187740D01*
X230383343Y-55113567D01*
X230244517Y-54922490D01*
X230077510Y-54755483D01*
X229886433Y-54616657D01*
X229853742Y-54600000D01*
X229675996Y-54509433D01*
X229451368Y-54436446D01*
X229218097Y-54399500D01*
X229218092Y-54399500D01*
X228981908Y-54399500D01*
X228981903Y-54399500D01*
X228748631Y-54436446D01*
X228524003Y-54509433D01*
X228313566Y-54616657D01*
X228204550Y-54695862D01*
X228122490Y-54755483D01*
X228122488Y-54755485D01*
X228122487Y-54755485D01*
X227955485Y-54922487D01*
X227955485Y-54922488D01*
X227955483Y-54922490D01*
X227900747Y-54997827D01*
X227816657Y-55113566D01*
X227709433Y-55324003D01*
X227636446Y-55548631D01*
X227599500Y-55781902D01*
X194841212Y-55781902D01*
X194726788Y-55698768D01*
X194703668Y-55686988D01*
X194698756Y-55684485D01*
X194647960Y-55636510D01*
X194631165Y-55568689D01*
X194653703Y-55502554D01*
X194708418Y-55459103D01*
X194755051Y-55450000D01*
X195047828Y-55450000D01*
X195047844Y-55449999D01*
X195107372Y-55443598D01*
X195107379Y-55443596D01*
X195242086Y-55393354D01*
X195242093Y-55393350D01*
X195357187Y-55307190D01*
X195357190Y-55307187D01*
X195443350Y-55192093D01*
X195443354Y-55192086D01*
X195493596Y-55057379D01*
X195493598Y-55057372D01*
X195499999Y-54997844D01*
X195500000Y-54997827D01*
X195500000Y-54350000D01*
X194583012Y-54350000D01*
X194615925Y-54292993D01*
X194650000Y-54165826D01*
X194650000Y-54034174D01*
X194615925Y-53907007D01*
X194583012Y-53850000D01*
X195500000Y-53850000D01*
X195500000Y-53202172D01*
X195499999Y-53202155D01*
X195493598Y-53142627D01*
X195493596Y-53142620D01*
X195443354Y-53007913D01*
X195443350Y-53007906D01*
X195357190Y-52892812D01*
X195357187Y-52892809D01*
X195242093Y-52806649D01*
X195242086Y-52806645D01*
X195107379Y-52756403D01*
X195107372Y-52756401D01*
X195047844Y-52750000D01*
X194400000Y-52750000D01*
X194400000Y-53666988D01*
X194342993Y-53634075D01*
X194215826Y-53600000D01*
X194084174Y-53600000D01*
X193957007Y-53634075D01*
X193900000Y-53666988D01*
X193900000Y-52750000D01*
X193252155Y-52750000D01*
X193192627Y-52756401D01*
X193192620Y-52756403D01*
X193057913Y-52806645D01*
X193057906Y-52806649D01*
X192942812Y-52892809D01*
X192942809Y-52892812D01*
X192856649Y-53007906D01*
X192856645Y-53007913D01*
X192806403Y-53142620D01*
X192806401Y-53142627D01*
X192800000Y-53202155D01*
X182515752Y-53202155D01*
X182550500Y-53072475D01*
X182550500Y-52927525D01*
X182512984Y-52787515D01*
X182495021Y-52756403D01*
X182440511Y-52661988D01*
X182440506Y-52661982D01*
X182338017Y-52559493D01*
X182338011Y-52559488D01*
X182212488Y-52487017D01*
X182212489Y-52487017D01*
X182201006Y-52483940D01*
X182072475Y-52449500D01*
X181927525Y-52449500D01*
X181798993Y-52483940D01*
X181787511Y-52487017D01*
X181661988Y-52559488D01*
X181661982Y-52559493D01*
X181559493Y-52661982D01*
X181559488Y-52661988D01*
X181487017Y-52787511D01*
X181487016Y-52787515D01*
X181449500Y-52927525D01*
X161588808Y-52927525D01*
X161613553Y-52851368D01*
X161643548Y-52661988D01*
X161650500Y-52618097D01*
X161650500Y-52381902D01*
X161613553Y-52148631D01*
X161540566Y-51924003D01*
X161433342Y-51713566D01*
X161294517Y-51522490D01*
X161127510Y-51355483D01*
X160936433Y-51216657D01*
X160725996Y-51109433D01*
X160501368Y-51036446D01*
X160268097Y-50999500D01*
X160268092Y-50999500D01*
X160031908Y-50999500D01*
X160031903Y-50999500D01*
X159798631Y-51036446D01*
X159574003Y-51109433D01*
X159363566Y-51216657D01*
X159254550Y-51295862D01*
X159172490Y-51355483D01*
X159172488Y-51355485D01*
X159172487Y-51355485D01*
X159005485Y-51522487D01*
X159005485Y-51522488D01*
X159005483Y-51522490D01*
X158945862Y-51604550D01*
X158866657Y-51713566D01*
X158759433Y-51924003D01*
X158686446Y-52148631D01*
X158649500Y-52381902D01*
X157410500Y-52381902D01*
X157410500Y-47727525D01*
X182949500Y-47727525D01*
X182949500Y-47872475D01*
X182987016Y-48012485D01*
X182987017Y-48012488D01*
X183059488Y-48138011D01*
X183059490Y-48138013D01*
X183059491Y-48138015D01*
X183161985Y-48240509D01*
X183161986Y-48240510D01*
X183161988Y-48240511D01*
X183287511Y-48312982D01*
X183287512Y-48312982D01*
X183287515Y-48312984D01*
X183427525Y-48350500D01*
X183427528Y-48350500D01*
X183572472Y-48350500D01*
X183572475Y-48350500D01*
X183712485Y-48312984D01*
X183838015Y-48240509D01*
X183940509Y-48138015D01*
X184012984Y-48012485D01*
X184050500Y-47872475D01*
X184050500Y-47727525D01*
X184012984Y-47587515D01*
X183940509Y-47461985D01*
X183838015Y-47359491D01*
X183838013Y-47359490D01*
X183838011Y-47359488D01*
X183712488Y-47287017D01*
X183712489Y-47287017D01*
X183701006Y-47283940D01*
X183572475Y-47249500D01*
X183427525Y-47249500D01*
X183298993Y-47283940D01*
X183287511Y-47287017D01*
X183161988Y-47359488D01*
X183161982Y-47359493D01*
X183059493Y-47461982D01*
X183059488Y-47461988D01*
X182987017Y-47587511D01*
X182987016Y-47587515D01*
X182949500Y-47727525D01*
X157410500Y-47727525D01*
X157410500Y-43345321D01*
X177000750Y-43345321D01*
X177000750Y-44894678D01*
X177015282Y-44967735D01*
X177015283Y-44967739D01*
X177015284Y-44967740D01*
X177070649Y-45050601D01*
X177117720Y-45082052D01*
X177153510Y-45105966D01*
X177153514Y-45105967D01*
X177226571Y-45120499D01*
X177226574Y-45120500D01*
X177226576Y-45120500D01*
X178775926Y-45120500D01*
X178775927Y-45120499D01*
X178848990Y-45105966D01*
X178931851Y-45050601D01*
X178987216Y-44967740D01*
X179001750Y-44894674D01*
X179001750Y-44218543D01*
X179540749Y-44218543D01*
X179579197Y-44411829D01*
X179579200Y-44411839D01*
X179654614Y-44593907D01*
X179654621Y-44593920D01*
X179764110Y-44757781D01*
X179764113Y-44757785D01*
X179903464Y-44897136D01*
X179903468Y-44897139D01*
X180067329Y-45006628D01*
X180067342Y-45006635D01*
X180173487Y-45050601D01*
X180249415Y-45082051D01*
X180249419Y-45082051D01*
X180249420Y-45082052D01*
X180442706Y-45120500D01*
X180442709Y-45120500D01*
X180639793Y-45120500D01*
X180769832Y-45094632D01*
X180833085Y-45082051D01*
X181015164Y-45006632D01*
X181179032Y-44897139D01*
X181318389Y-44757782D01*
X181427882Y-44593914D01*
X181503301Y-44411835D01*
X181541750Y-44218543D01*
X182080749Y-44218543D01*
X182119197Y-44411829D01*
X182119200Y-44411839D01*
X182194614Y-44593907D01*
X182194621Y-44593920D01*
X182304110Y-44757781D01*
X182304113Y-44757785D01*
X182443464Y-44897136D01*
X182443468Y-44897139D01*
X182607329Y-45006628D01*
X182607342Y-45006635D01*
X182713487Y-45050601D01*
X182789415Y-45082051D01*
X182789419Y-45082051D01*
X182789420Y-45082052D01*
X182982706Y-45120500D01*
X182982709Y-45120500D01*
X183179793Y-45120500D01*
X183309832Y-45094632D01*
X183373085Y-45082051D01*
X183555164Y-45006632D01*
X183719032Y-44897139D01*
X183858389Y-44757782D01*
X183967882Y-44593914D01*
X184043301Y-44411835D01*
X184081750Y-44218543D01*
X184620749Y-44218543D01*
X184659197Y-44411829D01*
X184659200Y-44411839D01*
X184734614Y-44593907D01*
X184734621Y-44593920D01*
X184844110Y-44757781D01*
X184844113Y-44757785D01*
X184983464Y-44897136D01*
X184983468Y-44897139D01*
X185147329Y-45006628D01*
X185147342Y-45006635D01*
X185253487Y-45050601D01*
X185329415Y-45082051D01*
X185329419Y-45082051D01*
X185329420Y-45082052D01*
X185522706Y-45120500D01*
X185522709Y-45120500D01*
X185719793Y-45120500D01*
X185849832Y-45094632D01*
X185913085Y-45082051D01*
X186095164Y-45006632D01*
X186259032Y-44897139D01*
X186398389Y-44757782D01*
X186507882Y-44593914D01*
X186583301Y-44411835D01*
X186621750Y-44218543D01*
X187160749Y-44218543D01*
X187199197Y-44411829D01*
X187199200Y-44411839D01*
X187274614Y-44593907D01*
X187274621Y-44593920D01*
X187384110Y-44757781D01*
X187384113Y-44757785D01*
X187523464Y-44897136D01*
X187523468Y-44897139D01*
X187687329Y-45006628D01*
X187687342Y-45006635D01*
X187793487Y-45050601D01*
X187869415Y-45082051D01*
X187869419Y-45082051D01*
X187869420Y-45082052D01*
X188062706Y-45120500D01*
X188062709Y-45120500D01*
X188259793Y-45120500D01*
X188389832Y-45094632D01*
X188453085Y-45082051D01*
X188635164Y-45006632D01*
X188799032Y-44897139D01*
X188938389Y-44757782D01*
X189047882Y-44593914D01*
X189123301Y-44411835D01*
X189161750Y-44218543D01*
X189700749Y-44218543D01*
X189739197Y-44411829D01*
X189739200Y-44411839D01*
X189814614Y-44593907D01*
X189814621Y-44593920D01*
X189924110Y-44757781D01*
X189924113Y-44757785D01*
X190063464Y-44897136D01*
X190063468Y-44897139D01*
X190227329Y-45006628D01*
X190227342Y-45006635D01*
X190333487Y-45050601D01*
X190409415Y-45082051D01*
X190409419Y-45082051D01*
X190409420Y-45082052D01*
X190602706Y-45120500D01*
X190602709Y-45120500D01*
X190799793Y-45120500D01*
X190929832Y-45094632D01*
X190993085Y-45082051D01*
X191175164Y-45006632D01*
X191339032Y-44897139D01*
X191478389Y-44757782D01*
X191587882Y-44593914D01*
X191663301Y-44411835D01*
X191701750Y-44218541D01*
X191701750Y-44021459D01*
X191701750Y-44021456D01*
X191663302Y-43828170D01*
X191663301Y-43828169D01*
X191663301Y-43828165D01*
X191663299Y-43828160D01*
X191587885Y-43646092D01*
X191587878Y-43646079D01*
X191478389Y-43482218D01*
X191478386Y-43482214D01*
X191339035Y-43342863D01*
X191339031Y-43342860D01*
X191175170Y-43233371D01*
X191175157Y-43233364D01*
X190993089Y-43157950D01*
X190993079Y-43157947D01*
X190799793Y-43119500D01*
X190799791Y-43119500D01*
X190602709Y-43119500D01*
X190602707Y-43119500D01*
X190409420Y-43157947D01*
X190409410Y-43157950D01*
X190227342Y-43233364D01*
X190227329Y-43233371D01*
X190063468Y-43342860D01*
X190063464Y-43342863D01*
X189924113Y-43482214D01*
X189924110Y-43482218D01*
X189814621Y-43646079D01*
X189814614Y-43646092D01*
X189739200Y-43828160D01*
X189739197Y-43828170D01*
X189700750Y-44021456D01*
X189700750Y-44021459D01*
X189700750Y-44218541D01*
X189700750Y-44218543D01*
X189700749Y-44218543D01*
X189161750Y-44218543D01*
X189161750Y-44218541D01*
X189161750Y-44021459D01*
X189161750Y-44021456D01*
X189123302Y-43828170D01*
X189123301Y-43828169D01*
X189123301Y-43828165D01*
X189123299Y-43828160D01*
X189047885Y-43646092D01*
X189047878Y-43646079D01*
X188938389Y-43482218D01*
X188938386Y-43482214D01*
X188799035Y-43342863D01*
X188799031Y-43342860D01*
X188635170Y-43233371D01*
X188635157Y-43233364D01*
X188453089Y-43157950D01*
X188453079Y-43157947D01*
X188259793Y-43119500D01*
X188259791Y-43119500D01*
X188062709Y-43119500D01*
X188062707Y-43119500D01*
X187869420Y-43157947D01*
X187869410Y-43157950D01*
X187687342Y-43233364D01*
X187687329Y-43233371D01*
X187523468Y-43342860D01*
X187523464Y-43342863D01*
X187384113Y-43482214D01*
X187384110Y-43482218D01*
X187274621Y-43646079D01*
X187274614Y-43646092D01*
X187199200Y-43828160D01*
X187199197Y-43828170D01*
X187160750Y-44021456D01*
X187160750Y-44021459D01*
X187160750Y-44218541D01*
X187160750Y-44218543D01*
X187160749Y-44218543D01*
X186621750Y-44218543D01*
X186621750Y-44218541D01*
X186621750Y-44021459D01*
X186621750Y-44021456D01*
X186583302Y-43828170D01*
X186583301Y-43828169D01*
X186583301Y-43828165D01*
X186583299Y-43828160D01*
X186507885Y-43646092D01*
X186507878Y-43646079D01*
X186398389Y-43482218D01*
X186398386Y-43482214D01*
X186259035Y-43342863D01*
X186259031Y-43342860D01*
X186095170Y-43233371D01*
X186095157Y-43233364D01*
X185913089Y-43157950D01*
X185913079Y-43157947D01*
X185719793Y-43119500D01*
X185719791Y-43119500D01*
X185522709Y-43119500D01*
X185522707Y-43119500D01*
X185329420Y-43157947D01*
X185329410Y-43157950D01*
X185147342Y-43233364D01*
X185147329Y-43233371D01*
X184983468Y-43342860D01*
X184983464Y-43342863D01*
X184844113Y-43482214D01*
X184844110Y-43482218D01*
X184734621Y-43646079D01*
X184734614Y-43646092D01*
X184659200Y-43828160D01*
X184659197Y-43828170D01*
X184620750Y-44021456D01*
X184620750Y-44021459D01*
X184620750Y-44218541D01*
X184620750Y-44218543D01*
X184620749Y-44218543D01*
X184081750Y-44218543D01*
X184081750Y-44218541D01*
X184081750Y-44021459D01*
X184081750Y-44021456D01*
X184043302Y-43828170D01*
X184043301Y-43828169D01*
X184043301Y-43828165D01*
X184043299Y-43828160D01*
X183967885Y-43646092D01*
X183967878Y-43646079D01*
X183858389Y-43482218D01*
X183858386Y-43482214D01*
X183719035Y-43342863D01*
X183719031Y-43342860D01*
X183555170Y-43233371D01*
X183555157Y-43233364D01*
X183373089Y-43157950D01*
X183373079Y-43157947D01*
X183179793Y-43119500D01*
X183179791Y-43119500D01*
X182982709Y-43119500D01*
X182982707Y-43119500D01*
X182789420Y-43157947D01*
X182789410Y-43157950D01*
X182607342Y-43233364D01*
X182607329Y-43233371D01*
X182443468Y-43342860D01*
X182443464Y-43342863D01*
X182304113Y-43482214D01*
X182304110Y-43482218D01*
X182194621Y-43646079D01*
X182194614Y-43646092D01*
X182119200Y-43828160D01*
X182119197Y-43828170D01*
X182080750Y-44021456D01*
X182080750Y-44021459D01*
X182080750Y-44218541D01*
X182080750Y-44218543D01*
X182080749Y-44218543D01*
X181541750Y-44218543D01*
X181541750Y-44218541D01*
X181541750Y-44021459D01*
X181541750Y-44021456D01*
X181503302Y-43828170D01*
X181503301Y-43828169D01*
X181503301Y-43828165D01*
X181503299Y-43828160D01*
X181427885Y-43646092D01*
X181427878Y-43646079D01*
X181318389Y-43482218D01*
X181318386Y-43482214D01*
X181179035Y-43342863D01*
X181179031Y-43342860D01*
X181015170Y-43233371D01*
X181015157Y-43233364D01*
X180833089Y-43157950D01*
X180833079Y-43157947D01*
X180639793Y-43119500D01*
X180639791Y-43119500D01*
X180442709Y-43119500D01*
X180442707Y-43119500D01*
X180249420Y-43157947D01*
X180249410Y-43157950D01*
X180067342Y-43233364D01*
X180067329Y-43233371D01*
X179903468Y-43342860D01*
X179903464Y-43342863D01*
X179764113Y-43482214D01*
X179764110Y-43482218D01*
X179654621Y-43646079D01*
X179654614Y-43646092D01*
X179579200Y-43828160D01*
X179579197Y-43828170D01*
X179540750Y-44021456D01*
X179540750Y-44021459D01*
X179540750Y-44218541D01*
X179540750Y-44218543D01*
X179540749Y-44218543D01*
X179001750Y-44218543D01*
X179001750Y-43345326D01*
X179001750Y-43345323D01*
X179001749Y-43345321D01*
X178987217Y-43272264D01*
X178987216Y-43272260D01*
X178931851Y-43189399D01*
X178848990Y-43134034D01*
X178848989Y-43134033D01*
X178848985Y-43134032D01*
X178775927Y-43119500D01*
X178775924Y-43119500D01*
X177226576Y-43119500D01*
X177226573Y-43119500D01*
X177153514Y-43134032D01*
X177153510Y-43134033D01*
X177070649Y-43189399D01*
X177015283Y-43272260D01*
X177015282Y-43272264D01*
X177000750Y-43345321D01*
X157410500Y-43345321D01*
X157410500Y-40527525D01*
X170449500Y-40527525D01*
X170449500Y-40672475D01*
X170487016Y-40812485D01*
X170487017Y-40812488D01*
X170559488Y-40938011D01*
X170559490Y-40938013D01*
X170559491Y-40938015D01*
X170661985Y-41040509D01*
X170661986Y-41040510D01*
X170661988Y-41040511D01*
X170787511Y-41112982D01*
X170787512Y-41112982D01*
X170787515Y-41112984D01*
X170927525Y-41150500D01*
X170927528Y-41150500D01*
X171072472Y-41150500D01*
X171072475Y-41150500D01*
X171212485Y-41112984D01*
X171338015Y-41040509D01*
X171440509Y-40938015D01*
X171512984Y-40812485D01*
X171550500Y-40672475D01*
X171550500Y-40527525D01*
X171512984Y-40387515D01*
X171440509Y-40261985D01*
X171338015Y-40159491D01*
X171338013Y-40159490D01*
X171338011Y-40159488D01*
X171212488Y-40087017D01*
X171212489Y-40087017D01*
X171201006Y-40083940D01*
X171072475Y-40049500D01*
X170927525Y-40049500D01*
X170798993Y-40083940D01*
X170787511Y-40087017D01*
X170661988Y-40159488D01*
X170661982Y-40159493D01*
X170559493Y-40261982D01*
X170559488Y-40261988D01*
X170487017Y-40387511D01*
X170487016Y-40387515D01*
X170449500Y-40527525D01*
X157410500Y-40527525D01*
X157410500Y-38327525D01*
X161049500Y-38327525D01*
X161049500Y-38472475D01*
X161087016Y-38612485D01*
X161087017Y-38612488D01*
X161159488Y-38738011D01*
X161159490Y-38738013D01*
X161159491Y-38738015D01*
X161261985Y-38840509D01*
X161261986Y-38840510D01*
X161261988Y-38840511D01*
X161387511Y-38912982D01*
X161387512Y-38912982D01*
X161387515Y-38912984D01*
X161527525Y-38950500D01*
X161527528Y-38950500D01*
X161672472Y-38950500D01*
X161672475Y-38950500D01*
X161812485Y-38912984D01*
X161938015Y-38840509D01*
X162040509Y-38738015D01*
X162046565Y-38727525D01*
X196249500Y-38727525D01*
X196249500Y-38872475D01*
X196270407Y-38950500D01*
X196287017Y-39012488D01*
X196359488Y-39138011D01*
X196359490Y-39138013D01*
X196359491Y-39138015D01*
X196461985Y-39240509D01*
X196461986Y-39240510D01*
X196461988Y-39240511D01*
X196587511Y-39312982D01*
X196587512Y-39312982D01*
X196587515Y-39312984D01*
X196727525Y-39350500D01*
X196727528Y-39350500D01*
X196872472Y-39350500D01*
X196872475Y-39350500D01*
X197012485Y-39312984D01*
X197138015Y-39240509D01*
X197240509Y-39138015D01*
X197312984Y-39012485D01*
X197350500Y-38872475D01*
X197350500Y-38727525D01*
X197312984Y-38587515D01*
X197246565Y-38472475D01*
X197240511Y-38461988D01*
X197240506Y-38461982D01*
X197138017Y-38359493D01*
X197138011Y-38359488D01*
X197012488Y-38287017D01*
X197012489Y-38287017D01*
X197001006Y-38283940D01*
X196872475Y-38249500D01*
X196727525Y-38249500D01*
X196598993Y-38283940D01*
X196587511Y-38287017D01*
X196461988Y-38359488D01*
X196461982Y-38359493D01*
X196359493Y-38461982D01*
X196359488Y-38461988D01*
X196287017Y-38587511D01*
X196287016Y-38587515D01*
X196249500Y-38727525D01*
X162046565Y-38727525D01*
X162112984Y-38612485D01*
X162150500Y-38472475D01*
X162150500Y-38327525D01*
X162112984Y-38187515D01*
X162091613Y-38150500D01*
X162040511Y-38061988D01*
X162040506Y-38061982D01*
X161938017Y-37959493D01*
X161938011Y-37959488D01*
X161812488Y-37887017D01*
X161812489Y-37887017D01*
X161801006Y-37883940D01*
X161672475Y-37849500D01*
X161527525Y-37849500D01*
X161398993Y-37883940D01*
X161387511Y-37887017D01*
X161261988Y-37959488D01*
X161261982Y-37959493D01*
X161159493Y-38061982D01*
X161159488Y-38061988D01*
X161087017Y-38187511D01*
X161087016Y-38187515D01*
X161049500Y-38327525D01*
X157410500Y-38327525D01*
X157410500Y-37527525D01*
X217849500Y-37527525D01*
X217849500Y-37672475D01*
X217887016Y-37812485D01*
X217887017Y-37812488D01*
X217959488Y-37938011D01*
X217959490Y-37938013D01*
X217959491Y-37938015D01*
X218061985Y-38040509D01*
X218061986Y-38040510D01*
X218061988Y-38040511D01*
X218187511Y-38112982D01*
X218187512Y-38112982D01*
X218187515Y-38112984D01*
X218327525Y-38150500D01*
X218327528Y-38150500D01*
X218472472Y-38150500D01*
X218472475Y-38150500D01*
X218612485Y-38112984D01*
X218738015Y-38040509D01*
X218840509Y-37938015D01*
X218912984Y-37812485D01*
X218950500Y-37672475D01*
X218950500Y-37527525D01*
X218912984Y-37387515D01*
X218896805Y-37359493D01*
X218840511Y-37261988D01*
X218840506Y-37261982D01*
X218738017Y-37159493D01*
X218738011Y-37159488D01*
X218612488Y-37087017D01*
X218612489Y-37087017D01*
X218601006Y-37083940D01*
X218472475Y-37049500D01*
X218327525Y-37049500D01*
X218198993Y-37083940D01*
X218187511Y-37087017D01*
X218061988Y-37159488D01*
X218061982Y-37159493D01*
X217959493Y-37261982D01*
X217959488Y-37261988D01*
X217887017Y-37387511D01*
X217887016Y-37387515D01*
X217849500Y-37527525D01*
X157410500Y-37527525D01*
X157410500Y-36927525D01*
X223449500Y-36927525D01*
X223449500Y-37072475D01*
X223487016Y-37212485D01*
X223487017Y-37212488D01*
X223559488Y-37338011D01*
X223559490Y-37338013D01*
X223559491Y-37338015D01*
X223661985Y-37440509D01*
X223661986Y-37440510D01*
X223661988Y-37440511D01*
X223787511Y-37512982D01*
X223787512Y-37512982D01*
X223787515Y-37512984D01*
X223927525Y-37550500D01*
X223927528Y-37550500D01*
X224072472Y-37550500D01*
X224072475Y-37550500D01*
X224212485Y-37512984D01*
X224338015Y-37440509D01*
X224440509Y-37338015D01*
X224512984Y-37212485D01*
X224546360Y-37087923D01*
X224582724Y-37028266D01*
X224645571Y-36997737D01*
X224714947Y-37006032D01*
X224753815Y-37032339D01*
X224761985Y-37040509D01*
X224761986Y-37040510D01*
X224761988Y-37040511D01*
X224887511Y-37112982D01*
X224887512Y-37112982D01*
X224887515Y-37112984D01*
X225012074Y-37146360D01*
X225071733Y-37182724D01*
X225102262Y-37245571D01*
X225093967Y-37314947D01*
X225067661Y-37353815D01*
X224959488Y-37461988D01*
X224887017Y-37587511D01*
X224887016Y-37587515D01*
X224849500Y-37727525D01*
X224849500Y-37872475D01*
X224872817Y-37959493D01*
X224887017Y-38012488D01*
X224959488Y-38138011D01*
X224959490Y-38138013D01*
X224959491Y-38138015D01*
X225061985Y-38240509D01*
X225061986Y-38240510D01*
X225061988Y-38240511D01*
X225187511Y-38312982D01*
X225187512Y-38312982D01*
X225187515Y-38312984D01*
X225327525Y-38350500D01*
X225327528Y-38350500D01*
X225472472Y-38350500D01*
X225472475Y-38350500D01*
X225612485Y-38312984D01*
X225738015Y-38240509D01*
X225840509Y-38138015D01*
X225912984Y-38012485D01*
X225950500Y-37872475D01*
X225950500Y-37727525D01*
X225912984Y-37587515D01*
X225891613Y-37550500D01*
X225840511Y-37461988D01*
X225840506Y-37461982D01*
X225738017Y-37359493D01*
X225738011Y-37359488D01*
X225612489Y-37287017D01*
X225519058Y-37261982D01*
X225487924Y-37253639D01*
X225428265Y-37217274D01*
X225397737Y-37154427D01*
X225406032Y-37085051D01*
X225432339Y-37046183D01*
X225438010Y-37040511D01*
X225438015Y-37040509D01*
X225540509Y-36938015D01*
X225612984Y-36812485D01*
X225650500Y-36672475D01*
X225650500Y-36527525D01*
X225612984Y-36387515D01*
X225540509Y-36261985D01*
X225438015Y-36159491D01*
X225438013Y-36159490D01*
X225438011Y-36159488D01*
X225312488Y-36087017D01*
X225312489Y-36087017D01*
X225301006Y-36083940D01*
X225172475Y-36049500D01*
X225027525Y-36049500D01*
X224898993Y-36083940D01*
X224887511Y-36087017D01*
X224761988Y-36159488D01*
X224761982Y-36159493D01*
X224659493Y-36261982D01*
X224659488Y-36261988D01*
X224587017Y-36387511D01*
X224587015Y-36387515D01*
X224553639Y-36512074D01*
X224517274Y-36571734D01*
X224454427Y-36602262D01*
X224385051Y-36593967D01*
X224346184Y-36567660D01*
X224338017Y-36559493D01*
X224338011Y-36559488D01*
X224212488Y-36487017D01*
X224212489Y-36487017D01*
X224201006Y-36483940D01*
X224072475Y-36449500D01*
X223927525Y-36449500D01*
X223798993Y-36483940D01*
X223787511Y-36487017D01*
X223661988Y-36559488D01*
X223661982Y-36559493D01*
X223559493Y-36661982D01*
X223559488Y-36661988D01*
X223487017Y-36787511D01*
X223487016Y-36787515D01*
X223449500Y-36927525D01*
X157410500Y-36927525D01*
X157410500Y-32327525D01*
X192449500Y-32327525D01*
X192449500Y-32472475D01*
X192460087Y-32511985D01*
X192487017Y-32612488D01*
X192559488Y-32738011D01*
X192559490Y-32738013D01*
X192559491Y-32738015D01*
X192661985Y-32840509D01*
X192661986Y-32840510D01*
X192661988Y-32840511D01*
X192787511Y-32912982D01*
X192787512Y-32912982D01*
X192787515Y-32912984D01*
X192927525Y-32950500D01*
X192927528Y-32950500D01*
X193072472Y-32950500D01*
X193072475Y-32950500D01*
X193212485Y-32912984D01*
X193338015Y-32840509D01*
X193400999Y-32777525D01*
X212099500Y-32777525D01*
X212099500Y-32922475D01*
X212137016Y-33062485D01*
X212137017Y-33062488D01*
X212209488Y-33188011D01*
X212209490Y-33188013D01*
X212209491Y-33188015D01*
X212311985Y-33290509D01*
X212311986Y-33290510D01*
X212311988Y-33290511D01*
X212437511Y-33362982D01*
X212437512Y-33362982D01*
X212437515Y-33362984D01*
X212577525Y-33400500D01*
X212577528Y-33400500D01*
X212722472Y-33400500D01*
X212722475Y-33400500D01*
X212862485Y-33362984D01*
X212988015Y-33290509D01*
X213090509Y-33188015D01*
X213162984Y-33062485D01*
X213200500Y-32922475D01*
X213200500Y-32777525D01*
X213162984Y-32637515D01*
X213090509Y-32511985D01*
X212988015Y-32409491D01*
X212988013Y-32409490D01*
X212988011Y-32409488D01*
X212862488Y-32337017D01*
X212862489Y-32337017D01*
X212851006Y-32333940D01*
X212722475Y-32299500D01*
X212577525Y-32299500D01*
X212448993Y-32333940D01*
X212437511Y-32337017D01*
X212311988Y-32409488D01*
X212311982Y-32409493D01*
X212209493Y-32511982D01*
X212209488Y-32511988D01*
X212137017Y-32637511D01*
X212137016Y-32637515D01*
X212099500Y-32777525D01*
X193400999Y-32777525D01*
X193440509Y-32738015D01*
X193512984Y-32612485D01*
X193550500Y-32472475D01*
X193550500Y-32327525D01*
X193512984Y-32187515D01*
X193440509Y-32061985D01*
X193338015Y-31959491D01*
X193338013Y-31959490D01*
X193338011Y-31959488D01*
X193212488Y-31887017D01*
X193212489Y-31887017D01*
X193201006Y-31883940D01*
X193072475Y-31849500D01*
X192927525Y-31849500D01*
X192798993Y-31883940D01*
X192787511Y-31887017D01*
X192661988Y-31959488D01*
X192661982Y-31959493D01*
X192559493Y-32061982D01*
X192559488Y-32061988D01*
X192487017Y-32187511D01*
X192487016Y-32187515D01*
X192449500Y-32327525D01*
X157410500Y-32327525D01*
X157410500Y-30128389D01*
X211349500Y-30128389D01*
X211349500Y-30301611D01*
X211376598Y-30472701D01*
X211430127Y-30637445D01*
X211508768Y-30791788D01*
X211610586Y-30931928D01*
X211733072Y-31054414D01*
X211873212Y-31156232D01*
X212027555Y-31234873D01*
X212192299Y-31288402D01*
X212363389Y-31315500D01*
X212363390Y-31315500D01*
X212536610Y-31315500D01*
X212536611Y-31315500D01*
X212707701Y-31288402D01*
X212872445Y-31234873D01*
X213026788Y-31156232D01*
X213166928Y-31054414D01*
X213289414Y-30931928D01*
X213391232Y-30791788D01*
X213469873Y-30637445D01*
X213523402Y-30472701D01*
X213550500Y-30301611D01*
X213550500Y-30128389D01*
X213523402Y-29957299D01*
X213469873Y-29792555D01*
X213391232Y-29638212D01*
X213289414Y-29498072D01*
X213166928Y-29375586D01*
X213026788Y-29273768D01*
X212872445Y-29195127D01*
X212707701Y-29141598D01*
X212707699Y-29141597D01*
X212707698Y-29141597D01*
X212576271Y-29120781D01*
X212536611Y-29114500D01*
X212363389Y-29114500D01*
X212323728Y-29120781D01*
X212192302Y-29141597D01*
X212027552Y-29195128D01*
X211873211Y-29273768D01*
X211793256Y-29331859D01*
X211733072Y-29375586D01*
X211733070Y-29375588D01*
X211733069Y-29375588D01*
X211610588Y-29498069D01*
X211610588Y-29498070D01*
X211610586Y-29498072D01*
X211596267Y-29517781D01*
X211508768Y-29638211D01*
X211430128Y-29792552D01*
X211376597Y-29957302D01*
X211349500Y-30128389D01*
X157410500Y-30128389D01*
X157410500Y-28978543D01*
X177000749Y-28978543D01*
X177039197Y-29171829D01*
X177039200Y-29171839D01*
X177114614Y-29353907D01*
X177114621Y-29353920D01*
X177224110Y-29517781D01*
X177224113Y-29517785D01*
X177363464Y-29657136D01*
X177363468Y-29657139D01*
X177527329Y-29766628D01*
X177527342Y-29766635D01*
X177709410Y-29842049D01*
X177709415Y-29842051D01*
X177709419Y-29842051D01*
X177709420Y-29842052D01*
X177902706Y-29880500D01*
X177902709Y-29880500D01*
X178099793Y-29880500D01*
X178229832Y-29854632D01*
X178293085Y-29842051D01*
X178475164Y-29766632D01*
X178639032Y-29657139D01*
X178778389Y-29517782D01*
X178887882Y-29353914D01*
X178963301Y-29171835D01*
X179001750Y-28978543D01*
X179540749Y-28978543D01*
X179579197Y-29171829D01*
X179579200Y-29171839D01*
X179654614Y-29353907D01*
X179654621Y-29353920D01*
X179764110Y-29517781D01*
X179764113Y-29517785D01*
X179903464Y-29657136D01*
X179903468Y-29657139D01*
X180067329Y-29766628D01*
X180067342Y-29766635D01*
X180249410Y-29842049D01*
X180249415Y-29842051D01*
X180249419Y-29842051D01*
X180249420Y-29842052D01*
X180442706Y-29880500D01*
X180442709Y-29880500D01*
X180639793Y-29880500D01*
X180769832Y-29854632D01*
X180833085Y-29842051D01*
X181015164Y-29766632D01*
X181179032Y-29657139D01*
X181318389Y-29517782D01*
X181427882Y-29353914D01*
X181503301Y-29171835D01*
X181541750Y-28978543D01*
X182080749Y-28978543D01*
X182119197Y-29171829D01*
X182119200Y-29171839D01*
X182194614Y-29353907D01*
X182194621Y-29353920D01*
X182304110Y-29517781D01*
X182304113Y-29517785D01*
X182443464Y-29657136D01*
X182443468Y-29657139D01*
X182607329Y-29766628D01*
X182607342Y-29766635D01*
X182789410Y-29842049D01*
X182789415Y-29842051D01*
X182789419Y-29842051D01*
X182789420Y-29842052D01*
X182982706Y-29880500D01*
X182982709Y-29880500D01*
X183179793Y-29880500D01*
X183309832Y-29854632D01*
X183373085Y-29842051D01*
X183555164Y-29766632D01*
X183719032Y-29657139D01*
X183858389Y-29517782D01*
X183967882Y-29353914D01*
X184043301Y-29171835D01*
X184081750Y-28978543D01*
X184620749Y-28978543D01*
X184659197Y-29171829D01*
X184659200Y-29171839D01*
X184734614Y-29353907D01*
X184734621Y-29353920D01*
X184844110Y-29517781D01*
X184844113Y-29517785D01*
X184983464Y-29657136D01*
X184983468Y-29657139D01*
X185147329Y-29766628D01*
X185147342Y-29766635D01*
X185329410Y-29842049D01*
X185329415Y-29842051D01*
X185329419Y-29842051D01*
X185329420Y-29842052D01*
X185522706Y-29880500D01*
X185522709Y-29880500D01*
X185719793Y-29880500D01*
X185849832Y-29854632D01*
X185913085Y-29842051D01*
X186095164Y-29766632D01*
X186259032Y-29657139D01*
X186398389Y-29517782D01*
X186507882Y-29353914D01*
X186583301Y-29171835D01*
X186621750Y-28978543D01*
X187160749Y-28978543D01*
X187199197Y-29171829D01*
X187199200Y-29171839D01*
X187274614Y-29353907D01*
X187274621Y-29353920D01*
X187384110Y-29517781D01*
X187384113Y-29517785D01*
X187523464Y-29657136D01*
X187523468Y-29657139D01*
X187687329Y-29766628D01*
X187687342Y-29766635D01*
X187869410Y-29842049D01*
X187869415Y-29842051D01*
X187869419Y-29842051D01*
X187869420Y-29842052D01*
X188062706Y-29880500D01*
X188062709Y-29880500D01*
X188259793Y-29880500D01*
X188389832Y-29854632D01*
X188453085Y-29842051D01*
X188635164Y-29766632D01*
X188799032Y-29657139D01*
X188938389Y-29517782D01*
X189047882Y-29353914D01*
X189123301Y-29171835D01*
X189161750Y-28978543D01*
X189700749Y-28978543D01*
X189739197Y-29171829D01*
X189739200Y-29171839D01*
X189814614Y-29353907D01*
X189814621Y-29353920D01*
X189924110Y-29517781D01*
X189924113Y-29517785D01*
X190063464Y-29657136D01*
X190063468Y-29657139D01*
X190227329Y-29766628D01*
X190227342Y-29766635D01*
X190409410Y-29842049D01*
X190409415Y-29842051D01*
X190409419Y-29842051D01*
X190409420Y-29842052D01*
X190602706Y-29880500D01*
X190602709Y-29880500D01*
X190799793Y-29880500D01*
X190929832Y-29854632D01*
X190993085Y-29842051D01*
X191175164Y-29766632D01*
X191339032Y-29657139D01*
X191478389Y-29517782D01*
X191587882Y-29353914D01*
X191663301Y-29171835D01*
X191701750Y-28978541D01*
X191701750Y-28781459D01*
X191701750Y-28781456D01*
X191663302Y-28588170D01*
X191663301Y-28588169D01*
X191663301Y-28588165D01*
X191647359Y-28549678D01*
X191587885Y-28406092D01*
X191587878Y-28406079D01*
X191478389Y-28242218D01*
X191478386Y-28242214D01*
X191339035Y-28102863D01*
X191339031Y-28102860D01*
X191175170Y-27993371D01*
X191175157Y-27993364D01*
X190993089Y-27917950D01*
X190993079Y-27917947D01*
X190799793Y-27879500D01*
X190799791Y-27879500D01*
X190602709Y-27879500D01*
X190602707Y-27879500D01*
X190409420Y-27917947D01*
X190409410Y-27917950D01*
X190227342Y-27993364D01*
X190227329Y-27993371D01*
X190063468Y-28102860D01*
X190063464Y-28102863D01*
X189924113Y-28242214D01*
X189924110Y-28242218D01*
X189814621Y-28406079D01*
X189814614Y-28406092D01*
X189739200Y-28588160D01*
X189739197Y-28588170D01*
X189700750Y-28781456D01*
X189700750Y-28781459D01*
X189700750Y-28978541D01*
X189700750Y-28978543D01*
X189700749Y-28978543D01*
X189161750Y-28978543D01*
X189161750Y-28978541D01*
X189161750Y-28781459D01*
X189161750Y-28781456D01*
X189123302Y-28588170D01*
X189123301Y-28588169D01*
X189123301Y-28588165D01*
X189107359Y-28549678D01*
X189047885Y-28406092D01*
X189047878Y-28406079D01*
X188938389Y-28242218D01*
X188938386Y-28242214D01*
X188799035Y-28102863D01*
X188799031Y-28102860D01*
X188635170Y-27993371D01*
X188635157Y-27993364D01*
X188453089Y-27917950D01*
X188453079Y-27917947D01*
X188259793Y-27879500D01*
X188259791Y-27879500D01*
X188062709Y-27879500D01*
X188062707Y-27879500D01*
X187869420Y-27917947D01*
X187869410Y-27917950D01*
X187687342Y-27993364D01*
X187687329Y-27993371D01*
X187523468Y-28102860D01*
X187523464Y-28102863D01*
X187384113Y-28242214D01*
X187384110Y-28242218D01*
X187274621Y-28406079D01*
X187274614Y-28406092D01*
X187199200Y-28588160D01*
X187199197Y-28588170D01*
X187160750Y-28781456D01*
X187160750Y-28781459D01*
X187160750Y-28978541D01*
X187160750Y-28978543D01*
X187160749Y-28978543D01*
X186621750Y-28978543D01*
X186621750Y-28978541D01*
X186621750Y-28781459D01*
X186621750Y-28781456D01*
X186583302Y-28588170D01*
X186583301Y-28588169D01*
X186583301Y-28588165D01*
X186567359Y-28549678D01*
X186507885Y-28406092D01*
X186507878Y-28406079D01*
X186398389Y-28242218D01*
X186398386Y-28242214D01*
X186259035Y-28102863D01*
X186259031Y-28102860D01*
X186095170Y-27993371D01*
X186095157Y-27993364D01*
X185913089Y-27917950D01*
X185913079Y-27917947D01*
X185719793Y-27879500D01*
X185719791Y-27879500D01*
X185522709Y-27879500D01*
X185522707Y-27879500D01*
X185329420Y-27917947D01*
X185329410Y-27917950D01*
X185147342Y-27993364D01*
X185147329Y-27993371D01*
X184983468Y-28102860D01*
X184983464Y-28102863D01*
X184844113Y-28242214D01*
X184844110Y-28242218D01*
X184734621Y-28406079D01*
X184734614Y-28406092D01*
X184659200Y-28588160D01*
X184659197Y-28588170D01*
X184620750Y-28781456D01*
X184620750Y-28781459D01*
X184620750Y-28978541D01*
X184620750Y-28978543D01*
X184620749Y-28978543D01*
X184081750Y-28978543D01*
X184081750Y-28978541D01*
X184081750Y-28781459D01*
X184081750Y-28781456D01*
X184043302Y-28588170D01*
X184043301Y-28588169D01*
X184043301Y-28588165D01*
X184027359Y-28549678D01*
X183967885Y-28406092D01*
X183967878Y-28406079D01*
X183858389Y-28242218D01*
X183858386Y-28242214D01*
X183719035Y-28102863D01*
X183719031Y-28102860D01*
X183555170Y-27993371D01*
X183555157Y-27993364D01*
X183373089Y-27917950D01*
X183373079Y-27917947D01*
X183179793Y-27879500D01*
X183179791Y-27879500D01*
X182982709Y-27879500D01*
X182982707Y-27879500D01*
X182789420Y-27917947D01*
X182789410Y-27917950D01*
X182607342Y-27993364D01*
X182607329Y-27993371D01*
X182443468Y-28102860D01*
X182443464Y-28102863D01*
X182304113Y-28242214D01*
X182304110Y-28242218D01*
X182194621Y-28406079D01*
X182194614Y-28406092D01*
X182119200Y-28588160D01*
X182119197Y-28588170D01*
X182080750Y-28781456D01*
X182080750Y-28781459D01*
X182080750Y-28978541D01*
X182080750Y-28978543D01*
X182080749Y-28978543D01*
X181541750Y-28978543D01*
X181541750Y-28978541D01*
X181541750Y-28781459D01*
X181541750Y-28781456D01*
X181503302Y-28588170D01*
X181503301Y-28588169D01*
X181503301Y-28588165D01*
X181487359Y-28549678D01*
X181427885Y-28406092D01*
X181427878Y-28406079D01*
X181318389Y-28242218D01*
X181318386Y-28242214D01*
X181179035Y-28102863D01*
X181179031Y-28102860D01*
X181015170Y-27993371D01*
X181015157Y-27993364D01*
X180833089Y-27917950D01*
X180833079Y-27917947D01*
X180639793Y-27879500D01*
X180639791Y-27879500D01*
X180442709Y-27879500D01*
X180442707Y-27879500D01*
X180249420Y-27917947D01*
X180249410Y-27917950D01*
X180067342Y-27993364D01*
X180067329Y-27993371D01*
X179903468Y-28102860D01*
X179903464Y-28102863D01*
X179764113Y-28242214D01*
X179764110Y-28242218D01*
X179654621Y-28406079D01*
X179654614Y-28406092D01*
X179579200Y-28588160D01*
X179579197Y-28588170D01*
X179540750Y-28781456D01*
X179540750Y-28781459D01*
X179540750Y-28978541D01*
X179540750Y-28978543D01*
X179540749Y-28978543D01*
X179001750Y-28978543D01*
X179001750Y-28978541D01*
X179001750Y-28781459D01*
X179001750Y-28781456D01*
X178963302Y-28588170D01*
X178963301Y-28588169D01*
X178963301Y-28588165D01*
X178947359Y-28549678D01*
X178887885Y-28406092D01*
X178887878Y-28406079D01*
X178778389Y-28242218D01*
X178778386Y-28242214D01*
X178639035Y-28102863D01*
X178639031Y-28102860D01*
X178475170Y-27993371D01*
X178475157Y-27993364D01*
X178293089Y-27917950D01*
X178293079Y-27917947D01*
X178099793Y-27879500D01*
X178099791Y-27879500D01*
X177902709Y-27879500D01*
X177902707Y-27879500D01*
X177709420Y-27917947D01*
X177709410Y-27917950D01*
X177527342Y-27993364D01*
X177527329Y-27993371D01*
X177363468Y-28102860D01*
X177363464Y-28102863D01*
X177224113Y-28242214D01*
X177224110Y-28242218D01*
X177114621Y-28406079D01*
X177114614Y-28406092D01*
X177039200Y-28588160D01*
X177039197Y-28588170D01*
X177000750Y-28781456D01*
X177000750Y-28781459D01*
X177000750Y-28978541D01*
X177000750Y-28978543D01*
X177000749Y-28978543D01*
X157410500Y-28978543D01*
X157410500Y-26800321D01*
X211349500Y-26800321D01*
X211349500Y-28549678D01*
X211364032Y-28622735D01*
X211364033Y-28622739D01*
X211364034Y-28622740D01*
X211419399Y-28705601D01*
X211502260Y-28760966D01*
X211502264Y-28760967D01*
X211575321Y-28775499D01*
X211575324Y-28775500D01*
X211575326Y-28775500D01*
X213324676Y-28775500D01*
X213324677Y-28775499D01*
X213397740Y-28760966D01*
X213480601Y-28705601D01*
X213535966Y-28622740D01*
X213550500Y-28549674D01*
X213550500Y-26800326D01*
X213550500Y-26800323D01*
X213550499Y-26800321D01*
X213535967Y-26727264D01*
X213535966Y-26727260D01*
X213480601Y-26644399D01*
X213397740Y-26589034D01*
X213397739Y-26589033D01*
X213397735Y-26589032D01*
X213324677Y-26574500D01*
X213324674Y-26574500D01*
X211575326Y-26574500D01*
X211575323Y-26574500D01*
X211502264Y-26589032D01*
X211502260Y-26589033D01*
X211419399Y-26644399D01*
X211364033Y-26727260D01*
X211364032Y-26727264D01*
X211349500Y-26800321D01*
X157410500Y-26800321D01*
X157410500Y-24504500D01*
X157430185Y-24437461D01*
X157482989Y-24391706D01*
X157534500Y-24380500D01*
X231875500Y-24380500D01*
X231942539Y-24400185D01*
G37*
%TD.AperFunction*%
%TD*%
M02*
