%TF.GenerationSoftware,KiCad,Pcbnew,9.0.6*%
%TF.CreationDate,2026-03-06T19:06:09+01:00*%
%TF.ProjectId,nowyprojekt,6e6f7779-7072-46f6-9a65-6b742e6b6963,rev?*%
%TF.SameCoordinates,Original*%
%TF.FileFunction,Copper,L2,Inr*%
%TF.FilePolarity,Positive*%
%FSLAX46Y46*%
G04 Gerber Fmt 4.6, Leading zero omitted, Abs format (unit mm)*
G04 Created by KiCad (PCBNEW 9.0.6) date 2026-03-06 19:06:09*
%MOMM*%
%LPD*%
G01*
G04 APERTURE LIST*
%TA.AperFunction,ComponentPad*%
%ADD10R,1.500000X1.500000*%
%TD*%
%TA.AperFunction,ComponentPad*%
%ADD11C,1.500000*%
%TD*%
%TA.AperFunction,ComponentPad*%
%ADD12R,1.700000X1.700000*%
%TD*%
%TA.AperFunction,ComponentPad*%
%ADD13C,1.700000*%
%TD*%
%TA.AperFunction,ViaPad*%
%ADD14C,0.600000*%
%TD*%
G04 APERTURE END LIST*
D10*
%TO.N,Net-(U1-e)*%
%TO.C,U1*%
X178001250Y-44120000D03*
D11*
%TO.N,Net-(U1-d)*%
X180541250Y-44120000D03*
%TO.N,Net-(U1-DPX)*%
X183081250Y-44120000D03*
%TO.N,Net-(U1-c)*%
X185621250Y-44120000D03*
%TO.N,Net-(U1-g)*%
X188161250Y-44120000D03*
%TO.N,Net-(Q4-C)*%
X190701250Y-44120000D03*
%TO.N,Net-(U1-b)*%
X190701250Y-28880000D03*
%TO.N,Net-(Q3-C)*%
X188161250Y-28880000D03*
%TO.N,Net-(Q2-C)*%
X185621250Y-28880000D03*
%TO.N,Net-(U1-f)*%
X183081250Y-28880000D03*
%TO.N,Net-(U1-a)*%
X180541250Y-28880000D03*
%TO.N,Net-(Q1-C)*%
X178001250Y-28880000D03*
%TD*%
D12*
%TO.N,GND*%
%TO.C,J4*%
X165150000Y-54240000D03*
D13*
X165150000Y-56780000D03*
X165150000Y-59320000D03*
X165150000Y-61860000D03*
%TO.N,PD5*%
X165150000Y-64400000D03*
%TO.N,PD6*%
X165150000Y-66940000D03*
%TO.N,PD7*%
X165150000Y-69480000D03*
%TO.N,+5V*%
X165150000Y-72020000D03*
%TO.N,PB0*%
X165150000Y-74560000D03*
%TO.N,PB1*%
X165150000Y-77100000D03*
%TO.N,PB2*%
X165150000Y-79640000D03*
%TO.N,PB3*%
X165150000Y-82180000D03*
%TO.N,PB4*%
X165150000Y-84720000D03*
%TO.N,PB5*%
X165150000Y-87260000D03*
%TO.N,ADC1*%
X165150000Y-89800000D03*
%TD*%
D12*
%TO.N,+5V*%
%TO.C,J3*%
X194150000Y-54100000D03*
D13*
%TO.N,GND*%
X194150000Y-56640000D03*
%TO.N,PD4*%
X194150000Y-59180000D03*
%TO.N,PD3*%
X194150000Y-61720000D03*
%TO.N,PD2*%
X194150000Y-64260000D03*
%TO.N,PD1*%
X194150000Y-66800000D03*
%TO.N,PD0*%
X194150000Y-69340000D03*
%TO.N,PC6*%
X194150000Y-71880000D03*
%TO.N,PC5*%
X194150000Y-74420000D03*
%TO.N,PC4*%
X194150000Y-76960000D03*
%TO.N,PC3*%
X194150000Y-79500000D03*
%TO.N,PC2*%
X194150000Y-82040000D03*
%TO.N,PC1*%
X194150000Y-84580000D03*
%TO.N,PC0*%
X194150000Y-87120000D03*
%TO.N,ADC2*%
X194150000Y-89660000D03*
%TD*%
D12*
%TO.N,Net-(J2-Pin_1)*%
%TO.C,J2*%
X177100000Y-58870000D03*
D13*
%TO.N,unconnected-(J2-Pin_2-Pad2)*%
X174560000Y-58870000D03*
%TO.N,Net-(J2-Pin_3)*%
X172020000Y-58870000D03*
%TD*%
D12*
%TO.N,VIN*%
%TO.C,J1*%
X212450000Y-27675000D03*
D13*
%TO.N,GND*%
X212450000Y-30215000D03*
%TD*%
D14*
%TO.N,+5V*%
X170200000Y-39800000D03*
X176000000Y-66000000D03*
X193200000Y-31000000D03*
X162800000Y-37400000D03*
X176500000Y-66500000D03*
X221500000Y-37800000D03*
X170000000Y-40600000D03*
X162800000Y-38400000D03*
X196356239Y-39465642D03*
X192250000Y-54525000D03*
X178100000Y-67200000D03*
X222400000Y-37000000D03*
X171600000Y-80900000D03*
X190600000Y-70200000D03*
X193600000Y-31800000D03*
X221500000Y-36500000D03*
X182600000Y-89025000D03*
X195600000Y-39000000D03*
X178720229Y-66490545D03*
%TO.N,GND*%
X196800000Y-38800000D03*
X225100000Y-36600000D03*
X172400000Y-80600000D03*
X192250000Y-56025000D03*
X177305000Y-66840000D03*
X178200000Y-78500000D03*
X171000000Y-40600000D03*
X179905000Y-66240000D03*
X225400000Y-37800000D03*
X161600000Y-38400000D03*
X178450000Y-79200000D03*
X178000000Y-91200000D03*
X212650000Y-32850000D03*
X178750000Y-63250000D03*
X179482702Y-66732702D03*
X177250000Y-66000000D03*
X178000000Y-62750000D03*
X224000000Y-37000000D03*
X193000000Y-32400000D03*
X218400000Y-37600000D03*
%TO.N,PD0*%
X186005707Y-68765707D03*
%TO.N,PD6*%
X179650000Y-70660000D03*
%TO.N,PB1*%
X172100000Y-73090000D03*
%TO.N,PD2*%
X185855000Y-65215000D03*
%TO.N,PD1*%
X186550000Y-67210000D03*
%TO.N,PB4*%
X179400000Y-73160000D03*
%TO.N,PD3*%
X184530000Y-64490000D03*
%TO.N,PD7*%
X182000000Y-53000000D03*
X171850000Y-71490000D03*
X180250000Y-60410000D03*
%TO.N,PD4*%
X183300000Y-63850000D03*
%TO.N,PB2*%
X170750000Y-73890000D03*
%TO.N,PD5*%
X183500000Y-47800000D03*
X173650000Y-66010000D03*
X182650000Y-60010000D03*
%TO.N,PB3*%
X176692154Y-72160000D03*
%TD*%
%TA.AperFunction,Conductor*%
%TO.N,GND*%
G36*
X231942539Y-24400185D02*
G01*
X231988294Y-24452989D01*
X231999500Y-24504500D01*
X231999500Y-94035500D01*
X231979815Y-94102539D01*
X231927011Y-94148294D01*
X231875500Y-94159500D01*
X157534500Y-94159500D01*
X157467461Y-94139815D01*
X157421706Y-94087011D01*
X157410500Y-94035500D01*
X157410500Y-89713389D01*
X164049500Y-89713389D01*
X164049500Y-89886611D01*
X164076598Y-90057701D01*
X164130127Y-90222445D01*
X164208768Y-90376788D01*
X164310586Y-90516928D01*
X164433072Y-90639414D01*
X164573212Y-90741232D01*
X164727555Y-90819873D01*
X164892299Y-90873402D01*
X165063389Y-90900500D01*
X165063390Y-90900500D01*
X165236610Y-90900500D01*
X165236611Y-90900500D01*
X165407701Y-90873402D01*
X165572445Y-90819873D01*
X165726788Y-90741232D01*
X165866928Y-90639414D01*
X165989414Y-90516928D01*
X166091232Y-90376788D01*
X166169873Y-90222445D01*
X166223402Y-90057701D01*
X166250500Y-89886611D01*
X166250500Y-89713389D01*
X166223402Y-89542299D01*
X166169873Y-89377555D01*
X166091232Y-89223212D01*
X165989414Y-89083072D01*
X165866928Y-88960586D01*
X165855833Y-88952525D01*
X182049500Y-88952525D01*
X182049500Y-89097475D01*
X182083192Y-89223212D01*
X182087017Y-89237488D01*
X182159488Y-89363011D01*
X182159490Y-89363013D01*
X182159491Y-89363015D01*
X182261985Y-89465509D01*
X182261986Y-89465510D01*
X182261988Y-89465511D01*
X182387511Y-89537982D01*
X182387512Y-89537982D01*
X182387515Y-89537984D01*
X182527525Y-89575500D01*
X182527528Y-89575500D01*
X182672472Y-89575500D01*
X182672475Y-89575500D01*
X182680353Y-89573389D01*
X193049500Y-89573389D01*
X193049500Y-89746610D01*
X193071673Y-89886610D01*
X193076598Y-89917701D01*
X193130127Y-90082445D01*
X193208768Y-90236788D01*
X193310586Y-90376928D01*
X193433072Y-90499414D01*
X193573212Y-90601232D01*
X193727555Y-90679873D01*
X193892299Y-90733402D01*
X194063389Y-90760500D01*
X194063390Y-90760500D01*
X194236610Y-90760500D01*
X194236611Y-90760500D01*
X194407701Y-90733402D01*
X194572445Y-90679873D01*
X194726788Y-90601232D01*
X194866928Y-90499414D01*
X194989414Y-90376928D01*
X195091232Y-90236788D01*
X195169873Y-90082445D01*
X195223402Y-89917701D01*
X195250500Y-89746611D01*
X195250500Y-89573389D01*
X195223402Y-89402299D01*
X195169873Y-89237555D01*
X195091232Y-89083212D01*
X194989414Y-88943072D01*
X194866928Y-88820586D01*
X194726788Y-88718768D01*
X194572445Y-88640127D01*
X194407701Y-88586598D01*
X194407699Y-88586597D01*
X194407698Y-88586597D01*
X194276271Y-88565781D01*
X194236611Y-88559500D01*
X194063389Y-88559500D01*
X194023728Y-88565781D01*
X193892302Y-88586597D01*
X193727552Y-88640128D01*
X193573211Y-88718768D01*
X193493256Y-88776859D01*
X193433072Y-88820586D01*
X193433070Y-88820588D01*
X193433069Y-88820588D01*
X193310588Y-88943069D01*
X193310588Y-88943070D01*
X193310586Y-88943072D01*
X193297860Y-88960588D01*
X193208768Y-89083211D01*
X193130128Y-89237552D01*
X193076597Y-89402302D01*
X193049500Y-89573389D01*
X182680353Y-89573389D01*
X182812485Y-89537984D01*
X182938015Y-89465509D01*
X183040509Y-89363015D01*
X183112984Y-89237485D01*
X183150500Y-89097475D01*
X183150500Y-88952525D01*
X183112984Y-88812515D01*
X183094285Y-88780128D01*
X183040511Y-88686988D01*
X183040506Y-88686982D01*
X182938017Y-88584493D01*
X182938011Y-88584488D01*
X182812488Y-88512017D01*
X182812489Y-88512017D01*
X182801006Y-88508940D01*
X182672475Y-88474500D01*
X182527525Y-88474500D01*
X182398993Y-88508940D01*
X182387511Y-88512017D01*
X182261988Y-88584488D01*
X182261982Y-88584493D01*
X182159493Y-88686982D01*
X182159488Y-88686988D01*
X182087017Y-88812511D01*
X182087016Y-88812515D01*
X182049500Y-88952525D01*
X165855833Y-88952525D01*
X165726788Y-88858768D01*
X165572445Y-88780127D01*
X165407701Y-88726598D01*
X165407699Y-88726597D01*
X165407698Y-88726597D01*
X165276271Y-88705781D01*
X165236611Y-88699500D01*
X165063389Y-88699500D01*
X165023728Y-88705781D01*
X164892302Y-88726597D01*
X164727552Y-88780128D01*
X164573211Y-88858768D01*
X164486899Y-88921477D01*
X164433072Y-88960586D01*
X164433069Y-88960588D01*
X164310588Y-89083069D01*
X164310588Y-89083070D01*
X164310586Y-89083072D01*
X164300124Y-89097472D01*
X164208768Y-89223211D01*
X164130128Y-89377552D01*
X164076597Y-89542302D01*
X164071339Y-89575500D01*
X164049500Y-89713389D01*
X157410500Y-89713389D01*
X157410500Y-87173389D01*
X164049500Y-87173389D01*
X164049500Y-87346611D01*
X164076598Y-87517701D01*
X164130127Y-87682445D01*
X164208768Y-87836788D01*
X164310586Y-87976928D01*
X164433072Y-88099414D01*
X164573212Y-88201232D01*
X164727555Y-88279873D01*
X164892299Y-88333402D01*
X165063389Y-88360500D01*
X165063390Y-88360500D01*
X165236610Y-88360500D01*
X165236611Y-88360500D01*
X165407701Y-88333402D01*
X165572445Y-88279873D01*
X165726788Y-88201232D01*
X165866928Y-88099414D01*
X165989414Y-87976928D01*
X166091232Y-87836788D01*
X166169873Y-87682445D01*
X166223402Y-87517701D01*
X166250500Y-87346611D01*
X166250500Y-87173389D01*
X166228326Y-87033389D01*
X193049500Y-87033389D01*
X193049500Y-87206610D01*
X193071673Y-87346610D01*
X193076598Y-87377701D01*
X193130127Y-87542445D01*
X193208768Y-87696788D01*
X193310586Y-87836928D01*
X193433072Y-87959414D01*
X193573212Y-88061232D01*
X193727555Y-88139873D01*
X193892299Y-88193402D01*
X194063389Y-88220500D01*
X194063390Y-88220500D01*
X194236610Y-88220500D01*
X194236611Y-88220500D01*
X194407701Y-88193402D01*
X194572445Y-88139873D01*
X194726788Y-88061232D01*
X194866928Y-87959414D01*
X194989414Y-87836928D01*
X195091232Y-87696788D01*
X195169873Y-87542445D01*
X195223402Y-87377701D01*
X195250500Y-87206611D01*
X195250500Y-87033389D01*
X195223402Y-86862299D01*
X195169873Y-86697555D01*
X195091232Y-86543212D01*
X194989414Y-86403072D01*
X194866928Y-86280586D01*
X194726788Y-86178768D01*
X194572445Y-86100127D01*
X194407701Y-86046598D01*
X194407699Y-86046597D01*
X194407698Y-86046597D01*
X194276271Y-86025781D01*
X194236611Y-86019500D01*
X194063389Y-86019500D01*
X194023728Y-86025781D01*
X193892302Y-86046597D01*
X193727552Y-86100128D01*
X193573211Y-86178768D01*
X193493256Y-86236859D01*
X193433072Y-86280586D01*
X193433070Y-86280588D01*
X193433069Y-86280588D01*
X193310588Y-86403069D01*
X193310588Y-86403070D01*
X193310586Y-86403072D01*
X193297860Y-86420588D01*
X193208768Y-86543211D01*
X193130128Y-86697552D01*
X193076597Y-86862302D01*
X193049500Y-87033389D01*
X166228326Y-87033389D01*
X166223402Y-87002299D01*
X166169873Y-86837555D01*
X166091232Y-86683212D01*
X165989414Y-86543072D01*
X165866928Y-86420586D01*
X165726788Y-86318768D01*
X165572445Y-86240127D01*
X165407701Y-86186598D01*
X165407699Y-86186597D01*
X165407698Y-86186597D01*
X165276271Y-86165781D01*
X165236611Y-86159500D01*
X165063389Y-86159500D01*
X165023728Y-86165781D01*
X164892302Y-86186597D01*
X164727552Y-86240128D01*
X164573211Y-86318768D01*
X164493256Y-86376859D01*
X164433072Y-86420586D01*
X164433070Y-86420588D01*
X164433069Y-86420588D01*
X164310588Y-86543069D01*
X164310588Y-86543070D01*
X164310586Y-86543072D01*
X164266859Y-86603256D01*
X164208768Y-86683211D01*
X164130128Y-86837552D01*
X164076597Y-87002302D01*
X164069373Y-87047915D01*
X164049500Y-87173389D01*
X157410500Y-87173389D01*
X157410500Y-84481902D01*
X158599500Y-84481902D01*
X158599500Y-84718097D01*
X158636446Y-84951368D01*
X158709433Y-85175996D01*
X158771052Y-85296928D01*
X158816657Y-85386433D01*
X158955483Y-85577510D01*
X159122490Y-85744517D01*
X159313567Y-85883343D01*
X159412991Y-85934002D01*
X159524003Y-85990566D01*
X159524005Y-85990566D01*
X159524008Y-85990568D01*
X159644412Y-86029689D01*
X159748631Y-86063553D01*
X159981903Y-86100500D01*
X159981908Y-86100500D01*
X160218097Y-86100500D01*
X160451368Y-86063553D01*
X160675992Y-85990568D01*
X160886433Y-85883343D01*
X161077510Y-85744517D01*
X161244517Y-85577510D01*
X161383343Y-85386433D01*
X161490568Y-85175992D01*
X161563553Y-84951368D01*
X161581557Y-84837697D01*
X161600500Y-84718097D01*
X161600500Y-84633389D01*
X164049500Y-84633389D01*
X164049500Y-84806611D01*
X164076598Y-84977701D01*
X164130127Y-85142445D01*
X164208768Y-85296788D01*
X164310586Y-85436928D01*
X164433072Y-85559414D01*
X164573212Y-85661232D01*
X164727555Y-85739873D01*
X164892299Y-85793402D01*
X165063389Y-85820500D01*
X165063390Y-85820500D01*
X165236610Y-85820500D01*
X165236611Y-85820500D01*
X165407701Y-85793402D01*
X165572445Y-85739873D01*
X165726788Y-85661232D01*
X165866928Y-85559414D01*
X165989414Y-85436928D01*
X166091232Y-85296788D01*
X166169873Y-85142445D01*
X166223402Y-84977701D01*
X166250500Y-84806611D01*
X166250500Y-84633389D01*
X166228326Y-84493389D01*
X193049500Y-84493389D01*
X193049500Y-84666610D01*
X193071673Y-84806610D01*
X193076598Y-84837701D01*
X193130127Y-85002445D01*
X193208768Y-85156788D01*
X193310586Y-85296928D01*
X193433072Y-85419414D01*
X193573212Y-85521232D01*
X193727555Y-85599873D01*
X193892299Y-85653402D01*
X194063389Y-85680500D01*
X194063390Y-85680500D01*
X194236610Y-85680500D01*
X194236611Y-85680500D01*
X194407701Y-85653402D01*
X194572445Y-85599873D01*
X194726788Y-85521232D01*
X194866928Y-85419414D01*
X194989414Y-85296928D01*
X195091232Y-85156788D01*
X195169873Y-85002445D01*
X195223402Y-84837701D01*
X195250500Y-84666611D01*
X195250500Y-84493389D01*
X195248681Y-84481902D01*
X227499500Y-84481902D01*
X227499500Y-84718097D01*
X227536446Y-84951368D01*
X227609433Y-85175996D01*
X227671052Y-85296928D01*
X227716657Y-85386433D01*
X227855483Y-85577510D01*
X228022490Y-85744517D01*
X228213567Y-85883343D01*
X228312991Y-85934002D01*
X228424003Y-85990566D01*
X228424005Y-85990566D01*
X228424008Y-85990568D01*
X228544412Y-86029689D01*
X228648631Y-86063553D01*
X228881903Y-86100500D01*
X228881908Y-86100500D01*
X229118097Y-86100500D01*
X229351368Y-86063553D01*
X229575992Y-85990568D01*
X229786433Y-85883343D01*
X229977510Y-85744517D01*
X230144517Y-85577510D01*
X230283343Y-85386433D01*
X230390568Y-85175992D01*
X230463553Y-84951368D01*
X230481557Y-84837697D01*
X230500500Y-84718097D01*
X230500500Y-84481902D01*
X230463553Y-84248631D01*
X230390566Y-84024003D01*
X230308566Y-83863070D01*
X230283343Y-83813567D01*
X230144517Y-83622490D01*
X229977510Y-83455483D01*
X229786433Y-83316657D01*
X229575996Y-83209433D01*
X229351368Y-83136446D01*
X229118097Y-83099500D01*
X229118092Y-83099500D01*
X228881908Y-83099500D01*
X228881903Y-83099500D01*
X228648631Y-83136446D01*
X228424003Y-83209433D01*
X228213566Y-83316657D01*
X228104550Y-83395862D01*
X228022490Y-83455483D01*
X228022488Y-83455485D01*
X228022487Y-83455485D01*
X227855485Y-83622487D01*
X227855485Y-83622488D01*
X227855483Y-83622490D01*
X227799076Y-83700127D01*
X227716657Y-83813566D01*
X227609433Y-84024003D01*
X227536446Y-84248631D01*
X227499500Y-84481902D01*
X195248681Y-84481902D01*
X195223402Y-84322299D01*
X195169873Y-84157555D01*
X195091232Y-84003212D01*
X194989414Y-83863072D01*
X194866928Y-83740586D01*
X194726788Y-83638768D01*
X194572445Y-83560127D01*
X194407701Y-83506598D01*
X194407699Y-83506597D01*
X194407698Y-83506597D01*
X194276271Y-83485781D01*
X194236611Y-83479500D01*
X194063389Y-83479500D01*
X194023728Y-83485781D01*
X193892302Y-83506597D01*
X193727552Y-83560128D01*
X193573211Y-83638768D01*
X193493256Y-83696859D01*
X193433072Y-83740586D01*
X193433070Y-83740588D01*
X193433069Y-83740588D01*
X193310588Y-83863069D01*
X193310588Y-83863070D01*
X193310586Y-83863072D01*
X193297860Y-83880588D01*
X193208768Y-84003211D01*
X193130128Y-84157552D01*
X193076597Y-84322302D01*
X193049500Y-84493389D01*
X166228326Y-84493389D01*
X166223402Y-84462299D01*
X166169873Y-84297555D01*
X166091232Y-84143212D01*
X165989414Y-84003072D01*
X165866928Y-83880586D01*
X165726788Y-83778768D01*
X165572445Y-83700127D01*
X165407701Y-83646598D01*
X165407699Y-83646597D01*
X165407698Y-83646597D01*
X165255470Y-83622487D01*
X165236611Y-83619500D01*
X165063389Y-83619500D01*
X165044530Y-83622487D01*
X164892302Y-83646597D01*
X164727552Y-83700128D01*
X164573211Y-83778768D01*
X164525315Y-83813567D01*
X164433072Y-83880586D01*
X164433070Y-83880588D01*
X164433069Y-83880588D01*
X164310588Y-84003069D01*
X164310588Y-84003070D01*
X164310586Y-84003072D01*
X164295379Y-84024003D01*
X164208768Y-84143211D01*
X164130128Y-84297552D01*
X164076597Y-84462302D01*
X164069373Y-84507915D01*
X164049500Y-84633389D01*
X161600500Y-84633389D01*
X161600500Y-84481902D01*
X161563553Y-84248631D01*
X161490566Y-84024003D01*
X161408566Y-83863070D01*
X161383343Y-83813567D01*
X161244517Y-83622490D01*
X161077510Y-83455483D01*
X160886433Y-83316657D01*
X160675996Y-83209433D01*
X160451368Y-83136446D01*
X160218097Y-83099500D01*
X160218092Y-83099500D01*
X159981908Y-83099500D01*
X159981903Y-83099500D01*
X159748631Y-83136446D01*
X159524003Y-83209433D01*
X159313566Y-83316657D01*
X159204550Y-83395862D01*
X159122490Y-83455483D01*
X159122488Y-83455485D01*
X159122487Y-83455485D01*
X158955485Y-83622487D01*
X158955485Y-83622488D01*
X158955483Y-83622490D01*
X158899076Y-83700127D01*
X158816657Y-83813566D01*
X158709433Y-84024003D01*
X158636446Y-84248631D01*
X158599500Y-84481902D01*
X157410500Y-84481902D01*
X157410500Y-82093389D01*
X164049500Y-82093389D01*
X164049500Y-82266611D01*
X164076598Y-82437701D01*
X164130127Y-82602445D01*
X164208768Y-82756788D01*
X164310586Y-82896928D01*
X164433072Y-83019414D01*
X164573212Y-83121232D01*
X164727555Y-83199873D01*
X164892299Y-83253402D01*
X165063389Y-83280500D01*
X165063390Y-83280500D01*
X165236610Y-83280500D01*
X165236611Y-83280500D01*
X165407701Y-83253402D01*
X165572445Y-83199873D01*
X165726788Y-83121232D01*
X165866928Y-83019414D01*
X165989414Y-82896928D01*
X166091232Y-82756788D01*
X166169873Y-82602445D01*
X166223402Y-82437701D01*
X166250500Y-82266611D01*
X166250500Y-82093389D01*
X166228326Y-81953389D01*
X193049500Y-81953389D01*
X193049500Y-82126610D01*
X193071673Y-82266610D01*
X193076598Y-82297701D01*
X193130127Y-82462445D01*
X193208768Y-82616788D01*
X193310586Y-82756928D01*
X193433072Y-82879414D01*
X193573212Y-82981232D01*
X193727555Y-83059873D01*
X193892299Y-83113402D01*
X194063389Y-83140500D01*
X194063390Y-83140500D01*
X194236610Y-83140500D01*
X194236611Y-83140500D01*
X194407701Y-83113402D01*
X194572445Y-83059873D01*
X194726788Y-82981232D01*
X194866928Y-82879414D01*
X194989414Y-82756928D01*
X195091232Y-82616788D01*
X195169873Y-82462445D01*
X195223402Y-82297701D01*
X195250500Y-82126611D01*
X195250500Y-81953389D01*
X195223402Y-81782299D01*
X195169873Y-81617555D01*
X195091232Y-81463212D01*
X194989414Y-81323072D01*
X194866928Y-81200586D01*
X194726788Y-81098768D01*
X194572445Y-81020127D01*
X194407701Y-80966598D01*
X194407699Y-80966597D01*
X194407698Y-80966597D01*
X194276271Y-80945781D01*
X194236611Y-80939500D01*
X194063389Y-80939500D01*
X194023728Y-80945781D01*
X193892302Y-80966597D01*
X193727552Y-81020128D01*
X193573211Y-81098768D01*
X193493256Y-81156859D01*
X193433072Y-81200586D01*
X193433070Y-81200588D01*
X193433069Y-81200588D01*
X193310588Y-81323069D01*
X193310588Y-81323070D01*
X193310586Y-81323072D01*
X193297860Y-81340588D01*
X193208768Y-81463211D01*
X193130128Y-81617552D01*
X193076597Y-81782302D01*
X193049500Y-81953389D01*
X166228326Y-81953389D01*
X166223402Y-81922299D01*
X166169873Y-81757555D01*
X166091232Y-81603212D01*
X165989414Y-81463072D01*
X165866928Y-81340586D01*
X165726788Y-81238768D01*
X165572445Y-81160127D01*
X165407701Y-81106598D01*
X165407699Y-81106597D01*
X165407698Y-81106597D01*
X165276271Y-81085781D01*
X165236611Y-81079500D01*
X165063389Y-81079500D01*
X165023728Y-81085781D01*
X164892302Y-81106597D01*
X164727552Y-81160128D01*
X164573211Y-81238768D01*
X164493256Y-81296859D01*
X164433072Y-81340586D01*
X164433070Y-81340588D01*
X164433069Y-81340588D01*
X164310588Y-81463069D01*
X164310588Y-81463070D01*
X164310586Y-81463072D01*
X164266859Y-81523256D01*
X164208768Y-81603211D01*
X164130128Y-81757552D01*
X164076597Y-81922302D01*
X164069373Y-81967915D01*
X164049500Y-82093389D01*
X157410500Y-82093389D01*
X157410500Y-80827525D01*
X171049500Y-80827525D01*
X171049500Y-80972475D01*
X171085439Y-81106598D01*
X171087017Y-81112488D01*
X171159488Y-81238011D01*
X171159490Y-81238013D01*
X171159491Y-81238015D01*
X171261985Y-81340509D01*
X171261986Y-81340510D01*
X171261988Y-81340511D01*
X171387511Y-81412982D01*
X171387512Y-81412982D01*
X171387515Y-81412984D01*
X171527525Y-81450500D01*
X171527528Y-81450500D01*
X171672472Y-81450500D01*
X171672475Y-81450500D01*
X171812485Y-81412984D01*
X171938015Y-81340509D01*
X172040509Y-81238015D01*
X172112984Y-81112485D01*
X172150500Y-80972475D01*
X172150500Y-80827525D01*
X172112984Y-80687515D01*
X172051621Y-80581232D01*
X172040511Y-80561988D01*
X172040506Y-80561982D01*
X171938017Y-80459493D01*
X171938011Y-80459488D01*
X171812488Y-80387017D01*
X171812489Y-80387017D01*
X171801006Y-80383940D01*
X171672475Y-80349500D01*
X171527525Y-80349500D01*
X171398993Y-80383940D01*
X171387511Y-80387017D01*
X171261988Y-80459488D01*
X171261982Y-80459493D01*
X171159493Y-80561982D01*
X171159488Y-80561988D01*
X171087017Y-80687511D01*
X171087016Y-80687515D01*
X171049500Y-80827525D01*
X157410500Y-80827525D01*
X157410500Y-79553389D01*
X164049500Y-79553389D01*
X164049500Y-79726611D01*
X164076598Y-79897701D01*
X164130127Y-80062445D01*
X164208768Y-80216788D01*
X164310586Y-80356928D01*
X164433072Y-80479414D01*
X164573212Y-80581232D01*
X164727555Y-80659873D01*
X164892299Y-80713402D01*
X165063389Y-80740500D01*
X165063390Y-80740500D01*
X165236610Y-80740500D01*
X165236611Y-80740500D01*
X165407701Y-80713402D01*
X165572445Y-80659873D01*
X165726788Y-80581232D01*
X165866928Y-80479414D01*
X165989414Y-80356928D01*
X166091232Y-80216788D01*
X166169873Y-80062445D01*
X166223402Y-79897701D01*
X166250500Y-79726611D01*
X166250500Y-79553389D01*
X166228326Y-79413389D01*
X193049500Y-79413389D01*
X193049500Y-79586610D01*
X193071673Y-79726610D01*
X193076598Y-79757701D01*
X193130127Y-79922445D01*
X193208768Y-80076788D01*
X193310586Y-80216928D01*
X193433072Y-80339414D01*
X193573212Y-80441232D01*
X193727555Y-80519873D01*
X193892299Y-80573402D01*
X194063389Y-80600500D01*
X194063390Y-80600500D01*
X194236610Y-80600500D01*
X194236611Y-80600500D01*
X194407701Y-80573402D01*
X194572445Y-80519873D01*
X194726788Y-80441232D01*
X194866928Y-80339414D01*
X194989414Y-80216928D01*
X195091232Y-80076788D01*
X195169873Y-79922445D01*
X195223402Y-79757701D01*
X195250500Y-79586611D01*
X195250500Y-79413389D01*
X195223402Y-79242299D01*
X195169873Y-79077555D01*
X195091232Y-78923212D01*
X194989414Y-78783072D01*
X194866928Y-78660586D01*
X194726788Y-78558768D01*
X194572445Y-78480127D01*
X194407701Y-78426598D01*
X194407699Y-78426597D01*
X194407698Y-78426597D01*
X194276271Y-78405781D01*
X194236611Y-78399500D01*
X194063389Y-78399500D01*
X194023728Y-78405781D01*
X193892302Y-78426597D01*
X193727552Y-78480128D01*
X193573211Y-78558768D01*
X193493256Y-78616859D01*
X193433072Y-78660586D01*
X193433070Y-78660588D01*
X193433069Y-78660588D01*
X193310588Y-78783069D01*
X193310588Y-78783070D01*
X193310586Y-78783072D01*
X193297860Y-78800588D01*
X193208768Y-78923211D01*
X193130128Y-79077552D01*
X193076597Y-79242302D01*
X193049500Y-79413389D01*
X166228326Y-79413389D01*
X166223402Y-79382299D01*
X166169873Y-79217555D01*
X166091232Y-79063212D01*
X165989414Y-78923072D01*
X165866928Y-78800586D01*
X165726788Y-78698768D01*
X165572445Y-78620127D01*
X165407701Y-78566598D01*
X165407699Y-78566597D01*
X165407698Y-78566597D01*
X165276271Y-78545781D01*
X165236611Y-78539500D01*
X165063389Y-78539500D01*
X165023728Y-78545781D01*
X164892302Y-78566597D01*
X164727552Y-78620128D01*
X164573211Y-78698768D01*
X164493256Y-78756859D01*
X164433072Y-78800586D01*
X164433070Y-78800588D01*
X164433069Y-78800588D01*
X164310588Y-78923069D01*
X164310588Y-78923070D01*
X164310586Y-78923072D01*
X164266859Y-78983256D01*
X164208768Y-79063211D01*
X164130128Y-79217552D01*
X164076597Y-79382302D01*
X164069373Y-79427915D01*
X164049500Y-79553389D01*
X157410500Y-79553389D01*
X157410500Y-77013389D01*
X164049500Y-77013389D01*
X164049500Y-77186611D01*
X164076598Y-77357701D01*
X164130127Y-77522445D01*
X164208768Y-77676788D01*
X164310586Y-77816928D01*
X164433072Y-77939414D01*
X164573212Y-78041232D01*
X164727555Y-78119873D01*
X164892299Y-78173402D01*
X165063389Y-78200500D01*
X165063390Y-78200500D01*
X165236610Y-78200500D01*
X165236611Y-78200500D01*
X165407701Y-78173402D01*
X165572445Y-78119873D01*
X165726788Y-78041232D01*
X165866928Y-77939414D01*
X165989414Y-77816928D01*
X166091232Y-77676788D01*
X166169873Y-77522445D01*
X166223402Y-77357701D01*
X166250500Y-77186611D01*
X166250500Y-77013389D01*
X166228326Y-76873389D01*
X193049500Y-76873389D01*
X193049500Y-77046610D01*
X193071673Y-77186610D01*
X193076598Y-77217701D01*
X193130127Y-77382445D01*
X193208768Y-77536788D01*
X193310586Y-77676928D01*
X193433072Y-77799414D01*
X193573212Y-77901232D01*
X193727555Y-77979873D01*
X193892299Y-78033402D01*
X194063389Y-78060500D01*
X194063390Y-78060500D01*
X194236610Y-78060500D01*
X194236611Y-78060500D01*
X194407701Y-78033402D01*
X194572445Y-77979873D01*
X194726788Y-77901232D01*
X194866928Y-77799414D01*
X194989414Y-77676928D01*
X195091232Y-77536788D01*
X195169873Y-77382445D01*
X195223402Y-77217701D01*
X195250500Y-77046611D01*
X195250500Y-76873389D01*
X195223402Y-76702299D01*
X195169873Y-76537555D01*
X195091232Y-76383212D01*
X194989414Y-76243072D01*
X194866928Y-76120586D01*
X194726788Y-76018768D01*
X194572445Y-75940127D01*
X194407701Y-75886598D01*
X194407699Y-75886597D01*
X194407698Y-75886597D01*
X194276271Y-75865781D01*
X194236611Y-75859500D01*
X194063389Y-75859500D01*
X194023728Y-75865781D01*
X193892302Y-75886597D01*
X193727552Y-75940128D01*
X193573211Y-76018768D01*
X193493256Y-76076859D01*
X193433072Y-76120586D01*
X193433070Y-76120588D01*
X193433069Y-76120588D01*
X193310588Y-76243069D01*
X193310588Y-76243070D01*
X193310586Y-76243072D01*
X193297860Y-76260588D01*
X193208768Y-76383211D01*
X193130128Y-76537552D01*
X193076597Y-76702302D01*
X193049500Y-76873389D01*
X166228326Y-76873389D01*
X166223402Y-76842299D01*
X166169873Y-76677555D01*
X166091232Y-76523212D01*
X165989414Y-76383072D01*
X165866928Y-76260586D01*
X165726788Y-76158768D01*
X165572445Y-76080127D01*
X165407701Y-76026598D01*
X165407699Y-76026597D01*
X165407698Y-76026597D01*
X165276271Y-76005781D01*
X165236611Y-75999500D01*
X165063389Y-75999500D01*
X165023728Y-76005781D01*
X164892302Y-76026597D01*
X164727552Y-76080128D01*
X164573211Y-76158768D01*
X164493256Y-76216859D01*
X164433072Y-76260586D01*
X164433070Y-76260588D01*
X164433069Y-76260588D01*
X164310588Y-76383069D01*
X164310588Y-76383070D01*
X164310586Y-76383072D01*
X164266859Y-76443256D01*
X164208768Y-76523211D01*
X164130128Y-76677552D01*
X164076597Y-76842302D01*
X164069373Y-76887915D01*
X164049500Y-77013389D01*
X157410500Y-77013389D01*
X157410500Y-74473389D01*
X164049500Y-74473389D01*
X164049500Y-74646611D01*
X164076598Y-74817701D01*
X164130127Y-74982445D01*
X164208768Y-75136788D01*
X164310586Y-75276928D01*
X164433072Y-75399414D01*
X164573212Y-75501232D01*
X164727555Y-75579873D01*
X164892299Y-75633402D01*
X165063389Y-75660500D01*
X165063390Y-75660500D01*
X165236610Y-75660500D01*
X165236611Y-75660500D01*
X165407701Y-75633402D01*
X165572445Y-75579873D01*
X165726788Y-75501232D01*
X165866928Y-75399414D01*
X165989414Y-75276928D01*
X166091232Y-75136788D01*
X166169873Y-74982445D01*
X166223402Y-74817701D01*
X166250500Y-74646611D01*
X166250500Y-74473389D01*
X166223402Y-74302299D01*
X166169873Y-74137555D01*
X166091232Y-73983212D01*
X165989414Y-73843072D01*
X165963867Y-73817525D01*
X170199500Y-73817525D01*
X170199500Y-73962475D01*
X170208900Y-73997555D01*
X170237017Y-74102488D01*
X170309488Y-74228011D01*
X170309490Y-74228013D01*
X170309491Y-74228015D01*
X170411985Y-74330509D01*
X170411986Y-74330510D01*
X170411988Y-74330511D01*
X170537511Y-74402982D01*
X170537512Y-74402982D01*
X170537515Y-74402984D01*
X170677525Y-74440500D01*
X170677528Y-74440500D01*
X170822472Y-74440500D01*
X170822475Y-74440500D01*
X170962485Y-74402984D01*
X171083027Y-74333389D01*
X193049500Y-74333389D01*
X193049500Y-74506610D01*
X193071673Y-74646610D01*
X193076598Y-74677701D01*
X193130127Y-74842445D01*
X193208768Y-74996788D01*
X193310586Y-75136928D01*
X193433072Y-75259414D01*
X193573212Y-75361232D01*
X193727555Y-75439873D01*
X193892299Y-75493402D01*
X194063389Y-75520500D01*
X194063390Y-75520500D01*
X194236610Y-75520500D01*
X194236611Y-75520500D01*
X194407701Y-75493402D01*
X194572445Y-75439873D01*
X194726788Y-75361232D01*
X194866928Y-75259414D01*
X194989414Y-75136928D01*
X195091232Y-74996788D01*
X195169873Y-74842445D01*
X195223402Y-74677701D01*
X195250500Y-74506611D01*
X195250500Y-74333389D01*
X195223402Y-74162299D01*
X195169873Y-73997555D01*
X195091232Y-73843212D01*
X194989414Y-73703072D01*
X194866928Y-73580586D01*
X194726788Y-73478768D01*
X194572445Y-73400127D01*
X194407701Y-73346598D01*
X194407699Y-73346597D01*
X194407698Y-73346597D01*
X194276271Y-73325781D01*
X194236611Y-73319500D01*
X194063389Y-73319500D01*
X194023728Y-73325781D01*
X193892302Y-73346597D01*
X193727552Y-73400128D01*
X193573211Y-73478768D01*
X193502001Y-73530506D01*
X193433072Y-73580586D01*
X193433070Y-73580588D01*
X193433069Y-73580588D01*
X193310588Y-73703069D01*
X193310588Y-73703070D01*
X193310586Y-73703072D01*
X193297860Y-73720588D01*
X193208768Y-73843211D01*
X193130128Y-73997552D01*
X193076597Y-74162302D01*
X193049500Y-74333389D01*
X171083027Y-74333389D01*
X171088015Y-74330509D01*
X171190509Y-74228015D01*
X171262984Y-74102485D01*
X171300500Y-73962475D01*
X171300500Y-73817525D01*
X171262984Y-73677515D01*
X171241613Y-73640500D01*
X171190511Y-73551988D01*
X171190506Y-73551982D01*
X171088017Y-73449493D01*
X171088011Y-73449488D01*
X170962488Y-73377017D01*
X170962489Y-73377017D01*
X170945575Y-73372485D01*
X170822475Y-73339500D01*
X170677525Y-73339500D01*
X170554425Y-73372485D01*
X170537511Y-73377017D01*
X170411988Y-73449488D01*
X170411982Y-73449493D01*
X170309493Y-73551982D01*
X170309488Y-73551988D01*
X170237017Y-73677511D01*
X170237016Y-73677515D01*
X170199500Y-73817525D01*
X165963867Y-73817525D01*
X165866928Y-73720586D01*
X165726788Y-73618768D01*
X165690952Y-73600509D01*
X165572447Y-73540128D01*
X165572446Y-73540127D01*
X165572445Y-73540127D01*
X165407701Y-73486598D01*
X165407699Y-73486597D01*
X165407698Y-73486597D01*
X165276271Y-73465781D01*
X165236611Y-73459500D01*
X165063389Y-73459500D01*
X165023728Y-73465781D01*
X164892302Y-73486597D01*
X164727552Y-73540128D01*
X164573211Y-73618768D01*
X164498593Y-73672982D01*
X164433072Y-73720586D01*
X164433070Y-73720588D01*
X164433069Y-73720588D01*
X164310588Y-73843069D01*
X164310588Y-73843070D01*
X164310586Y-73843072D01*
X164282097Y-73882284D01*
X164208768Y-73983211D01*
X164130128Y-74137552D01*
X164076597Y-74302302D01*
X164060651Y-74402982D01*
X164049500Y-74473389D01*
X157410500Y-74473389D01*
X157410500Y-71933389D01*
X164049500Y-71933389D01*
X164049500Y-72106611D01*
X164076598Y-72277701D01*
X164130127Y-72442445D01*
X164208768Y-72596788D01*
X164310586Y-72736928D01*
X164433072Y-72859414D01*
X164573212Y-72961232D01*
X164727555Y-73039873D01*
X164892299Y-73093402D01*
X165063389Y-73120500D01*
X165063390Y-73120500D01*
X165236610Y-73120500D01*
X165236611Y-73120500D01*
X165407701Y-73093402D01*
X165572445Y-73039873D01*
X165616306Y-73017525D01*
X171549500Y-73017525D01*
X171549500Y-73162475D01*
X171568256Y-73232472D01*
X171587017Y-73302488D01*
X171659488Y-73428011D01*
X171659490Y-73428013D01*
X171659491Y-73428015D01*
X171761985Y-73530509D01*
X171761986Y-73530510D01*
X171761988Y-73530511D01*
X171887511Y-73602982D01*
X171887512Y-73602982D01*
X171887515Y-73602984D01*
X172027525Y-73640500D01*
X172027528Y-73640500D01*
X172172472Y-73640500D01*
X172172475Y-73640500D01*
X172312485Y-73602984D01*
X172438015Y-73530509D01*
X172540509Y-73428015D01*
X172612984Y-73302485D01*
X172650500Y-73162475D01*
X172650500Y-73087525D01*
X178849500Y-73087525D01*
X178849500Y-73232475D01*
X178880080Y-73346598D01*
X178887017Y-73372488D01*
X178959488Y-73498011D01*
X178959490Y-73498013D01*
X178959491Y-73498015D01*
X179061985Y-73600509D01*
X179061986Y-73600510D01*
X179061988Y-73600511D01*
X179187511Y-73672982D01*
X179187512Y-73672982D01*
X179187515Y-73672984D01*
X179327525Y-73710500D01*
X179327528Y-73710500D01*
X179472472Y-73710500D01*
X179472475Y-73710500D01*
X179612485Y-73672984D01*
X179738015Y-73600509D01*
X179840509Y-73498015D01*
X179912984Y-73372485D01*
X179950500Y-73232475D01*
X179950500Y-73087525D01*
X179912984Y-72947515D01*
X179890793Y-72909080D01*
X179840511Y-72821988D01*
X179840506Y-72821982D01*
X179738017Y-72719493D01*
X179738011Y-72719488D01*
X179612488Y-72647017D01*
X179612489Y-72647017D01*
X179601006Y-72643940D01*
X179472475Y-72609500D01*
X179327525Y-72609500D01*
X179198993Y-72643940D01*
X179187511Y-72647017D01*
X179061988Y-72719488D01*
X179061982Y-72719493D01*
X178959493Y-72821982D01*
X178959488Y-72821988D01*
X178887017Y-72947511D01*
X178887016Y-72947515D01*
X178849500Y-73087525D01*
X172650500Y-73087525D01*
X172650500Y-73017525D01*
X172612984Y-72877515D01*
X172602533Y-72859414D01*
X172540511Y-72751988D01*
X172540506Y-72751982D01*
X172438017Y-72649493D01*
X172438011Y-72649488D01*
X172312488Y-72577017D01*
X172312489Y-72577017D01*
X172301006Y-72573940D01*
X172172475Y-72539500D01*
X172027525Y-72539500D01*
X171898993Y-72573940D01*
X171887511Y-72577017D01*
X171761988Y-72649488D01*
X171761982Y-72649493D01*
X171659493Y-72751982D01*
X171659488Y-72751988D01*
X171587017Y-72877511D01*
X171587016Y-72877515D01*
X171549500Y-73017525D01*
X165616306Y-73017525D01*
X165726788Y-72961232D01*
X165866928Y-72859414D01*
X165989414Y-72736928D01*
X166091232Y-72596788D01*
X166169873Y-72442445D01*
X166223402Y-72277701D01*
X166250500Y-72106611D01*
X166250500Y-72087525D01*
X176141654Y-72087525D01*
X176141654Y-72232475D01*
X176179170Y-72372485D01*
X176179171Y-72372488D01*
X176251642Y-72498011D01*
X176251644Y-72498013D01*
X176251645Y-72498015D01*
X176354139Y-72600509D01*
X176354140Y-72600510D01*
X176354142Y-72600511D01*
X176479665Y-72672982D01*
X176479666Y-72672982D01*
X176479669Y-72672984D01*
X176619679Y-72710500D01*
X176619682Y-72710500D01*
X176764626Y-72710500D01*
X176764629Y-72710500D01*
X176904639Y-72672984D01*
X177030169Y-72600509D01*
X177132663Y-72498015D01*
X177205138Y-72372485D01*
X177242654Y-72232475D01*
X177242654Y-72087525D01*
X177205138Y-71947515D01*
X177132663Y-71821985D01*
X177104067Y-71793389D01*
X193049500Y-71793389D01*
X193049500Y-71966610D01*
X193071673Y-72106610D01*
X193076598Y-72137701D01*
X193130127Y-72302445D01*
X193208768Y-72456788D01*
X193310586Y-72596928D01*
X193433072Y-72719414D01*
X193573212Y-72821232D01*
X193727555Y-72899873D01*
X193892299Y-72953402D01*
X194063389Y-72980500D01*
X194063390Y-72980500D01*
X194236610Y-72980500D01*
X194236611Y-72980500D01*
X194407701Y-72953402D01*
X194572445Y-72899873D01*
X194726788Y-72821232D01*
X194866928Y-72719414D01*
X194989414Y-72596928D01*
X195091232Y-72456788D01*
X195169873Y-72302445D01*
X195223402Y-72137701D01*
X195250500Y-71966611D01*
X195250500Y-71793389D01*
X195223402Y-71622299D01*
X195169873Y-71457555D01*
X195091232Y-71303212D01*
X194989414Y-71163072D01*
X194866928Y-71040586D01*
X194726788Y-70938768D01*
X194572445Y-70860127D01*
X194407701Y-70806598D01*
X194407699Y-70806597D01*
X194407698Y-70806597D01*
X194276271Y-70785781D01*
X194236611Y-70779500D01*
X194063389Y-70779500D01*
X194023728Y-70785781D01*
X193892302Y-70806597D01*
X193727552Y-70860128D01*
X193573211Y-70938768D01*
X193520568Y-70977016D01*
X193433072Y-71040586D01*
X193433070Y-71040588D01*
X193433069Y-71040588D01*
X193310588Y-71163069D01*
X193310588Y-71163070D01*
X193310586Y-71163072D01*
X193266859Y-71223256D01*
X193208768Y-71303211D01*
X193130128Y-71457552D01*
X193076597Y-71622302D01*
X193049500Y-71793389D01*
X177104067Y-71793389D01*
X177030169Y-71719491D01*
X177030167Y-71719490D01*
X177030165Y-71719488D01*
X176904642Y-71647017D01*
X176904643Y-71647017D01*
X176893160Y-71643940D01*
X176764629Y-71609500D01*
X176619679Y-71609500D01*
X176491147Y-71643940D01*
X176479665Y-71647017D01*
X176354142Y-71719488D01*
X176354136Y-71719493D01*
X176251647Y-71821982D01*
X176251642Y-71821988D01*
X176179171Y-71947511D01*
X176179170Y-71947515D01*
X176141654Y-72087525D01*
X166250500Y-72087525D01*
X166250500Y-71933389D01*
X166223402Y-71762299D01*
X166169873Y-71597555D01*
X166091232Y-71443212D01*
X166072569Y-71417525D01*
X171299500Y-71417525D01*
X171299500Y-71562475D01*
X171337016Y-71702485D01*
X171337017Y-71702488D01*
X171409488Y-71828011D01*
X171409490Y-71828013D01*
X171409491Y-71828015D01*
X171511985Y-71930509D01*
X171511986Y-71930510D01*
X171511988Y-71930511D01*
X171637511Y-72002982D01*
X171637512Y-72002982D01*
X171637515Y-72002984D01*
X171777525Y-72040500D01*
X171777528Y-72040500D01*
X171922472Y-72040500D01*
X171922475Y-72040500D01*
X172062485Y-72002984D01*
X172188015Y-71930509D01*
X172290509Y-71828015D01*
X172362984Y-71702485D01*
X172400500Y-71562475D01*
X172400500Y-71417525D01*
X172362984Y-71277515D01*
X172296908Y-71163069D01*
X172290511Y-71151988D01*
X172290506Y-71151982D01*
X172188017Y-71049493D01*
X172188011Y-71049488D01*
X172062488Y-70977017D01*
X172062489Y-70977017D01*
X172051006Y-70973940D01*
X171922475Y-70939500D01*
X171777525Y-70939500D01*
X171648993Y-70973940D01*
X171637511Y-70977017D01*
X171511988Y-71049488D01*
X171511982Y-71049493D01*
X171409493Y-71151982D01*
X171409488Y-71151988D01*
X171337017Y-71277511D01*
X171337016Y-71277515D01*
X171299500Y-71417525D01*
X166072569Y-71417525D01*
X165989414Y-71303072D01*
X165866928Y-71180586D01*
X165726788Y-71078768D01*
X165572445Y-71000127D01*
X165407701Y-70946598D01*
X165407699Y-70946597D01*
X165407698Y-70946597D01*
X165276271Y-70925781D01*
X165236611Y-70919500D01*
X165063389Y-70919500D01*
X165023728Y-70925781D01*
X164892302Y-70946597D01*
X164727552Y-71000128D01*
X164573211Y-71078768D01*
X164543292Y-71100506D01*
X164433072Y-71180586D01*
X164433070Y-71180588D01*
X164433069Y-71180588D01*
X164310588Y-71303069D01*
X164310588Y-71303070D01*
X164310586Y-71303072D01*
X164266859Y-71363256D01*
X164208768Y-71443211D01*
X164130128Y-71597552D01*
X164076597Y-71762302D01*
X164066189Y-71828017D01*
X164049500Y-71933389D01*
X157410500Y-71933389D01*
X157410500Y-70587525D01*
X179099500Y-70587525D01*
X179099500Y-70732475D01*
X179133705Y-70860127D01*
X179137017Y-70872488D01*
X179209488Y-70998011D01*
X179209490Y-70998013D01*
X179209491Y-70998015D01*
X179311985Y-71100509D01*
X179311986Y-71100510D01*
X179311988Y-71100511D01*
X179437511Y-71172982D01*
X179437512Y-71172982D01*
X179437515Y-71172984D01*
X179577525Y-71210500D01*
X179577528Y-71210500D01*
X179722472Y-71210500D01*
X179722475Y-71210500D01*
X179862485Y-71172984D01*
X179988015Y-71100509D01*
X180090509Y-70998015D01*
X180162984Y-70872485D01*
X180200500Y-70732475D01*
X180200500Y-70587525D01*
X180162984Y-70447515D01*
X180147809Y-70421232D01*
X180090511Y-70321988D01*
X180090506Y-70321982D01*
X179988016Y-70219492D01*
X179988015Y-70219491D01*
X179966113Y-70206846D01*
X179862488Y-70147017D01*
X179862489Y-70147017D01*
X179851006Y-70143940D01*
X179789745Y-70127525D01*
X190049500Y-70127525D01*
X190049500Y-70272475D01*
X190087016Y-70412485D01*
X190087017Y-70412488D01*
X190159488Y-70538011D01*
X190159490Y-70538013D01*
X190159491Y-70538015D01*
X190261985Y-70640509D01*
X190261986Y-70640510D01*
X190261988Y-70640511D01*
X190387511Y-70712982D01*
X190387512Y-70712982D01*
X190387515Y-70712984D01*
X190527525Y-70750500D01*
X190527528Y-70750500D01*
X190672472Y-70750500D01*
X190672475Y-70750500D01*
X190812485Y-70712984D01*
X190938015Y-70640509D01*
X191040509Y-70538015D01*
X191112984Y-70412485D01*
X191150500Y-70272475D01*
X191150500Y-70127525D01*
X191112984Y-69987515D01*
X191040509Y-69861985D01*
X190938015Y-69759491D01*
X190938013Y-69759490D01*
X190938011Y-69759488D01*
X190812488Y-69687017D01*
X190812489Y-69687017D01*
X190801006Y-69683940D01*
X190672475Y-69649500D01*
X190527525Y-69649500D01*
X190398993Y-69683940D01*
X190387511Y-69687017D01*
X190261988Y-69759488D01*
X190261982Y-69759493D01*
X190159493Y-69861982D01*
X190159488Y-69861988D01*
X190087017Y-69987511D01*
X190087016Y-69987515D01*
X190049500Y-70127525D01*
X179789745Y-70127525D01*
X179722475Y-70109500D01*
X179577525Y-70109500D01*
X179448993Y-70143940D01*
X179437511Y-70147017D01*
X179311988Y-70219488D01*
X179311982Y-70219493D01*
X179209493Y-70321982D01*
X179209488Y-70321988D01*
X179137017Y-70447511D01*
X179137016Y-70447515D01*
X179099500Y-70587525D01*
X157410500Y-70587525D01*
X157410500Y-69393389D01*
X164049500Y-69393389D01*
X164049500Y-69566611D01*
X164076598Y-69737701D01*
X164130127Y-69902445D01*
X164208768Y-70056788D01*
X164310586Y-70196928D01*
X164433072Y-70319414D01*
X164573212Y-70421232D01*
X164727555Y-70499873D01*
X164892299Y-70553402D01*
X165063389Y-70580500D01*
X165063390Y-70580500D01*
X165236610Y-70580500D01*
X165236611Y-70580500D01*
X165407701Y-70553402D01*
X165572445Y-70499873D01*
X165726788Y-70421232D01*
X165866928Y-70319414D01*
X165989414Y-70196928D01*
X166091232Y-70056788D01*
X166169873Y-69902445D01*
X166223402Y-69737701D01*
X166250500Y-69566611D01*
X166250500Y-69393389D01*
X166223402Y-69222299D01*
X166169873Y-69057555D01*
X166091232Y-68903212D01*
X165989414Y-68763072D01*
X165919574Y-68693232D01*
X185455207Y-68693232D01*
X185455207Y-68838182D01*
X185492723Y-68978192D01*
X185492724Y-68978195D01*
X185565195Y-69103718D01*
X185565197Y-69103720D01*
X185565198Y-69103722D01*
X185667692Y-69206216D01*
X185667693Y-69206217D01*
X185667695Y-69206218D01*
X185793218Y-69278689D01*
X185793219Y-69278689D01*
X185793222Y-69278691D01*
X185933232Y-69316207D01*
X185933235Y-69316207D01*
X186078179Y-69316207D01*
X186078182Y-69316207D01*
X186218192Y-69278691D01*
X186262016Y-69253389D01*
X193049500Y-69253389D01*
X193049500Y-69426610D01*
X193071673Y-69566610D01*
X193076598Y-69597701D01*
X193130127Y-69762445D01*
X193208768Y-69916788D01*
X193310586Y-70056928D01*
X193433072Y-70179414D01*
X193573212Y-70281232D01*
X193727555Y-70359873D01*
X193892299Y-70413402D01*
X194063389Y-70440500D01*
X194063390Y-70440500D01*
X194236610Y-70440500D01*
X194236611Y-70440500D01*
X194407701Y-70413402D01*
X194572445Y-70359873D01*
X194726788Y-70281232D01*
X194866928Y-70179414D01*
X194989414Y-70056928D01*
X195091232Y-69916788D01*
X195169873Y-69762445D01*
X195223402Y-69597701D01*
X195250500Y-69426611D01*
X195250500Y-69253389D01*
X195223402Y-69082299D01*
X195169873Y-68917555D01*
X195091232Y-68763212D01*
X194989414Y-68623072D01*
X194866928Y-68500586D01*
X194726788Y-68398768D01*
X194582401Y-68325200D01*
X194572447Y-68320128D01*
X194572446Y-68320127D01*
X194572445Y-68320127D01*
X194407701Y-68266598D01*
X194407699Y-68266597D01*
X194407698Y-68266597D01*
X194276271Y-68245781D01*
X194236611Y-68239500D01*
X194063389Y-68239500D01*
X194023728Y-68245781D01*
X193892302Y-68266597D01*
X193727552Y-68320128D01*
X193573211Y-68398768D01*
X193493256Y-68456859D01*
X193433072Y-68500586D01*
X193433070Y-68500588D01*
X193433069Y-68500588D01*
X193310588Y-68623069D01*
X193310588Y-68623070D01*
X193310586Y-68623072D01*
X193297860Y-68640588D01*
X193208768Y-68763211D01*
X193130128Y-68917552D01*
X193076597Y-69082302D01*
X193049500Y-69253389D01*
X186262016Y-69253389D01*
X186343722Y-69206216D01*
X186446216Y-69103722D01*
X186518691Y-68978192D01*
X186556207Y-68838182D01*
X186556207Y-68693232D01*
X186518691Y-68553222D01*
X186488301Y-68500586D01*
X186446218Y-68427695D01*
X186446213Y-68427689D01*
X186343724Y-68325200D01*
X186343718Y-68325195D01*
X186218195Y-68252724D01*
X186218196Y-68252724D01*
X186206713Y-68249647D01*
X186078182Y-68215207D01*
X185933232Y-68215207D01*
X185804700Y-68249647D01*
X185793218Y-68252724D01*
X185667695Y-68325195D01*
X185667689Y-68325200D01*
X185565200Y-68427689D01*
X185565195Y-68427695D01*
X185492724Y-68553218D01*
X185492723Y-68553222D01*
X185455207Y-68693232D01*
X165919574Y-68693232D01*
X165866928Y-68640586D01*
X165726788Y-68538768D01*
X165572445Y-68460127D01*
X165407701Y-68406598D01*
X165407699Y-68406597D01*
X165407698Y-68406597D01*
X165276271Y-68385781D01*
X165236611Y-68379500D01*
X165063389Y-68379500D01*
X165023728Y-68385781D01*
X164892302Y-68406597D01*
X164727552Y-68460128D01*
X164573211Y-68538768D01*
X164493256Y-68596859D01*
X164433072Y-68640586D01*
X164433070Y-68640588D01*
X164433069Y-68640588D01*
X164310588Y-68763069D01*
X164310588Y-68763070D01*
X164310586Y-68763072D01*
X164266859Y-68823256D01*
X164208768Y-68903211D01*
X164130128Y-69057552D01*
X164076597Y-69222302D01*
X164067666Y-69278691D01*
X164049500Y-69393389D01*
X157410500Y-69393389D01*
X157410500Y-66853389D01*
X164049500Y-66853389D01*
X164049500Y-67026610D01*
X164065483Y-67127527D01*
X164076598Y-67197701D01*
X164130127Y-67362445D01*
X164208768Y-67516788D01*
X164310586Y-67656928D01*
X164433072Y-67779414D01*
X164573212Y-67881232D01*
X164727555Y-67959873D01*
X164892299Y-68013402D01*
X165063389Y-68040500D01*
X165063390Y-68040500D01*
X165236610Y-68040500D01*
X165236611Y-68040500D01*
X165407701Y-68013402D01*
X165572445Y-67959873D01*
X165726788Y-67881232D01*
X165866928Y-67779414D01*
X165989414Y-67656928D01*
X166091232Y-67516788D01*
X166169873Y-67362445D01*
X166223402Y-67197701D01*
X166234517Y-67127525D01*
X177549500Y-67127525D01*
X177549500Y-67272475D01*
X177577451Y-67376788D01*
X177587017Y-67412488D01*
X177659488Y-67538011D01*
X177659490Y-67538013D01*
X177659491Y-67538015D01*
X177761985Y-67640509D01*
X177761986Y-67640510D01*
X177761988Y-67640511D01*
X177887511Y-67712982D01*
X177887512Y-67712982D01*
X177887515Y-67712984D01*
X178027525Y-67750500D01*
X178027528Y-67750500D01*
X178172472Y-67750500D01*
X178172475Y-67750500D01*
X178312485Y-67712984D01*
X178438015Y-67640509D01*
X178540509Y-67538015D01*
X178612984Y-67412485D01*
X178650500Y-67272475D01*
X178650500Y-67165045D01*
X178658581Y-67137525D01*
X185999500Y-67137525D01*
X185999500Y-67282475D01*
X186037016Y-67422485D01*
X186037017Y-67422488D01*
X186109488Y-67548011D01*
X186109490Y-67548013D01*
X186109491Y-67548015D01*
X186211985Y-67650509D01*
X186211986Y-67650510D01*
X186211988Y-67650511D01*
X186337511Y-67722982D01*
X186337512Y-67722982D01*
X186337515Y-67722984D01*
X186477525Y-67760500D01*
X186477528Y-67760500D01*
X186622472Y-67760500D01*
X186622475Y-67760500D01*
X186762485Y-67722984D01*
X186888015Y-67650509D01*
X186990509Y-67548015D01*
X187062984Y-67422485D01*
X187100500Y-67282475D01*
X187100500Y-67137525D01*
X187062984Y-66997515D01*
X187057210Y-66987515D01*
X186990511Y-66871988D01*
X186990506Y-66871982D01*
X186888017Y-66769493D01*
X186888011Y-66769488D01*
X186790845Y-66713389D01*
X193049500Y-66713389D01*
X193049500Y-66886610D01*
X193075734Y-67052251D01*
X193076598Y-67057701D01*
X193130127Y-67222445D01*
X193208768Y-67376788D01*
X193310586Y-67516928D01*
X193433072Y-67639414D01*
X193573212Y-67741232D01*
X193727555Y-67819873D01*
X193892299Y-67873402D01*
X194063389Y-67900500D01*
X194063390Y-67900500D01*
X194236610Y-67900500D01*
X194236611Y-67900500D01*
X194407701Y-67873402D01*
X194572445Y-67819873D01*
X194726788Y-67741232D01*
X194866928Y-67639414D01*
X194989414Y-67516928D01*
X195091232Y-67376788D01*
X195169873Y-67222445D01*
X195223402Y-67057701D01*
X195250500Y-66886611D01*
X195250500Y-66713389D01*
X195223402Y-66542299D01*
X195169873Y-66377555D01*
X195091232Y-66223212D01*
X194989414Y-66083072D01*
X194866928Y-65960586D01*
X194726788Y-65858768D01*
X194572445Y-65780127D01*
X194407701Y-65726598D01*
X194407699Y-65726597D01*
X194407698Y-65726597D01*
X194276271Y-65705781D01*
X194236611Y-65699500D01*
X194063389Y-65699500D01*
X194023728Y-65705781D01*
X193892302Y-65726597D01*
X193727552Y-65780128D01*
X193573211Y-65858768D01*
X193493256Y-65916859D01*
X193433072Y-65960586D01*
X193433070Y-65960588D01*
X193433069Y-65960588D01*
X193310588Y-66083069D01*
X193310588Y-66083070D01*
X193310586Y-66083072D01*
X193297860Y-66100588D01*
X193208768Y-66223211D01*
X193130128Y-66377552D01*
X193076597Y-66542302D01*
X193049500Y-66713389D01*
X186790845Y-66713389D01*
X186762488Y-66697017D01*
X186762489Y-66697017D01*
X186751006Y-66693940D01*
X186622475Y-66659500D01*
X186477525Y-66659500D01*
X186348993Y-66693940D01*
X186337511Y-66697017D01*
X186211988Y-66769488D01*
X186211982Y-66769493D01*
X186109493Y-66871982D01*
X186109488Y-66871988D01*
X186037017Y-66997511D01*
X186033996Y-67008786D01*
X185999500Y-67137525D01*
X178658581Y-67137525D01*
X178670185Y-67098006D01*
X178722989Y-67052251D01*
X178748698Y-67043759D01*
X178761455Y-67041045D01*
X178792704Y-67041045D01*
X178932714Y-67003529D01*
X179058244Y-66931054D01*
X179160738Y-66828560D01*
X179233213Y-66703030D01*
X179270729Y-66563020D01*
X179270729Y-66418070D01*
X179233213Y-66278060D01*
X179201546Y-66223212D01*
X179160740Y-66152533D01*
X179160735Y-66152527D01*
X179058246Y-66050038D01*
X179058240Y-66050033D01*
X178932717Y-65977562D01*
X178932718Y-65977562D01*
X178921235Y-65974485D01*
X178792704Y-65940045D01*
X178647754Y-65940045D01*
X178519222Y-65974485D01*
X178507740Y-65977562D01*
X178382217Y-66050033D01*
X178382211Y-66050038D01*
X178279722Y-66152527D01*
X178279717Y-66152533D01*
X178207246Y-66278056D01*
X178202812Y-66294600D01*
X178169729Y-66418070D01*
X178169729Y-66418072D01*
X178169729Y-66525500D01*
X178150044Y-66592539D01*
X178097240Y-66638294D01*
X178045729Y-66649500D01*
X178027525Y-66649500D01*
X177905119Y-66682299D01*
X177887511Y-66687017D01*
X177761988Y-66759488D01*
X177761982Y-66759493D01*
X177659493Y-66861982D01*
X177659488Y-66861988D01*
X177587017Y-66987511D01*
X177587016Y-66987515D01*
X177549500Y-67127525D01*
X166234517Y-67127525D01*
X166250500Y-67026611D01*
X166250500Y-66853389D01*
X166223402Y-66682299D01*
X166169873Y-66517555D01*
X166091232Y-66363212D01*
X165989414Y-66223072D01*
X165866928Y-66100586D01*
X165726788Y-65998768D01*
X165606591Y-65937525D01*
X173099500Y-65937525D01*
X173099500Y-66082475D01*
X173137016Y-66222485D01*
X173137017Y-66222488D01*
X173209488Y-66348011D01*
X173209490Y-66348013D01*
X173209491Y-66348015D01*
X173311985Y-66450509D01*
X173311986Y-66450510D01*
X173311988Y-66450511D01*
X173437511Y-66522982D01*
X173437512Y-66522982D01*
X173437515Y-66522984D01*
X173577525Y-66560500D01*
X173577528Y-66560500D01*
X173722472Y-66560500D01*
X173722475Y-66560500D01*
X173862485Y-66522984D01*
X173988015Y-66450509D01*
X174090509Y-66348015D01*
X174162984Y-66222485D01*
X174200500Y-66082475D01*
X174200500Y-65937525D01*
X174197820Y-65927525D01*
X175449500Y-65927525D01*
X175449500Y-66072475D01*
X175487016Y-66212485D01*
X175487017Y-66212488D01*
X175559488Y-66338011D01*
X175559490Y-66338013D01*
X175559491Y-66338015D01*
X175661985Y-66440509D01*
X175661986Y-66440510D01*
X175661988Y-66440511D01*
X175787511Y-66512982D01*
X175787512Y-66512982D01*
X175787515Y-66512984D01*
X175875705Y-66536614D01*
X175935364Y-66572979D01*
X175963384Y-66624294D01*
X175987015Y-66712483D01*
X175987017Y-66712488D01*
X176059488Y-66838011D01*
X176059490Y-66838013D01*
X176059491Y-66838015D01*
X176161985Y-66940509D01*
X176161986Y-66940510D01*
X176161988Y-66940511D01*
X176287511Y-67012982D01*
X176287512Y-67012982D01*
X176287515Y-67012984D01*
X176427525Y-67050500D01*
X176427528Y-67050500D01*
X176572472Y-67050500D01*
X176572475Y-67050500D01*
X176712485Y-67012984D01*
X176714170Y-67012011D01*
X176714171Y-67012011D01*
X176756605Y-66987511D01*
X176838015Y-66940509D01*
X176940509Y-66838015D01*
X177012984Y-66712485D01*
X177050500Y-66572475D01*
X177050500Y-66427525D01*
X177012984Y-66287515D01*
X176969665Y-66212485D01*
X176940511Y-66161988D01*
X176940506Y-66161982D01*
X176838017Y-66059493D01*
X176838011Y-66059488D01*
X176712488Y-65987017D01*
X176712483Y-65987015D01*
X176624294Y-65963384D01*
X176564634Y-65927019D01*
X176536614Y-65875704D01*
X176526913Y-65839500D01*
X176512984Y-65787515D01*
X176477813Y-65726598D01*
X176440511Y-65661988D01*
X176440506Y-65661982D01*
X176338017Y-65559493D01*
X176338011Y-65559488D01*
X176212488Y-65487017D01*
X176212489Y-65487017D01*
X176161677Y-65473402D01*
X176072475Y-65449500D01*
X175927525Y-65449500D01*
X175838323Y-65473402D01*
X175787511Y-65487017D01*
X175661988Y-65559488D01*
X175661982Y-65559493D01*
X175559493Y-65661982D01*
X175559488Y-65661988D01*
X175487017Y-65787511D01*
X175487016Y-65787515D01*
X175449500Y-65927525D01*
X174197820Y-65927525D01*
X174162984Y-65797515D01*
X174157210Y-65787515D01*
X174090511Y-65671988D01*
X174090506Y-65671982D01*
X173988017Y-65569493D01*
X173988011Y-65569488D01*
X173862488Y-65497017D01*
X173862489Y-65497017D01*
X173851006Y-65493940D01*
X173722475Y-65459500D01*
X173577525Y-65459500D01*
X173448993Y-65493940D01*
X173437511Y-65497017D01*
X173311988Y-65569488D01*
X173311982Y-65569493D01*
X173209493Y-65671982D01*
X173209488Y-65671988D01*
X173137017Y-65797511D01*
X173137016Y-65797515D01*
X173099500Y-65937525D01*
X165606591Y-65937525D01*
X165572445Y-65920127D01*
X165407701Y-65866598D01*
X165407699Y-65866597D01*
X165407698Y-65866597D01*
X165276271Y-65845781D01*
X165236611Y-65839500D01*
X165063389Y-65839500D01*
X165023728Y-65845781D01*
X164892302Y-65866597D01*
X164727552Y-65920128D01*
X164573211Y-65998768D01*
X164502652Y-66050033D01*
X164433072Y-66100586D01*
X164433070Y-66100588D01*
X164433069Y-66100588D01*
X164310588Y-66223069D01*
X164310588Y-66223070D01*
X164310586Y-66223072D01*
X164270638Y-66278056D01*
X164208768Y-66363211D01*
X164130128Y-66517552D01*
X164130127Y-66517554D01*
X164130127Y-66517555D01*
X164123934Y-66536614D01*
X164076597Y-66682302D01*
X164049500Y-66853389D01*
X157410500Y-66853389D01*
X157410500Y-52381902D01*
X158649500Y-52381902D01*
X158649500Y-52618097D01*
X158686446Y-52851368D01*
X158759433Y-53075996D01*
X158828980Y-53212488D01*
X158866657Y-53286433D01*
X159005483Y-53477510D01*
X159172490Y-53644517D01*
X159363567Y-53783343D01*
X159462991Y-53834002D01*
X159574003Y-53890566D01*
X159574005Y-53890566D01*
X159574008Y-53890568D01*
X159694412Y-53929689D01*
X159798631Y-53963553D01*
X160031903Y-54000500D01*
X160031908Y-54000500D01*
X160268097Y-54000500D01*
X160501368Y-53963553D01*
X160725992Y-53890568D01*
X160936433Y-53783343D01*
X161127510Y-53644517D01*
X161294517Y-53477510D01*
X161392858Y-53342155D01*
X163800000Y-53342155D01*
X163800000Y-53990000D01*
X164716988Y-53990000D01*
X164684075Y-54047007D01*
X164650000Y-54174174D01*
X164650000Y-54305826D01*
X164684075Y-54432993D01*
X164716988Y-54490000D01*
X163800000Y-54490000D01*
X163800000Y-55137844D01*
X163806401Y-55197372D01*
X163806403Y-55197378D01*
X163856645Y-55332086D01*
X163856649Y-55332093D01*
X163942809Y-55447187D01*
X163942812Y-55447190D01*
X164057906Y-55533350D01*
X164057913Y-55533354D01*
X164192620Y-55583596D01*
X164192619Y-55583596D01*
X164275444Y-55592501D01*
X164275116Y-55595550D01*
X164292014Y-55594642D01*
X164351196Y-55627642D01*
X165020591Y-56297037D01*
X164957007Y-56314075D01*
X164842993Y-56379901D01*
X164749901Y-56472993D01*
X164684075Y-56587007D01*
X164667037Y-56650591D01*
X164034728Y-56018282D01*
X164034727Y-56018282D01*
X163995380Y-56072439D01*
X163898904Y-56261782D01*
X163833242Y-56463869D01*
X163833242Y-56463872D01*
X163800000Y-56673753D01*
X163800000Y-56886246D01*
X163833242Y-57096127D01*
X163833242Y-57096130D01*
X163898904Y-57298217D01*
X163995375Y-57487550D01*
X164034728Y-57541716D01*
X164667037Y-56909408D01*
X164684075Y-56972993D01*
X164749901Y-57087007D01*
X164842993Y-57180099D01*
X164957007Y-57245925D01*
X165020591Y-57262962D01*
X164419971Y-57863581D01*
X164498711Y-57980895D01*
X164499920Y-57984729D01*
X164502844Y-57987491D01*
X164510343Y-58017778D01*
X164519727Y-58047529D01*
X164518671Y-58051408D01*
X164519638Y-58055312D01*
X164509573Y-58084844D01*
X164501383Y-58114947D01*
X164498397Y-58117640D01*
X164497100Y-58121447D01*
X164452051Y-58160483D01*
X164442440Y-58165380D01*
X164388282Y-58204727D01*
X164388282Y-58204728D01*
X165020591Y-58837037D01*
X164957007Y-58854075D01*
X164842993Y-58919901D01*
X164749901Y-59012993D01*
X164684075Y-59127007D01*
X164667037Y-59190591D01*
X164034728Y-58558282D01*
X164034727Y-58558282D01*
X163995380Y-58612439D01*
X163898904Y-58801782D01*
X163833242Y-59003869D01*
X163833242Y-59003872D01*
X163800000Y-59213753D01*
X163800000Y-59426246D01*
X163833242Y-59636127D01*
X163833242Y-59636130D01*
X163898904Y-59838217D01*
X163995375Y-60027550D01*
X164034728Y-60081716D01*
X164667037Y-59449408D01*
X164684075Y-59512993D01*
X164749901Y-59627007D01*
X164842993Y-59720099D01*
X164957007Y-59785925D01*
X165020591Y-59802962D01*
X164419971Y-60403581D01*
X164498711Y-60520895D01*
X164499920Y-60524729D01*
X164502844Y-60527491D01*
X164510343Y-60557778D01*
X164519727Y-60587529D01*
X164518671Y-60591408D01*
X164519638Y-60595312D01*
X164509573Y-60624844D01*
X164501383Y-60654947D01*
X164498397Y-60657640D01*
X164497100Y-60661447D01*
X164452051Y-60700483D01*
X164442440Y-60705380D01*
X164388282Y-60744727D01*
X164388282Y-60744728D01*
X165020591Y-61377037D01*
X164957007Y-61394075D01*
X164842993Y-61459901D01*
X164749901Y-61552993D01*
X164684075Y-61667007D01*
X164667037Y-61730591D01*
X164034728Y-61098282D01*
X164034727Y-61098282D01*
X163995380Y-61152439D01*
X163898904Y-61341782D01*
X163833242Y-61543869D01*
X163833242Y-61543872D01*
X163800000Y-61753753D01*
X163800000Y-61966246D01*
X163833242Y-62176127D01*
X163833242Y-62176130D01*
X163898904Y-62378217D01*
X163995375Y-62567550D01*
X164034728Y-62621716D01*
X164667037Y-61989408D01*
X164684075Y-62052993D01*
X164749901Y-62167007D01*
X164842993Y-62260099D01*
X164957007Y-62325925D01*
X165020590Y-62342962D01*
X164388282Y-62975269D01*
X164388282Y-62975270D01*
X164442449Y-63014624D01*
X164631784Y-63111096D01*
X164730711Y-63143239D01*
X164788387Y-63182676D01*
X164815586Y-63247034D01*
X164803672Y-63315881D01*
X164756428Y-63367357D01*
X164730722Y-63379097D01*
X164729522Y-63379487D01*
X164727550Y-63380128D01*
X164573211Y-63458768D01*
X164499969Y-63511982D01*
X164433072Y-63560586D01*
X164433070Y-63560588D01*
X164433069Y-63560588D01*
X164310588Y-63683069D01*
X164310588Y-63683070D01*
X164310586Y-63683072D01*
X164266859Y-63743256D01*
X164208768Y-63823211D01*
X164130128Y-63977552D01*
X164076597Y-64142302D01*
X164051302Y-64302010D01*
X164049500Y-64313389D01*
X164049500Y-64486611D01*
X164076598Y-64657701D01*
X164130127Y-64822445D01*
X164208768Y-64976788D01*
X164310586Y-65116928D01*
X164433072Y-65239414D01*
X164573212Y-65341232D01*
X164727555Y-65419873D01*
X164892299Y-65473402D01*
X165063389Y-65500500D01*
X165063390Y-65500500D01*
X165236610Y-65500500D01*
X165236611Y-65500500D01*
X165407701Y-65473402D01*
X165572445Y-65419873D01*
X165726788Y-65341232D01*
X165866928Y-65239414D01*
X165963817Y-65142525D01*
X185304500Y-65142525D01*
X185304500Y-65287475D01*
X185342016Y-65427485D01*
X185342017Y-65427488D01*
X185414488Y-65553011D01*
X185414490Y-65553013D01*
X185414491Y-65553015D01*
X185516985Y-65655509D01*
X185516986Y-65655510D01*
X185516988Y-65655511D01*
X185642511Y-65727982D01*
X185642512Y-65727982D01*
X185642515Y-65727984D01*
X185782525Y-65765500D01*
X185782528Y-65765500D01*
X185927472Y-65765500D01*
X185927475Y-65765500D01*
X186067485Y-65727984D01*
X186193015Y-65655509D01*
X186295509Y-65553015D01*
X186367984Y-65427485D01*
X186405500Y-65287475D01*
X186405500Y-65142525D01*
X186367984Y-65002515D01*
X186353212Y-64976930D01*
X186295511Y-64876988D01*
X186295506Y-64876982D01*
X186193017Y-64774493D01*
X186193011Y-64774488D01*
X186067488Y-64702017D01*
X186067489Y-64702017D01*
X186056006Y-64698940D01*
X185927475Y-64664500D01*
X185782525Y-64664500D01*
X185653993Y-64698940D01*
X185642511Y-64702017D01*
X185516988Y-64774488D01*
X185516982Y-64774493D01*
X185414493Y-64876982D01*
X185414488Y-64876988D01*
X185342017Y-65002511D01*
X185342016Y-65002515D01*
X185304500Y-65142525D01*
X165963817Y-65142525D01*
X165989414Y-65116928D01*
X166091232Y-64976788D01*
X166169873Y-64822445D01*
X166223402Y-64657701D01*
X166250500Y-64486611D01*
X166250500Y-64417525D01*
X183979500Y-64417525D01*
X183979500Y-64562475D01*
X184016891Y-64702017D01*
X184017017Y-64702488D01*
X184089488Y-64828011D01*
X184089490Y-64828013D01*
X184089491Y-64828015D01*
X184191985Y-64930509D01*
X184191986Y-64930510D01*
X184191988Y-64930511D01*
X184317511Y-65002982D01*
X184317512Y-65002982D01*
X184317515Y-65002984D01*
X184457525Y-65040500D01*
X184457528Y-65040500D01*
X184602472Y-65040500D01*
X184602475Y-65040500D01*
X184742485Y-65002984D01*
X184868015Y-64930509D01*
X184970509Y-64828015D01*
X185042984Y-64702485D01*
X185080500Y-64562475D01*
X185080500Y-64417525D01*
X185042984Y-64277515D01*
X184982867Y-64173389D01*
X193049500Y-64173389D01*
X193049500Y-64346610D01*
X193071673Y-64486610D01*
X193076598Y-64517701D01*
X193130127Y-64682445D01*
X193208768Y-64836788D01*
X193310586Y-64976928D01*
X193433072Y-65099414D01*
X193573212Y-65201232D01*
X193727555Y-65279873D01*
X193892299Y-65333402D01*
X194063389Y-65360500D01*
X194063390Y-65360500D01*
X194236610Y-65360500D01*
X194236611Y-65360500D01*
X194407701Y-65333402D01*
X194572445Y-65279873D01*
X194726788Y-65201232D01*
X194866928Y-65099414D01*
X194989414Y-64976928D01*
X195091232Y-64836788D01*
X195169873Y-64682445D01*
X195223402Y-64517701D01*
X195250500Y-64346611D01*
X195250500Y-64173389D01*
X195223402Y-64002299D01*
X195169873Y-63837555D01*
X195091232Y-63683212D01*
X194989414Y-63543072D01*
X194866928Y-63420586D01*
X194726788Y-63318768D01*
X194572445Y-63240127D01*
X194407701Y-63186598D01*
X194407699Y-63186597D01*
X194407698Y-63186597D01*
X194276271Y-63165781D01*
X194236611Y-63159500D01*
X194063389Y-63159500D01*
X194023728Y-63165781D01*
X193892302Y-63186597D01*
X193727552Y-63240128D01*
X193573211Y-63318768D01*
X193548094Y-63337017D01*
X193433072Y-63420586D01*
X193433070Y-63420588D01*
X193433069Y-63420588D01*
X193310588Y-63543069D01*
X193310588Y-63543070D01*
X193310586Y-63543072D01*
X193297860Y-63560588D01*
X193208768Y-63683211D01*
X193130128Y-63837552D01*
X193076597Y-64002302D01*
X193049500Y-64173389D01*
X184982867Y-64173389D01*
X184970509Y-64151985D01*
X184868015Y-64049491D01*
X184868013Y-64049490D01*
X184868011Y-64049488D01*
X184742488Y-63977017D01*
X184742489Y-63977017D01*
X184731006Y-63973940D01*
X184602475Y-63939500D01*
X184457525Y-63939500D01*
X184328993Y-63973940D01*
X184317511Y-63977017D01*
X184191988Y-64049488D01*
X184191982Y-64049493D01*
X184089493Y-64151982D01*
X184089488Y-64151988D01*
X184017017Y-64277511D01*
X184017016Y-64277515D01*
X183979500Y-64417525D01*
X166250500Y-64417525D01*
X166250500Y-64313389D01*
X166223402Y-64142299D01*
X166169873Y-63977555D01*
X166091232Y-63823212D01*
X166058038Y-63777525D01*
X182749500Y-63777525D01*
X182749500Y-63922475D01*
X182783534Y-64049491D01*
X182787017Y-64062488D01*
X182859488Y-64188011D01*
X182859490Y-64188013D01*
X182859491Y-64188015D01*
X182961985Y-64290509D01*
X182961986Y-64290510D01*
X182961988Y-64290511D01*
X183087511Y-64362982D01*
X183087512Y-64362982D01*
X183087515Y-64362984D01*
X183227525Y-64400500D01*
X183227528Y-64400500D01*
X183372472Y-64400500D01*
X183372475Y-64400500D01*
X183512485Y-64362984D01*
X183638015Y-64290509D01*
X183740509Y-64188015D01*
X183812984Y-64062485D01*
X183850500Y-63922475D01*
X183850500Y-63777525D01*
X183812984Y-63637515D01*
X183758455Y-63543069D01*
X183740511Y-63511988D01*
X183740506Y-63511982D01*
X183638017Y-63409493D01*
X183638011Y-63409488D01*
X183512488Y-63337017D01*
X183512489Y-63337017D01*
X183501006Y-63333940D01*
X183372475Y-63299500D01*
X183227525Y-63299500D01*
X183098993Y-63333940D01*
X183087511Y-63337017D01*
X182961988Y-63409488D01*
X182961982Y-63409493D01*
X182859493Y-63511982D01*
X182859488Y-63511988D01*
X182787017Y-63637511D01*
X182787016Y-63637515D01*
X182749500Y-63777525D01*
X166058038Y-63777525D01*
X165989414Y-63683072D01*
X165866928Y-63560586D01*
X165726788Y-63458768D01*
X165630070Y-63409488D01*
X165572446Y-63380127D01*
X165569284Y-63379100D01*
X165568236Y-63378383D01*
X165567952Y-63378266D01*
X165567976Y-63378206D01*
X165511609Y-63339661D01*
X165484413Y-63275302D01*
X165496329Y-63206456D01*
X165543574Y-63154981D01*
X165569288Y-63143239D01*
X165668215Y-63111096D01*
X165857554Y-63014622D01*
X165911716Y-62975270D01*
X165911717Y-62975270D01*
X165279408Y-62342962D01*
X165342993Y-62325925D01*
X165457007Y-62260099D01*
X165550099Y-62167007D01*
X165615925Y-62052993D01*
X165632962Y-61989409D01*
X166265270Y-62621717D01*
X166265270Y-62621716D01*
X166304622Y-62567554D01*
X166401095Y-62378217D01*
X166466757Y-62176130D01*
X166466757Y-62176127D01*
X166500000Y-61966246D01*
X166500000Y-61753753D01*
X166483237Y-61647915D01*
X166480936Y-61633389D01*
X193049500Y-61633389D01*
X193049500Y-61806610D01*
X193074783Y-61966246D01*
X193076598Y-61977701D01*
X193130127Y-62142445D01*
X193208768Y-62296788D01*
X193310586Y-62436928D01*
X193433072Y-62559414D01*
X193573212Y-62661232D01*
X193727555Y-62739873D01*
X193892299Y-62793402D01*
X194063389Y-62820500D01*
X194063390Y-62820500D01*
X194236610Y-62820500D01*
X194236611Y-62820500D01*
X194407701Y-62793402D01*
X194572445Y-62739873D01*
X194726788Y-62661232D01*
X194866928Y-62559414D01*
X194989414Y-62436928D01*
X195091232Y-62296788D01*
X195169873Y-62142445D01*
X195223402Y-61977701D01*
X195250500Y-61806611D01*
X195250500Y-61633389D01*
X195223402Y-61462299D01*
X195169873Y-61297555D01*
X195091232Y-61143212D01*
X194989414Y-61003072D01*
X194866928Y-60880586D01*
X194726788Y-60778768D01*
X194572445Y-60700127D01*
X194407701Y-60646598D01*
X194407699Y-60646597D01*
X194407698Y-60646597D01*
X194255476Y-60622488D01*
X194236611Y-60619500D01*
X194063389Y-60619500D01*
X194044524Y-60622488D01*
X193892302Y-60646597D01*
X193727552Y-60700128D01*
X193573211Y-60778768D01*
X193493256Y-60836859D01*
X193433072Y-60880586D01*
X193433070Y-60880588D01*
X193433069Y-60880588D01*
X193310588Y-61003069D01*
X193310588Y-61003070D01*
X193310586Y-61003072D01*
X193266859Y-61063256D01*
X193208768Y-61143211D01*
X193130128Y-61297552D01*
X193076597Y-61462302D01*
X193049500Y-61633389D01*
X166480936Y-61633389D01*
X166466757Y-61543872D01*
X166466757Y-61543869D01*
X166401095Y-61341782D01*
X166304624Y-61152449D01*
X166265270Y-61098282D01*
X166265269Y-61098282D01*
X165632962Y-61730590D01*
X165615925Y-61667007D01*
X165550099Y-61552993D01*
X165457007Y-61459901D01*
X165342993Y-61394075D01*
X165279409Y-61377037D01*
X165911716Y-60744728D01*
X165857550Y-60705375D01*
X165847954Y-60700486D01*
X165797157Y-60652512D01*
X165780361Y-60584692D01*
X165802897Y-60518556D01*
X165847954Y-60479514D01*
X165857554Y-60474622D01*
X165911716Y-60435270D01*
X165911717Y-60435270D01*
X165893526Y-60417079D01*
X165813972Y-60337525D01*
X179699500Y-60337525D01*
X179699500Y-60482475D01*
X179728689Y-60591408D01*
X179737017Y-60622488D01*
X179809488Y-60748011D01*
X179809490Y-60748013D01*
X179809491Y-60748015D01*
X179911985Y-60850509D01*
X179911986Y-60850510D01*
X179911988Y-60850511D01*
X180037511Y-60922982D01*
X180037512Y-60922982D01*
X180037515Y-60922984D01*
X180177525Y-60960500D01*
X180177528Y-60960500D01*
X180322472Y-60960500D01*
X180322475Y-60960500D01*
X180462485Y-60922984D01*
X180588015Y-60850509D01*
X180690509Y-60748015D01*
X180762984Y-60622485D01*
X180800500Y-60482475D01*
X180800500Y-60337525D01*
X180762984Y-60197515D01*
X180718941Y-60121231D01*
X180690511Y-60071988D01*
X180690506Y-60071982D01*
X180588017Y-59969493D01*
X180588011Y-59969488D01*
X180532650Y-59937525D01*
X182099500Y-59937525D01*
X182099500Y-60082475D01*
X182130957Y-60199871D01*
X182137017Y-60222488D01*
X182209488Y-60348011D01*
X182209490Y-60348013D01*
X182209491Y-60348015D01*
X182311985Y-60450509D01*
X182311986Y-60450510D01*
X182311988Y-60450511D01*
X182437511Y-60522982D01*
X182437512Y-60522982D01*
X182437515Y-60522984D01*
X182577525Y-60560500D01*
X182577528Y-60560500D01*
X182722472Y-60560500D01*
X182722475Y-60560500D01*
X182862485Y-60522984D01*
X182988015Y-60450509D01*
X183090509Y-60348015D01*
X183162984Y-60222485D01*
X183200500Y-60082475D01*
X183200500Y-59937525D01*
X183162984Y-59797515D01*
X183156292Y-59785925D01*
X183090511Y-59671988D01*
X183090506Y-59671982D01*
X182988017Y-59569493D01*
X182988011Y-59569488D01*
X182862488Y-59497017D01*
X182862489Y-59497017D01*
X182851006Y-59493940D01*
X182722475Y-59459500D01*
X182577525Y-59459500D01*
X182448993Y-59493940D01*
X182437511Y-59497017D01*
X182311988Y-59569488D01*
X182311982Y-59569493D01*
X182209493Y-59671982D01*
X182209488Y-59671988D01*
X182137017Y-59797511D01*
X182137016Y-59797515D01*
X182099500Y-59937525D01*
X180532650Y-59937525D01*
X180462488Y-59897017D01*
X180462489Y-59897017D01*
X180435827Y-59889873D01*
X180322475Y-59859500D01*
X180177525Y-59859500D01*
X180064173Y-59889873D01*
X180037511Y-59897017D01*
X179911988Y-59969488D01*
X179911982Y-59969493D01*
X179809493Y-60071982D01*
X179809488Y-60071988D01*
X179737017Y-60197511D01*
X179737016Y-60197515D01*
X179699500Y-60337525D01*
X165813972Y-60337525D01*
X165279408Y-59802962D01*
X165342993Y-59785925D01*
X165457007Y-59720099D01*
X165550099Y-59627007D01*
X165615925Y-59512993D01*
X165632962Y-59449409D01*
X166265270Y-60081717D01*
X166265270Y-60081716D01*
X166304622Y-60027554D01*
X166401095Y-59838217D01*
X166466757Y-59636130D01*
X166466757Y-59636127D01*
X166500000Y-59426246D01*
X166500000Y-59213753D01*
X166466757Y-59003872D01*
X166466757Y-59003869D01*
X166405986Y-58816835D01*
X166405985Y-58816833D01*
X166401094Y-58801780D01*
X166391723Y-58783389D01*
X170919500Y-58783389D01*
X170919500Y-58956610D01*
X170941163Y-59093389D01*
X170946598Y-59127701D01*
X171000127Y-59292445D01*
X171078768Y-59446788D01*
X171180586Y-59586928D01*
X171303072Y-59709414D01*
X171443212Y-59811232D01*
X171597555Y-59889873D01*
X171762299Y-59943402D01*
X171933389Y-59970500D01*
X171933390Y-59970500D01*
X172106610Y-59970500D01*
X172106611Y-59970500D01*
X172277701Y-59943402D01*
X172442445Y-59889873D01*
X172596788Y-59811232D01*
X172736928Y-59709414D01*
X172859414Y-59586928D01*
X172961232Y-59446788D01*
X173039873Y-59292445D01*
X173093402Y-59127701D01*
X173120500Y-58956611D01*
X173120500Y-58783389D01*
X173459500Y-58783389D01*
X173459500Y-58956610D01*
X173481163Y-59093389D01*
X173486598Y-59127701D01*
X173540127Y-59292445D01*
X173618768Y-59446788D01*
X173720586Y-59586928D01*
X173843072Y-59709414D01*
X173983212Y-59811232D01*
X174137555Y-59889873D01*
X174302299Y-59943402D01*
X174473389Y-59970500D01*
X174473390Y-59970500D01*
X174646610Y-59970500D01*
X174646611Y-59970500D01*
X174817701Y-59943402D01*
X174982445Y-59889873D01*
X175136788Y-59811232D01*
X175276928Y-59709414D01*
X175399414Y-59586928D01*
X175501232Y-59446788D01*
X175579873Y-59292445D01*
X175633402Y-59127701D01*
X175660500Y-58956611D01*
X175660500Y-58783389D01*
X175633402Y-58612299D01*
X175579873Y-58447555D01*
X175501232Y-58293212D01*
X175399414Y-58153072D01*
X175276928Y-58030586D01*
X175228390Y-57995321D01*
X175999500Y-57995321D01*
X175999500Y-59744678D01*
X176014032Y-59817735D01*
X176014033Y-59817739D01*
X176014034Y-59817740D01*
X176069399Y-59900601D01*
X176152260Y-59955966D01*
X176152264Y-59955967D01*
X176225321Y-59970499D01*
X176225324Y-59970500D01*
X176225326Y-59970500D01*
X177974676Y-59970500D01*
X177974677Y-59970499D01*
X178047740Y-59955966D01*
X178130601Y-59900601D01*
X178185966Y-59817740D01*
X178200500Y-59744674D01*
X178200500Y-57995326D01*
X178200500Y-57995323D01*
X178200499Y-57995321D01*
X178185967Y-57922264D01*
X178185966Y-57922260D01*
X178165143Y-57891096D01*
X178130601Y-57839399D01*
X178066542Y-57796597D01*
X178047739Y-57784033D01*
X178047735Y-57784032D01*
X177974677Y-57769500D01*
X177974674Y-57769500D01*
X176225326Y-57769500D01*
X176225323Y-57769500D01*
X176152264Y-57784032D01*
X176152260Y-57784033D01*
X176069399Y-57839399D01*
X176014033Y-57922260D01*
X176014032Y-57922264D01*
X175999500Y-57995321D01*
X175228390Y-57995321D01*
X175136788Y-57928768D01*
X174982445Y-57850127D01*
X174817701Y-57796598D01*
X174817699Y-57796597D01*
X174817698Y-57796597D01*
X174686271Y-57775781D01*
X174646611Y-57769500D01*
X174473389Y-57769500D01*
X174433728Y-57775781D01*
X174302302Y-57796597D01*
X174137552Y-57850128D01*
X173983211Y-57928768D01*
X173906189Y-57984729D01*
X173843072Y-58030586D01*
X173843070Y-58030588D01*
X173843069Y-58030588D01*
X173720588Y-58153069D01*
X173720588Y-58153070D01*
X173720586Y-58153072D01*
X173711644Y-58165380D01*
X173618768Y-58293211D01*
X173540128Y-58447552D01*
X173486597Y-58612302D01*
X173459500Y-58783389D01*
X173120500Y-58783389D01*
X173093402Y-58612299D01*
X173039873Y-58447555D01*
X172961232Y-58293212D01*
X172859414Y-58153072D01*
X172736928Y-58030586D01*
X172596788Y-57928768D01*
X172442445Y-57850127D01*
X172277701Y-57796598D01*
X172277699Y-57796597D01*
X172277698Y-57796597D01*
X172146271Y-57775781D01*
X172106611Y-57769500D01*
X171933389Y-57769500D01*
X171893728Y-57775781D01*
X171762302Y-57796597D01*
X171597552Y-57850128D01*
X171443211Y-57928768D01*
X171366189Y-57984729D01*
X171303072Y-58030586D01*
X171303070Y-58030588D01*
X171303069Y-58030588D01*
X171180588Y-58153069D01*
X171180588Y-58153070D01*
X171180586Y-58153072D01*
X171171644Y-58165380D01*
X171078768Y-58293211D01*
X171000128Y-58447552D01*
X170946597Y-58612302D01*
X170919500Y-58783389D01*
X166391723Y-58783389D01*
X166304624Y-58612449D01*
X166265270Y-58558282D01*
X166265269Y-58558282D01*
X165632962Y-59190590D01*
X165615925Y-59127007D01*
X165550099Y-59012993D01*
X165457007Y-58919901D01*
X165342993Y-58854075D01*
X165279409Y-58837037D01*
X165911716Y-58204728D01*
X165857550Y-58165375D01*
X165847954Y-58160486D01*
X165797157Y-58112512D01*
X165780361Y-58044692D01*
X165802897Y-57978556D01*
X165847954Y-57939514D01*
X165857554Y-57934622D01*
X165911716Y-57895270D01*
X165911717Y-57895270D01*
X165279408Y-57262962D01*
X165342993Y-57245925D01*
X165457007Y-57180099D01*
X165550099Y-57087007D01*
X165615925Y-56972993D01*
X165632962Y-56909409D01*
X166265270Y-57541717D01*
X166265270Y-57541716D01*
X166304622Y-57487554D01*
X166401095Y-57298217D01*
X166466757Y-57096130D01*
X166466757Y-57096127D01*
X166500000Y-56886246D01*
X166500000Y-56673753D01*
X166480127Y-56548279D01*
X166477826Y-56533753D01*
X192800000Y-56533753D01*
X192800000Y-56746246D01*
X192833242Y-56956127D01*
X192833242Y-56956130D01*
X192898904Y-57158217D01*
X192995375Y-57347550D01*
X193034728Y-57401716D01*
X193667037Y-56769408D01*
X193684075Y-56832993D01*
X193749901Y-56947007D01*
X193842993Y-57040099D01*
X193957007Y-57105925D01*
X194020590Y-57122962D01*
X193388282Y-57755269D01*
X193388282Y-57755270D01*
X193442449Y-57794624D01*
X193631784Y-57891096D01*
X193730711Y-57923239D01*
X193788387Y-57962676D01*
X193815586Y-58027034D01*
X193803672Y-58095881D01*
X193756428Y-58147357D01*
X193730722Y-58159097D01*
X193729522Y-58159487D01*
X193727550Y-58160128D01*
X193573211Y-58238768D01*
X193493256Y-58296859D01*
X193433072Y-58340586D01*
X193433070Y-58340588D01*
X193433069Y-58340588D01*
X193310588Y-58463069D01*
X193310588Y-58463070D01*
X193310586Y-58463072D01*
X193266859Y-58523256D01*
X193208768Y-58603211D01*
X193130128Y-58757552D01*
X193076597Y-58922302D01*
X193049500Y-59093389D01*
X193049500Y-59266610D01*
X193074783Y-59426246D01*
X193076598Y-59437701D01*
X193130127Y-59602445D01*
X193208768Y-59756788D01*
X193310586Y-59896928D01*
X193433072Y-60019414D01*
X193573212Y-60121232D01*
X193727555Y-60199873D01*
X193892299Y-60253402D01*
X194063389Y-60280500D01*
X194063390Y-60280500D01*
X194236610Y-60280500D01*
X194236611Y-60280500D01*
X194407701Y-60253402D01*
X194572445Y-60199873D01*
X194726788Y-60121232D01*
X194866928Y-60019414D01*
X194989414Y-59896928D01*
X195091232Y-59756788D01*
X195169873Y-59602445D01*
X195223402Y-59437701D01*
X195250500Y-59266611D01*
X195250500Y-59093389D01*
X195223402Y-58922299D01*
X195169873Y-58757555D01*
X195091232Y-58603212D01*
X194989414Y-58463072D01*
X194866928Y-58340586D01*
X194726788Y-58238768D01*
X194572446Y-58160127D01*
X194569284Y-58159100D01*
X194568236Y-58158383D01*
X194567952Y-58158266D01*
X194567976Y-58158206D01*
X194511609Y-58119661D01*
X194484413Y-58055302D01*
X194496329Y-57986456D01*
X194543574Y-57934981D01*
X194569288Y-57923239D01*
X194668215Y-57891096D01*
X194857554Y-57794622D01*
X194911716Y-57755270D01*
X194911717Y-57755270D01*
X194279408Y-57122962D01*
X194342993Y-57105925D01*
X194457007Y-57040099D01*
X194550099Y-56947007D01*
X194615925Y-56832993D01*
X194632962Y-56769408D01*
X195265270Y-57401717D01*
X195265270Y-57401716D01*
X195304622Y-57347554D01*
X195401095Y-57158217D01*
X195466757Y-56956130D01*
X195466757Y-56956127D01*
X195500000Y-56746246D01*
X195500000Y-56533753D01*
X195466757Y-56323872D01*
X195466757Y-56323869D01*
X195401095Y-56121782D01*
X195304624Y-55932449D01*
X195265270Y-55878282D01*
X195265269Y-55878282D01*
X194632962Y-56510590D01*
X194615925Y-56447007D01*
X194550099Y-56332993D01*
X194457007Y-56239901D01*
X194342993Y-56174075D01*
X194279409Y-56157037D01*
X194654543Y-55781902D01*
X227599500Y-55781902D01*
X227599500Y-56018097D01*
X227636446Y-56251368D01*
X227709433Y-56475996D01*
X227792998Y-56640000D01*
X227816657Y-56686433D01*
X227955483Y-56877510D01*
X228122490Y-57044517D01*
X228313567Y-57183343D01*
X228412991Y-57234002D01*
X228524003Y-57290566D01*
X228524005Y-57290566D01*
X228524008Y-57290568D01*
X228644412Y-57329689D01*
X228748631Y-57363553D01*
X228981903Y-57400500D01*
X228981908Y-57400500D01*
X229218097Y-57400500D01*
X229451368Y-57363553D01*
X229675992Y-57290568D01*
X229886433Y-57183343D01*
X230077510Y-57044517D01*
X230244517Y-56877510D01*
X230383343Y-56686433D01*
X230490568Y-56475992D01*
X230563553Y-56251368D01*
X230581192Y-56140000D01*
X230600500Y-56018097D01*
X230600500Y-55781902D01*
X230563553Y-55548631D01*
X230517112Y-55405703D01*
X230490568Y-55324008D01*
X230490566Y-55324005D01*
X230490566Y-55324003D01*
X230432276Y-55209603D01*
X230383343Y-55113567D01*
X230244517Y-54922490D01*
X230077510Y-54755483D01*
X229886433Y-54616657D01*
X229675996Y-54509433D01*
X229451368Y-54436446D01*
X229218097Y-54399500D01*
X229218092Y-54399500D01*
X228981908Y-54399500D01*
X228981903Y-54399500D01*
X228748631Y-54436446D01*
X228524003Y-54509433D01*
X228313566Y-54616657D01*
X228204550Y-54695862D01*
X228122490Y-54755483D01*
X228122488Y-54755485D01*
X228122487Y-54755485D01*
X227955485Y-54922487D01*
X227955485Y-54922488D01*
X227955483Y-54922490D01*
X227917569Y-54974674D01*
X227816657Y-55113566D01*
X227709433Y-55324003D01*
X227636446Y-55548631D01*
X227599500Y-55781902D01*
X194654543Y-55781902D01*
X194911716Y-55524728D01*
X194857550Y-55485375D01*
X194758655Y-55434985D01*
X194707859Y-55387010D01*
X194691064Y-55319189D01*
X194713602Y-55253054D01*
X194768317Y-55209603D01*
X194814950Y-55200500D01*
X195024676Y-55200500D01*
X195024677Y-55200499D01*
X195097740Y-55185966D01*
X195180601Y-55130601D01*
X195235966Y-55047740D01*
X195250500Y-54974674D01*
X195250500Y-53225326D01*
X195250500Y-53225323D01*
X195250499Y-53225321D01*
X195235967Y-53152264D01*
X195235966Y-53152260D01*
X195233057Y-53147906D01*
X195180601Y-53069399D01*
X195125235Y-53032405D01*
X195097739Y-53014033D01*
X195097735Y-53014032D01*
X195024677Y-52999500D01*
X195024674Y-52999500D01*
X193275326Y-52999500D01*
X193275323Y-52999500D01*
X193202264Y-53014032D01*
X193202260Y-53014033D01*
X193119399Y-53069399D01*
X193064033Y-53152260D01*
X193064032Y-53152264D01*
X193049500Y-53225321D01*
X193049500Y-54974678D01*
X193064032Y-55047735D01*
X193064033Y-55047739D01*
X193064034Y-55047740D01*
X193119399Y-55130601D01*
X193202260Y-55185966D01*
X193202264Y-55185967D01*
X193275321Y-55200499D01*
X193275324Y-55200500D01*
X193485051Y-55200500D01*
X193552090Y-55220185D01*
X193597845Y-55272989D01*
X193607789Y-55342147D01*
X193578764Y-55405703D01*
X193541346Y-55434985D01*
X193442439Y-55485380D01*
X193388282Y-55524727D01*
X193388282Y-55524728D01*
X194020591Y-56157037D01*
X193957007Y-56174075D01*
X193842993Y-56239901D01*
X193749901Y-56332993D01*
X193684075Y-56447007D01*
X193667037Y-56510590D01*
X193034728Y-55878282D01*
X193034727Y-55878282D01*
X192995380Y-55932439D01*
X192898904Y-56121782D01*
X192833242Y-56323869D01*
X192833242Y-56323872D01*
X192800000Y-56533753D01*
X166477826Y-56533753D01*
X166466757Y-56463872D01*
X166466757Y-56463869D01*
X166401095Y-56261782D01*
X166304624Y-56072449D01*
X166265270Y-56018282D01*
X166265269Y-56018282D01*
X165632962Y-56650590D01*
X165615925Y-56587007D01*
X165550099Y-56472993D01*
X165457007Y-56379901D01*
X165342993Y-56314075D01*
X165279409Y-56297037D01*
X165948802Y-55627642D01*
X166010125Y-55594157D01*
X166024833Y-55595078D01*
X166024556Y-55592501D01*
X166107375Y-55583598D01*
X166242086Y-55533354D01*
X166242093Y-55533350D01*
X166357187Y-55447190D01*
X166357190Y-55447187D01*
X166443350Y-55332093D01*
X166443354Y-55332086D01*
X166493597Y-55197378D01*
X166493598Y-55197372D01*
X166499999Y-55137844D01*
X166500000Y-55137827D01*
X166500000Y-54490000D01*
X165583012Y-54490000D01*
X165604648Y-54452525D01*
X191699500Y-54452525D01*
X191699500Y-54597475D01*
X191737016Y-54737485D01*
X191737017Y-54737488D01*
X191809488Y-54863011D01*
X191809490Y-54863013D01*
X191809491Y-54863015D01*
X191911985Y-54965509D01*
X191911986Y-54965510D01*
X191911988Y-54965511D01*
X192037511Y-55037982D01*
X192037512Y-55037982D01*
X192037515Y-55037984D01*
X192177525Y-55075500D01*
X192177528Y-55075500D01*
X192322472Y-55075500D01*
X192322475Y-55075500D01*
X192462485Y-55037984D01*
X192588015Y-54965509D01*
X192690509Y-54863015D01*
X192762984Y-54737485D01*
X192800500Y-54597475D01*
X192800500Y-54452525D01*
X192762984Y-54312515D01*
X192690509Y-54186985D01*
X192588015Y-54084491D01*
X192588013Y-54084490D01*
X192588011Y-54084488D01*
X192462488Y-54012017D01*
X192462489Y-54012017D01*
X192451006Y-54008940D01*
X192322475Y-53974500D01*
X192177525Y-53974500D01*
X192048993Y-54008940D01*
X192037511Y-54012017D01*
X191911988Y-54084488D01*
X191911982Y-54084493D01*
X191809493Y-54186982D01*
X191809488Y-54186988D01*
X191737017Y-54312511D01*
X191737016Y-54312515D01*
X191699500Y-54452525D01*
X165604648Y-54452525D01*
X165615925Y-54432993D01*
X165650000Y-54305826D01*
X165650000Y-54174174D01*
X165615925Y-54047007D01*
X165583012Y-53990000D01*
X166500000Y-53990000D01*
X166500000Y-53342172D01*
X166499999Y-53342155D01*
X166493598Y-53282627D01*
X166493596Y-53282620D01*
X166443354Y-53147913D01*
X166443350Y-53147906D01*
X166357190Y-53032812D01*
X166338291Y-53018664D01*
X166338289Y-53018662D01*
X166242093Y-52946649D01*
X166242086Y-52946645D01*
X166190822Y-52927525D01*
X181449500Y-52927525D01*
X181449500Y-53072475D01*
X181487016Y-53212485D01*
X181487017Y-53212488D01*
X181559488Y-53338011D01*
X181559490Y-53338013D01*
X181559491Y-53338015D01*
X181661985Y-53440509D01*
X181661986Y-53440510D01*
X181661988Y-53440511D01*
X181787511Y-53512982D01*
X181787512Y-53512982D01*
X181787515Y-53512984D01*
X181927525Y-53550500D01*
X181927528Y-53550500D01*
X182072472Y-53550500D01*
X182072475Y-53550500D01*
X182212485Y-53512984D01*
X182338015Y-53440509D01*
X182440509Y-53338015D01*
X182512984Y-53212485D01*
X182550500Y-53072475D01*
X182550500Y-52927525D01*
X182512984Y-52787515D01*
X182440509Y-52661985D01*
X182338015Y-52559491D01*
X182338013Y-52559490D01*
X182338011Y-52559488D01*
X182212488Y-52487017D01*
X182212489Y-52487017D01*
X182201006Y-52483940D01*
X182072475Y-52449500D01*
X181927525Y-52449500D01*
X181798993Y-52483940D01*
X181787511Y-52487017D01*
X181661988Y-52559488D01*
X181661982Y-52559493D01*
X181559493Y-52661982D01*
X181559488Y-52661988D01*
X181487017Y-52787511D01*
X181487016Y-52787515D01*
X181449500Y-52927525D01*
X166190822Y-52927525D01*
X166107379Y-52896403D01*
X166107372Y-52896401D01*
X166047844Y-52890000D01*
X165400000Y-52890000D01*
X165400000Y-53806988D01*
X165342993Y-53774075D01*
X165215826Y-53740000D01*
X165084174Y-53740000D01*
X164957007Y-53774075D01*
X164900000Y-53806988D01*
X164900000Y-52890000D01*
X164252155Y-52890000D01*
X164192627Y-52896401D01*
X164192620Y-52896403D01*
X164057913Y-52946645D01*
X164057906Y-52946649D01*
X163942812Y-53032809D01*
X163942809Y-53032812D01*
X163856649Y-53147906D01*
X163856645Y-53147913D01*
X163806403Y-53282620D01*
X163806401Y-53282627D01*
X163800000Y-53342155D01*
X161392858Y-53342155D01*
X161433343Y-53286433D01*
X161540568Y-53075992D01*
X161613553Y-52851368D01*
X161643548Y-52661988D01*
X161650500Y-52618097D01*
X161650500Y-52381902D01*
X161613553Y-52148631D01*
X161540566Y-51924003D01*
X161433342Y-51713566D01*
X161294517Y-51522490D01*
X161127510Y-51355483D01*
X160936433Y-51216657D01*
X160725996Y-51109433D01*
X160501368Y-51036446D01*
X160268097Y-50999500D01*
X160268092Y-50999500D01*
X160031908Y-50999500D01*
X160031903Y-50999500D01*
X159798631Y-51036446D01*
X159574003Y-51109433D01*
X159363566Y-51216657D01*
X159254550Y-51295862D01*
X159172490Y-51355483D01*
X159172488Y-51355485D01*
X159172487Y-51355485D01*
X159005485Y-51522487D01*
X159005485Y-51522488D01*
X159005483Y-51522490D01*
X158945862Y-51604550D01*
X158866657Y-51713566D01*
X158759433Y-51924003D01*
X158686446Y-52148631D01*
X158649500Y-52381902D01*
X157410500Y-52381902D01*
X157410500Y-47727525D01*
X182949500Y-47727525D01*
X182949500Y-47872475D01*
X182987016Y-48012485D01*
X182987017Y-48012488D01*
X183059488Y-48138011D01*
X183059490Y-48138013D01*
X183059491Y-48138015D01*
X183161985Y-48240509D01*
X183161986Y-48240510D01*
X183161988Y-48240511D01*
X183287511Y-48312982D01*
X183287512Y-48312982D01*
X183287515Y-48312984D01*
X183427525Y-48350500D01*
X183427528Y-48350500D01*
X183572472Y-48350500D01*
X183572475Y-48350500D01*
X183712485Y-48312984D01*
X183838015Y-48240509D01*
X183940509Y-48138015D01*
X184012984Y-48012485D01*
X184050500Y-47872475D01*
X184050500Y-47727525D01*
X184012984Y-47587515D01*
X183940509Y-47461985D01*
X183838015Y-47359491D01*
X183838013Y-47359490D01*
X183838011Y-47359488D01*
X183712488Y-47287017D01*
X183712489Y-47287017D01*
X183701006Y-47283940D01*
X183572475Y-47249500D01*
X183427525Y-47249500D01*
X183298993Y-47283940D01*
X183287511Y-47287017D01*
X183161988Y-47359488D01*
X183161982Y-47359493D01*
X183059493Y-47461982D01*
X183059488Y-47461988D01*
X182987017Y-47587511D01*
X182987016Y-47587515D01*
X182949500Y-47727525D01*
X157410500Y-47727525D01*
X157410500Y-43345321D01*
X177000750Y-43345321D01*
X177000750Y-44894678D01*
X177015282Y-44967735D01*
X177015283Y-44967739D01*
X177015284Y-44967740D01*
X177070649Y-45050601D01*
X177117720Y-45082052D01*
X177153510Y-45105966D01*
X177153514Y-45105967D01*
X177226571Y-45120499D01*
X177226574Y-45120500D01*
X177226576Y-45120500D01*
X178775926Y-45120500D01*
X178775927Y-45120499D01*
X178848990Y-45105966D01*
X178931851Y-45050601D01*
X178987216Y-44967740D01*
X179001750Y-44894674D01*
X179001750Y-44218543D01*
X179540749Y-44218543D01*
X179579197Y-44411829D01*
X179579200Y-44411839D01*
X179654614Y-44593907D01*
X179654621Y-44593920D01*
X179764110Y-44757781D01*
X179764113Y-44757785D01*
X179903464Y-44897136D01*
X179903468Y-44897139D01*
X180067329Y-45006628D01*
X180067342Y-45006635D01*
X180173487Y-45050601D01*
X180249415Y-45082051D01*
X180249419Y-45082051D01*
X180249420Y-45082052D01*
X180442706Y-45120500D01*
X180442709Y-45120500D01*
X180639793Y-45120500D01*
X180769832Y-45094632D01*
X180833085Y-45082051D01*
X181015164Y-45006632D01*
X181179032Y-44897139D01*
X181318389Y-44757782D01*
X181427882Y-44593914D01*
X181503301Y-44411835D01*
X181541750Y-44218543D01*
X182080749Y-44218543D01*
X182119197Y-44411829D01*
X182119200Y-44411839D01*
X182194614Y-44593907D01*
X182194621Y-44593920D01*
X182304110Y-44757781D01*
X182304113Y-44757785D01*
X182443464Y-44897136D01*
X182443468Y-44897139D01*
X182607329Y-45006628D01*
X182607342Y-45006635D01*
X182713487Y-45050601D01*
X182789415Y-45082051D01*
X182789419Y-45082051D01*
X182789420Y-45082052D01*
X182982706Y-45120500D01*
X182982709Y-45120500D01*
X183179793Y-45120500D01*
X183309832Y-45094632D01*
X183373085Y-45082051D01*
X183555164Y-45006632D01*
X183719032Y-44897139D01*
X183858389Y-44757782D01*
X183967882Y-44593914D01*
X184043301Y-44411835D01*
X184081750Y-44218543D01*
X184620749Y-44218543D01*
X184659197Y-44411829D01*
X184659200Y-44411839D01*
X184734614Y-44593907D01*
X184734621Y-44593920D01*
X184844110Y-44757781D01*
X184844113Y-44757785D01*
X184983464Y-44897136D01*
X184983468Y-44897139D01*
X185147329Y-45006628D01*
X185147342Y-45006635D01*
X185253487Y-45050601D01*
X185329415Y-45082051D01*
X185329419Y-45082051D01*
X185329420Y-45082052D01*
X185522706Y-45120500D01*
X185522709Y-45120500D01*
X185719793Y-45120500D01*
X185849832Y-45094632D01*
X185913085Y-45082051D01*
X186095164Y-45006632D01*
X186259032Y-44897139D01*
X186398389Y-44757782D01*
X186507882Y-44593914D01*
X186583301Y-44411835D01*
X186621750Y-44218543D01*
X187160749Y-44218543D01*
X187199197Y-44411829D01*
X187199200Y-44411839D01*
X187274614Y-44593907D01*
X187274621Y-44593920D01*
X187384110Y-44757781D01*
X187384113Y-44757785D01*
X187523464Y-44897136D01*
X187523468Y-44897139D01*
X187687329Y-45006628D01*
X187687342Y-45006635D01*
X187793487Y-45050601D01*
X187869415Y-45082051D01*
X187869419Y-45082051D01*
X187869420Y-45082052D01*
X188062706Y-45120500D01*
X188062709Y-45120500D01*
X188259793Y-45120500D01*
X188389832Y-45094632D01*
X188453085Y-45082051D01*
X188635164Y-45006632D01*
X188799032Y-44897139D01*
X188938389Y-44757782D01*
X189047882Y-44593914D01*
X189123301Y-44411835D01*
X189161750Y-44218543D01*
X189700749Y-44218543D01*
X189739197Y-44411829D01*
X189739200Y-44411839D01*
X189814614Y-44593907D01*
X189814621Y-44593920D01*
X189924110Y-44757781D01*
X189924113Y-44757785D01*
X190063464Y-44897136D01*
X190063468Y-44897139D01*
X190227329Y-45006628D01*
X190227342Y-45006635D01*
X190333487Y-45050601D01*
X190409415Y-45082051D01*
X190409419Y-45082051D01*
X190409420Y-45082052D01*
X190602706Y-45120500D01*
X190602709Y-45120500D01*
X190799793Y-45120500D01*
X190929832Y-45094632D01*
X190993085Y-45082051D01*
X191175164Y-45006632D01*
X191339032Y-44897139D01*
X191478389Y-44757782D01*
X191587882Y-44593914D01*
X191663301Y-44411835D01*
X191701750Y-44218541D01*
X191701750Y-44021459D01*
X191701750Y-44021456D01*
X191663302Y-43828170D01*
X191663301Y-43828169D01*
X191663301Y-43828165D01*
X191663299Y-43828160D01*
X191587885Y-43646092D01*
X191587878Y-43646079D01*
X191478389Y-43482218D01*
X191478386Y-43482214D01*
X191339035Y-43342863D01*
X191339031Y-43342860D01*
X191175170Y-43233371D01*
X191175157Y-43233364D01*
X190993089Y-43157950D01*
X190993079Y-43157947D01*
X190799793Y-43119500D01*
X190799791Y-43119500D01*
X190602709Y-43119500D01*
X190602707Y-43119500D01*
X190409420Y-43157947D01*
X190409410Y-43157950D01*
X190227342Y-43233364D01*
X190227329Y-43233371D01*
X190063468Y-43342860D01*
X190063464Y-43342863D01*
X189924113Y-43482214D01*
X189924110Y-43482218D01*
X189814621Y-43646079D01*
X189814614Y-43646092D01*
X189739200Y-43828160D01*
X189739197Y-43828170D01*
X189700750Y-44021456D01*
X189700750Y-44021459D01*
X189700750Y-44218541D01*
X189700750Y-44218543D01*
X189700749Y-44218543D01*
X189161750Y-44218543D01*
X189161750Y-44218541D01*
X189161750Y-44021459D01*
X189161750Y-44021456D01*
X189123302Y-43828170D01*
X189123301Y-43828169D01*
X189123301Y-43828165D01*
X189123299Y-43828160D01*
X189047885Y-43646092D01*
X189047878Y-43646079D01*
X188938389Y-43482218D01*
X188938386Y-43482214D01*
X188799035Y-43342863D01*
X188799031Y-43342860D01*
X188635170Y-43233371D01*
X188635157Y-43233364D01*
X188453089Y-43157950D01*
X188453079Y-43157947D01*
X188259793Y-43119500D01*
X188259791Y-43119500D01*
X188062709Y-43119500D01*
X188062707Y-43119500D01*
X187869420Y-43157947D01*
X187869410Y-43157950D01*
X187687342Y-43233364D01*
X187687329Y-43233371D01*
X187523468Y-43342860D01*
X187523464Y-43342863D01*
X187384113Y-43482214D01*
X187384110Y-43482218D01*
X187274621Y-43646079D01*
X187274614Y-43646092D01*
X187199200Y-43828160D01*
X187199197Y-43828170D01*
X187160750Y-44021456D01*
X187160750Y-44021459D01*
X187160750Y-44218541D01*
X187160750Y-44218543D01*
X187160749Y-44218543D01*
X186621750Y-44218543D01*
X186621750Y-44218541D01*
X186621750Y-44021459D01*
X186621750Y-44021456D01*
X186583302Y-43828170D01*
X186583301Y-43828169D01*
X186583301Y-43828165D01*
X186583299Y-43828160D01*
X186507885Y-43646092D01*
X186507878Y-43646079D01*
X186398389Y-43482218D01*
X186398386Y-43482214D01*
X186259035Y-43342863D01*
X186259031Y-43342860D01*
X186095170Y-43233371D01*
X186095157Y-43233364D01*
X185913089Y-43157950D01*
X185913079Y-43157947D01*
X185719793Y-43119500D01*
X185719791Y-43119500D01*
X185522709Y-43119500D01*
X185522707Y-43119500D01*
X185329420Y-43157947D01*
X185329410Y-43157950D01*
X185147342Y-43233364D01*
X185147329Y-43233371D01*
X184983468Y-43342860D01*
X184983464Y-43342863D01*
X184844113Y-43482214D01*
X184844110Y-43482218D01*
X184734621Y-43646079D01*
X184734614Y-43646092D01*
X184659200Y-43828160D01*
X184659197Y-43828170D01*
X184620750Y-44021456D01*
X184620750Y-44021459D01*
X184620750Y-44218541D01*
X184620750Y-44218543D01*
X184620749Y-44218543D01*
X184081750Y-44218543D01*
X184081750Y-44218541D01*
X184081750Y-44021459D01*
X184081750Y-44021456D01*
X184043302Y-43828170D01*
X184043301Y-43828169D01*
X184043301Y-43828165D01*
X184043299Y-43828160D01*
X183967885Y-43646092D01*
X183967878Y-43646079D01*
X183858389Y-43482218D01*
X183858386Y-43482214D01*
X183719035Y-43342863D01*
X183719031Y-43342860D01*
X183555170Y-43233371D01*
X183555157Y-43233364D01*
X183373089Y-43157950D01*
X183373079Y-43157947D01*
X183179793Y-43119500D01*
X183179791Y-43119500D01*
X182982709Y-43119500D01*
X182982707Y-43119500D01*
X182789420Y-43157947D01*
X182789410Y-43157950D01*
X182607342Y-43233364D01*
X182607329Y-43233371D01*
X182443468Y-43342860D01*
X182443464Y-43342863D01*
X182304113Y-43482214D01*
X182304110Y-43482218D01*
X182194621Y-43646079D01*
X182194614Y-43646092D01*
X182119200Y-43828160D01*
X182119197Y-43828170D01*
X182080750Y-44021456D01*
X182080750Y-44021459D01*
X182080750Y-44218541D01*
X182080750Y-44218543D01*
X182080749Y-44218543D01*
X181541750Y-44218543D01*
X181541750Y-44218541D01*
X181541750Y-44021459D01*
X181541750Y-44021456D01*
X181503302Y-43828170D01*
X181503301Y-43828169D01*
X181503301Y-43828165D01*
X181503299Y-43828160D01*
X181427885Y-43646092D01*
X181427878Y-43646079D01*
X181318389Y-43482218D01*
X181318386Y-43482214D01*
X181179035Y-43342863D01*
X181179031Y-43342860D01*
X181015170Y-43233371D01*
X181015157Y-43233364D01*
X180833089Y-43157950D01*
X180833079Y-43157947D01*
X180639793Y-43119500D01*
X180639791Y-43119500D01*
X180442709Y-43119500D01*
X180442707Y-43119500D01*
X180249420Y-43157947D01*
X180249410Y-43157950D01*
X180067342Y-43233364D01*
X180067329Y-43233371D01*
X179903468Y-43342860D01*
X179903464Y-43342863D01*
X179764113Y-43482214D01*
X179764110Y-43482218D01*
X179654621Y-43646079D01*
X179654614Y-43646092D01*
X179579200Y-43828160D01*
X179579197Y-43828170D01*
X179540750Y-44021456D01*
X179540750Y-44021459D01*
X179540750Y-44218541D01*
X179540750Y-44218543D01*
X179540749Y-44218543D01*
X179001750Y-44218543D01*
X179001750Y-43345326D01*
X179001750Y-43345323D01*
X179001749Y-43345321D01*
X178987217Y-43272264D01*
X178987216Y-43272260D01*
X178931851Y-43189399D01*
X178848990Y-43134034D01*
X178848989Y-43134033D01*
X178848985Y-43134032D01*
X178775927Y-43119500D01*
X178775924Y-43119500D01*
X177226576Y-43119500D01*
X177226573Y-43119500D01*
X177153514Y-43134032D01*
X177153510Y-43134033D01*
X177070649Y-43189399D01*
X177015283Y-43272260D01*
X177015282Y-43272264D01*
X177000750Y-43345321D01*
X157410500Y-43345321D01*
X157410500Y-40527525D01*
X169449500Y-40527525D01*
X169449500Y-40672475D01*
X169487016Y-40812485D01*
X169487017Y-40812488D01*
X169559488Y-40938011D01*
X169559490Y-40938013D01*
X169559491Y-40938015D01*
X169661985Y-41040509D01*
X169661986Y-41040510D01*
X169661988Y-41040511D01*
X169787511Y-41112982D01*
X169787512Y-41112982D01*
X169787515Y-41112984D01*
X169927525Y-41150500D01*
X169927528Y-41150500D01*
X170072472Y-41150500D01*
X170072475Y-41150500D01*
X170212485Y-41112984D01*
X170338015Y-41040509D01*
X170440509Y-40938015D01*
X170512984Y-40812485D01*
X170550500Y-40672475D01*
X170550500Y-40527525D01*
X170512984Y-40387515D01*
X170512982Y-40387511D01*
X170512982Y-40387510D01*
X170509872Y-40380001D01*
X170512588Y-40378875D01*
X170499439Y-40324702D01*
X170522282Y-40258673D01*
X170535618Y-40242904D01*
X170538010Y-40240511D01*
X170538015Y-40240509D01*
X170640509Y-40138015D01*
X170712984Y-40012485D01*
X170750500Y-39872475D01*
X170750500Y-39727525D01*
X170712984Y-39587515D01*
X170691613Y-39550500D01*
X170640511Y-39461988D01*
X170640506Y-39461982D01*
X170538017Y-39359493D01*
X170538011Y-39359488D01*
X170412488Y-39287017D01*
X170412489Y-39287017D01*
X170401006Y-39283940D01*
X170272475Y-39249500D01*
X170127525Y-39249500D01*
X169998993Y-39283940D01*
X169987511Y-39287017D01*
X169861988Y-39359488D01*
X169861982Y-39359493D01*
X169759493Y-39461982D01*
X169759488Y-39461988D01*
X169687017Y-39587511D01*
X169687016Y-39587515D01*
X169649500Y-39727525D01*
X169649500Y-39872475D01*
X169677637Y-39977482D01*
X169687016Y-40012486D01*
X169690127Y-40019995D01*
X169687413Y-40021119D01*
X169700559Y-40075315D01*
X169677705Y-40141342D01*
X169664382Y-40157092D01*
X169559494Y-40261981D01*
X169559488Y-40261988D01*
X169487017Y-40387511D01*
X169487016Y-40387515D01*
X169449500Y-40527525D01*
X157410500Y-40527525D01*
X157410500Y-37327525D01*
X162249500Y-37327525D01*
X162249500Y-37472475D01*
X162287016Y-37612485D01*
X162287017Y-37612488D01*
X162359488Y-37738011D01*
X162359493Y-37738017D01*
X162433795Y-37812319D01*
X162467280Y-37873642D01*
X162462296Y-37943334D01*
X162433795Y-37987681D01*
X162359493Y-38061982D01*
X162359488Y-38061988D01*
X162287017Y-38187511D01*
X162287016Y-38187515D01*
X162249500Y-38327525D01*
X162249500Y-38472475D01*
X162272817Y-38559493D01*
X162287017Y-38612488D01*
X162359488Y-38738011D01*
X162359490Y-38738013D01*
X162359491Y-38738015D01*
X162461985Y-38840509D01*
X162461986Y-38840510D01*
X162461988Y-38840511D01*
X162587511Y-38912982D01*
X162587512Y-38912982D01*
X162587515Y-38912984D01*
X162727525Y-38950500D01*
X162727528Y-38950500D01*
X162872472Y-38950500D01*
X162872475Y-38950500D01*
X162958218Y-38927525D01*
X195049500Y-38927525D01*
X195049500Y-39072475D01*
X195064279Y-39127630D01*
X195087017Y-39212488D01*
X195159488Y-39338011D01*
X195159490Y-39338013D01*
X195159491Y-39338015D01*
X195261985Y-39440509D01*
X195261986Y-39440510D01*
X195261988Y-39440511D01*
X195387511Y-39512982D01*
X195387512Y-39512982D01*
X195387515Y-39512984D01*
X195527525Y-39550500D01*
X195527528Y-39550500D01*
X195672472Y-39550500D01*
X195672475Y-39550500D01*
X195680132Y-39548448D01*
X195749979Y-39550108D01*
X195807843Y-39589269D01*
X195832000Y-39636125D01*
X195843255Y-39678127D01*
X195843256Y-39678130D01*
X195915727Y-39803653D01*
X195915729Y-39803655D01*
X195915730Y-39803657D01*
X196018224Y-39906151D01*
X196018225Y-39906152D01*
X196018227Y-39906153D01*
X196143750Y-39978624D01*
X196143751Y-39978624D01*
X196143754Y-39978626D01*
X196283764Y-40016142D01*
X196283767Y-40016142D01*
X196428711Y-40016142D01*
X196428714Y-40016142D01*
X196568724Y-39978626D01*
X196694254Y-39906151D01*
X196796748Y-39803657D01*
X196869223Y-39678127D01*
X196906739Y-39538117D01*
X196906739Y-39393167D01*
X196869223Y-39253157D01*
X196796748Y-39127627D01*
X196694254Y-39025133D01*
X196694252Y-39025132D01*
X196694250Y-39025130D01*
X196568727Y-38952659D01*
X196568728Y-38952659D01*
X196557245Y-38949582D01*
X196428714Y-38915142D01*
X196283764Y-38915142D01*
X196276098Y-38917196D01*
X196206248Y-38915529D01*
X196148388Y-38876363D01*
X196124237Y-38829514D01*
X196112984Y-38787515D01*
X196084406Y-38738017D01*
X196040511Y-38661988D01*
X196040506Y-38661982D01*
X195938017Y-38559493D01*
X195938011Y-38559488D01*
X195812488Y-38487017D01*
X195812489Y-38487017D01*
X195801006Y-38483940D01*
X195672475Y-38449500D01*
X195527525Y-38449500D01*
X195398993Y-38483940D01*
X195387511Y-38487017D01*
X195261988Y-38559488D01*
X195261982Y-38559493D01*
X195159493Y-38661982D01*
X195159488Y-38661988D01*
X195087017Y-38787511D01*
X195087016Y-38787515D01*
X195049500Y-38927525D01*
X162958218Y-38927525D01*
X163012485Y-38912984D01*
X163138015Y-38840509D01*
X163240509Y-38738015D01*
X163312984Y-38612485D01*
X163350500Y-38472475D01*
X163350500Y-38327525D01*
X163312984Y-38187515D01*
X163284406Y-38138017D01*
X163240511Y-38061988D01*
X163240506Y-38061982D01*
X163166205Y-37987681D01*
X163132720Y-37926358D01*
X163137704Y-37856666D01*
X163166205Y-37812319D01*
X163240509Y-37738015D01*
X163312984Y-37612485D01*
X163350500Y-37472475D01*
X163350500Y-37327525D01*
X163312984Y-37187515D01*
X163246565Y-37072475D01*
X163240511Y-37061988D01*
X163240506Y-37061982D01*
X163138017Y-36959493D01*
X163138011Y-36959488D01*
X163012488Y-36887017D01*
X163012489Y-36887017D01*
X163001006Y-36883940D01*
X162872475Y-36849500D01*
X162727525Y-36849500D01*
X162598993Y-36883940D01*
X162587511Y-36887017D01*
X162461988Y-36959488D01*
X162461982Y-36959493D01*
X162359493Y-37061982D01*
X162359488Y-37061988D01*
X162287017Y-37187511D01*
X162287016Y-37187515D01*
X162249500Y-37327525D01*
X157410500Y-37327525D01*
X157410500Y-36427525D01*
X220949500Y-36427525D01*
X220949500Y-36572475D01*
X220987016Y-36712485D01*
X220987017Y-36712488D01*
X221059488Y-36838011D01*
X221059490Y-36838013D01*
X221059491Y-36838015D01*
X221161985Y-36940509D01*
X221161986Y-36940510D01*
X221161988Y-36940511D01*
X221287511Y-37012982D01*
X221287512Y-37012982D01*
X221287515Y-37012984D01*
X221351861Y-37030225D01*
X221411520Y-37066591D01*
X221442049Y-37129438D01*
X221433754Y-37198813D01*
X221389268Y-37252691D01*
X221351862Y-37269774D01*
X221297516Y-37284336D01*
X221287511Y-37287017D01*
X221161988Y-37359488D01*
X221161982Y-37359493D01*
X221059493Y-37461982D01*
X221059488Y-37461988D01*
X220987017Y-37587511D01*
X220987016Y-37587515D01*
X220949500Y-37727525D01*
X220949500Y-37872475D01*
X220980370Y-37987681D01*
X220987017Y-38012488D01*
X221059488Y-38138011D01*
X221059490Y-38138013D01*
X221059491Y-38138015D01*
X221161985Y-38240509D01*
X221161986Y-38240510D01*
X221161988Y-38240511D01*
X221287511Y-38312982D01*
X221287512Y-38312982D01*
X221287515Y-38312984D01*
X221427525Y-38350500D01*
X221427528Y-38350500D01*
X221572472Y-38350500D01*
X221572475Y-38350500D01*
X221712485Y-38312984D01*
X221838015Y-38240509D01*
X221940509Y-38138015D01*
X222012984Y-38012485D01*
X222050500Y-37872475D01*
X222050500Y-37727525D01*
X222033556Y-37664290D01*
X222035219Y-37594442D01*
X222074381Y-37536579D01*
X222138610Y-37509075D01*
X222185425Y-37512423D01*
X222187511Y-37512982D01*
X222187515Y-37512984D01*
X222327525Y-37550500D01*
X222327528Y-37550500D01*
X222472472Y-37550500D01*
X222472475Y-37550500D01*
X222612485Y-37512984D01*
X222738015Y-37440509D01*
X222840509Y-37338015D01*
X222912984Y-37212485D01*
X222950500Y-37072475D01*
X222950500Y-36927525D01*
X222912984Y-36787515D01*
X222869665Y-36712485D01*
X222840511Y-36661988D01*
X222840506Y-36661982D01*
X222738017Y-36559493D01*
X222738011Y-36559488D01*
X222612488Y-36487017D01*
X222612489Y-36487017D01*
X222599468Y-36483528D01*
X222472475Y-36449500D01*
X222327525Y-36449500D01*
X222194324Y-36485191D01*
X222124474Y-36483528D01*
X222066612Y-36444365D01*
X222042458Y-36397513D01*
X222012984Y-36287515D01*
X221940509Y-36161985D01*
X221838015Y-36059491D01*
X221838013Y-36059490D01*
X221838011Y-36059488D01*
X221712488Y-35987017D01*
X221712489Y-35987017D01*
X221701006Y-35983940D01*
X221572475Y-35949500D01*
X221427525Y-35949500D01*
X221298993Y-35983940D01*
X221287511Y-35987017D01*
X221161988Y-36059488D01*
X221161982Y-36059493D01*
X221059493Y-36161982D01*
X221059488Y-36161988D01*
X220987017Y-36287511D01*
X220987016Y-36287515D01*
X220949500Y-36427525D01*
X157410500Y-36427525D01*
X157410500Y-30927525D01*
X192649500Y-30927525D01*
X192649500Y-31072475D01*
X192670245Y-31149895D01*
X192687017Y-31212488D01*
X192759488Y-31338011D01*
X192759490Y-31338013D01*
X192759491Y-31338015D01*
X192861985Y-31440509D01*
X192861986Y-31440510D01*
X192861988Y-31440511D01*
X192987509Y-31512981D01*
X192987511Y-31512982D01*
X192987515Y-31512984D01*
X192987518Y-31512984D01*
X192994574Y-31515907D01*
X193048981Y-31559744D01*
X193071052Y-31626036D01*
X193066906Y-31662565D01*
X193049500Y-31727525D01*
X193049500Y-31872475D01*
X193087016Y-32012485D01*
X193087017Y-32012488D01*
X193159488Y-32138011D01*
X193159490Y-32138013D01*
X193159491Y-32138015D01*
X193261985Y-32240509D01*
X193261986Y-32240510D01*
X193261988Y-32240511D01*
X193387511Y-32312982D01*
X193387512Y-32312982D01*
X193387515Y-32312984D01*
X193527525Y-32350500D01*
X193527528Y-32350500D01*
X193672472Y-32350500D01*
X193672475Y-32350500D01*
X193812485Y-32312984D01*
X193938015Y-32240509D01*
X194040509Y-32138015D01*
X194112984Y-32012485D01*
X194150500Y-31872475D01*
X194150500Y-31727525D01*
X194112984Y-31587515D01*
X194096950Y-31559744D01*
X194040511Y-31461988D01*
X194040506Y-31461982D01*
X193959469Y-31380945D01*
X193938015Y-31359491D01*
X193812485Y-31287016D01*
X193803051Y-31284488D01*
X193787782Y-31275072D01*
X193770794Y-31256189D01*
X193751015Y-31240252D01*
X193747818Y-31230650D01*
X193741052Y-31223129D01*
X193736970Y-31198060D01*
X193728947Y-31173959D01*
X193730630Y-31159128D01*
X193729823Y-31154168D01*
X193731679Y-31149895D01*
X193733093Y-31137436D01*
X193750500Y-31072475D01*
X193750500Y-30927525D01*
X193712984Y-30787515D01*
X193671117Y-30715000D01*
X193640511Y-30661988D01*
X193640506Y-30661982D01*
X193538017Y-30559493D01*
X193538011Y-30559488D01*
X193412488Y-30487017D01*
X193412489Y-30487017D01*
X193401006Y-30483940D01*
X193272475Y-30449500D01*
X193127525Y-30449500D01*
X192998993Y-30483940D01*
X192987511Y-30487017D01*
X192861988Y-30559488D01*
X192861982Y-30559493D01*
X192759493Y-30661982D01*
X192759488Y-30661988D01*
X192687017Y-30787511D01*
X192687016Y-30787515D01*
X192649500Y-30927525D01*
X157410500Y-30927525D01*
X157410500Y-30108753D01*
X211100000Y-30108753D01*
X211100000Y-30321246D01*
X211133242Y-30531127D01*
X211133242Y-30531130D01*
X211198904Y-30733217D01*
X211295375Y-30922550D01*
X211334728Y-30976716D01*
X211967037Y-30344408D01*
X211984075Y-30407993D01*
X212049901Y-30522007D01*
X212142993Y-30615099D01*
X212257007Y-30680925D01*
X212320590Y-30697962D01*
X211688282Y-31330269D01*
X211688282Y-31330270D01*
X211742449Y-31369624D01*
X211931782Y-31466095D01*
X212133870Y-31531757D01*
X212343754Y-31565000D01*
X212556246Y-31565000D01*
X212766127Y-31531757D01*
X212766130Y-31531757D01*
X212968217Y-31466095D01*
X213157554Y-31369622D01*
X213211716Y-31330270D01*
X213211717Y-31330270D01*
X212579408Y-30697962D01*
X212642993Y-30680925D01*
X212757007Y-30615099D01*
X212850099Y-30522007D01*
X212915925Y-30407993D01*
X212932962Y-30344409D01*
X213565270Y-30976717D01*
X213565270Y-30976716D01*
X213604622Y-30922554D01*
X213701095Y-30733217D01*
X213766757Y-30531130D01*
X213766757Y-30531127D01*
X213800000Y-30321246D01*
X213800000Y-30108753D01*
X213766757Y-29898872D01*
X213766757Y-29898869D01*
X213701095Y-29696782D01*
X213604624Y-29507449D01*
X213565270Y-29453282D01*
X213565269Y-29453282D01*
X212932962Y-30085590D01*
X212915925Y-30022007D01*
X212850099Y-29907993D01*
X212757007Y-29814901D01*
X212642993Y-29749075D01*
X212579409Y-29732037D01*
X213211716Y-29099728D01*
X213157550Y-29060375D01*
X213058655Y-29009985D01*
X213007859Y-28962010D01*
X212991064Y-28894189D01*
X213013602Y-28828054D01*
X213068317Y-28784603D01*
X213114950Y-28775500D01*
X213324676Y-28775500D01*
X213324677Y-28775499D01*
X213397740Y-28760966D01*
X213480601Y-28705601D01*
X213535966Y-28622740D01*
X213550500Y-28549674D01*
X213550500Y-26800326D01*
X213550500Y-26800323D01*
X213550499Y-26800321D01*
X213535967Y-26727264D01*
X213535966Y-26727260D01*
X213480601Y-26644399D01*
X213397740Y-26589034D01*
X213397739Y-26589033D01*
X213397735Y-26589032D01*
X213324677Y-26574500D01*
X213324674Y-26574500D01*
X211575326Y-26574500D01*
X211575323Y-26574500D01*
X211502264Y-26589032D01*
X211502260Y-26589033D01*
X211419399Y-26644399D01*
X211364033Y-26727260D01*
X211364032Y-26727264D01*
X211349500Y-26800321D01*
X211349500Y-28549678D01*
X211364032Y-28622735D01*
X211364033Y-28622739D01*
X211364034Y-28622740D01*
X211419399Y-28705601D01*
X211502260Y-28760966D01*
X211502264Y-28760967D01*
X211575321Y-28775499D01*
X211575324Y-28775500D01*
X211785051Y-28775500D01*
X211852090Y-28795185D01*
X211897845Y-28847989D01*
X211907789Y-28917147D01*
X211878764Y-28980703D01*
X211841346Y-29009985D01*
X211742439Y-29060380D01*
X211688282Y-29099727D01*
X211688282Y-29099728D01*
X212320591Y-29732037D01*
X212257007Y-29749075D01*
X212142993Y-29814901D01*
X212049901Y-29907993D01*
X211984075Y-30022007D01*
X211967037Y-30085591D01*
X211334728Y-29453282D01*
X211334727Y-29453282D01*
X211295380Y-29507439D01*
X211198904Y-29696782D01*
X211133242Y-29898869D01*
X211133242Y-29898872D01*
X211100000Y-30108753D01*
X157410500Y-30108753D01*
X157410500Y-28978543D01*
X177000749Y-28978543D01*
X177039197Y-29171829D01*
X177039200Y-29171839D01*
X177114614Y-29353907D01*
X177114621Y-29353920D01*
X177224110Y-29517781D01*
X177224113Y-29517785D01*
X177363464Y-29657136D01*
X177363468Y-29657139D01*
X177527329Y-29766628D01*
X177527342Y-29766635D01*
X177709410Y-29842049D01*
X177709415Y-29842051D01*
X177709419Y-29842051D01*
X177709420Y-29842052D01*
X177902706Y-29880500D01*
X177902709Y-29880500D01*
X178099793Y-29880500D01*
X178229832Y-29854632D01*
X178293085Y-29842051D01*
X178475164Y-29766632D01*
X178639032Y-29657139D01*
X178778389Y-29517782D01*
X178887882Y-29353914D01*
X178963301Y-29171835D01*
X178985472Y-29060375D01*
X179001750Y-28978543D01*
X179540749Y-28978543D01*
X179579197Y-29171829D01*
X179579200Y-29171839D01*
X179654614Y-29353907D01*
X179654621Y-29353920D01*
X179764110Y-29517781D01*
X179764113Y-29517785D01*
X179903464Y-29657136D01*
X179903468Y-29657139D01*
X180067329Y-29766628D01*
X180067342Y-29766635D01*
X180249410Y-29842049D01*
X180249415Y-29842051D01*
X180249419Y-29842051D01*
X180249420Y-29842052D01*
X180442706Y-29880500D01*
X180442709Y-29880500D01*
X180639793Y-29880500D01*
X180769832Y-29854632D01*
X180833085Y-29842051D01*
X181015164Y-29766632D01*
X181179032Y-29657139D01*
X181318389Y-29517782D01*
X181427882Y-29353914D01*
X181503301Y-29171835D01*
X181525472Y-29060375D01*
X181541750Y-28978543D01*
X182080749Y-28978543D01*
X182119197Y-29171829D01*
X182119200Y-29171839D01*
X182194614Y-29353907D01*
X182194621Y-29353920D01*
X182304110Y-29517781D01*
X182304113Y-29517785D01*
X182443464Y-29657136D01*
X182443468Y-29657139D01*
X182607329Y-29766628D01*
X182607342Y-29766635D01*
X182789410Y-29842049D01*
X182789415Y-29842051D01*
X182789419Y-29842051D01*
X182789420Y-29842052D01*
X182982706Y-29880500D01*
X182982709Y-29880500D01*
X183179793Y-29880500D01*
X183309832Y-29854632D01*
X183373085Y-29842051D01*
X183555164Y-29766632D01*
X183719032Y-29657139D01*
X183858389Y-29517782D01*
X183967882Y-29353914D01*
X184043301Y-29171835D01*
X184065472Y-29060375D01*
X184081750Y-28978543D01*
X184620749Y-28978543D01*
X184659197Y-29171829D01*
X184659200Y-29171839D01*
X184734614Y-29353907D01*
X184734621Y-29353920D01*
X184844110Y-29517781D01*
X184844113Y-29517785D01*
X184983464Y-29657136D01*
X184983468Y-29657139D01*
X185147329Y-29766628D01*
X185147342Y-29766635D01*
X185329410Y-29842049D01*
X185329415Y-29842051D01*
X185329419Y-29842051D01*
X185329420Y-29842052D01*
X185522706Y-29880500D01*
X185522709Y-29880500D01*
X185719793Y-29880500D01*
X185849832Y-29854632D01*
X185913085Y-29842051D01*
X186095164Y-29766632D01*
X186259032Y-29657139D01*
X186398389Y-29517782D01*
X186507882Y-29353914D01*
X186583301Y-29171835D01*
X186605472Y-29060375D01*
X186621750Y-28978543D01*
X187160749Y-28978543D01*
X187199197Y-29171829D01*
X187199200Y-29171839D01*
X187274614Y-29353907D01*
X187274621Y-29353920D01*
X187384110Y-29517781D01*
X187384113Y-29517785D01*
X187523464Y-29657136D01*
X187523468Y-29657139D01*
X187687329Y-29766628D01*
X187687342Y-29766635D01*
X187869410Y-29842049D01*
X187869415Y-29842051D01*
X187869419Y-29842051D01*
X187869420Y-29842052D01*
X188062706Y-29880500D01*
X188062709Y-29880500D01*
X188259793Y-29880500D01*
X188389832Y-29854632D01*
X188453085Y-29842051D01*
X188635164Y-29766632D01*
X188799032Y-29657139D01*
X188938389Y-29517782D01*
X189047882Y-29353914D01*
X189123301Y-29171835D01*
X189145472Y-29060375D01*
X189161750Y-28978543D01*
X189700749Y-28978543D01*
X189739197Y-29171829D01*
X189739200Y-29171839D01*
X189814614Y-29353907D01*
X189814621Y-29353920D01*
X189924110Y-29517781D01*
X189924113Y-29517785D01*
X190063464Y-29657136D01*
X190063468Y-29657139D01*
X190227329Y-29766628D01*
X190227342Y-29766635D01*
X190409410Y-29842049D01*
X190409415Y-29842051D01*
X190409419Y-29842051D01*
X190409420Y-29842052D01*
X190602706Y-29880500D01*
X190602709Y-29880500D01*
X190799793Y-29880500D01*
X190929832Y-29854632D01*
X190993085Y-29842051D01*
X191175164Y-29766632D01*
X191339032Y-29657139D01*
X191478389Y-29517782D01*
X191587882Y-29353914D01*
X191663301Y-29171835D01*
X191685472Y-29060375D01*
X191701750Y-28978543D01*
X191701750Y-28781456D01*
X191663302Y-28588170D01*
X191663301Y-28588169D01*
X191663301Y-28588165D01*
X191647359Y-28549678D01*
X191587885Y-28406092D01*
X191587878Y-28406079D01*
X191478389Y-28242218D01*
X191478386Y-28242214D01*
X191339035Y-28102863D01*
X191339031Y-28102860D01*
X191175170Y-27993371D01*
X191175157Y-27993364D01*
X190993089Y-27917950D01*
X190993079Y-27917947D01*
X190799793Y-27879500D01*
X190799791Y-27879500D01*
X190602709Y-27879500D01*
X190602707Y-27879500D01*
X190409420Y-27917947D01*
X190409410Y-27917950D01*
X190227342Y-27993364D01*
X190227329Y-27993371D01*
X190063468Y-28102860D01*
X190063464Y-28102863D01*
X189924113Y-28242214D01*
X189924110Y-28242218D01*
X189814621Y-28406079D01*
X189814614Y-28406092D01*
X189739200Y-28588160D01*
X189739197Y-28588170D01*
X189700750Y-28781456D01*
X189700750Y-28781459D01*
X189700750Y-28978541D01*
X189700750Y-28978543D01*
X189700749Y-28978543D01*
X189161750Y-28978543D01*
X189161750Y-28781456D01*
X189123302Y-28588170D01*
X189123301Y-28588169D01*
X189123301Y-28588165D01*
X189107359Y-28549678D01*
X189047885Y-28406092D01*
X189047878Y-28406079D01*
X188938389Y-28242218D01*
X188938386Y-28242214D01*
X188799035Y-28102863D01*
X188799031Y-28102860D01*
X188635170Y-27993371D01*
X188635157Y-27993364D01*
X188453089Y-27917950D01*
X188453079Y-27917947D01*
X188259793Y-27879500D01*
X188259791Y-27879500D01*
X188062709Y-27879500D01*
X188062707Y-27879500D01*
X187869420Y-27917947D01*
X187869410Y-27917950D01*
X187687342Y-27993364D01*
X187687329Y-27993371D01*
X187523468Y-28102860D01*
X187523464Y-28102863D01*
X187384113Y-28242214D01*
X187384110Y-28242218D01*
X187274621Y-28406079D01*
X187274614Y-28406092D01*
X187199200Y-28588160D01*
X187199197Y-28588170D01*
X187160750Y-28781456D01*
X187160750Y-28781459D01*
X187160750Y-28978541D01*
X187160750Y-28978543D01*
X187160749Y-28978543D01*
X186621750Y-28978543D01*
X186621750Y-28781456D01*
X186583302Y-28588170D01*
X186583301Y-28588169D01*
X186583301Y-28588165D01*
X186567359Y-28549678D01*
X186507885Y-28406092D01*
X186507878Y-28406079D01*
X186398389Y-28242218D01*
X186398386Y-28242214D01*
X186259035Y-28102863D01*
X186259031Y-28102860D01*
X186095170Y-27993371D01*
X186095157Y-27993364D01*
X185913089Y-27917950D01*
X185913079Y-27917947D01*
X185719793Y-27879500D01*
X185719791Y-27879500D01*
X185522709Y-27879500D01*
X185522707Y-27879500D01*
X185329420Y-27917947D01*
X185329410Y-27917950D01*
X185147342Y-27993364D01*
X185147329Y-27993371D01*
X184983468Y-28102860D01*
X184983464Y-28102863D01*
X184844113Y-28242214D01*
X184844110Y-28242218D01*
X184734621Y-28406079D01*
X184734614Y-28406092D01*
X184659200Y-28588160D01*
X184659197Y-28588170D01*
X184620750Y-28781456D01*
X184620750Y-28781459D01*
X184620750Y-28978541D01*
X184620750Y-28978543D01*
X184620749Y-28978543D01*
X184081750Y-28978543D01*
X184081750Y-28781456D01*
X184043302Y-28588170D01*
X184043301Y-28588169D01*
X184043301Y-28588165D01*
X184027359Y-28549678D01*
X183967885Y-28406092D01*
X183967878Y-28406079D01*
X183858389Y-28242218D01*
X183858386Y-28242214D01*
X183719035Y-28102863D01*
X183719031Y-28102860D01*
X183555170Y-27993371D01*
X183555157Y-27993364D01*
X183373089Y-27917950D01*
X183373079Y-27917947D01*
X183179793Y-27879500D01*
X183179791Y-27879500D01*
X182982709Y-27879500D01*
X182982707Y-27879500D01*
X182789420Y-27917947D01*
X182789410Y-27917950D01*
X182607342Y-27993364D01*
X182607329Y-27993371D01*
X182443468Y-28102860D01*
X182443464Y-28102863D01*
X182304113Y-28242214D01*
X182304110Y-28242218D01*
X182194621Y-28406079D01*
X182194614Y-28406092D01*
X182119200Y-28588160D01*
X182119197Y-28588170D01*
X182080750Y-28781456D01*
X182080750Y-28781459D01*
X182080750Y-28978541D01*
X182080750Y-28978543D01*
X182080749Y-28978543D01*
X181541750Y-28978543D01*
X181541750Y-28781456D01*
X181503302Y-28588170D01*
X181503301Y-28588169D01*
X181503301Y-28588165D01*
X181487359Y-28549678D01*
X181427885Y-28406092D01*
X181427878Y-28406079D01*
X181318389Y-28242218D01*
X181318386Y-28242214D01*
X181179035Y-28102863D01*
X181179031Y-28102860D01*
X181015170Y-27993371D01*
X181015157Y-27993364D01*
X180833089Y-27917950D01*
X180833079Y-27917947D01*
X180639793Y-27879500D01*
X180639791Y-27879500D01*
X180442709Y-27879500D01*
X180442707Y-27879500D01*
X180249420Y-27917947D01*
X180249410Y-27917950D01*
X180067342Y-27993364D01*
X180067329Y-27993371D01*
X179903468Y-28102860D01*
X179903464Y-28102863D01*
X179764113Y-28242214D01*
X179764110Y-28242218D01*
X179654621Y-28406079D01*
X179654614Y-28406092D01*
X179579200Y-28588160D01*
X179579197Y-28588170D01*
X179540750Y-28781456D01*
X179540750Y-28781459D01*
X179540750Y-28978541D01*
X179540750Y-28978543D01*
X179540749Y-28978543D01*
X179001750Y-28978543D01*
X179001750Y-28781456D01*
X178963302Y-28588170D01*
X178963301Y-28588169D01*
X178963301Y-28588165D01*
X178947359Y-28549678D01*
X178887885Y-28406092D01*
X178887878Y-28406079D01*
X178778389Y-28242218D01*
X178778386Y-28242214D01*
X178639035Y-28102863D01*
X178639031Y-28102860D01*
X178475170Y-27993371D01*
X178475157Y-27993364D01*
X178293089Y-27917950D01*
X178293079Y-27917947D01*
X178099793Y-27879500D01*
X178099791Y-27879500D01*
X177902709Y-27879500D01*
X177902707Y-27879500D01*
X177709420Y-27917947D01*
X177709410Y-27917950D01*
X177527342Y-27993364D01*
X177527329Y-27993371D01*
X177363468Y-28102860D01*
X177363464Y-28102863D01*
X177224113Y-28242214D01*
X177224110Y-28242218D01*
X177114621Y-28406079D01*
X177114614Y-28406092D01*
X177039200Y-28588160D01*
X177039197Y-28588170D01*
X177000750Y-28781456D01*
X177000750Y-28781459D01*
X177000750Y-28978541D01*
X177000750Y-28978543D01*
X177000749Y-28978543D01*
X157410500Y-28978543D01*
X157410500Y-24504500D01*
X157430185Y-24437461D01*
X157482989Y-24391706D01*
X157534500Y-24380500D01*
X231875500Y-24380500D01*
X231942539Y-24400185D01*
G37*
%TD.AperFunction*%
%TD*%
M02*
