M48
; DRILL file {KiCad 9.0.6} date 2026-03-06T19:21:35+0100
; FORMAT={-:-/ absolute / metric / decimal}
; #@! TF.CreationDate,2026-03-06T19:21:35+01:00
; #@! TF.GenerationSoftware,Kicad,Pcbnew,9.0.6
; #@! TF.FileFunction,MixedPlating,1,4
FMAT,2
METRIC
; #@! TA.AperFunction,Plated,PTH,ViaDrill
T1C0.300
; #@! TA.AperFunction,Plated,PTH,ComponentDrill
T2C1.000
; #@! TA.AperFunction,NonPlated,NPTH,ComponentDrill
T3C2.500
%
G90
G05
T1
X161.6Y-38.4
X162.8Y-37.4
X162.8Y-38.4
X170.0Y-40.6
X170.2Y-39.8
X170.75Y-73.89
X171.0Y-40.6
X171.6Y-80.9
X171.85Y-71.49
X172.1Y-73.09
X172.4Y-80.6
X173.65Y-66.01
X176.0Y-66.0
X176.5Y-66.5
X176.692Y-72.16
X177.25Y-66.0
X177.305Y-66.84
X178.0Y-62.75
X178.0Y-91.2
X178.1Y-67.2
X178.2Y-78.5
X178.45Y-79.2
X178.72Y-66.491
X178.75Y-63.25
X179.4Y-73.16
X179.483Y-66.733
X179.65Y-70.66
X179.905Y-66.24
X180.25Y-60.41
X182.0Y-53.0
X182.6Y-89.025
X182.65Y-60.01
X183.3Y-63.85
X183.5Y-47.8
X184.53Y-64.49
X185.855Y-65.215
X186.006Y-68.766
X186.55Y-67.21
X190.6Y-70.2
X192.25Y-54.525
X192.25Y-56.025
X193.0Y-32.4
X193.2Y-31.0
X193.6Y-31.8
X195.6Y-39.0
X196.356Y-39.466
X196.8Y-38.8
X212.65Y-32.85
X218.4Y-37.6
X221.5Y-36.5
X221.5Y-37.8
X222.4Y-37.0
X224.0Y-37.0
X225.1Y-36.6
X225.4Y-37.8
T2
X165.15Y-54.24
X165.15Y-56.78
X165.15Y-59.32
X165.15Y-61.86
X165.15Y-64.4
X165.15Y-66.94
X165.15Y-69.48
X165.15Y-72.02
X165.15Y-74.56
X165.15Y-77.1
X165.15Y-79.64
X165.15Y-82.18
X165.15Y-84.72
X165.15Y-87.26
X165.15Y-89.8
X172.02Y-58.87
X174.56Y-58.87
X177.1Y-58.87
X178.001Y-28.88
X178.001Y-44.12
X180.541Y-28.88
X180.541Y-44.12
X183.081Y-28.88
X183.081Y-44.12
X185.621Y-28.88
X185.621Y-44.12
X188.161Y-28.88
X188.161Y-44.12
X190.701Y-28.88
X190.701Y-44.12
X194.15Y-54.1
X194.15Y-56.64
X194.15Y-59.18
X194.15Y-61.72
X194.15Y-64.26
X194.15Y-66.8
X194.15Y-69.34
X194.15Y-71.88
X194.15Y-74.42
X194.15Y-76.96
X194.15Y-79.5
X194.15Y-82.04
X194.15Y-84.58
X194.15Y-87.12
X194.15Y-89.66
X212.45Y-27.675
X212.45Y-30.215
T3
X160.1Y-84.6
X160.15Y-52.5
X229.0Y-84.6
X229.1Y-55.9
M30
