%TF.GenerationSoftware,KiCad,Pcbnew,9.0.6*%
%TF.CreationDate,2026-03-06T19:06:09+01:00*%
%TF.ProjectId,nowyprojekt,6e6f7779-7072-46f6-9a65-6b742e6b6963,rev?*%
%TF.SameCoordinates,Original*%
%TF.FileFunction,Copper,L4,Bot*%
%TF.FilePolarity,Positive*%
%FSLAX46Y46*%
G04 Gerber Fmt 4.6, Leading zero omitted, Abs format (unit mm)*
G04 Created by KiCad (PCBNEW 9.0.6) date 2026-03-06 19:06:09*
%MOMM*%
%LPD*%
G01*
G04 APERTURE LIST*
G04 Aperture macros list*
%AMRoundRect*
0 Rectangle with rounded corners*
0 $1 Rounding radius*
0 $2 $3 $4 $5 $6 $7 $8 $9 X,Y pos of 4 corners*
0 Add a 4 corners polygon primitive as box body*
4,1,4,$2,$3,$4,$5,$6,$7,$8,$9,$2,$3,0*
0 Add four circle primitives for the rounded corners*
1,1,$1+$1,$2,$3*
1,1,$1+$1,$4,$5*
1,1,$1+$1,$6,$7*
1,1,$1+$1,$8,$9*
0 Add four rect primitives between the rounded corners*
20,1,$1+$1,$2,$3,$4,$5,0*
20,1,$1+$1,$4,$5,$6,$7,0*
20,1,$1+$1,$6,$7,$8,$9,0*
20,1,$1+$1,$8,$9,$2,$3,0*%
G04 Aperture macros list end*
%TA.AperFunction,ComponentPad*%
%ADD10R,1.500000X1.500000*%
%TD*%
%TA.AperFunction,ComponentPad*%
%ADD11C,1.500000*%
%TD*%
%TA.AperFunction,ComponentPad*%
%ADD12R,1.700000X1.700000*%
%TD*%
%TA.AperFunction,ComponentPad*%
%ADD13C,1.700000*%
%TD*%
%TA.AperFunction,SMDPad,CuDef*%
%ADD14RoundRect,0.200000X0.200000X0.275000X-0.200000X0.275000X-0.200000X-0.275000X0.200000X-0.275000X0*%
%TD*%
%TA.AperFunction,SMDPad,CuDef*%
%ADD15RoundRect,0.225000X-0.225000X-0.250000X0.225000X-0.250000X0.225000X0.250000X-0.225000X0.250000X0*%
%TD*%
%TA.AperFunction,SMDPad,CuDef*%
%ADD16RoundRect,0.150000X0.150000X-0.587500X0.150000X0.587500X-0.150000X0.587500X-0.150000X-0.587500X0*%
%TD*%
%TA.AperFunction,SMDPad,CuDef*%
%ADD17RoundRect,0.225000X0.225000X0.250000X-0.225000X0.250000X-0.225000X-0.250000X0.225000X-0.250000X0*%
%TD*%
%TA.AperFunction,SMDPad,CuDef*%
%ADD18RoundRect,0.250000X-1.750000X-1.000000X1.750000X-1.000000X1.750000X1.000000X-1.750000X1.000000X0*%
%TD*%
%TA.AperFunction,SMDPad,CuDef*%
%ADD19RoundRect,0.200000X0.275000X-0.200000X0.275000X0.200000X-0.275000X0.200000X-0.275000X-0.200000X0*%
%TD*%
%TA.AperFunction,SMDPad,CuDef*%
%ADD20RoundRect,0.375000X0.375000X-0.625000X0.375000X0.625000X-0.375000X0.625000X-0.375000X-0.625000X0*%
%TD*%
%TA.AperFunction,SMDPad,CuDef*%
%ADD21RoundRect,0.500000X1.400000X-0.500000X1.400000X0.500000X-1.400000X0.500000X-1.400000X-0.500000X0*%
%TD*%
%TA.AperFunction,SMDPad,CuDef*%
%ADD22RoundRect,0.150000X-0.587500X-0.150000X0.587500X-0.150000X0.587500X0.150000X-0.587500X0.150000X0*%
%TD*%
%TA.AperFunction,SMDPad,CuDef*%
%ADD23RoundRect,0.225000X-0.250000X0.225000X-0.250000X-0.225000X0.250000X-0.225000X0.250000X0.225000X0*%
%TD*%
%TA.AperFunction,SMDPad,CuDef*%
%ADD24RoundRect,0.200000X-0.275000X0.200000X-0.275000X-0.200000X0.275000X-0.200000X0.275000X0.200000X0*%
%TD*%
%TA.AperFunction,SMDPad,CuDef*%
%ADD25RoundRect,0.250000X1.000000X-1.750000X1.000000X1.750000X-1.000000X1.750000X-1.000000X-1.750000X0*%
%TD*%
%TA.AperFunction,ViaPad*%
%ADD26C,0.600000*%
%TD*%
%TA.AperFunction,Conductor*%
%ADD27C,0.800000*%
%TD*%
%TA.AperFunction,Conductor*%
%ADD28C,0.900000*%
%TD*%
%TA.AperFunction,Conductor*%
%ADD29C,0.400000*%
%TD*%
%TA.AperFunction,Conductor*%
%ADD30C,0.200000*%
%TD*%
%TA.AperFunction,Conductor*%
%ADD31C,0.300000*%
%TD*%
%TA.AperFunction,Conductor*%
%ADD32C,0.350000*%
%TD*%
G04 APERTURE END LIST*
D10*
%TO.P,U1,1,e*%
%TO.N,Net-(U1-e)*%
X178001250Y-44120000D03*
D11*
%TO.P,U1,2,d*%
%TO.N,Net-(U1-d)*%
X180541250Y-44120000D03*
%TO.P,U1,3,DPX*%
%TO.N,Net-(U1-DPX)*%
X183081250Y-44120000D03*
%TO.P,U1,4,c*%
%TO.N,Net-(U1-c)*%
X185621250Y-44120000D03*
%TO.P,U1,5,g*%
%TO.N,Net-(U1-g)*%
X188161250Y-44120000D03*
%TO.P,U1,6,CA4*%
%TO.N,Net-(Q4-C)*%
X190701250Y-44120000D03*
%TO.P,U1,7,b*%
%TO.N,Net-(U1-b)*%
X190701250Y-28880000D03*
%TO.P,U1,8,CA3*%
%TO.N,Net-(Q3-C)*%
X188161250Y-28880000D03*
%TO.P,U1,9,CA2*%
%TO.N,Net-(Q2-C)*%
X185621250Y-28880000D03*
%TO.P,U1,10,f*%
%TO.N,Net-(U1-f)*%
X183081250Y-28880000D03*
%TO.P,U1,11,a*%
%TO.N,Net-(U1-a)*%
X180541250Y-28880000D03*
%TO.P,U1,12,CA1*%
%TO.N,Net-(Q1-C)*%
X178001250Y-28880000D03*
%TD*%
D12*
%TO.P,J4,1,Pin_1*%
%TO.N,GND*%
X165150000Y-54240000D03*
D13*
%TO.P,J4,2,Pin_2*%
X165150000Y-56780000D03*
%TO.P,J4,3,Pin_3*%
X165150000Y-59320000D03*
%TO.P,J4,4,Pin_4*%
X165150000Y-61860000D03*
%TO.P,J4,5,Pin_5*%
%TO.N,PD5*%
X165150000Y-64400000D03*
%TO.P,J4,6,Pin_6*%
%TO.N,PD6*%
X165150000Y-66940000D03*
%TO.P,J4,7,Pin_7*%
%TO.N,PD7*%
X165150000Y-69480000D03*
%TO.P,J4,8,Pin_8*%
%TO.N,+5V*%
X165150000Y-72020000D03*
%TO.P,J4,9,Pin_9*%
%TO.N,PB0*%
X165150000Y-74560000D03*
%TO.P,J4,10,Pin_10*%
%TO.N,PB1*%
X165150000Y-77100000D03*
%TO.P,J4,11,Pin_11*%
%TO.N,PB2*%
X165150000Y-79640000D03*
%TO.P,J4,12,Pin_12*%
%TO.N,PB3*%
X165150000Y-82180000D03*
%TO.P,J4,13,Pin_13*%
%TO.N,PB4*%
X165150000Y-84720000D03*
%TO.P,J4,14,Pin_14*%
%TO.N,PB5*%
X165150000Y-87260000D03*
%TO.P,J4,15,Pin_15*%
%TO.N,ADC1*%
X165150000Y-89800000D03*
%TD*%
D12*
%TO.P,J3,1,Pin_1*%
%TO.N,+5V*%
X194150000Y-54100000D03*
D13*
%TO.P,J3,2,Pin_2*%
%TO.N,GND*%
X194150000Y-56640000D03*
%TO.P,J3,3,Pin_3*%
%TO.N,PD4*%
X194150000Y-59180000D03*
%TO.P,J3,4,Pin_4*%
%TO.N,PD3*%
X194150000Y-61720000D03*
%TO.P,J3,5,Pin_5*%
%TO.N,PD2*%
X194150000Y-64260000D03*
%TO.P,J3,6,Pin_6*%
%TO.N,PD1*%
X194150000Y-66800000D03*
%TO.P,J3,7,Pin_7*%
%TO.N,PD0*%
X194150000Y-69340000D03*
%TO.P,J3,8,Pin_8*%
%TO.N,PC6*%
X194150000Y-71880000D03*
%TO.P,J3,9,Pin_9*%
%TO.N,PC5*%
X194150000Y-74420000D03*
%TO.P,J3,10,Pin_10*%
%TO.N,PC4*%
X194150000Y-76960000D03*
%TO.P,J3,11,Pin_11*%
%TO.N,PC3*%
X194150000Y-79500000D03*
%TO.P,J3,12,Pin_12*%
%TO.N,PC2*%
X194150000Y-82040000D03*
%TO.P,J3,13,Pin_13*%
%TO.N,PC1*%
X194150000Y-84580000D03*
%TO.P,J3,14,Pin_14*%
%TO.N,PC0*%
X194150000Y-87120000D03*
%TO.P,J3,15,Pin_15*%
%TO.N,ADC2*%
X194150000Y-89660000D03*
%TD*%
D12*
%TO.P,J2,1,Pin_1*%
%TO.N,Net-(J2-Pin_1)*%
X177100000Y-58870000D03*
D13*
%TO.P,J2,2,Pin_2*%
%TO.N,unconnected-(J2-Pin_2-Pad2)*%
X174560000Y-58870000D03*
%TO.P,J2,3,Pin_3*%
%TO.N,Net-(J2-Pin_3)*%
X172020000Y-58870000D03*
%TD*%
D14*
%TO.P,R14,1*%
%TO.N,Net-(Q4-B)*%
X195400000Y-44750000D03*
%TO.P,R14,2*%
%TO.N,PB4*%
X193750000Y-44750000D03*
%TD*%
D15*
%TO.P,C14,1*%
%TO.N,+5V*%
X195850000Y-37800000D03*
%TO.P,C14,2*%
%TO.N,GND*%
X197400000Y-37800000D03*
%TD*%
D16*
%TO.P,Q3,1,B*%
%TO.N,Net-(Q3-B)*%
X196500000Y-31152500D03*
%TO.P,Q3,2,E*%
%TO.N,+5V*%
X194600000Y-31152500D03*
%TO.P,Q3,3,C*%
%TO.N,Net-(Q3-C)*%
X195550000Y-29277500D03*
%TD*%
D15*
%TO.P,C12,1*%
%TO.N,+5V*%
X170025000Y-41800000D03*
%TO.P,C12,2*%
%TO.N,GND*%
X171575000Y-41800000D03*
%TD*%
D17*
%TO.P,C11,1*%
%TO.N,+5V*%
X162600000Y-39400000D03*
%TO.P,C11,2*%
%TO.N,GND*%
X161050000Y-39400000D03*
%TD*%
D18*
%TO.P,C3,1*%
%TO.N,+5V*%
X222400000Y-42100000D03*
%TO.P,C3,2*%
%TO.N,GND*%
X228500000Y-42100000D03*
%TD*%
D16*
%TO.P,Q1,1,B*%
%TO.N,Net-(Q1-B)*%
X172220000Y-38427500D03*
%TO.P,Q1,2,E*%
%TO.N,+5V*%
X170320000Y-38427500D03*
%TO.P,Q1,3,C*%
%TO.N,Net-(Q1-C)*%
X171270000Y-36552500D03*
%TD*%
%TO.P,Q2,1,B*%
%TO.N,Net-(Q2-B)*%
X164706250Y-35475000D03*
%TO.P,Q2,2,E*%
%TO.N,+5V*%
X162806250Y-35475000D03*
%TO.P,Q2,3,C*%
%TO.N,Net-(Q2-C)*%
X163756250Y-33600000D03*
%TD*%
D19*
%TO.P,R4,1*%
%TO.N,PD1*%
X189200000Y-36650000D03*
%TO.P,R4,2*%
%TO.N,Net-(U1-b)*%
X189200000Y-35000000D03*
%TD*%
D17*
%TO.P,C10,1*%
%TO.N,GND*%
X177250000Y-65000000D03*
%TO.P,C10,2*%
%TO.N,+5V*%
X175700000Y-65000000D03*
%TD*%
D20*
%TO.P,U3,1,GND*%
%TO.N,GND*%
X224300000Y-33650000D03*
%TO.P,U3,2,VO*%
%TO.N,+5V*%
X222000000Y-33650000D03*
D21*
X222000000Y-27350000D03*
D20*
%TO.P,U3,3,VI*%
%TO.N,VIN*%
X219700000Y-33650000D03*
%TD*%
D22*
%TO.P,Q4,1,B*%
%TO.N,Net-(Q4-B)*%
X196098750Y-42400000D03*
%TO.P,Q4,2,E*%
%TO.N,+5V*%
X196098750Y-40500000D03*
%TO.P,Q4,3,C*%
%TO.N,Net-(Q4-C)*%
X197973750Y-41450000D03*
%TD*%
D14*
%TO.P,R13,1*%
%TO.N,Net-(Q3-B)*%
X196650000Y-34000000D03*
%TO.P,R13,2*%
%TO.N,PB3*%
X195000000Y-34000000D03*
%TD*%
D19*
%TO.P,R8,1*%
%TO.N,PD5*%
X184400000Y-36450000D03*
%TO.P,R8,2*%
%TO.N,Net-(U1-f)*%
X184400000Y-34800000D03*
%TD*%
%TO.P,R3,1*%
%TO.N,PD0*%
X180300000Y-36425000D03*
%TO.P,R3,2*%
%TO.N,Net-(U1-a)*%
X180300000Y-34775000D03*
%TD*%
D23*
%TO.P,C13,1*%
%TO.N,+5V*%
X192000000Y-31200000D03*
%TO.P,C13,2*%
%TO.N,GND*%
X192000000Y-32750000D03*
%TD*%
D15*
%TO.P,C6,1*%
%TO.N,+5V*%
X178750000Y-64900000D03*
%TO.P,C6,2*%
%TO.N,GND*%
X180300000Y-64900000D03*
%TD*%
D24*
%TO.P,R12,1*%
%TO.N,Net-(Q2-B)*%
X166600000Y-37800000D03*
%TO.P,R12,2*%
%TO.N,PB2*%
X166600000Y-39450000D03*
%TD*%
D19*
%TO.P,R7,1*%
%TO.N,PD4*%
X175000000Y-50575000D03*
%TO.P,R7,2*%
%TO.N,Net-(U1-e)*%
X175000000Y-48925000D03*
%TD*%
%TO.P,R5,1*%
%TO.N,PD2*%
X185250000Y-50575000D03*
%TO.P,R5,2*%
%TO.N,Net-(U1-c)*%
X185250000Y-48925000D03*
%TD*%
D12*
%TO.P,J1,1,Pin_1*%
%TO.N,VIN*%
X212450000Y-27675000D03*
D13*
%TO.P,J1,2,Pin_2*%
%TO.N,GND*%
X212450000Y-30215000D03*
%TD*%
D19*
%TO.P,R10,1*%
%TO.N,PD7*%
X182000000Y-50575000D03*
%TO.P,R10,2*%
%TO.N,Net-(U1-DPX)*%
X182000000Y-48925000D03*
%TD*%
%TO.P,R9,1*%
%TO.N,PD6*%
X188200000Y-50575000D03*
%TO.P,R9,2*%
%TO.N,Net-(U1-g)*%
X188200000Y-48925000D03*
%TD*%
D23*
%TO.P,C1,1*%
%TO.N,VIN*%
X220000000Y-36625000D03*
%TO.P,C1,2*%
%TO.N,GND*%
X220000000Y-38175000D03*
%TD*%
D25*
%TO.P,C4,1*%
%TO.N,VIN*%
X212900000Y-41932500D03*
%TO.P,C4,2*%
%TO.N,GND*%
X212900000Y-35832500D03*
%TD*%
D24*
%TO.P,R11,1*%
%TO.N,Net-(Q1-B)*%
X174280000Y-39100000D03*
%TO.P,R11,2*%
%TO.N,PB1*%
X174280000Y-40750000D03*
%TD*%
D19*
%TO.P,R6,1*%
%TO.N,PD3*%
X177750000Y-50575000D03*
%TO.P,R6,2*%
%TO.N,Net-(U1-d)*%
X177750000Y-48925000D03*
%TD*%
D26*
%TO.N,+5V*%
X170200000Y-39800000D03*
X176000000Y-66000000D03*
X193200000Y-31000000D03*
X162800000Y-37400000D03*
X176500000Y-66500000D03*
X221500000Y-37800000D03*
X170000000Y-40600000D03*
X162800000Y-38400000D03*
X196356239Y-39465642D03*
X192250000Y-54525000D03*
X178100000Y-67200000D03*
X222400000Y-37000000D03*
X171600000Y-80900000D03*
X190600000Y-70200000D03*
X193600000Y-31800000D03*
X221500000Y-36500000D03*
X182600000Y-89025000D03*
X195600000Y-39000000D03*
X178720229Y-66490545D03*
%TO.N,GND*%
X196800000Y-38800000D03*
X225100000Y-36600000D03*
X172400000Y-80600000D03*
X192250000Y-56025000D03*
X177305000Y-66840000D03*
X178200000Y-78500000D03*
X171000000Y-40600000D03*
X179905000Y-66240000D03*
X225400000Y-37800000D03*
X161600000Y-38400000D03*
X178450000Y-79200000D03*
X178000000Y-91200000D03*
X212650000Y-32850000D03*
X178750000Y-63250000D03*
X179482702Y-66732702D03*
X177250000Y-66000000D03*
X178000000Y-62750000D03*
X224000000Y-37000000D03*
X193000000Y-32400000D03*
X218400000Y-37600000D03*
%TO.N,PD0*%
X186005707Y-68765707D03*
%TO.N,PD6*%
X179650000Y-70660000D03*
%TO.N,PB1*%
X172100000Y-73090000D03*
%TO.N,PD2*%
X185855000Y-65215000D03*
%TO.N,PD1*%
X186550000Y-67210000D03*
%TO.N,PB4*%
X179400000Y-73160000D03*
%TO.N,PD3*%
X184530000Y-64490000D03*
%TO.N,PD7*%
X182000000Y-53000000D03*
X171850000Y-71490000D03*
X180250000Y-60410000D03*
%TO.N,PD4*%
X183300000Y-63850000D03*
%TO.N,PB2*%
X170750000Y-73890000D03*
%TO.N,PD5*%
X183500000Y-47800000D03*
X173650000Y-66010000D03*
X182650000Y-60010000D03*
%TO.N,PB3*%
X176692154Y-72160000D03*
%TD*%
D27*
%TO.N,VIN*%
X219700000Y-34870000D02*
X219700000Y-35700000D01*
X219700000Y-34870000D02*
X219700000Y-33650000D01*
D28*
X215440000Y-39392500D02*
X212900000Y-41932500D01*
D27*
X218645000Y-35925000D02*
X219700000Y-34870000D01*
X220000000Y-36000000D02*
X220000000Y-36625000D01*
D28*
X212450000Y-27675000D02*
X214615000Y-27675000D01*
X215440000Y-28500000D02*
X215440000Y-38050000D01*
X215440000Y-38050000D02*
X215440000Y-39392500D01*
D27*
X219700000Y-35700000D02*
X220000000Y-36000000D01*
X218645000Y-35925000D02*
X217565000Y-35925000D01*
X217565000Y-35925000D02*
X215440000Y-38050000D01*
D28*
X214615000Y-27675000D02*
X215440000Y-28500000D01*
D29*
%TO.N,+5V*%
X196098750Y-40500000D02*
X196098750Y-39723131D01*
X178730000Y-66480774D02*
X178720229Y-66490545D01*
X195850000Y-38750000D02*
X195600000Y-39000000D01*
X178730000Y-66415000D02*
X178730000Y-66480774D01*
D30*
X175700000Y-65700000D02*
X175750000Y-65750000D01*
D31*
X194600000Y-31152500D02*
X194247500Y-31152500D01*
D30*
X162806250Y-37393750D02*
X162800000Y-37400000D01*
D27*
X222400000Y-42100000D02*
X222400000Y-38700000D01*
D31*
X192000000Y-31200000D02*
X193000000Y-31200000D01*
D29*
X162600000Y-38600000D02*
X162800000Y-38400000D01*
D31*
X170320000Y-39680000D02*
X170200000Y-39800000D01*
D27*
X222000000Y-36000000D02*
X221500000Y-36500000D01*
D31*
X194247500Y-31152500D02*
X193600000Y-31800000D01*
D29*
X162600000Y-39400000D02*
X162600000Y-38600000D01*
D30*
X170025000Y-40625000D02*
X170000000Y-40600000D01*
D27*
X222400000Y-38700000D02*
X221500000Y-37800000D01*
D31*
X193000000Y-31200000D02*
X193200000Y-31000000D01*
D29*
X175750000Y-65750000D02*
X176000000Y-66000000D01*
X196098750Y-39723131D02*
X196356239Y-39465642D01*
D27*
X222000000Y-35500000D02*
X222000000Y-35600000D01*
D29*
X162806250Y-35475000D02*
X162806250Y-37393750D01*
D27*
X222000000Y-35600000D02*
X222000000Y-36000000D01*
D29*
X178750000Y-64900000D02*
X178750000Y-66460774D01*
X175700000Y-65000000D02*
X175700000Y-65700000D01*
D31*
X170320000Y-38427500D02*
X170320000Y-39680000D01*
D30*
X178750000Y-66460774D02*
X178720229Y-66490545D01*
D27*
X222000000Y-35500000D02*
X222000000Y-27350000D01*
D31*
X170025000Y-41800000D02*
X170025000Y-40625000D01*
D30*
X194150000Y-54100000D02*
X194900000Y-54100000D01*
D29*
X195850000Y-37800000D02*
X195850000Y-38750000D01*
D27*
%TO.N,GND*%
X224300000Y-34950000D02*
X224300000Y-35600000D01*
X212900000Y-35832500D02*
X212900000Y-33100000D01*
X224850000Y-36350000D02*
X225100000Y-36600000D01*
X220000000Y-38175000D02*
X219175000Y-38175000D01*
X218975000Y-38175000D02*
X218400000Y-37600000D01*
X219175000Y-38175000D02*
X218975000Y-38175000D01*
D30*
X197400000Y-37800000D02*
X197400000Y-38200000D01*
D29*
X197400000Y-38200000D02*
X196800000Y-38800000D01*
X179905000Y-66240000D02*
X180055000Y-66240000D01*
D30*
X161050000Y-39400000D02*
X161050000Y-38950000D01*
D29*
X180300000Y-65995000D02*
X180300000Y-64900000D01*
D31*
X171575000Y-41175000D02*
X171000000Y-40600000D01*
D27*
X224300000Y-35600000D02*
X224300000Y-35800000D01*
D29*
X177250000Y-65000000D02*
X177250000Y-66000000D01*
X180055000Y-66240000D02*
X180300000Y-65995000D01*
D27*
X225400000Y-39000000D02*
X225400000Y-37800000D01*
X228500000Y-42100000D02*
X225400000Y-39000000D01*
X224300000Y-34950000D02*
X224300000Y-33650000D01*
D29*
X161050000Y-38950000D02*
X161600000Y-38400000D01*
D27*
X212900000Y-33100000D02*
X212650000Y-32850000D01*
D31*
X171575000Y-41800000D02*
X171575000Y-41175000D01*
D27*
X224300000Y-35800000D02*
X224850000Y-36350000D01*
D31*
X192650000Y-32750000D02*
X193000000Y-32400000D01*
X192000000Y-32750000D02*
X192650000Y-32750000D01*
%TO.N,PD0*%
X181800000Y-46450000D02*
X180700000Y-47550000D01*
X180300000Y-36425000D02*
X180300000Y-39500000D01*
X180700000Y-52925800D02*
X185181000Y-57406800D01*
X180700000Y-47550000D02*
X180700000Y-52925800D01*
X180300000Y-39500000D02*
X181800000Y-41000000D01*
X185181000Y-57406800D02*
X185181000Y-67941000D01*
X185181000Y-67941000D02*
X186005707Y-68765707D01*
X181800000Y-41000000D02*
X181800000Y-46450000D01*
%TO.N,PD6*%
X185030654Y-70660000D02*
X187201000Y-68489654D01*
X187201000Y-54199000D02*
X188200000Y-53200000D01*
X187900000Y-50875000D02*
X188200000Y-50575000D01*
X179650000Y-70660000D02*
X185030654Y-70660000D01*
X188200000Y-53200000D02*
X188200000Y-50575000D01*
X187201000Y-68489654D02*
X187201000Y-54199000D01*
%TO.N,PB1*%
X174280000Y-40750000D02*
X174280000Y-43022000D01*
X174280000Y-43022000D02*
X172751000Y-44551000D01*
X172751000Y-55599000D02*
X170650000Y-57700000D01*
X170650000Y-57700000D02*
X170650000Y-59660000D01*
X171050000Y-60060000D02*
X171050000Y-72040000D01*
X170650000Y-59660000D02*
X171050000Y-60060000D01*
X171050000Y-72040000D02*
X172100000Y-73090000D01*
X172751000Y-44551000D02*
X172751000Y-55599000D01*
D32*
X172100000Y-73090000D02*
X172100000Y-73000000D01*
D31*
%TO.N,PD2*%
X185855000Y-65215000D02*
X185855000Y-56805000D01*
X185250000Y-50575000D02*
X185250000Y-56200000D01*
X185250000Y-56200000D02*
X185855000Y-56805000D01*
%TO.N,PD1*%
X186800000Y-52000000D02*
X186550000Y-52250000D01*
X189200000Y-38550000D02*
X186800000Y-40950000D01*
X186550000Y-52250000D02*
X186550000Y-67210000D01*
X189200000Y-36650000D02*
X189200000Y-38550000D01*
X186800000Y-40950000D02*
X186800000Y-52000000D01*
%TO.N,PB4*%
X186550000Y-72600000D02*
X180400000Y-72600000D01*
X192550000Y-44750000D02*
X190450000Y-46850000D01*
X190450000Y-46850000D02*
X190450000Y-68700000D01*
X190450000Y-68700000D02*
X186550000Y-72600000D01*
X179840000Y-73160000D02*
X180400000Y-72600000D01*
X179840000Y-73160000D02*
X179400000Y-73160000D01*
X193750000Y-44750000D02*
X192550000Y-44750000D01*
%TO.N,PD3*%
X179400000Y-53000000D02*
X184530000Y-58130000D01*
X177750000Y-51350000D02*
X179400000Y-53000000D01*
X184530000Y-58130000D02*
X184530000Y-64490000D01*
X177750000Y-50575000D02*
X177750000Y-51350000D01*
%TO.N,PD7*%
X177650000Y-60810000D02*
X171850000Y-66610000D01*
X180250000Y-60410000D02*
X179850000Y-60810000D01*
X171850000Y-66610000D02*
X171850000Y-71490000D01*
X182000000Y-50575000D02*
X182000000Y-53000000D01*
X179850000Y-60810000D02*
X177650000Y-60810000D01*
%TO.N,PD4*%
X177200000Y-52100000D02*
X183460000Y-58360000D01*
X175900000Y-52100000D02*
X177200000Y-52100000D01*
X183460000Y-58360000D02*
X183460000Y-63690000D01*
X175000000Y-51200000D02*
X175900000Y-52100000D01*
X183460000Y-63690000D02*
X183300000Y-63850000D01*
X175000000Y-50575000D02*
X175000000Y-51200000D01*
%TO.N,PB2*%
X170150000Y-56310000D02*
X170150000Y-72900000D01*
X170750000Y-73500000D02*
X170150000Y-72900000D01*
X166600000Y-39450000D02*
X166600000Y-46400000D01*
X170401000Y-50201000D02*
X170401000Y-56059000D01*
X170750000Y-73890000D02*
X170750000Y-73500000D01*
X166600000Y-46400000D02*
X170401000Y-50201000D01*
X170401000Y-56059000D02*
X170150000Y-56310000D01*
%TO.N,PD5*%
X181050000Y-61610000D02*
X182650000Y-60010000D01*
X173650000Y-66010000D02*
X173650000Y-65610000D01*
X175050000Y-64210000D02*
X177650000Y-61610000D01*
X173650000Y-65610000D02*
X175050000Y-64210000D01*
X184400000Y-36450000D02*
X184400000Y-46900000D01*
X177650000Y-61610000D02*
X181050000Y-61610000D01*
X184400000Y-46900000D02*
X183500000Y-47800000D01*
%TO.N,PB3*%
X193000000Y-35100000D02*
X193000000Y-38600000D01*
X193000000Y-38600000D02*
X189401000Y-42199000D01*
X189401000Y-68289654D02*
X186030654Y-71660000D01*
X189401000Y-42199000D02*
X189401000Y-68289654D01*
X180150000Y-71660000D02*
X179650000Y-72160000D01*
X194100000Y-34000000D02*
X193000000Y-35100000D01*
X186030654Y-71660000D02*
X180150000Y-71660000D01*
X179650000Y-72160000D02*
X176692154Y-72160000D01*
X195000000Y-34000000D02*
X194100000Y-34000000D01*
%TO.N,Net-(Q1-B)*%
X172892500Y-39100000D02*
X172220000Y-38427500D01*
X172892500Y-39100000D02*
X174280000Y-39100000D01*
%TO.N,Net-(Q1-C)*%
X171270000Y-31750000D02*
X171270000Y-36552500D01*
X174140000Y-28880000D02*
X171270000Y-31750000D01*
X178001250Y-28880000D02*
X174140000Y-28880000D01*
%TO.N,Net-(Q2-B)*%
X165331250Y-36100000D02*
X166300000Y-36100000D01*
X166600000Y-36400000D02*
X166600000Y-37800000D01*
X164706250Y-35475000D02*
X165331250Y-36100000D01*
X166300000Y-36100000D02*
X166600000Y-36400000D01*
%TO.N,Net-(Q2-C)*%
X163756250Y-29643750D02*
X166150000Y-27250000D01*
X166150000Y-27250000D02*
X183991250Y-27250000D01*
X163756250Y-33600000D02*
X163756250Y-29643750D01*
X183991250Y-27250000D02*
X185621250Y-28880000D01*
%TO.N,Net-(Q3-B)*%
X196650000Y-34000000D02*
X196650000Y-32850000D01*
X196500000Y-32700000D02*
X196500000Y-31152500D01*
X196650000Y-32850000D02*
X196500000Y-32700000D01*
%TO.N,Net-(Q3-C)*%
X188161250Y-27588750D02*
X188500000Y-27250000D01*
X188500000Y-27250000D02*
X193522500Y-27250000D01*
X193522500Y-27250000D02*
X195550000Y-29277500D01*
X188161250Y-28880000D02*
X188161250Y-27588750D01*
%TO.N,Net-(Q4-C)*%
X193371250Y-41450000D02*
X190701250Y-44120000D01*
X197973750Y-41450000D02*
X193371250Y-41450000D01*
%TO.N,Net-(Q4-B)*%
X195400000Y-43098750D02*
X196098750Y-42400000D01*
X195400000Y-43098750D02*
X195400000Y-44750000D01*
%TO.N,Net-(U1-a)*%
X180300000Y-34775000D02*
X180300000Y-30282500D01*
X180541250Y-28880000D02*
X180541250Y-30041250D01*
X180300000Y-30282500D02*
X180541250Y-30041250D01*
%TO.N,Net-(U1-b)*%
X190701250Y-28880000D02*
X189200000Y-30381250D01*
X189200000Y-30381250D02*
X189200000Y-35000000D01*
%TO.N,Net-(U1-c)*%
X185621250Y-47378750D02*
X185250000Y-47750000D01*
X185621250Y-44120000D02*
X185621250Y-47378750D01*
X185250000Y-47750000D02*
X185250000Y-48925000D01*
%TO.N,Net-(U1-d)*%
X177750000Y-48925000D02*
X177750000Y-48000000D01*
X180541250Y-45208750D02*
X180541250Y-44120000D01*
X177750000Y-48000000D02*
X180541250Y-45208750D01*
%TO.N,Net-(U1-e)*%
X175000000Y-48925000D02*
X175000000Y-48000000D01*
X175000000Y-48000000D02*
X178001250Y-44998750D01*
X178001250Y-44998750D02*
X178001250Y-44120000D01*
%TO.N,Net-(U1-f)*%
X183081250Y-30331250D02*
X184400000Y-31650000D01*
X183081250Y-28880000D02*
X183081250Y-30331250D01*
X184400000Y-31650000D02*
X184400000Y-34800000D01*
%TO.N,Net-(U1-g)*%
X188200000Y-48925000D02*
X188200000Y-44158750D01*
D30*
X188200000Y-44158750D02*
X188161250Y-44120000D01*
D31*
%TO.N,Net-(U1-DPX)*%
X183081250Y-46750000D02*
X183081250Y-44120000D01*
X182000000Y-47831250D02*
X183081250Y-46750000D01*
X182000000Y-48925000D02*
X182000000Y-47831250D01*
%TD*%
M02*
