%TF.GenerationSoftware,KiCad,Pcbnew,9.0.6*%
%TF.CreationDate,2026-03-06T19:06:09+01:00*%
%TF.ProjectId,nowyprojekt,6e6f7779-7072-46f6-9a65-6b742e6b6963,rev?*%
%TF.SameCoordinates,Original*%
%TF.FileFunction,Soldermask,Top*%
%TF.FilePolarity,Negative*%
%FSLAX46Y46*%
G04 Gerber Fmt 4.6, Leading zero omitted, Abs format (unit mm)*
G04 Created by KiCad (PCBNEW 9.0.6) date 2026-03-06 19:06:09*
%MOMM*%
%LPD*%
G01*
G04 APERTURE LIST*
G04 Aperture macros list*
%AMRoundRect*
0 Rectangle with rounded corners*
0 $1 Rounding radius*
0 $2 $3 $4 $5 $6 $7 $8 $9 X,Y pos of 4 corners*
0 Add a 4 corners polygon primitive as box body*
4,1,4,$2,$3,$4,$5,$6,$7,$8,$9,$2,$3,0*
0 Add four circle primitives for the rounded corners*
1,1,$1+$1,$2,$3*
1,1,$1+$1,$4,$5*
1,1,$1+$1,$6,$7*
1,1,$1+$1,$8,$9*
0 Add four rect primitives between the rounded corners*
20,1,$1+$1,$2,$3,$4,$5,0*
20,1,$1+$1,$4,$5,$6,$7,0*
20,1,$1+$1,$6,$7,$8,$9,0*
20,1,$1+$1,$8,$9,$2,$3,0*%
G04 Aperture macros list end*
%ADD10R,1.500000X1.500000*%
%ADD11C,1.500000*%
%ADD12C,2.500000*%
%ADD13RoundRect,0.218750X0.256250X-0.218750X0.256250X0.218750X-0.256250X0.218750X-0.256250X-0.218750X0*%
%ADD14R,1.700000X1.700000*%
%ADD15C,1.700000*%
%ADD16RoundRect,0.225000X0.225000X0.250000X-0.225000X0.250000X-0.225000X-0.250000X0.225000X-0.250000X0*%
%ADD17RoundRect,0.200000X-0.275000X0.200000X-0.275000X-0.200000X0.275000X-0.200000X0.275000X0.200000X0*%
%ADD18RoundRect,0.250000X-0.275000X-0.700000X0.275000X-0.700000X0.275000X0.700000X-0.275000X0.700000X0*%
%ADD19RoundRect,0.137500X-0.137500X0.600000X-0.137500X-0.600000X0.137500X-0.600000X0.137500X0.600000X0*%
%ADD20RoundRect,0.137500X-0.600000X0.137500X-0.600000X-0.137500X0.600000X-0.137500X0.600000X0.137500X0*%
%ADD21RoundRect,0.225000X-0.225000X-0.250000X0.225000X-0.250000X0.225000X0.250000X-0.225000X0.250000X0*%
%ADD22RoundRect,0.225000X-0.250000X0.225000X-0.250000X-0.225000X0.250000X-0.225000X0.250000X0.225000X0*%
G04 APERTURE END LIST*
D10*
%TO.C,U1*%
X178001250Y-44120000D03*
D11*
X180541250Y-44120000D03*
X183081250Y-44120000D03*
X185621250Y-44120000D03*
X188161250Y-44120000D03*
X190701250Y-44120000D03*
X190701250Y-28880000D03*
X188161250Y-28880000D03*
X185621250Y-28880000D03*
X183081250Y-28880000D03*
X180541250Y-28880000D03*
X178001250Y-28880000D03*
%TD*%
D12*
%TO.C,REF\u002A\u002A*%
X229000000Y-84600000D03*
%TD*%
%TO.C,REF\u002A\u002A*%
X160150000Y-52500000D03*
%TD*%
D13*
%TO.C,D1*%
X178050000Y-89650000D03*
X178050000Y-88075000D03*
%TD*%
D14*
%TO.C,J4*%
X165150000Y-54240000D03*
D15*
X165150000Y-56780000D03*
X165150000Y-59320000D03*
X165150000Y-61860000D03*
X165150000Y-64400000D03*
X165150000Y-66940000D03*
X165150000Y-69480000D03*
X165150000Y-72020000D03*
X165150000Y-74560000D03*
X165150000Y-77100000D03*
X165150000Y-79640000D03*
X165150000Y-82180000D03*
X165150000Y-84720000D03*
X165150000Y-87260000D03*
X165150000Y-89800000D03*
%TD*%
D16*
%TO.C,C9*%
X178925000Y-64400000D03*
X177375000Y-64400000D03*
%TD*%
D12*
%TO.C,REF\u002A\u002A*%
X229100000Y-55900000D03*
%TD*%
D17*
%TO.C,R1*%
X189550000Y-70195000D03*
X189550000Y-71845000D03*
%TD*%
D18*
%TO.C,L1*%
X171600000Y-82500000D03*
X174750000Y-82500000D03*
%TD*%
D14*
%TO.C,J3*%
X194150000Y-54100000D03*
D15*
X194150000Y-56640000D03*
X194150000Y-59180000D03*
X194150000Y-61720000D03*
X194150000Y-64260000D03*
X194150000Y-66800000D03*
X194150000Y-69340000D03*
X194150000Y-71880000D03*
X194150000Y-74420000D03*
X194150000Y-76960000D03*
X194150000Y-79500000D03*
X194150000Y-82040000D03*
X194150000Y-84580000D03*
X194150000Y-87120000D03*
X194150000Y-89660000D03*
%TD*%
D12*
%TO.C,REF\u002A\u002A*%
X160100000Y-84600000D03*
%TD*%
D19*
%TO.C,U2*%
X180500000Y-68550000D03*
X179700000Y-68550000D03*
X178900000Y-68550000D03*
X178100000Y-68550000D03*
X177300000Y-68550000D03*
X176500000Y-68550000D03*
X175700000Y-68550000D03*
X174900000Y-68550000D03*
D20*
X173537500Y-69912500D03*
X173537500Y-70712500D03*
X173537500Y-71512500D03*
X173537500Y-72312500D03*
X173537500Y-73112500D03*
X173537500Y-73912500D03*
X173537500Y-74712500D03*
X173537500Y-75512500D03*
D19*
X174900000Y-76875000D03*
X175700000Y-76875000D03*
X176500000Y-76875000D03*
X177300000Y-76875000D03*
X178100000Y-76875000D03*
X178900000Y-76875000D03*
X179700000Y-76875000D03*
X180500000Y-76875000D03*
D20*
X181862500Y-75512500D03*
X181862500Y-74712500D03*
X181862500Y-73912500D03*
X181862500Y-73112500D03*
X181862500Y-72312500D03*
X181862500Y-71512500D03*
X181862500Y-70712500D03*
X181862500Y-69912500D03*
%TD*%
D21*
%TO.C,C8*%
X175355000Y-62840000D03*
X176905000Y-62840000D03*
%TD*%
D16*
%TO.C,C7*%
X174000000Y-79250000D03*
X172450000Y-79250000D03*
%TD*%
D21*
%TO.C,C5*%
X177200000Y-80200000D03*
X178750000Y-80200000D03*
%TD*%
D17*
%TO.C,R2*%
X181450000Y-87375000D03*
X181450000Y-89025000D03*
%TD*%
D22*
%TO.C,C15*%
X191250000Y-54475000D03*
X191250000Y-56025000D03*
%TD*%
D21*
%TO.C,C2*%
X222400000Y-35100000D03*
X223950000Y-35100000D03*
%TD*%
D14*
%TO.C,J2*%
X177100000Y-58870000D03*
D15*
X174560000Y-58870000D03*
X172020000Y-58870000D03*
%TD*%
D14*
%TO.C,J1*%
X212450000Y-27675000D03*
D15*
X212450000Y-30215000D03*
%TD*%
M02*
